<svg xmlns="http://www.w3.org/2000/svg" xmlns:xlink="http://www.w3.org/1999/xlink" width="40" height="40" viewBox="0 0 40 40">
  <defs>
    <clipPath id="clip-add_camera_control">
      <rect width="40" height="40"/>
    </clipPath>
  </defs>
  <g id="add_camera_control" clip-path="url(#clip-add_camera_control)">
    <path id="合体_1" data-name="合体 1" d="M-292.536,30.777a7.612,7.612,0,0,1-2.173-1.737A19.709,19.709,0,0,1-298.238,23a19.692,19.692,0,0,1-1.423-6.853,7.608,7.608,0,0,1,.453-2.745,3.308,3.308,0,0,1,1.876-2,3.307,3.307,0,0,1,2.73.229,7.6,7.6,0,0,1,2.174,1.737,19.693,19.693,0,0,1,3.528,6.044,19.691,19.691,0,0,1,1.423,6.853,7.608,7.608,0,0,1-.453,2.745,3.308,3.308,0,0,1-1.876,2,2.952,2.952,0,0,1-1.061.194A3.734,3.734,0,0,1-292.536,30.777Zm-4.12-14.316a17.3,17.3,0,0,0,1.22,5.459,17.307,17.307,0,0,0,2.746,4.873c.98,1.154,1.638,1.4,1.807,1.407a3.6,3.6,0,0,0,.4-2.255,17.288,17.288,0,0,0-1.22-5.458,17.3,17.3,0,0,0-2.746-4.873c-.98-1.153-1.638-1.395-1.807-1.407A3.6,3.6,0,0,0-296.656,16.461Zm16.914,10.782-4.154-2.077c.94-1.008,1.587-1.7,1.731-1.864a5.039,5.039,0,0,0,.121-2.833,13.846,13.846,0,0,0-1.446-4.565c-1.615-2.94-3.832-4.36-5.21-4.433-.542-.03-1.843-.085-3.868-.166V6.9a2.638,2.638,0,0,1,1.7-2.462L-279.491.167A2.614,2.614,0,0,1-278.573,0a2.553,2.553,0,0,1,.925.173L-266.27,4.44a2.633,2.633,0,0,1,1.7,2.456V17.608a8.007,8.007,0,0,0-3.495-1.205V11.337l-8.753,3.555v8.144l.077-.039a8.089,8.089,0,0,0-.116,1.366,8.009,8.009,0,0,0,.374,2.423l-.914.456a2.615,2.615,0,0,1-1.173.279A2.616,2.616,0,0,1-279.742,27.243ZM-289.068,7.5v.06l10.5,4.267,10.5-4.267V7.5l-10.5-3.938Z" transform="translate(301.856 4.637)" fill="#fff"/>
    <path id="前面オブジェクトで型抜き_5" data-name="前面オブジェクトで型抜き 5" d="M-597.857,8.863a7.007,7.007,0,0,1-7-7,7.008,7.008,0,0,1,7-7,7.008,7.008,0,0,1,7,7A7.008,7.008,0,0,1-597.857,8.863Zm-3-8a1,1,0,0,0-1,1,1,1,0,0,0,1,1h2v2a1,1,0,0,0,1,1,1,1,0,0,0,1-1v-2h2a1,1,0,0,0,1-1,1,1,0,0,0-1-1h-2v-2a1,1,0,0,0-1-1,1,1,0,0,0-1,1v2Z" transform="translate(630.856 27.137)" fill="#ea7575"/>
  </g>
</svg>
