<svg xmlns="http://www.w3.org/2000/svg" xmlns:xlink="http://www.w3.org/1999/xlink" width="40" height="40" viewBox="0 0 40 40">
  <defs>
    <clipPath id="clip-BakeParent">
      <rect width="40" height="40"/>
    </clipPath>
  </defs>
  <g id="BakeParent" clip-path="url(#clip-BakeParent)">
    <path id="前面オブジェクトで型抜き_11" data-name="前面オブジェクトで型抜き 11" d="M-482.732,32.825h0c-2.765,0-4.993-1.156-5.96-3.092a6.481,6.481,0,0,1-.286-4.543,19.161,19.161,0,0,1,3.459-6.591,12.213,12.213,0,0,1,5.353,3.75c-.014-.042-1.481-4.414-3.518-5.626a.08.08,0,0,1,.016-.016,17.079,17.079,0,0,1,2.907-2.088c.142.109,3.4,2.666,4.54,5.407a10.05,10.05,0,0,0-.1-2.431,10.994,10.994,0,0,0-2.116-5.05l.009-.008a15.759,15.759,0,0,1,4.049-2.122,16.053,16.053,0,0,1,3.96,6.045,10.5,10.5,0,0,0-1.466-8.54.043.043,0,0,1,.01-.009,12.1,12.1,0,0,1,2.656-1.551h0l0,0a27.7,27.7,0,0,1,5.048,6.526,13.141,13.141,0,0,0-2.166-7.508A14.4,14.4,0,0,1-462.989,5c4.618,0,8.878,2.055,10.36,5,.986,1.959.67,4.125-.916,6.264-.2.269-.419.545-.653.823a2.119,2.119,0,0,0-.417-.041,2.5,2.5,0,0,0-1.739.755,3.182,3.182,0,0,0-.9,2.277v.02c-.379.324-.779.652-1.188.976a7.734,7.734,0,0,0-1.552-2.215l-.62-.62a8.572,8.572,0,0,0-2.8-1.87,8.578,8.578,0,0,0-3.3-.657h-.007a8.558,8.558,0,0,0-3.292.655,8.578,8.578,0,0,0-2.8,1.869l-.238.238a9.985,9.985,0,0,0-2.176,3.257,9.988,9.988,0,0,0-.764,3.843,9.988,9.988,0,0,0,.764,3.843,10.118,10.118,0,0,0,.555,1.135,31.892,31.892,0,0,1-6.224,2.106A10.283,10.283,0,0,1-482.732,32.825Zm12.566-4.4h0a5.053,5.053,0,0,1-.872-2.851,5.055,5.055,0,0,1,1.491-3.6l.238-.238a3.653,3.653,0,0,1,1.786-.986,2.458,2.458,0,0,0-.937.589l-.356.356a5.45,5.45,0,0,0-1.607,3.879,5.485,5.485,0,0,0,.673,2.638l-.244.126-.171.087Zm4.749-2.618h0l-.013-.03a.528.528,0,0,1-.04-.2.528.528,0,0,1,.04-.2.529.529,0,0,1,.116-.174l.355-.355a2.459,2.459,0,0,0,.724-1.75,2.462,2.462,0,0,0-.724-1.751,2.466,2.466,0,0,0-.927-.585,3.656,3.656,0,0,1,1.77.983l.621.621a2.791,2.791,0,0,1,.81,1.749c-.876.572-1.794,1.144-2.73,1.7Z" transform="translate(491.484 1.56)" fill="#fff"/>
    <path id="パス_1443" data-name="パス 1443" d="M11.773,3.4A8.983,8.983,0,0,0,5.929,5.653c.116-.109-3.11,3.1-3.315,3.3-1.631,1.631-4.271.1-2.087-2.087C.605,6.789,3.7,3.7,4.106,3.325A11.365,11.365,0,0,1,11.773.446,10.627,10.627,0,0,1,22.4,11.077v.846a9.041,9.041,0,0,1-9.041,9.041h-.336A7.623,7.623,0,0,1,5.4,13.339v-.877A6.746,6.746,0,0,1,12.14,5.716,4.989,4.989,0,0,1,17.129,10.7v.5a4.485,4.485,0,0,1-4.485,4.485h-.5a1.475,1.475,0,0,1,0-2.951h.5a1.534,1.534,0,0,0,1.534-1.534v-.5A2.037,2.037,0,0,0,12.14,8.665a3.795,3.795,0,0,0-3.791,3.8v.877a4.672,4.672,0,0,0,4.672,4.672h.336a6.091,6.091,0,0,0,6.091-6.091v-.846A7.676,7.676,0,0,0,11.773,3.4Z" transform="translate(43.411 26.12) rotate(135)" fill="#ea7575" fill-rule="evenodd"/>
  </g>
</svg>
