<svg xmlns="http://www.w3.org/2000/svg" xmlns:xlink="http://www.w3.org/1999/xlink" width="40" height="40" viewBox="0 0 40 40">
  <defs>
    <clipPath id="clip-ColorManager">
      <rect width="40" height="40"/>
    </clipPath>
  </defs>
  <g id="ColorManager" clip-path="url(#clip-ColorManager)">
    <path id="Icon_material-color-lens" data-name="Icon material-color-lens" d="M22.5,4.5a18,18,0,1,0,0,36,3,3,0,0,0,2.22-5.02,2.989,2.989,0,0,1,2.24-4.98H30.5a10,10,0,0,0,10-10C40.5,11.66,32.44,4.5,22.5,4.5Z" transform="translate(-2.5 -2.5)" fill="#fff"/>
    <path id="Icon_material-color-lens-2" data-name="Icon material-color-lens" d="M34.163,23.826a3.663,3.663,0,1,1,3.663-3.663A3.658,3.658,0,0,1,34.163,23.826Z" transform="translate(-3.826 -1.5)" fill="#2b7dd0"/>
    <path id="Icon_material-color-lens-3" data-name="Icon material-color-lens" d="M28.016,15.532a3.516,3.516,0,1,1,3.516-3.516A3.511,3.511,0,0,1,28.016,15.532Z" transform="translate(-2.532 -1.532)" fill="#5bce14"/>
    <path id="Icon_material-color-lens-4" data-name="Icon material-color-lens" d="M18.016,15.532a3.516,3.516,0,1,1,3.516-3.516A3.511,3.511,0,0,1,18.016,15.532Z" transform="translate(-3.5 -1.532)" fill="#ffce00"/>
    <path id="Icon_material-color-lens-5" data-name="Icon material-color-lens" d="M12.6,24.694a4.1,4.1,0,1,1,4.1-4.1A4.092,4.092,0,0,1,12.6,24.694Z" transform="translate(-3.5 -0.597)" fill="#e97d7d"/>
  </g>
</svg>
