<svg xmlns="http://www.w3.org/2000/svg" xmlns:xlink="http://www.w3.org/1999/xlink" width="40" height="40" viewBox="0 0 40 40">
  <defs>
    <clipPath id="clip-CompSetter">
      <rect width="40" height="40"/>
    </clipPath>
  </defs>
  <g id="CompSetter" clip-path="url(#clip-CompSetter)">
    <path id="前面オブジェクトで型抜き_36" data-name="前面オブジェクトで型抜き 36" d="M-1140,39.324h-20.492a3,3,0,0,1-3-3v-30a3,3,0,0,1,3-3h30a3,3,0,0,1,3,3V26.215h-.027a1.88,1.88,0,0,0-.937.251l-.5.287c-.168-.107-.343-.207-.519-.3v-.571a1.891,1.891,0,0,0-1.47-1.833,9.446,9.446,0,0,0-2.052-.224,9.441,9.441,0,0,0-2.048.223,1.889,1.889,0,0,0-1.473,1.834v.579c-.173.09-.346.19-.516.3l-.5-.288-.007,0a1.882,1.882,0,0,0-.934-.248,1.88,1.88,0,0,0-1.382.608,9.4,9.4,0,0,0-2.056,3.558,1.892,1.892,0,0,0,.857,2.187l.5.288c-.008.2-.008.4,0,.6l-.5.288a1.878,1.878,0,0,0-.862,2.168l.006.02a9.446,9.446,0,0,0,1.905,3.39Z" transform="translate(1165.491 -1.323)" fill="#fff" opacity="0.5"/>
    <path id="Icon_awesome-cog" data-name="Icon awesome-cog" d="M16.119,10.287,14.774,9.51a6.085,6.085,0,0,0,0-2.218l1.346-.777a.382.382,0,0,0,.174-.442,7.868,7.868,0,0,0-1.728-2.988.38.38,0,0,0-.468-.073l-1.346.777A5.962,5.962,0,0,0,10.831,2.68V1.129a.378.378,0,0,0-.3-.37,7.942,7.942,0,0,0-3.45,0,.378.378,0,0,0-.3.37V2.683A6.15,6.15,0,0,0,4.867,3.792L3.524,3.015a.375.375,0,0,0-.468.073A7.821,7.821,0,0,0,1.328,6.076a.378.378,0,0,0,.174.442L2.848,7.3a6.085,6.085,0,0,0,0,2.218L1.5,10.29a.382.382,0,0,0-.174.442,7.868,7.868,0,0,0,1.728,2.988.38.38,0,0,0,.468.073l1.346-.777a5.962,5.962,0,0,0,1.921,1.109v1.554a.378.378,0,0,0,.3.37,7.942,7.942,0,0,0,3.45,0,.378.378,0,0,0,.3-.37V14.125a6.15,6.15,0,0,0,1.921-1.109l1.346.777a.375.375,0,0,0,.468-.073A7.821,7.821,0,0,0,16.3,10.732a.39.39,0,0,0-.177-.445Zm-7.31.641A2.527,2.527,0,1,1,11.336,8.4,2.531,2.531,0,0,1,8.809,10.928Z" transform="translate(23.689 23.431)" fill="#ea7575"/>
    <path id="前面オブジェクトで型抜き_39" data-name="前面オブジェクトで型抜き 39" d="M-1202.921,27h-.157a6.746,6.746,0,0,1-6.739-6.738,6.747,6.747,0,0,1,6.739-6.739h.157a6.7,6.7,0,0,1,3.848,1.205,6.729,6.729,0,0,1,2.435,3.091,9.413,9.413,0,0,0-1.777,3.242,1.894,1.894,0,0,0,.856,2.187l.5.288,0,.057a6.774,6.774,0,0,1-.617.9,1.88,1.88,0,0,0-.581.631A6.708,6.708,0,0,1-1202.921,27Zm9.383-9.565h0l-.5-.288-.007,0a1.891,1.891,0,0,0-.934-.248,1.867,1.867,0,0,0-.218.013,7,7,0,0,0-6.623-4.732H-1203V7.783a1,1,0,0,1,1-1h13a1,1,0,0,1,1,1V14.62a9.495,9.495,0,0,0-1.5-.119,9.412,9.412,0,0,0-2.048.224,1.89,1.89,0,0,0-1.474,1.834v.578c-.177.094-.35.194-.514.3Zm-16.989-1.217H-1218L-1197.545-4V5.435h-4.818a2,2,0,0,0-2,2v4.742a6.97,6.97,0,0,0-3.7,1.17,7.021,7.021,0,0,0-2.467,2.87Z" transform="translate(1222 8)" fill="#fff"/>
  </g>
</svg>
