<svg xmlns="http://www.w3.org/2000/svg" xmlns:xlink="http://www.w3.org/1999/xlink" width="40" height="40" viewBox="0 0 40 40">
  <defs>
    <clipPath id="clip-copy_hex">
      <rect width="40" height="40"/>
    </clipPath>
  </defs>
  <g id="copy_hex" clip-path="url(#clip-copy_hex)">
    <path id="前面オブジェクトで型抜き_17" data-name="前面オブジェクトで型抜き 17" d="M-696.242,27.794h-23.527c.08-.071.164-.15.25-.236l4.764-4.764h18.514a2.5,2.5,0,0,1,2.5,2.5A2.5,2.5,0,0,1-696.242,27.794Zm-31.591-.07h0a2.492,2.492,0,0,1-1.906-2.428,2.5,2.5,0,0,1,.109-.734,5.977,5.977,0,0,0,1.628,3c.055.055.112.11.169.163Z" transform="translate(731.742 9.206)" fill="#fff" opacity="0.5"/>
    <path id="前面オブジェクトで型抜き_18" data-name="前面オブジェクトで型抜き 18" d="M-696.191,20.725c-.252,0-.511-.011-.77-.033s-.564-.061-.924-.121l-1.892-8.184,3.806-7.612a11.593,11.593,0,0,1,1.716-.132c.283,0,.575.008.868.023s.593.043.891.087l-4.07,7.5,2.134,8.338c-.354.046-.659.078-.935.1S-695.925,20.725-696.191,20.725Zm-9.658,0c-.267,0-.533-.011-.792-.033s-.549-.054-.88-.1l3.2-5.931,2.275-2.275-1.329-1.329-1.174-6.305c.317-.044.624-.073.913-.087s.586-.023.869-.023.54.011.77.033.484.054.77.1l1.3,7.612-3.982,8.184c-.385.059-.744.1-1.067.121S-705.6,20.725-705.849,20.725Zm-23.056,0a9.632,9.632,0,0,1-1.584-.132l2.772-15.8a9.021,9.021,0,0,1,1.628-.154c.252,0,.514.011.78.033a6.58,6.58,0,0,1,.825.121l-1.078,6.182h4.774l1.078-6.182a7.291,7.291,0,0,1,.847-.121c.266-.022.529-.033.78-.033s.519.011.792.033a5.862,5.862,0,0,1,.814.121l-1.074,6.12-3.935,3.935.191-1.1h-4.774l-1.188,6.842A11.5,11.5,0,0,1-728.906,20.725Zm20.812-.132h-2.161l2.628-2.628c0,.019,0,.039.007.065a1.19,1.19,0,0,1,.011.165,4.945,4.945,0,0,1-.143,1.177c-.1.391-.211.8-.341,1.22Zm-6.631-12.5v0l.581-3.314h2.736l-3.315,3.315Zm8.765-.589h-.972l-2.728-2.728h4.184a1.446,1.446,0,0,0,.011.175,1.292,1.292,0,0,1,.012.176,5.381,5.381,0,0,1-.132,1.166A8.118,8.118,0,0,1-705.96,7.5Z" transform="translate(731.242 7.407)" fill="#ea7575"/>
    <path id="交差_1" data-name="交差 1" d="M-722.481,20.593l1-5.741,3.935-3.935-1.7,9.676a10.838,10.838,0,0,1-1.65.132A9.59,9.59,0,0,1-722.481,20.593Zm5.566,0,2.191-12.5,3.317-3.317h1.748l2.728,2.728h-4.484l-.594,3.432h4.334a8.58,8.58,0,0,1-.484,2.75h-4.334l-.748,4.18h5.611c0,.035,0,.068,0,.1l-2.628,2.628Zm13.794-8.161-.256-1.374,1.329,1.329-2.275,2.275Z" transform="translate(731.242 7.407)" fill="#ea7575" opacity="0.5"/>
    <g id="グループ_353" data-name="グループ 353" transform="translate(15.051 -11.32) rotate(45)">
      <path id="前面オブジェクトで型抜き_19" data-name="前面オブジェクトで型抜き 19" d="M-708.555,30.253a6.007,6.007,0,0,1-6-6v-24h12v24A6.006,6.006,0,0,1-708.555,30.253Zm-3-26v20a3,3,0,0,0,3,3,3,3,0,0,0,3-3v-20Z" transform="translate(734.555 11.747)" fill="#fff"/>
      <path id="合体_11" data-name="合体 11" d="M-733,14a3,3,0,0,1-3-3,3,3,0,0,1,3-3h1V2a6,6,0,0,1,6-6,6,6,0,0,1,6,6V8h1a3,3,0,0,1,3,3,3,3,0,0,1-3,3Z" transform="translate(752)" fill="#fff"/>
    </g>
  </g>
</svg>
