<svg xmlns="http://www.w3.org/2000/svg" xmlns:xlink="http://www.w3.org/1999/xlink" width="40" height="40" viewBox="0 0 40 40">
  <defs>
    <clipPath id="clip-copypasteStyle">
      <rect width="40" height="40"/>
    </clipPath>
  </defs>
  <g id="copypasteStyle" clip-path="url(#clip-copypasteStyle)">
    <path id="前面オブジェクトで型抜き_17" data-name="前面オブジェクトで型抜き 17" d="M-696.242,27.794h-23.527c.08-.071.164-.15.25-.236l4.764-4.764h18.514a2.5,2.5,0,0,1,2.5,2.5A2.5,2.5,0,0,1-696.242,27.794Zm-31.591-.07h0a2.492,2.492,0,0,1-1.906-2.428,2.5,2.5,0,0,1,.109-.734,5.977,5.977,0,0,0,1.628,3c.055.055.112.11.169.163Z" transform="translate(731.742 9.206)" fill="#fff" opacity="0.5"/>
    <path id="前面オブジェクトで型抜き_18" data-name="前面オブジェクトで型抜き 18" d="M-702.824,20.725c-.248,0-.5-.007-.76-.022a5.424,5.424,0,0,1-.8-.111l.99-5.654-.266-.938,1.614-1.614-2.892-2.892-.928-3.275a10.55,10.55,0,0,1-.344,1.283h-.719l-2.728-2.728h3.381a12.965,12.965,0,0,1,1.782-.132c.268,0,.535.008.792.023a5.4,5.4,0,0,1,.814.11l1.695,7.018,4.07-7.018c.3-.045.592-.074.88-.088s.587-.022.879-.022c.248,0,.519.007.8.022a8.042,8.042,0,0,1,.847.088l-6.447,10.164-.99,5.654a6.56,6.56,0,0,1-.868.111C-702.292,20.718-702.562,20.725-702.824,20.725Zm-24.448-.086h0a11.718,11.718,0,0,1-1.886-.552,6.911,6.911,0,0,1,.319-1.331c.152-.441.34-.911.561-1.4a17.155,17.155,0,0,0,1.706.528,6.881,6.881,0,0,0,1.683.22l.152,0-2.534,2.534Zm5.479-5.479h0a1.331,1.331,0,0,0-.105-.22,2.433,2.433,0,0,0-.506-.594,4.354,4.354,0,0,0-.726-.495c-.285-.158-.566-.324-.835-.495a10.013,10.013,0,0,1-2.234-1.727,3,3,0,0,1-.824-2.1,5.186,5.186,0,0,1,.418-2.123,4.311,4.311,0,0,1,1.188-1.573,5.457,5.457,0,0,1,1.859-.979,8.244,8.244,0,0,1,2.453-.34,10.884,10.884,0,0,1,2.091.175,11.328,11.328,0,0,1,1.848.55,7.426,7.426,0,0,1-.308,1.255,6.174,6.174,0,0,1-.616,1.3,8.575,8.575,0,0,0-1.309-.506,6.366,6.366,0,0,0-1.75-.2,5.874,5.874,0,0,0-.847.066,2.586,2.586,0,0,0-.814.253,1.716,1.716,0,0,0-.6.517,1.422,1.422,0,0,0-.242.859,1.589,1.589,0,0,0,.539,1.232,8.274,8.274,0,0,0,1.374.967c.5.28.968.561,1.386.836a7.13,7.13,0,0,1,1.065.846l-2.5,2.5Zm7.657-7.657h-2.791a7.688,7.688,0,0,1,.121-1.353,9.313,9.313,0,0,1,.364-1.375h5.035L-714.135,7.5Z" transform="translate(731.242 7.407)" fill="#ea7575"/>
    <path id="交差_1" data-name="交差 1" d="M-727.272,20.639l2.534-2.534a4.832,4.832,0,0,0,1.112-.152,3.059,3.059,0,0,0,1.012-.462,2.24,2.24,0,0,0,.671-.748,2.106,2.106,0,0,0,.242-1.034,1.572,1.572,0,0,0-.092-.549l2.5-2.5.057.056a3.678,3.678,0,0,1,.759,1.089,3.342,3.342,0,0,1,.275,1.4,5.842,5.842,0,0,1-.407,2.155,4.784,4.784,0,0,1-1.255,1.8,6.261,6.261,0,0,1-2.145,1.231,9.179,9.179,0,0,1-3.08.463A11.012,11.012,0,0,1-727.272,20.639Zm11.8-.046,2.288-13.09h-.949l2.728-2.728h1.748l2.728,2.728h-3.02l-2.289,13.09a11.441,11.441,0,0,1-1.65.132A9.6,9.6,0,0,1-715.475,20.593Zm10.534-11.1,2.892,2.892L-703.663,14Z" transform="translate(731.242 7.407)" fill="#ea7575" opacity="0.5"/>
    <g id="グループ_353" data-name="グループ 353" transform="translate(15.051 -11.32) rotate(45)">
      <path id="前面オブジェクトで型抜き_19" data-name="前面オブジェクトで型抜き 19" d="M-708.555,30.253a6.007,6.007,0,0,1-6-6v-24h12v24A6.006,6.006,0,0,1-708.555,30.253Zm-3-26v20a3,3,0,0,0,3,3,3,3,0,0,0,3-3v-20Z" transform="translate(734.555 11.747)" fill="#fff"/>
      <path id="合体_11" data-name="合体 11" d="M-733,14a3,3,0,0,1-3-3,3,3,0,0,1,3-3h1V2a6,6,0,0,1,6-6,6,6,0,0,1,6,6V8h1a3,3,0,0,1,3,3,3,3,0,0,1-3,3Z" transform="translate(752)" fill="#fff"/>
    </g>
  </g>
</svg>
