<svg xmlns="http://www.w3.org/2000/svg" xmlns:xlink="http://www.w3.org/1999/xlink" width="40" height="40" viewBox="0 0 40 40">
  <defs>
    <clipPath id="clip-cycle_background">
      <rect width="40" height="40"/>
    </clipPath>
  </defs>
  <g id="cycle_background" clip-path="url(#clip-cycle_background)">
    <g id="Icon_material-format-color-fill" data-name="Icon material-format-color-fill" transform="translate(-2 -1.801)">
      <rect id="長方形_129" data-name="長方形 129" width="36" height="36" rx="4" transform="translate(4 3.801)" fill="none" stroke="rgba(0,0,0,0)" stroke-miterlimit="10" stroke-width="1" opacity="0.5"/>
      <path id="パス_1437" data-name="パス 1437" d="M30.653,17.241,13.411,0,10.692,2.719l4.59,4.59L5.35,17.241a2.875,2.875,0,0,0,0,4.089L15.957,31.937a2.887,2.887,0,0,0,4.089,0L30.653,21.33A2.875,2.875,0,0,0,30.653,17.241ZM8.763,19.286,18,10.048l9.238,9.238Zm26.6,2.893S31.5,26.364,31.5,28.929a3.857,3.857,0,1,0,7.714,0C39.215,26.364,35.358,22.179,35.358,22.179Z" transform="translate(0.142 5.408)" fill="#fff"/>
      <path id="パス_1439" data-name="パス 1439" d="M7.815,7.815l9.238,9.238,9.238-9.238Z" transform="translate(1.09 16.814)" fill="#ea7575"/>
      <path id="パス_1438" data-name="パス 1438" d="M29.357,17.25S25.5,21.435,25.5,24a3.857,3.857,0,1,0,7.714,0C33.214,21.435,29.357,17.25,29.357,17.25Z" transform="translate(6.143 10.337)" fill="#ea7575"/>
    </g>
    <path id="Icon_awesome-recycle" data-name="Icon awesome-recycle" d="M5.047,7.161a.438.438,0,0,1-.658.469l-1.114-.7L1.884,9.161A.877.877,0,0,0,2.625,10.5H4.047a.328.328,0,0,1,.328.328v1.094a.328.328,0,0,1-.328.328H2.628A2.627,2.627,0,0,1,.4,8.234l1.39-2.225-1.114-.7a.438.438,0,0,1,.133-.8l3.014-.7a.437.437,0,0,1,.525.328l.7,3.014Zm2.7-5L8.871,3.967l-1.114.7a.438.438,0,0,0,.133.8l3.014.7a.437.437,0,0,0,.525-.328l.7-3.014a.438.438,0,0,0-.658-.469l-1.113.7L9.226,1.233a2.626,2.626,0,0,0-4.452,0l-.491.787a.328.328,0,0,0,.1.452l.927.58a.328.328,0,0,0,.452-.1l.491-.786A.876.876,0,0,1,7.742,2.16ZM13.6,8.234l-.752-1.2a.328.328,0,0,0-.452-.1l-.926.579a.328.328,0,0,0-.1.452l.754,1.206a.876.876,0,0,1-.742,1.339H8.75V9.188A.438.438,0,0,0,8,8.879L5.816,11.066a.437.437,0,0,0,0,.619L8,13.872a.438.438,0,0,0,.747-.309V12.25h2.622A2.627,2.627,0,0,0,13.6,8.234Z" transform="translate(24 2)" fill="#fff" opacity="0.5"/>
  </g>
</svg>
