<svg xmlns="http://www.w3.org/2000/svg" xmlns:xlink="http://www.w3.org/1999/xlink" width="40" height="40" viewBox="0 0 40 40">
  <defs>
    <clipPath id="clip-delete_selected_effects">
      <rect width="40" height="40"/>
    </clipPath>
  </defs>
  <g id="delete_selected_effects" data-name="delete selected effects" clip-path="url(#clip-delete_selected_effects)">
    <path id="前面オブジェクトで型抜き_3" data-name="前面オブジェクトで型抜き 3" d="M-1398.641-3474.192a9.79,9.79,0,0,1-2.912-.448,8.143,8.143,0,0,1,1.057-3.456,4.853,4.853,0,0,0,.784.208,3.953,3.953,0,0,0,.688.08,3.754,3.754,0,0,0,1.152-.175,2.314,2.314,0,0,0,1.008-.7,5.005,5.005,0,0,0,.833-1.456,12.528,12.528,0,0,0,.624-2.432l1.9-10.632,3.776,3.776-1.3,7.272a15.784,15.784,0,0,1-1.136,3.872,8.1,8.1,0,0,1-1.68,2.448,5.433,5.433,0,0,1-2.176,1.28A9.073,9.073,0,0,1-1398.641-3474.192Zm25.824-7.617a12.931,12.931,0,0,1-2.24-.192l-1.7-8.512,2.975-5.024a4.812,4.812,0,0,0,.672-1.648,11.944,11.944,0,0,0,.16-1.391,8.014,8.014,0,0,1,1.392-.16h.912c.353,0,.692.01,1.008.031a10.668,10.668,0,0,1,1.072.129,9.772,9.772,0,0,1-.144,1.5,5.352,5.352,0,0,1-.848,1.984l-2.88,4.384,2.016,8.7A16.754,16.754,0,0,1-1372.817-3481.809Zm-11.04-.031c-.3,0-.6-.005-.9-.016a11.908,11.908,0,0,1-1.28-.144,5.229,5.229,0,0,1,.32-1.407,8.188,8.188,0,0,1,.681-1.327l2.828,2.828c-.251.029-.478.046-.676.051C-1383.293-3481.845-1383.621-3481.84-1383.857-3481.84Zm3.855-3.522h0l-2.808-2.808,1.515-2.341-1.856-8.031a13.309,13.309,0,0,1,2.3-.192,10.376,10.376,0,0,1,1.072.048c.317.033.678.082,1.072.144l1.728,8.031-3.025,5.149Zm-8.871-8.871h0l-4.309-4.31h.623l.064-.257a9.26,9.26,0,0,1,2.464-5.279,6.843,6.843,0,0,1,4.832-1.7,12.686,12.686,0,0,1,1.648.1,9.179,9.179,0,0,1,1.456.321,16.052,16.052,0,0,1-.512,1.888,11.318,11.318,0,0,1-.736,1.663,8,8,0,0,0-.832-.208,4.761,4.761,0,0,0-.9-.08,3.533,3.533,0,0,0-1.04.144,2.114,2.114,0,0,0-.833.5,2.989,2.989,0,0,0-.64.993,8.313,8.313,0,0,0-.464,1.632l-.065.288h3.488a10.668,10.668,0,0,1-.128,1.712,9.681,9.681,0,0,1-.481,1.744h-3.487l-.152.853Z" transform="translate(1404.969 3511)" fill="#fff" stroke="rgba(0,0,0,0)" stroke-miterlimit="10" stroke-width="1"/>
    <rect id="長方形_127" data-name="長方形 127" width="4" height="44" rx="1" transform="translate(4.09 5.419) rotate(-45)" fill="#ea7575"/>
  </g>
</svg>
