<svg xmlns="http://www.w3.org/2000/svg" xmlns:xlink="http://www.w3.org/1999/xlink" width="40" height="40" viewBox="0 0 40 40">
  <defs>
    <clipPath id="clip-Ex_Manager">
      <rect width="40" height="40"/>
    </clipPath>
  </defs>
  <g id="Ex_Manager" data-name="Ex Manager" clip-path="url(#clip-Ex_Manager)">
    <path id="前面オブジェクトで型抜き_6" data-name="前面オブジェクトで型抜き 6" d="M-328.283,27H-346.5a3.5,3.5,0,0,1-3.5-3.5l.018-21A3.5,3.5,0,0,1-346.5-1H-336l3.5,3.5h15A3.5,3.5,0,0,1-314,6V16.892h-.027a1.872,1.872,0,0,0-.937.251l-.5.287c-.168-.107-.343-.207-.519-.3v-.572a1.889,1.889,0,0,0-1.47-1.833A9.419,9.419,0,0,0-319.5,14.5a9.413,9.413,0,0,0-2.048.224,1.889,1.889,0,0,0-1.473,1.834v.217l-.638-2.493,4.255-7.843a9.172,9.172,0,0,0-.932-.093c-.306-.015-.612-.023-.909-.023a12.178,12.178,0,0,0-1.794.138l-3.979,7.958.7,3.038-.028.029-.015.016a9.383,9.383,0,0,0-2.056,3.558,1.891,1.891,0,0,0,.857,2.186l.5.289c-.007.2-.007.4,0,.6l-.5.289a1.876,1.876,0,0,0-.862,2.167l.006.021c.04.129.084.26.131.389Zm-1.865-20.675c-.3,0-.6.008-.908.023s-.637.047-.955.093l1.5,8.026-4.6,8.534c.322.044.632.079.921.1s.556.034.828.034c.255,0,.56-.012.908-.034s.72-.066,1.116-.127l4.163-8.556-1.357-7.958c-.279-.044-.55-.079-.8-.1S-329.861,6.325-330.148,6.325Zm-11.891.138h0L-344.937,23h9.223c.137-.443.257-.873.356-1.277a5.153,5.153,0,0,0,.149-1.23,1.155,1.155,0,0,0-.012-.173,1.292,1.292,0,0,1-.011-.172H-341.1l.782-4.37h4.531a8.991,8.991,0,0,0,.507-2.875h-4.531l.621-3.588h5.7a8.573,8.573,0,0,0,.391-1.265,5.593,5.593,0,0,0,.139-1.219,1.567,1.567,0,0,0-.012-.184,1.411,1.411,0,0,1-.012-.184Z" transform="translate(352 6)" fill="#fff"/>
    <path id="Icon_awesome-cog" data-name="Icon awesome-cog" d="M16.119,10.287,14.774,9.51a6.085,6.085,0,0,0,0-2.218l1.346-.777a.382.382,0,0,0,.174-.442,7.868,7.868,0,0,0-1.728-2.988.38.38,0,0,0-.468-.073l-1.346.777A5.962,5.962,0,0,0,10.831,2.68V1.129a.378.378,0,0,0-.3-.37,7.942,7.942,0,0,0-3.45,0,.378.378,0,0,0-.3.37V2.683A6.15,6.15,0,0,0,4.867,3.792L3.524,3.015a.375.375,0,0,0-.468.073A7.821,7.821,0,0,0,1.328,6.076a.378.378,0,0,0,.174.442L2.848,7.3a6.085,6.085,0,0,0,0,2.218L1.5,10.29a.382.382,0,0,0-.174.442,7.868,7.868,0,0,0,1.728,2.988.38.38,0,0,0,.468.073l1.346-.777a5.962,5.962,0,0,0,1.921,1.109v1.554a.378.378,0,0,0,.3.37,7.942,7.942,0,0,0,3.45,0,.378.378,0,0,0,.3-.37V14.125a6.15,6.15,0,0,0,1.921-1.109l1.346.777a.375.375,0,0,0,.468-.073A7.821,7.821,0,0,0,16.3,10.732a.39.39,0,0,0-.177-.445Zm-7.31.641A2.527,2.527,0,1,1,11.336,8.4,2.531,2.531,0,0,1,8.809,10.928Z" transform="translate(23.689 21.431)" fill="#ea7575"/>
  </g>
</svg>
