<svg xmlns="http://www.w3.org/2000/svg" xmlns:xlink="http://www.w3.org/1999/xlink" width="40" height="40" viewBox="0 0 40 40">
  <defs>
    <clipPath id="clip-LayerTools">
      <rect width="40" height="40"/>
    </clipPath>
  </defs>
  <g id="LayerTools" clip-path="url(#clip-LayerTools)">
    <path id="前面オブジェクトで型抜き_13" data-name="前面オブジェクトで型抜き 13" d="M-575.734,11H-587a3,3,0,0,1-3-3V3a3,3,0,0,1,3-3h32a3,3,0,0,1,3,3V8a3,3,0,0,1-3,3h-10.645l-5.476-3.866a2.99,2.99,0,0,0-.953-.447,3.006,3.006,0,0,0-.777-.1,3,3,0,0,0-1.5.4,3.007,3.007,0,0,0-1.488,2.871l.1,1.143Z" transform="translate(591 4)" fill="#fff"/>
    <path id="前面オブジェクトで型抜き_14" data-name="前面オブジェクトで型抜き 14" d="M-563,29h-7.564l3.347-5.072a3.81,3.81,0,0,1,2.936-1.695l2.085-.125A3.009,3.009,0,0,1-560,25v1A3,3,0,0,1-563,29Zm-13.7,0H-585a3,3,0,0,1-3-3V25a3,3,0,0,1,3-3h7.637l.61,6.675A3.034,3.034,0,0,0-576.7,29Zm5.828-10h-.735l-.66-7.216,6.507,4.594A9.808,9.808,0,0,0-570.876,19Zm-6.76,0H-587a3,3,0,0,1-3-3V13a3,3,0,0,1,3-3h8.54l.823,9ZM-558,14.515h0L-564.4,10h3.4a3,3,0,0,1,3,3v1.516Z" transform="translate(594 8)" fill="#fff" opacity="0.5"/>
    <path id="パス_1445" data-name="パス 1445" d="M-676.877,26.11a1.5,1.5,0,0,1-1.128-1.319l-2.087-22.818a1.5,1.5,0,0,1,.744-1.436,1.5,1.5,0,0,1,1.138-.15,1.486,1.486,0,0,1,.476.224l18.718,13.216a1.5,1.5,0,0,1,.577,1.636,1.5,1.5,0,0,1-1.353,1.086l-7.327.44a5.316,5.316,0,0,0-4.1,2.365l-4.045,6.126a1.5,1.5,0,0,1-1.252.673A1.505,1.505,0,0,1-676.877,26.11Z" transform="translate(696.747 11.747)" fill="#ea7575"/>
  </g>
</svg>
