<svg xmlns="http://www.w3.org/2000/svg" xmlns:xlink="http://www.w3.org/1999/xlink" width="40" height="40" viewBox="0 0 40 40">
  <defs>
    <clipPath id="clip-layer_transform">
      <rect width="40" height="40"/>
    </clipPath>
  </defs>
  <g id="layer_transform" data-name="layer transform" clip-path="url(#clip-layer_transform)">
    <path id="Icon_material-crop-rotate" data-name="Icon material-crop-rotate" d="M11.581,33.316A16.327,16.327,0,0,1,2.325,20.154H0A18.594,18.594,0,0,0,18.526,37.207c.357,0,.682-.031,1.023-.047l-5.907-5.922ZM18.681,0c-.357,0-.682.031-1.023.062l5.907,5.907,2.062-2.062a16.28,16.28,0,0,1,9.255,13.146h2.325A18.594,18.594,0,0,0,18.681,0Z" transform="translate(1.397 1.397)" fill="#ea7575" stroke="#ea7575" stroke-width="1.25"/>
    <path id="Icon_feather-move" data-name="Icon feather-move" d="M6.6,11.4,3,15l3.6,3.6m4.8-12L15,3l3.6,3.6m0,16.8L15,27l-3.6-3.6m12-12L27,15l-3.6,3.6M3,15H27M15,3V27" transform="translate(5.5 5.5)" fill="none" stroke="#fff" stroke-linejoin="round" stroke-width="3"/>
  </g>
</svg>
