<svg width="16" height="16" viewBox="0 0 16 16" fill="none" xmlns="http://www.w3.org/2000/svg">
<g clip-path="url(#clip0_342_8707)">
<circle opacity="0.5" cx="7" cy="7" r="7" transform="matrix(-1 0 0 1 15 1)" fill="white"/>
<path d="M12.4756 11.768C11.7238 12.1084 10.9081 12.2847 10.0828 12.2852C6.85882 12.2855 4.24462 9.67125 4.24486 6.44575C4.24252 5.08462 4.71813 3.76588 5.58872 2.71958C3.55809 3.63355 2.14221 5.67111 2.14221 8.04204C2.14221 11.2668 4.75642 13.881 7.98118 13.881C9.78908 13.8818 11.4044 13.0589 12.4756 11.768Z" fill="white"/>
<path d="M9.96561 5.38235C10.4486 6.21973 11.3499 6.60385 11.9772 6.2416C12.6055 5.87935 12.7219 4.90723 12.2397 4.06985C11.7559 3.23248 10.8555 2.84835 10.2272 3.2106C9.59986 3.57285 9.48261 4.54498 9.96561 5.38235Z" fill="white"/>
</g>
<defs>
<clipPath id="clip0_342_8707">
<rect width="16" height="16" fill="white"/>
</clipPath>
</defs>
</svg>
