<svg xmlns="http://www.w3.org/2000/svg" xmlns:xlink="http://www.w3.org/1999/xlink" width="40" height="40" viewBox="0 0 40 40">
  <defs>
    <clipPath id="clip-MovePositonKey">
      <rect width="40" height="40"/>
    </clipPath>
  </defs>
  <g id="MovePositonKey" clip-path="url(#clip-MovePositonKey)">
    <path id="前面オブジェクトで型抜き_20" data-name="前面オブジェクトで型抜き 20" d="M-846.534,32.848a4.889,4.889,0,0,1-3.312-1.3,4.9,4.9,0,0,1-1.563-3.2c-.009-.1-.014-.213-.016-.343l-3.731-1.243v2.455a.547.547,0,0,1-.547.546h-9.842a.547.547,0,0,1-.547-.546V26.771l-3.73,1.243A4.892,4.892,0,0,1-871,31.129a4.872,4.872,0,0,1-3.318,1.7c-.146.011-.286.017-.417.017a4.921,4.921,0,0,1-4.439-2.842,4.913,4.913,0,0,1,.7-5.222,4.894,4.894,0,0,1,3.745-1.738,4.9,4.9,0,0,1,3.162,1.158,5.047,5.047,0,0,1,.492.478l2.2-.734a13.635,13.635,0,0,1-3.019-2.461,15.886,15.886,0,0,1-3.977-9.553h-3.218a.547.547,0,0,1-.547-.546V1.547A.548.548,0,0,1-879.077,1h9.841a.547.547,0,0,1,.546.547v9.842a.547.547,0,0,1-.546.546h-3.055a14.245,14.245,0,0,0,.721,3.29q-.016.055-.029.111a3.039,3.039,0,0,0-.089.726v.008a3.05,3.05,0,0,0,.089.726,2.852,2.852,0,0,0,.136.418,2.985,2.985,0,0,0,.651.973c.039.04.084.082.14.131l2.283,2.283a2.979,2.979,0,0,0,2.12.879c.078,0,.156,0,.234-.009,0,.058-.008.144-.008.234v.008a2.983,2.983,0,0,0,.878,2.121l2.419,2.418a2.96,2.96,0,0,0,.973.651,2.7,2.7,0,0,0,.391.128,3,3,0,0,0,.753.1h.007a3.033,3.033,0,0,0,.758-.1,2.913,2.913,0,0,0,.387-.128,2.948,2.948,0,0,0,.973-.651l0,0,.011-.011.007-.007.007-.007.006-.006.012-.012,0,0,0,0,.024-.026.022-.024.024-.026,2.29-2.291a3,3,0,0,0,.869-2.355c.072.006.149.009.236.009h.007a2.976,2.976,0,0,0,2.12-.878l2.419-2.418a2.985,2.985,0,0,0,.651-.973,2.745,2.745,0,0,0,.135-.418,3.014,3.014,0,0,0,.09-.727v-.008a3.014,3.014,0,0,0-.09-.727q-.013-.055-.028-.11a14.217,14.217,0,0,0,.72-3.291h-3.054a.547.547,0,0,1-.547-.546V1.547A.548.548,0,0,1-852.013,1h9.841a.548.548,0,0,1,.547.547v9.842a.547.547,0,0,1-.547.546h-3.218a15.888,15.888,0,0,1-3.977,9.554,13.623,13.623,0,0,1-3.017,2.46l2.2.734a4.907,4.907,0,0,1,3.657-1.636,4.864,4.864,0,0,1,2.086.467,4.908,4.908,0,0,1,2.736,5.3,4.907,4.907,0,0,1-4.414,4.015C-846.265,32.843-846.4,32.848-846.534,32.848Zm.01-6.248a1.014,1.014,0,0,0-.115.005,1.339,1.339,0,0,0-.908.464l-.005.007a1.341,1.341,0,0,0-.044,1.689,1.34,1.34,0,0,0,1.072.53,1.34,1.34,0,0,0,.566-.125,1.337,1.337,0,0,0,.749-1.511A1.338,1.338,0,0,0-846.524,26.6Zm-28.2,0a1.04,1.04,0,0,0-.116.005,1.338,1.338,0,0,0-.914.472,1.349,1.349,0,0,0,.158,1.9,1.347,1.347,0,0,0,.868.318,1.343,1.343,0,0,0,1.03-.477,1.351,1.351,0,0,0,.193-1.436A1.35,1.35,0,0,0-874.721,26.6Zm25.716-22.046V8.381h3.826V4.554Zm-27.065,0V8.381h3.827V4.554Z" transform="translate(880.624 3.076)" fill="#fff"/>
    <path id="Icon_feather-move" data-name="Icon feather-move" d="M5.419,8.644,3,11.062l2.419,2.419M8.644,5.419,11.062,3l2.419,2.419m0,11.287-2.419,2.419L8.644,16.706m8.062-8.062,2.419,2.419-2.419,2.419M3,11.062H19.125M11.062,3V19.125" transform="translate(8.938 8.076)" fill="none" stroke="#ea7575" stroke-linejoin="round" stroke-width="2"/>
  </g>
</svg>
