<svg xmlns="http://www.w3.org/2000/svg" xmlns:xlink="http://www.w3.org/1999/xlink" width="40" height="40" viewBox="0 0 40 40">
  <defs>
    <clipPath id="clip-ParentTools">
      <rect width="40" height="40"/>
    </clipPath>
  </defs>
  <g id="ParentTools" clip-path="url(#clip-ParentTools)">
    <path id="パス_1443" data-name="パス 1443" d="M25.652,26.3a14.569,14.569,0,0,0,4.114-9.289c-.007.258.016-7.116.016-7.587,0-3.74,4.786-5.009,4.786,0,0,.18,0,7.266-.042,8.167a18.431,18.431,0,0,1-5.49,12.093,17.234,17.234,0,0,1-24.373-.009l-.97-.97a14.663,14.663,0,0,1,0-20.737l.386-.386a12.363,12.363,0,0,1,17.484,0L22.568,8.59a10.94,10.94,0,0,1,0,15.469,8.091,8.091,0,0,1-11.442,0l-.575-.575a7.274,7.274,0,0,1,0-10.287l.578-.578A2.393,2.393,0,0,1,14.514,16l-.575.575a2.488,2.488,0,0,0,0,3.519l.578.578a3.3,3.3,0,0,0,4.672,0,6.154,6.154,0,0,0-.007-8.7L18.175,10.97a7.577,7.577,0,0,0-10.716,0l-.386.386a9.877,9.877,0,0,0,0,13.969l.97.97a12.449,12.449,0,0,0,17.608,0Z" transform="translate(2.602 1.039)" fill="#fff" fill-rule="evenodd"/>
  </g>
</svg>
