<svg xmlns="http://www.w3.org/2000/svg" xmlns:xlink="http://www.w3.org/1999/xlink" width="40" height="40" viewBox="0 0 40 40">
  <defs>
    <clipPath id="clip-particleSystem">
      <rect width="40" height="40"/>
    </clipPath>
  </defs>
  <g id="particleSystem" clip-path="url(#clip-particleSystem)">
    <path id="前面オブジェクトで型抜き_33" data-name="前面オブジェクトで型抜き 33" d="M-971.773,10.665h0A5.978,5.978,0,0,1-974,6a6.007,6.007,0,0,1,6-6,5.974,5.974,0,0,1,4.122,1.64,12.024,12.024,0,0,0-7.895,9.023Z" transform="translate(977 3)" fill="#fff" opacity="0.5"/>
    <rect id="長方形_193" data-name="長方形 193" width="8" height="8" rx="4" transform="translate(3 28)" fill="#fff"/>
    <rect id="長方形_187" data-name="長方形 187" width="20" height="20" rx="10" transform="translate(7 6)" fill="#fff"/>
    <path id="前面オブジェクトで型抜き_32" data-name="前面オブジェクトで型抜き 32" d="M-967.228,28.3h0l-2.543-1.59,4.066-6.506a12.017,12.017,0,0,0,2.521,1.626l-4.043,6.469Zm25.722-21.141a5.023,5.023,0,0,1-.956-.092A5,5,0,0,1-944.7,6l-1.926,1.156a11.957,11.957,0,0,0-1.317-2.709l1.618-.971a4.936,4.936,0,0,1-.085-2.273,5.007,5.007,0,0,1,4.905-4.047,5.02,5.02,0,0,1,.956.093,4.965,4.965,0,0,1,3.189,2.113,4.966,4.966,0,0,1,.765,3.749A5.007,5.007,0,0,1-941.506,7.154Zm0-7a2,2,0,0,0-1.963,1.619,2,2,0,0,0,1.581,2.345,2.009,2.009,0,0,0,.382.037,2,2,0,0,0,1.963-1.618,1.988,1.988,0,0,0-.306-1.5A1.984,1.984,0,0,0-941.126.19,2.009,2.009,0,0,0-941.508.153Z" transform="translate(975 5)" fill="#fff"/>
    <path id="線_3" data-name="線 3" d="M14.23,16.905,4.5,7.1l2.843-2.4L15.865,15.3Z" transform="translate(17.5 16.5)" fill="#e97d7d"/>
    <rect id="長方形_214" data-name="長方形 214" width="11" height="11" rx="5.5" transform="translate(27 27)" fill="#e97d7d"/>
    <path id="パス_1455" data-name="パス 1455" d="M2.39.482A1.875,1.875,0,0,1,4.265,2.357h0a1.875,1.875,0,0,1-3.75,0h0A1.875,1.875,0,0,1,2.39.482Z" transform="translate(21 20)" fill="#e97d7d"/>
  </g>
</svg>
