<svg xmlns="http://www.w3.org/2000/svg" xmlns:xlink="http://www.w3.org/1999/xlink" width="40" height="40" viewBox="0 0 40 40">
  <defs>
    <clipPath id="clip-Quick_marker">
      <rect width="40" height="40"/>
    </clipPath>
  </defs>
  <g id="Quick_marker" clip-path="url(#clip-Quick_marker)">
    <path id="前面オブジェクトで型抜き_10" data-name="前面オブジェクトで型抜き 10" d="M-423.242,29.064h-17.425A5.339,5.339,0,0,1-446,23.731V13.839a7.662,7.662,0,0,1,3.3-6.64l4.017-2.678,5.3-3.534A6.072,6.072,0,0,1-430,0a6,6,0,0,1,3.3.931l9.971,6.647a5.716,5.716,0,0,1,1.985,2.482A9.41,9.41,0,0,1-414,13.839v2.8a7.955,7.955,0,0,0-3-.581,8.009,8.009,0,0,0-8,8,7.913,7.913,0,0,0,1.756,5Z" transform="translate(450 4.94)" fill="rgba(255,255,255,0.4)"/>
    <path id="前面オブジェクトで型抜き_9" data-name="前面オブジェクトで型抜き 9" d="M-423.242,29.064h-17.425A5.339,5.339,0,0,1-446,23.731V13.839a7.662,7.662,0,0,1,3.3-6.64l4.017-2.678,5.3-3.534A6.072,6.072,0,0,1-430,0a6,6,0,0,1,3.3.931l9.971,6.647a5.716,5.716,0,0,1,1.985,2.482A9.41,9.41,0,0,1-414,13.839v2.8a7.955,7.955,0,0,0-3-.581,8.111,8.111,0,0,0-1,.062V13.839a3.817,3.817,0,0,0-.949-2.933l-9.971-6.647A2.092,2.092,0,0,0-430,4a2.128,2.128,0,0,0-1.167.315l-9.319,6.213A3.7,3.7,0,0,0-442,13.839v9.892a1.334,1.334,0,0,0,1.333,1.333h15.73a7.968,7.968,0,0,0,1.694,4Z" transform="translate(450 4.94)" fill="#fff"/>
    <path id="前面オブジェクトで型抜き_5" data-name="前面オブジェクトで型抜き 5" d="M-597.857,8.863a7.007,7.007,0,0,1-7-7,7.008,7.008,0,0,1,7-7,7.008,7.008,0,0,1,7,7A7.008,7.008,0,0,1-597.857,8.863Zm-3-8a1,1,0,0,0-1,1,1,1,0,0,0,1,1h2v2a1,1,0,0,0,1,1,1,1,0,0,0,1-1v-2h2a1,1,0,0,0,1-1,1,1,0,0,0-1-1h-2v-2a1,1,0,0,0-1-1,1,1,0,0,0-1,1v2Z" transform="translate(630.856 27.137)" fill="#ea7575"/>
  </g>
</svg>
