<svg xmlns="http://www.w3.org/2000/svg" xmlns:xlink="http://www.w3.org/1999/xlink" width="40" height="40" viewBox="0 0 40 40">
  <defs>
    <clipPath id="clip-Quick_Reset">
      <rect width="40" height="40"/>
    </clipPath>
  </defs>
  <g id="Quick_Reset" data-name="Quick Reset" clip-path="url(#clip-Quick_Reset)">
    <path id="Icon_material-delete" data-name="Icon material-delete" d="M8.52,20.826a2.047,2.047,0,0,0,2.041,2.041h8.163a2.047,2.047,0,0,0,2.041-2.041V8.582H8.52ZM21.786,5.52H18.214L17.194,4.5h-5.1l-1.02,1.02H7.5V7.561H21.786Z" transform="translate(5.357 6.316)" fill="#fff"/>
    <path id="合体_14" data-name="合体 14" d="M-195.16,34.1a17.7,17.7,0,0,1-5.641-3.8,17.687,17.687,0,0,1-3.8-5.641,17.646,17.646,0,0,1-1.4-6.91,17.641,17.641,0,0,1,1.4-6.909A17.667,17.667,0,0,1-200.8,5.2a17.667,17.667,0,0,1,5.641-3.8A17.641,17.641,0,0,1-188.25,0a17.646,17.646,0,0,1,6.91,1.4A17.687,17.687,0,0,1-175.7,5.2a17.855,17.855,0,0,1,1.527,1.737l1.406-1.406a1,1,0,0,1,1.7.64l.485,7.268a1,1,0,0,1-1.065,1.065l-7.268-.485a1,1,0,0,1-.641-1.7l2.877-2.876a14.481,14.481,0,0,0-1.5-1.763A14.157,14.157,0,0,0-188.25,3.5a14.16,14.16,0,0,0-10.076,4.173A14.16,14.16,0,0,0-202.5,17.75a14.157,14.157,0,0,0,4.173,10.076A14.157,14.157,0,0,0-188.25,32a14.154,14.154,0,0,0,10.076-4.174,14.206,14.206,0,0,0,3.744-6.576h3.587a17.667,17.667,0,0,1-1.052,3.41,17.691,17.691,0,0,1-3.8,5.641,17.706,17.706,0,0,1-5.641,3.8,17.651,17.651,0,0,1-6.91,1.4A17.65,17.65,0,0,1-195.16,34.1Z" transform="translate(208.25 2.25)" fill="#ea7575"/>
  </g>
</svg>
