<svg xmlns="http://www.w3.org/2000/svg" xmlns:xlink="http://www.w3.org/1999/xlink" width="40" height="40" viewBox="0 0 40 40">
  <defs>
    <clipPath id="clip-RemoveKeyOutsideCanvas">
      <rect width="40" height="40"/>
    </clipPath>
  </defs>
  <g id="RemoveKeyOutsideCanvas" clip-path="url(#clip-RemoveKeyOutsideCanvas)">
    <g id="グループ_356" data-name="グループ 356" transform="translate(-1.373 -1.373)">
      <path id="前面オブジェクトで型抜き_35" data-name="前面オブジェクトで型抜き 35" d="M-1098.627,35.615a4.215,4.215,0,0,1-3-1.243l-12-12a4.214,4.214,0,0,1-1.241-3,4.214,4.214,0,0,1,1.241-3l12-12a4.215,4.215,0,0,1,3-1.243,4.215,4.215,0,0,1,3,1.243l12,12a4.215,4.215,0,0,1,1.243,3,4.215,4.215,0,0,1-1.243,3l-1.043,1.043a1,1,0,0,0-.674-.261.993.993,0,0,0-.707.293l-2.576,2.575-2.576-2.575a.994.994,0,0,0-.708-.293.994.994,0,0,0-.707.293l-.269.269a.993.993,0,0,0-.293.707.993.993,0,0,0,.293.707l2.576,2.576-2.576,2.576a1,1,0,0,0-.032,1.382l-2.709,2.709A4.215,4.215,0,0,1-1098.627,35.615Z" transform="translate(1120 2)" fill="#fff" opacity="0.5"/>
      <path id="パス_1448" data-name="パス 1448" d="M-173.929-61.415l-12-12a4.246,4.246,0,0,1,0-6l12-12a4.229,4.229,0,0,1,3-1.243v32.485A4.229,4.229,0,0,1-173.929-61.415Z" transform="translate(192.302 97.787)" fill="#fff"/>
    </g>
    <g id="グループ_354" data-name="グループ 354" transform="translate(21.667 20)">
      <path id="前面オブジェクトで型抜き_34" data-name="前面オブジェクトで型抜き 34" d="M-1131.333-3.334a8.342,8.342,0,0,1-8.333-8.333A8.342,8.342,0,0,1-1131.333-20,8.343,8.343,0,0,1-1123-11.667,8.343,8.343,0,0,1-1131.333-3.334Zm0-6.649h0l2.575,2.575a.993.993,0,0,0,.707.293.994.994,0,0,0,.707-.293l.27-.269a.994.994,0,0,0,.293-.707.994.994,0,0,0-.293-.707l-2.577-2.576,2.577-2.576a.993.993,0,0,0,.293-.707.993.993,0,0,0-.293-.707l-.27-.269a.993.993,0,0,0-.707-.293.993.993,0,0,0-.707.293l-2.576,2.575-2.576-2.575a.994.994,0,0,0-.707-.293.994.994,0,0,0-.707.293l-.269.269a.993.993,0,0,0-.293.707.993.993,0,0,0,.293.707l2.576,2.576-2.576,2.576a.994.994,0,0,0-.293.707.994.994,0,0,0,.293.707l.269.269a.994.994,0,0,0,.707.293.993.993,0,0,0,.707-.293l2.575-2.575Z" transform="translate(1139.667 20)" fill="#ea7575"/>
    </g>
  </g>
</svg>
