<svg xmlns="http://www.w3.org/2000/svg" xmlns:xlink="http://www.w3.org/1999/xlink" width="40" height="40" viewBox="0 0 40 40">
  <defs>
    <clipPath id="clip-rename_layer">
      <rect width="40" height="40"/>
    </clipPath>
  </defs>
  <g id="rename_layer" clip-path="url(#clip-rename_layer)">
    <path id="パス_1441" data-name="パス 1441" d="M-4.56-4.74q-.24-.04-.52-.07a4.746,4.746,0,0,0-.5-.03,2.949,2.949,0,0,0-1.55.35A1.225,1.225,0,0,0-7.7-3.36a1.27,1.27,0,0,0,.22.8,1.314,1.314,0,0,0,.53.41,2.176,2.176,0,0,0,.66.16q.35.03.61.03a3.644,3.644,0,0,0,.6-.05q.3-.05.52-.09Zm0-2.06a1.654,1.654,0,0,0-.16-.78,1.2,1.2,0,0,0-.44-.47,1.83,1.83,0,0,0-.69-.23,6.315,6.315,0,0,0-.91-.06,7.078,7.078,0,0,0-2.3.42,5.41,5.41,0,0,1-.42-.98A3.8,3.8,0,0,1-9.62-10a10.62,10.62,0,0,1,1.76-.44,10.477,10.477,0,0,1,1.64-.14,4.847,4.847,0,0,1,3.25,1A3.991,3.991,0,0,1-1.8-6.38v6A16.679,16.679,0,0,1-3.5.04a11.582,11.582,0,0,1-2.26.2A9.038,9.038,0,0,1-7.63.06a4.01,4.01,0,0,1-1.46-.6,2.826,2.826,0,0,1-.94-1.08,3.6,3.6,0,0,1-.33-1.62,2.962,2.962,0,0,1,.41-1.61A3.162,3.162,0,0,1-8.89-5.89a4.69,4.69,0,0,1,1.45-.56,7.678,7.678,0,0,1,1.6-.17q.58,0,1.28.06ZM.68-14.62a8.512,8.512,0,0,1,1.4-.12,8.627,8.627,0,0,1,1.42.12v5.28a2.239,2.239,0,0,1,1-.89,3.53,3.53,0,0,1,1.6-.35,4.308,4.308,0,0,1,1.67.32,3.519,3.519,0,0,1,1.33.97,4.7,4.7,0,0,1,.88,1.63,7.5,7.5,0,0,1,.32,2.32,6.4,6.4,0,0,1-.4,2.33A4.734,4.734,0,0,1,8.74-1.26,5.179,5.179,0,0,1,6.88-.15,7.39,7.39,0,0,1,4.4.24Q3.96.24,3.47.2T2.48.09q-.5-.07-.96-.18A7.442,7.442,0,0,1,.68-.34ZM3.5-2.24a2.1,2.1,0,0,0,.51.1q.27.02.55.02A2.716,2.716,0,0,0,6.6-2.88a3.305,3.305,0,0,0,.74-2.38,4.235,4.235,0,0,0-.46-2.19A1.684,1.684,0,0,0,5.32-8.2a1.738,1.738,0,0,0-1.31.53A2.34,2.34,0,0,0,3.5-6Z" transform="translate(16 27)" fill="#fff" stroke="#fff" stroke-width="0.5"/>
    <path id="合体_4" data-name="合体 4" d="M-363,28h-3a1,1,0,0,1-1-1V25a1,1,0,0,1,1-1h4V4h-4a1,1,0,0,1-1-1V1a1,1,0,0,1,1-1h4a4,4,0,0,1,4,4V24a4,4,0,0,1-4,4Zm-21,0h-10a4,4,0,0,1-4-4V4a4,4,0,0,1,4-4h18a1,1,0,0,1,1,1V3a1,1,0,0,1-1,1h-18V24h18a1,1,0,0,1,1,1v2a1,1,0,0,1-1,1Z" transform="translate(398 6)" fill="#fff" opacity="0.5"/>
    <path id="合体_3" data-name="合体 3" d="M-398,37a1,1,0,0,1-1-1V34a1,1,0,0,1,1-1h2V3h-2a1,1,0,0,1-1-1V0a1,1,0,0,1,1-1h8a1,1,0,0,1,1,1V2a1,1,0,0,1-1,1h-2V33h2a1,1,0,0,1,1,1v2a1,1,0,0,1-1,1Z" transform="translate(421 2)" fill="#ea7575"/>
  </g>
</svg>
