<svg xmlns="http://www.w3.org/2000/svg" xmlns:xlink="http://www.w3.org/1999/xlink" width="40" height="40" viewBox="0 0 40 40">
  <defs>
    <clipPath id="clip-Script_Manager">
      <rect width="40" height="40"/>
    </clipPath>
  </defs>
  <g id="Script_Manager" data-name="Script Manager" clip-path="url(#clip-Script_Manager)">
    <path id="Icon_awesome-cog" data-name="Icon awesome-cog" d="M16.119,10.287,14.774,9.51a6.085,6.085,0,0,0,0-2.218l1.346-.777a.382.382,0,0,0,.174-.442,7.868,7.868,0,0,0-1.728-2.988.38.38,0,0,0-.468-.073l-1.346.777A5.962,5.962,0,0,0,10.831,2.68V1.129a.378.378,0,0,0-.3-.37,7.942,7.942,0,0,0-3.45,0,.378.378,0,0,0-.3.37V2.683A6.15,6.15,0,0,0,4.867,3.792L3.524,3.015a.375.375,0,0,0-.468.073A7.821,7.821,0,0,0,1.328,6.076a.378.378,0,0,0,.174.442L2.848,7.3a6.085,6.085,0,0,0,0,2.218L1.5,10.29a.382.382,0,0,0-.174.442,7.868,7.868,0,0,0,1.728,2.988.38.38,0,0,0,.468.073l1.346-.777a5.962,5.962,0,0,0,1.921,1.109v1.554a.378.378,0,0,0,.3.37,7.942,7.942,0,0,0,3.45,0,.378.378,0,0,0,.3-.37V14.125a6.15,6.15,0,0,0,1.921-1.109l1.346.777a.375.375,0,0,0,.468-.073A7.821,7.821,0,0,0,16.3,10.732a.39.39,0,0,0-.177-.445Zm-7.31.641A2.527,2.527,0,1,1,11.336,8.4,2.531,2.531,0,0,1,8.809,10.928Z" transform="translate(23.689 21.431)" fill="#ea7575"/>
    <path id="前面オブジェクトで型抜き_6" data-name="前面オブジェクトで型抜き 6" d="M-323.021,31H-347a4,4,0,0,1-4-4V23h4V1a4.005,4.005,0,0,1,4-4h26V2.5h1.5V.25a.751.751,0,0,0-.75-.751A.748.748,0,0,0-317,.217L-317-3a4.005,4.005,0,0,1,4,4V5h-4v9.889a1.847,1.847,0,0,0-.449-.163A9.419,9.419,0,0,0-319.5,14.5a9.413,9.413,0,0,0-2.048.224,1.889,1.889,0,0,0-1.473,1.834v.578c-.173.091-.346.191-.516.3l-.5-.287-.007,0-.044-.024.652-3.54c.116-.639.249-1.231.4-1.76a4.7,4.7,0,0,1,.594-1.353,2.6,2.6,0,0,1,.957-.869A3.181,3.181,0,0,1-320,9.288a2.963,2.963,0,0,1,.4.022l.286.044a3.86,3.86,0,0,0,.418-1.1,5.641,5.641,0,0,0,.154-1.276v-.2a.738.738,0,0,0-.022-.176,2.517,2.517,0,0,0-.792-.11,3.086,3.086,0,0,0-1.089.186,3.606,3.606,0,0,0-.9.495,4.7,4.7,0,0,0-.737.693,4.791,4.791,0,0,0-.55.781c.029-.19.048-.353.055-.484s.011-.264.011-.4a4.378,4.378,0,0,0-.044-.725c-.027-.154-.057-.295-.088-.418-.238-.042-.475-.076-.7-.1s-.44-.032-.66-.032a8.107,8.107,0,0,0-1.452.131,3.371,3.371,0,0,1,.022.364V7.4a15.955,15.955,0,0,1-.121,1.661c-.08.7-.2,1.528-.364,2.453L-327.373,18c.167.029.339.055.526.076a9.441,9.441,0,0,0-1.568,2.984,1.891,1.891,0,0,0,.857,2.186l.5.289c-.007.2-.007.4,0,.6l-.5.289a1.876,1.876,0,0,0-.862,2.167l.006.021a9.434,9.434,0,0,0,2.06,3.561,1.886,1.886,0,0,0,1.381.6,1.874,1.874,0,0,0,.938-.252l.5-.286c.162.1.336.2.518.3V31ZM-348.5,25.5h0v1a2,2,0,0,0,2,2h18.91a2,2,0,0,1-1.91-2v-1h-19Zm18.773-19.138a5.877,5.877,0,0,0-2.827.66,6.679,6.679,0,0,0-2.057,1.706,7.49,7.49,0,0,0-1.265,2.354,8.393,8.393,0,0,0-.428,2.607,4.683,4.683,0,0,0,1.165,3.355,4.9,4.9,0,0,0,3.675,1.22,10.736,10.736,0,0,0,1.738-.131,6.359,6.359,0,0,0,1.5-.44,5.593,5.593,0,0,0-.154-1.453,3.784,3.784,0,0,0-.4-.946,6.4,6.4,0,0,1-1.177.374,5.253,5.253,0,0,1-.957.088,2.214,2.214,0,0,1-1.562-.572,2.336,2.336,0,0,1-.616-1.782,6.808,6.808,0,0,1,.209-1.694,4.531,4.531,0,0,1,.638-1.441,3.454,3.454,0,0,1,1.066-1.012,2.857,2.857,0,0,1,1.5-.384,4.621,4.621,0,0,1,1.045.11,6.268,6.268,0,0,1,.957.308,4.58,4.58,0,0,0,.55-1.243,5.522,5.522,0,0,0,.2-1.221,6.754,6.754,0,0,0-1.342-.352A9.482,9.482,0,0,0-329.727,6.362Zm-15.4,8.954h0a5.568,5.568,0,0,0-.661,2.376,6.9,6.9,0,0,0,1.54.428,9.621,9.621,0,0,0,1.562.143A8.669,8.669,0,0,0-340.518,18a5.271,5.271,0,0,0,1.77-.8,4.013,4.013,0,0,0,1.188-1.342,3.921,3.921,0,0,0,.44-1.9,2.651,2.651,0,0,0-.186-1.034,2.633,2.633,0,0,0-.495-.769,3.119,3.119,0,0,0-.7-.562,7.111,7.111,0,0,0-.814-.407l-.858-.374c-.555-.248-.836-.6-.836-1.034a.858.858,0,0,1,.175-.55,1.1,1.1,0,0,1,.44-.33,2.357,2.357,0,0,1,.561-.154,3.674,3.674,0,0,1,.539-.044,5.557,5.557,0,0,1,1.255.154,4.771,4.771,0,0,1,1.121.4,4.311,4.311,0,0,0,.539-1.133,5.491,5.491,0,0,0,.209-1.133,4.022,4.022,0,0,0-.736-.3,6.311,6.311,0,0,0-.836-.186c-.289-.044-.574-.078-.847-.1s-.533-.033-.77-.033a6.492,6.492,0,0,0-1.881.264,4.784,4.784,0,0,0-1.518.76,3.509,3.509,0,0,0-1.012,1.21,3.588,3.588,0,0,0-.363,1.639,2.947,2.947,0,0,0,.186,1.1,2.53,2.53,0,0,0,.484.781,2.952,2.952,0,0,0,.649.528,4.48,4.48,0,0,0,.7.341l.7.285a2.934,2.934,0,0,1,.858.495.919.919,0,0,1,.308.715,1.077,1.077,0,0,1-.209.67,1.469,1.469,0,0,1-.517.429,2.51,2.51,0,0,1-.682.22,4.159,4.159,0,0,1-.7.066,8.237,8.237,0,0,1-1.375-.122,5.688,5.688,0,0,1-1.4-.428Z" transform="translate(352 6)" fill="#fff"/>
  </g>
</svg>
