<svg xmlns="http://www.w3.org/2000/svg" xmlns:xlink="http://www.w3.org/1999/xlink" width="40" height="40" viewBox="0 0 40 40">
  <defs>
    <clipPath id="clip-Shape_to_layer_transform">
      <rect width="40" height="40"/>
    </clipPath>
  </defs>
  <g id="Shape_to_layer_transform" data-name="Shape to layer transform" clip-path="url(#clip-Shape_to_layer_transform)">
    <path id="前面オブジェクトで型抜き_36" data-name="前面オブジェクトで型抜き 36" d="M-1131.492,39.324h-16a4,4,0,0,1-4-4V22.61l2.238,1.223a3.374,3.374,0,0,0,1.616.417,3.37,3.37,0,0,0,2.605-1.233,3.354,3.354,0,0,0,.706-2.779l-.877-4.546.4-.369h13.314a4,4,0,0,1,4,4v16A4,4,0,0,1-1131.492,39.324Z" transform="translate(1165.491 -1.323)" fill="#fff"/>
    <path id="パス_1457" data-name="パス 1457" d="M11.886,3.461a1.371,1.371,0,0,1,2.479,0l2.141,4.525a1.371,1.371,0,0,0,1.07.774l4.979.622a1.371,1.371,0,0,1,.765,2.364l-3.647,3.4a1.371,1.371,0,0,0-.412,1.263l.942,4.887a1.371,1.371,0,0,1-2,1.463l-4.414-2.413a1.371,1.371,0,0,0-1.316,0L8.053,22.756a1.371,1.371,0,0,1-2-1.463l.942-4.887a1.371,1.371,0,0,0-.412-1.263l-3.647-3.4A1.371,1.371,0,0,1,3.7,9.382l4.979-.622a1.371,1.371,0,0,0,1.07-.774Z" transform="translate(-1 -2)" fill="#fff" opacity="0.5"/>
    <path id="Icon_fa-solid-arrows-split-up-and-left" data-name="Icon fa-solid-arrows-split-up-and-left" d="M16.264,4.626A1.622,1.622,0,0,1,13.97,2.332L18.832-2.53a1.623,1.623,0,0,1,2.294,0l4.862,4.862a1.622,1.622,0,1,1-2.294,2.294L21.6,2.534V19.1c0,2.574-3.241,2.445-3.241,0V2.534l-2.1,2.1Z" transform="translate(40.547 12.293) rotate(135)" fill="#ea7575"/>
  </g>
</svg>
