<svg xmlns="http://www.w3.org/2000/svg" xmlns:xlink="http://www.w3.org/1999/xlink" width="40" height="40" viewBox="0 0 40 40">
  <defs>
    <clipPath id="clip-ShapeSolo">
      <rect width="40" height="40"/>
    </clipPath>
  </defs>
  <g id="ShapeSolo" clip-path="url(#clip-ShapeSolo)">
    <g id="グループ_351" data-name="グループ 351" transform="translate(-1.5 -1.394)">
      <path id="前面オブジェクトで型抜き_12" data-name="前面オブジェクトで型抜き 12" d="M13.014,26.029a13.014,13.014,0,0,1-9.2-22.217A13.017,13.017,0,0,1,24.874,7.65a2.729,2.729,0,0,0-1.016-.193A2.684,2.684,0,0,0,21.4,9.027l-3.031,6.531-7.09.9a2.711,2.711,0,0,0-1.525,4.656L14.8,25.907A13.177,13.177,0,0,1,13.014,26.029Zm5.117-1.045h0a2.727,2.727,0,0,0-.687-1.053l-4.62-4.387,6.253-.8A2.7,2.7,0,0,0,21.2,17.2l2.664-5.741,1.915,4.126a13.005,13.005,0,0,1-7.642,9.4Z" transform="translate(3 4)" fill="#fff"/>
      <path id="多角形_1" data-name="多角形 1" d="M13.734,1.955a1,1,0,0,1,1.814,0L18.8,8.965a1,1,0,0,0,.781.571l7.61.969a1,1,0,0,1,.562,1.717L22.143,17.55a1,1,0,0,0-.294.911L23.292,26.1a1,1,0,0,1-1.47,1.059l-6.7-3.732a1,1,0,0,0-.974,0l-6.7,3.732A1,1,0,0,1,5.989,26.1l1.444-7.637a1,1,0,0,0-.294-.911L1.528,12.221A1,1,0,0,1,2.09,10.5L9.7,9.536a1,1,0,0,0,.781-.571Z" transform="translate(12.218 11.592)" fill="#ea7575"/>
    </g>
  </g>
</svg>
