<svg xmlns="http://www.w3.org/2000/svg" xmlns:xlink="http://www.w3.org/1999/xlink" width="40" height="40" viewBox="0 0 40 40">
  <defs>
    <clipPath id="clip-SmartRandomizer">
      <rect width="40" height="40"/>
    </clipPath>
  </defs>
  <g id="SmartRandomizer" clip-path="url(#clip-SmartRandomizer)">
    <path id="Icon_fa-solid-dice" data-name="Icon fa-solid-dice" d="M17.062,2.229Zm2.78,25.5a3.949,3.949,0,0,0,3.946,3.946H35.625a3.949,3.949,0,0,0,3.946-3.946V15.9a3.949,3.949,0,0,0-3.946-3.946H28.579a6.409,6.409,0,0,1-1.566,6.5l-7.17,7.17Zm9.864-7.4a1.48,1.48,0,1,1-1.48,1.48A1.48,1.48,0,0,1,29.707,20.336Z" transform="translate(-0.25 4.195)" fill="#fff"/>
    <path id="Icon_fa-solid-dice-2" data-name="Icon fa-solid-dice" d="M17.062,2.229a4.439,4.439,0,0,0-6.276,0L2.229,10.786a4.439,4.439,0,0,0,0,6.276l8.557,8.557a4.439,4.439,0,0,0,6.276,0l8.557-8.557a4.439,4.439,0,0,0,0-6.276Zm-4.618,11.7a1.48,1.48,0,1,1,1.48,1.48,1.48,1.48,0,0,1-1.48-1.48Zm-6.412-1.48a1.48,1.48,0,1,1-1.48,1.48,1.48,1.48,0,0,1,1.48-1.48ZM13.924,23.3a1.48,1.48,0,1,1,1.48-1.48,1.48,1.48,0,0,1-1.48,1.48Zm7.891-10.85a1.48,1.48,0,1,1-1.48,1.48,1.48,1.48,0,0,1,1.48-1.48ZM13.924,7.513a1.48,1.48,0,1,1,1.48-1.48,1.48,1.48,0,0,1-1.48,1.48Z" transform="translate(-0.25 4.195)" fill="#ea7575"/>
  </g>
</svg>
