<svg xmlns="http://www.w3.org/2000/svg" xmlns:xlink="http://www.w3.org/1999/xlink" width="40" height="40" viewBox="0 0 40 40">
  <defs>
    <clipPath id="clip-SuperSelect">
      <rect width="40" height="40"/>
    </clipPath>
  </defs>
  <g id="SuperSelect" clip-path="url(#clip-SuperSelect)">
    <path id="前面オブジェクトで型抜き_15" data-name="前面オブジェクトで型抜き 15" d="M-671.888,15H-682a3,3,0,0,1-3-3V1a3,3,0,0,1,3-3h11a3,3,0,0,1,3,3V4.33a3.75,3.75,0,0,0-.887,2.42v2.8l-1.384,1.153a4.493,4.493,0,0,0-1.616,3.457V15Z" transform="translate(688 5)" fill="#fff"/>
    <path id="前面オブジェクトで型抜き_16" data-name="前面オブジェクトで型抜き 16" d="M-654,32h-8a3,3,0,0,1-2.841-2.034,3.023,3.023,0,0,0,.454.034h7.5a3,3,0,0,0,3-3V23a7.453,7.453,0,0,0,2.436-2.255c.121-.176.236-.36.342-.546A3.009,3.009,0,0,1-651,21v8A3,3,0,0,1-654,32Zm-18,0h-8a3,3,0,0,1-3-3V21a3,3,0,0,1,3-3h8a3.04,3.04,0,0,1,.408.028,7.452,7.452,0,0,0,2.4,3.669l.188.157V29A3,3,0,0,1-672,32Zm15.113-5h-7.5V21.8l-.613-.512V21a3,3,0,0,1,3-3h8a3.023,3.023,0,0,1,.588.058,4.5,4.5,0,0,1-2.538,2.616l-.937.38V27ZM-654,14h-8a3,3,0,0,1-3-3V6.013a.751.751,0,0,1,.612.678l.232,3.027,2.264-2.023a.746.746,0,0,1,.5-.2.754.754,0,0,1,.75.691l.232,3.028,2.264-2.024a.751.751,0,0,1,.5-.194.754.754,0,0,1,.75.691l.231,3.028,2.263-2.024a.75.75,0,0,1,.5-.194.751.751,0,0,1,.751.75v2.623A3,3,0,0,1-654,14Zm3-5.141,0,0A3.742,3.742,0,0,0-653.888,7.5a3.79,3.79,0,0,0-.7.066A3.758,3.758,0,0,0-655.082,7a3.74,3.74,0,0,0-2.555-1,3.7,3.7,0,0,0-.7.066,3.817,3.817,0,0,0-.5-.562,3.74,3.74,0,0,0-2.555-1,3.775,3.775,0,0,0-.7.066A3.807,3.807,0,0,0-662.582,4,3.751,3.751,0,0,0-665,3a3,3,0,0,1,3-3h8a3,3,0,0,1,3,3V8.859Z" transform="translate(688 5)" fill="#fff" opacity="0.5"/>
    <path id="Icon_fa-solid-hand-back-fist" data-name="Icon fa-solid-hand-back-fist" d="M7.5,0A2.251,2.251,0,0,0,5.25,2.25v6a.75.75,0,0,1-1.5,0V7l-.422.352A3,3,0,0,0,2.25,9.656v1.781a5.994,5.994,0,0,0,2.161,4.608L6.75,18v4.5A1.5,1.5,0,0,0,8.25,24h7.5a1.5,1.5,0,0,0,1.5-1.5V17.564A6,6,0,0,0,21,12V6.75a2.25,2.25,0,0,0-3.755-1.673,2.252,2.252,0,0,0-3.75-1.5,2.252,2.252,0,0,0-3.75-1.5A2.25,2.25,0,0,0,7.5,0Z" transform="translate(15.362 9.5)" fill="#ea7575"/>
  </g>
</svg>
