<svg xmlns="http://www.w3.org/2000/svg" xmlns:xlink="http://www.w3.org/1999/xlink" width="40" height="40" viewBox="0 0 40 40">
  <defs>
    <clipPath id="clip-zero_position">
      <rect width="40" height="40"/>
    </clipPath>
  </defs>
  <g id="zero_position" data-name="zero position" clip-path="url(#clip-zero_position)">
    <g id="グループ_350" data-name="グループ 350" transform="translate(-3.16 -1.562)">
      <path id="パス_1428" data-name="パス 1428" d="M-20.19.99a9.97,9.97,0,0,1-.626-1.2A10.53,10.53,0,0,1-21.342-1.7,13.85,13.85,0,0,1-21.7-3.527a16.521,16.521,0,0,1-.135-2.2,16.521,16.521,0,0,1,.135-2.2,13.85,13.85,0,0,1,.363-1.828,10.221,10.221,0,0,1,.526-1.487,10.219,10.219,0,0,1,.626-1.188,1.789,1.789,0,0,1,.391-.064q.263-.021.562-.021t.569.021a3.657,3.657,0,0,1,.484.064q-.171.285-.441.847a10.047,10.047,0,0,0-.526,1.4A16.218,16.218,0,0,0-19.6-8.23a14.771,14.771,0,0,0-.192,2.5A14.9,14.9,0,0,0-19.6-3.214a16.145,16.145,0,0,0,.448,1.956,10.047,10.047,0,0,0,.526,1.4q.27.562.441.847a3.657,3.657,0,0,1-.484.064q-.285.021-.569.021t-.562-.021A1.789,1.789,0,0,1-20.19.99ZM-2.513-2.435a3.424,3.424,0,0,1,.484-.078q.242-.021.47-.021t.5.021a3.405,3.405,0,0,1,.512.078L-1.588,1.207a2.836,2.836,0,0,1-.484.071q-.242.014-.47.014t-.448-.014a2.813,2.813,0,0,1-.462-.071ZM14.452.99q.171-.285.441-.847a10.047,10.047,0,0,0,.526-1.4,16.143,16.143,0,0,0,.448-1.956,14.9,14.9,0,0,0,.192-2.511,14.771,14.771,0,0,0-.192-2.5,16.216,16.216,0,0,0-.448-1.949,10.047,10.047,0,0,0-.526-1.4q-.27-.562-.441-.847a3.657,3.657,0,0,1,.484-.064q.285-.021.569-.021t.562.021a1.789,1.789,0,0,1,.391.064,10.219,10.219,0,0,1,.626,1.188,10.22,10.22,0,0,1,.526,1.487,13.851,13.851,0,0,1,.363,1.828,16.521,16.521,0,0,1,.135,2.2,16.521,16.521,0,0,1-.135,2.2A13.851,13.851,0,0,1,17.611-1.7a10.53,10.53,0,0,1-.526,1.494,9.971,9.971,0,0,1-.626,1.2,1.789,1.789,0,0,1-.391.064q-.263.021-.562.021t-.569-.021A3.657,3.657,0,0,1,14.452.99Z" transform="translate(25.026 27.89)" fill="#fff" opacity="0.5"/>
      <path id="パス_1430" data-name="パス 1430" d="M9.317,5.847a6.153,6.153,0,0,1-2.829-.61A5.3,5.3,0,0,1,4.524,3.53,7.813,7.813,0,0,1,3.378.932,13.408,13.408,0,0,1,3-2.348a13.154,13.154,0,0,1,.39-3.293,7.835,7.835,0,0,1,1.171-2.61A5.486,5.486,0,0,1,6.549-9.97a6.184,6.184,0,0,1,2.866-.622,6.052,6.052,0,0,1,2.829.622,5.515,5.515,0,0,1,1.976,1.72,7.494,7.494,0,0,1,1.146,2.61,13.988,13.988,0,0,1,.366,3.293,13.01,13.01,0,0,1-.39,3.281,7.844,7.844,0,0,1-1.171,2.6,5.352,5.352,0,0,1-2,1.707A6.306,6.306,0,0,1,9.317,5.847ZM9.366,2.92A2.136,2.136,0,0,0,11.3,1.64,8.711,8.711,0,0,0,12-2.348a8.711,8.711,0,0,0-.7-3.988,2.136,2.136,0,0,0-1.939-1.28,2.2,2.2,0,0,0-1.988,1.28,8.454,8.454,0,0,0-.72,3.988A8.332,8.332,0,0,0,7.39,1.64,2.212,2.212,0,0,0,9.366,2.92Z" transform="translate(22.717 24.544)" fill="#61a4e8"/>
      <path id="パス_1429" data-name="パス 1429" d="M-4.939,5.847a6.153,6.153,0,0,1-2.829-.61A5.3,5.3,0,0,1-9.732,3.53a7.813,7.813,0,0,1-1.146-2.6,13.408,13.408,0,0,1-.378-3.281,13.154,13.154,0,0,1,.39-3.293A7.835,7.835,0,0,1-9.7-8.251,5.486,5.486,0,0,1-7.707-9.97a6.184,6.184,0,0,1,2.866-.622,6.052,6.052,0,0,1,2.829.622A5.515,5.515,0,0,1-.036-8.251,7.493,7.493,0,0,1,1.11-5.641a13.988,13.988,0,0,1,.366,3.293A13.01,13.01,0,0,1,1.086.932,7.844,7.844,0,0,1-.085,3.53a5.352,5.352,0,0,1-2,1.707A6.306,6.306,0,0,1-4.939,5.847ZM-4.89,2.92A2.136,2.136,0,0,0-2.951,1.64a8.711,8.711,0,0,0,.7-3.988,8.711,8.711,0,0,0-.7-3.988A2.136,2.136,0,0,0-4.89-7.616a2.2,2.2,0,0,0-1.988,1.28A8.454,8.454,0,0,0-7.6-2.348,8.332,8.332,0,0,0-6.866,1.64,2.212,2.212,0,0,0-4.89,2.92Z" transform="translate(19.241 24.544)" fill="#ea7575"/>
    </g>
  </g>
</svg>
