<svg xmlns="http://www.w3.org/2000/svg" width="16" height="16" fill="none" viewBox="0 0 16 16">
  <path fill="#fff" d="M9.368 8.271a.75.75 0 0 1 .655.318l2.146 2.377a2.2 2.2 0 1 1-.802.813l-2.41-2.167c-.015-.01-.031-.02-.045-.032a.752.752 0 0 1-.06-1.06.75.75 0 0 1 .516-.249Zm-5.65 1.81c.307.258.647.477 1.009.65l-.673 1.076A1.601 1.601 0 1 1 2.8 11.2c.07 0 .14.005.209.014l.709-1.134ZM6.8 2.4a4 4 0 0 1 3.697 5.527c-.02-.022-.039-.045-.06-.066a1.53 1.53 0 0 0-2.164 2.165c.023.023.048.044.072.065A4 4 0 1 1 6.8 2.4ZM3.6 1.2a2.39 2.39 0 0 1 1.649.655 4.81 4.81 0 0 0-3.158 3.61A2.392 2.392 0 0 1 1.2 3.6a2.404 2.404 0 0 1 2.4-2.4Zm9.798-.338a2.008 2.008 0 0 1 1.659.883 1.986 1.986 0 0 1 .305 1.5 2.004 2.004 0 0 1-1.964 1.616v.002A2.002 2.002 0 0 1 12.12 4.4l-.771.462a4.782 4.782 0 0 0-.527-1.084l.647-.387a2.003 2.003 0 0 1 1.93-2.528Zm0 1.201a.8.8 0 1 0 0 1.605.8.8 0 0 0 0-1.606v.001Z"/>
</svg>
