<svg xmlns="http://www.w3.org/2000/svg" width="16" height="16" fill="none" viewBox="0 0 16 16">
  <path fill="#fff" d="M14.297 7.563a.898.898 0 0 1 .88 1.248l-.08.147a9.026 9.026 0 0 1-2.28 2.36l-.392.263-.01.007c-.896.518-1.773.553-2.438.582l-.041.002c-.69.03-1.16.063-1.641.335a7.228 7.228 0 0 0-2.102 2.078.903.903 0 0 1-1.255.265.904.904 0 0 1-.382-.938.902.902 0 0 1 .143-.327 9.024 9.024 0 0 1 2.644-2.602l.01-.008.026-.014c.895-.517 1.77-.553 2.436-.582l.042-.003.482-.026c.444-.035.797-.107 1.156-.31.245-.158.481-.33.706-.517l-.343-.38a.9.9 0 0 1 .627-1.5l1.811-.08h.001Zm-1.728-3.276a.895.895 0 0 1 .771.757h.001a.898.898 0 0 1-.06.486l-.079.146c-.22.331-.46.648-.722.948l-.268.293A8.948 8.948 0 0 1 10.528 8.3l-.008.006c-.896.517-1.772.553-2.437.582l-.042.003c-.69.03-1.16.063-1.641.334a7.229 7.229 0 0 0-2.103 2.079H4.3a.9.9 0 0 1-.572.384.9.9 0 0 1-.926-1.38l.268-.383A9.027 9.027 0 0 1 5.449 7.7l.003-.002.024-.016.007-.004.168-.091c.837-.43 1.645-.463 2.268-.49l.001-.002.042-.002.482-.027c.448-.035.803-.106 1.165-.312a7.26 7.26 0 0 0 .695-.511l-.343-.384a.9.9 0 0 1 .629-1.498l1.812-.08.167.005Zm-1.916-3.284a.9.9 0 0 1 .403.145l.072.052a.898.898 0 0 1 .314.87.902.902 0 0 1-.088.25l-.046.074a8.942 8.942 0 0 1-2.674 2.624l-.01.006c-.895.517-1.77.554-2.435.583l-.042.002c-.69.03-1.161.063-1.642.335a7.23 7.23 0 0 0-2.102 2.077V8.02a.9.9 0 0 1-.57.39.9.9 0 0 1-.928-1.383l.273-.386a9.029 9.029 0 0 1 2.401-2.237l.01-.006.168-.09c.836-.43 1.644-.465 2.268-.492l.043-.003.482-.027c.447-.035.802-.106 1.165-.312a7.31 7.31 0 0 0 .681-.501l-.348-.418a.9.9 0 0 1-.203-.45.9.9 0 0 1 .85-1.026L10.509 1l.145.003Z"/>
</svg>
