<svg xmlns="http://www.w3.org/2000/svg" width="16" height="16" fill="none" viewBox="0 0 16 16">
  <path fill="#fff" d="M1.25 2.64c0-.77.62-1.39 1.39-1.39.769 0 1.39.62 1.39 1.39 0 .769-.621 1.39-1.39 1.39-.77 0-1.39-.621-1.39-1.39Zm5.36 0c0-.77.62-1.39 1.39-1.39.769 0 1.39.62 1.39 1.39 0 .769-.621 1.39-1.39 1.39-.77 0-1.39-.621-1.39-1.39Zm5.36 0c0-.77.62-1.39 1.39-1.39.769 0 1.39.62 1.39 1.39 0 .769-.621 1.39-1.39 1.39-.77 0-1.39-.621-1.39-1.39ZM1.251 8c0-.769.62-1.39 1.39-1.39.769 0 1.39.621 1.39 1.39 0 .769-.621 1.39-1.39 1.39-.77 0-1.39-.621-1.39-1.39Zm5.36 0c0-.769.62-1.39 1.39-1.39.769 0 1.39.621 1.39 1.39 0 .769-.621 1.39-1.39 1.39-.77 0-1.39-.621-1.39-1.39Zm5.36 0c0-.769.62-1.39 1.39-1.39.769 0 1.39.621 1.39 1.39 0 .769-.621 1.39-1.39 1.39-.77 0-1.39-.621-1.39-1.39Zm-10.72 5.36c0-.77.62-1.39 1.39-1.39.769 0 1.39.62 1.39 1.39 0 .769-.621 1.39-1.39 1.39-.77 0-1.39-.621-1.39-1.39Zm5.36 0c0-.77.62-1.39 1.39-1.39.769 0 1.39.62 1.39 1.39 0 .769-.621 1.39-1.39 1.39-.77 0-1.39-.621-1.39-1.39Zm5.36 0c0-.77.62-1.39 1.39-1.39.769 0 1.39.62 1.39 1.39 0 .769-.621 1.39-1.39 1.39-.77 0-1.39-.621-1.39-1.39Z"/>
</svg>
