<svg xmlns="http://www.w3.org/2000/svg" width="16" height="16" fill="none" viewBox="0 0 16 16">
  <path fill="#fff" d="M4.875 2.75c1.102 0 1.917.695 2.553 1.565.637.87 1.178 2.028 1.705 3.154l.34.72c.282.589.563 1.143.843 1.6l.168.26.139.195c.133.178.25.307.35.394a.596.596 0 0 0 .16.107c.05-.016.214-.087.489-.38.398-.424.985-1.263 1.75-2.896l.06-.11a1.25 1.25 0 0 1 2.204 1.172l-.134.287h-.01c-.676 1.405-1.329 2.471-1.997 3.203-.718.785-1.496 1.229-2.367 1.229-1.103 0-1.917-.695-2.554-1.565-.637-.87-1.177-2.028-1.705-3.154h-.001c-.45-.967-.9-1.916-1.35-2.58a3.102 3.102 0 0 0-.489-.59.633.633 0 0 0-.155-.107c-.052.017-.215.09-.489.38-.348.372-.84 1.06-1.471 2.321l-.28.576a1.25 1.25 0 0 1-.592.597l-.115.048a1.252 1.252 0 0 1-.841.003L.97 9.132a1.25 1.25 0 0 1-.6-1.663l.271-.563c.63-1.27 1.241-2.244 1.865-2.927.719-.785 1.497-1.229 2.368-1.229Z"/>
</svg>
