<svg id="icn-settings" xmlns="http://www.w3.org/2000/svg" width="25" height="25" viewBox="0 0 25 25">
  <rect id="area" width="25" height="25" fill="none"/>
  <circle id="Circle" cx="2" cy="2" r="2" transform="translate(10.5 10.5)" fill="none" stroke="currentColor" stroke-width="1.5"/>
  <g id="Path" transform="translate(3.5 3.5)" fill="none" stroke-linecap="round">
    <path d="M6.186,13.295a.319.319,0,0,1,.166.046,5.052,5.052,0,0,0,1.45.6.318.318,0,0,1,.243.309v1.43A.319.319,0,0,0,8.364,16H9.636a.319.319,0,0,0,.318-.318v-1.43a.318.318,0,0,1,.243-.309,5.051,5.051,0,0,0,1.45-.6.319.319,0,0,1,.391.046L13.05,14.4a.328.328,0,0,0,.45,0l.9-.9a.318.318,0,0,0,0-.45l-1.011-1.011a.318.318,0,0,1-.046-.391,5.046,5.046,0,0,0,.6-1.45.318.318,0,0,1,.309-.244h1.43a.317.317,0,0,0,.225-.093A.313.313,0,0,0,16,9.636V8.363a.319.319,0,0,0-.318-.318h-1.43a.318.318,0,0,1-.309-.244,5.043,5.043,0,0,0-.6-1.45.318.318,0,0,1,.046-.391L14.4,4.949a.318.318,0,0,0,0-.45l-.9-.9a.327.327,0,0,0-.45,0L12.038,4.611a.317.317,0,0,1-.391.046,5.048,5.048,0,0,0-1.449-.6.317.317,0,0,1-.243-.309V2.318A.319.319,0,0,0,9.636,2H8.364a.319.319,0,0,0-.318.318v1.43a.318.318,0,0,1-.243.309,5.051,5.051,0,0,0-1.45.6.318.318,0,0,1-.391-.046L4.95,3.6a.327.327,0,0,0-.45,0l-.9.9a.318.318,0,0,0,0,.45L4.612,5.961a.318.318,0,0,1,.046.391,5.045,5.045,0,0,0-.6,1.449.318.318,0,0,1-.309.244H2.318A.318.318,0,0,0,2,8.363V9.636a.319.319,0,0,0,.318.318h1.43a.318.318,0,0,1,.309.244,5.048,5.048,0,0,0,.6,1.449.318.318,0,0,1-.046.391L3.6,13.05a.318.318,0,0,0,0,.45l.9.9a.327.327,0,0,0,.45,0l1.011-1.011A.315.315,0,0,1,6.186,13.295Z" stroke="none"/>
    <path d="M 9.636360168457031 16 C 9.811679840087891 16 9.954540252685547 15.85744953155518 9.954540252685547 15.68181991577148 L 9.954540252685547 14.25222015380859 C 9.954540252685547 14.10521984100342 10.05508995056152 13.97762966156006 10.19795036315918 13.94295024871826 C 10.70895004272461 13.81917953491211 11.19672012329102 13.61744976043701 11.64758968353271 13.34158992767334 C 11.77359104156494 13.26491069793701 11.93459033966064 13.28432083129883 12.03862953186035 13.38803958892822 L 13.04981994628906 14.39953994750977 C 13.16912841796875 14.5185375213623 13.38040924072266 14.51917934417725 13.50004005432129 14.39953994750977 L 14.39986038208008 13.49940967559814 C 14.52394962310791 13.37530994415283 14.52394962310791 13.1735897064209 14.39986038208008 13.04950046539307 L 13.38836002349854 12.03800010681152 C 13.28431987762451 11.93426990509033 13.26521968841553 11.77231979370117 13.34191036224365 11.64694976806641 C 13.61713027954102 11.19703960418701 13.81917953491211 10.70926952362061 13.94295024871826 10.19731998443604 C 13.97731971740723 10.05445003509521 14.10521984100342 9.953590393066406 14.25222015380859 9.953590393066406 L 15.68181991577148 9.953590393066406 C 15.766770362854 9.953590393066406 15.84694957733154 9.920499801635742 15.90709018707275 9.860360145568848 C 15.96691036224365 9.801179885864258 16 9.721320152282715 16 9.636039733886719 L 16 8.363320350646973 C 16 8.187680244445801 15.85713958740234 8.045140266418457 15.68181991577148 8.045140266418457 L 14.25222015380859 8.045140266418457 C 14.10521984100342 8.045140266418457 13.97731971740723 7.944590091705322 13.94295024871826 7.80141019821167 C 13.81949996948242 7.290090084075928 13.61744976043701 6.802320003509521 13.34191036224365 6.351769924163818 C 13.26521968841553 6.226409912109375 13.28431987762451 6.065090179443359 13.38836002349854 5.960730075836182 L 14.39986038208008 4.949230194091797 C 14.45903968811035 4.889729976654053 14.49308967590332 4.807960033416748 14.49308967590332 4.724269866943359 C 14.49308967590332 4.640590190887451 14.45903968811035 4.558499813079834 14.39986038208008 4.499320030212402 L 13.49971961975098 3.599499940872192 C 13.37945175170898 3.479550838470459 13.16977214813232 3.479549646377563 13.04950046539307 3.599499940872192 L 12.03800010681152 4.611000061035156 C 11.93427085876465 4.715359210968018 11.77295207977295 4.734770774841309 11.64694976806641 4.657450199127197 C 11.19736003875732 4.38254976272583 10.70991039276123 4.180180072784424 10.19795036315918 4.05640983581543 C 10.05541038513184 4.022359848022461 9.954540252685547 3.894769906997681 9.954540252685547 3.747770071029663 L 9.954540252685547 2.318180084228516 C 9.954540252685547 2.142549991607666 9.811679840087891 2 9.636360168457031 2 L 8.363639831542969 2 C 8.188320159912109 2 8.045450210571289 2.142549991607666 8.045450210571289 2.318180084228516 L 8.045450210571289 3.747770071029663 C 8.045450210571289 3.894769906997681 7.944910049438477 4.022359848022461 7.802040100097656 4.057050228118896 C 7.291039943695068 4.180500030517578 6.803269863128662 4.38254976272583 6.352409839630127 4.658090114593506 C 6.226730346679688 4.73477029800415 6.065409660339355 4.715680122375488 5.961679935455322 4.611639976501465 L 4.950180053710938 3.60014009475708 C 4.829910755157471 3.480180025100708 4.620230674743652 3.48017954826355 4.499949932098389 3.60014009475708 L 3.600460052490234 4.499949932098389 C 3.476360082626343 4.624050140380859 3.476360082626343 4.825769901275635 3.600460052490234 4.949860095977783 L 4.611959934234619 5.961359977722168 C 4.716000080108643 6.065090179443359 4.735089778900146 6.227049827575684 4.65841007232666 6.352409839630127 C 4.38286018371582 6.802949905395508 4.180819988250732 7.290729999542236 4.057360172271729 7.801720142364502 C 4.02299976348877 7.944590091705322 3.895090103149414 8.045450210571289 3.748090028762817 8.045450210571289 L 2.318180084228516 8.045450210571289 C 2.233230113983154 8.045450210571289 2.153049945831299 8.078539848327637 2.092910051345825 8.138680458068848 C 2.033090114593506 8.198180198669434 2 8.278039932250977 2 8.363320350646973 L 2 9.636039733886719 C 2 9.811679840087891 2.142859935760498 9.954230308532715 2.318180084228516 9.954230308532715 L 3.747770071029663 9.954230308532715 C 3.894769906997681 9.954230308532715 4.022679805755615 10.05477046966553 4.057050228118896 10.19795036315918 C 4.180819988250732 10.70958995819092 4.38286018371582 11.19736003875732 4.658090114593506 11.64727020263672 C 4.734769821166992 11.772629737854 4.715680122375488 11.93395042419434 4.611639976501465 12.03831005096436 L 3.60014009475708 13.05012989044189 C 3.540950059890747 13.10962963104248 3.506910085678101 13.19141006469727 3.506910085678101 13.27509021759033 C 3.506910085678101 13.3587703704834 3.540950059890747 13.4408597946167 3.60014009475708 13.50004005432129 L 4.500269889831543 14.39986038208008 C 4.620229244232178 14.51981830596924 4.830229759216309 14.51982021331787 4.950500011444092 14.39986038208008 L 5.961679935455322 13.38836002349854 C 6.064986705780029 13.28397083282471 6.226727485656738 13.26497077941895 6.352089881896973 13.34127044677734 C 6.802639961242676 13.61682033538818 7.290410041809082 13.81917953491211 7.802040100097656 13.94295024871826 C 7.944910049438477 13.97762966156006 8.045450210571289 14.10521984100342 8.045450210571289 14.25222015380859 L 8.045450210571289 15.68181991577148 C 8.045450210571289 15.85744953155518 8.188320159912109 16 8.363639831542969 16 L 9.636360168457031 16 M 9.636360168457031 17.29999923706055 L 8.363639831542969 17.29999923706055 C 7.471370220184326 17.29999923706055 6.745450019836426 16.57408905029297 6.745450019836426 15.68181991577148 L 6.745450019836426 14.9749002456665 C 6.61859130859375 14.92697811126709 6.49329948425293 14.8749942779541 6.36967945098877 14.81899261474609 L 5.869880199432373 15.31894969940186 C 5.565020084381104 15.62306022644043 5.158979892730713 15.78983020782471 4.725269794464111 15.78983020782471 C 4.290949821472168 15.78983020782471 3.884589910507202 15.62265014648438 3.581029891967773 15.31910037994385 L 2.681060075759888 14.41944026947021 C 2.379699945449829 14.11812973022461 2.206909894943237 13.70106029510498 2.206909894943237 13.27509021759033 C 2.206909894943237 12.85074043273926 2.378799915313721 12.4345703125 2.678499937057495 12.13329982757568 L 3.180957794189453 11.63068389892578 C 3.12492036819458 11.50692367553711 3.072859764099121 11.38135433197021 3.02488374710083 11.25422954559326 L 2.318180084228516 11.25422954559326 C 1.425909996032715 11.25422954559326 0.699999988079071 10.52830982208252 0.699999988079071 9.636039733886719 L 0.699999988079071 8.363320350646973 C 0.699999988079071 7.929490089416504 0.8690999746322632 7.522379875183105 1.176139950752258 7.21697998046875 C 1.479329943656921 6.913780212402344 1.88578999042511 6.745450019836426 2.318180084228516 6.745450019836426 L 3.025181293487549 6.745450019836426 C 3.073149442672729 6.618355751037598 3.125191926956177 6.492835521697998 3.181222677230835 6.369102478027344 L 2.681220054626465 5.869100093841553 C 2.375679969787598 5.56358003616333 2.207390069961548 5.157219886779785 2.207390069961548 4.724909782409668 C 2.207390069961548 4.292620182037354 2.375659942626953 3.886270046234131 2.681220054626465 3.580709934234619 L 3.580549955368042 2.681060075759888 C 3.885509967803955 2.376909971237183 4.29148006439209 2.210170030593872 4.725069999694824 2.210170030593872 C 5.158699989318848 2.210170030593872 5.564700126647949 2.376940011978149 5.868269920349121 2.679749965667725 L 6.369376182556152 3.180856227874756 C 6.493049144744873 3.124862909317017 6.618463516235352 3.072864294052124 6.745450019836426 3.024931669235229 L 6.745450019836426 2.318180084228516 C 6.745450019836426 1.425909996032715 7.471370220184326 0.699999988079071 8.363639831542969 0.699999988079071 L 9.636360168457031 0.699999988079071 C 10.52863025665283 0.699999988079071 11.25454044342041 1.425909996032715 11.25454044342041 2.318180084228516 L 11.25454044342041 3.024520874023438 C 11.38146877288818 3.072439193725586 11.50671768188477 3.124377965927124 11.63022899627686 3.180300951004028 L 12.1302604675293 2.680259943008423 C 12.43513011932373 2.376250028610229 12.8410701751709 2.209539890289307 13.27460956573486 2.209539890289307 C 13.70820045471191 2.209539890289307 14.11417007446289 2.376280069351196 14.4177303314209 2.67903995513916 L 15.31894016265869 3.579920053482056 C 15.62032985687256 3.881309986114502 15.79308986663818 4.298349857330322 15.79308986663818 4.724269866943359 C 15.79308986663818 5.14857006072998 15.62123012542725 5.564710140228271 15.32157039642334 5.865990161895752 L 14.81909370422363 6.368471622467041 C 14.87519454956055 6.492354393005371 14.92726898193359 6.6179518699646 14.97526359558105 6.745140075683594 L 15.68181991577148 6.745140075683594 C 16.57408905029297 6.745140075683594 17.29999923706055 7.471049785614014 17.29999923706055 8.363320350646973 L 17.29999923706055 9.636039733886719 C 17.29999923706055 10.06950378417969 17.1314525604248 10.47576904296875 16.82523155212402 10.7806978225708 C 16.51969909667969 11.08564949035645 16.11368179321289 11.25358963012695 15.68181991577148 11.25358963012695 L 14.97515964508057 11.25358963012695 C 14.92715167999268 11.38085460662842 14.87512588500977 11.50638389587402 14.81906318664551 11.63022327423096 L 15.31910037994385 12.1302604675293 C 15.94997978210449 12.76115036010742 15.94999980926514 13.78769969940186 15.31914043426514 14.41860961914062 L 14.41944026947021 15.31861972808838 C 14.11610984802246 15.62199974060059 13.70975017547607 15.78903007507324 13.27513980865479 15.78903007507324 C 12.84741020202637 15.78903007507324 12.43068027496338 15.61808013916016 12.13181018829346 15.3200101852417 L 11.6308708190918 14.81891822814941 C 11.50720119476318 14.87490653991699 11.38170623779297 14.92693424224854 11.25454044342041 14.97492694854736 L 11.25454044342041 15.68181991577148 C 11.25454044342041 16.57408905029297 10.52863025665283 17.29999923706055 9.636360168457031 17.29999923706055 Z" stroke="none" fill="currentColor"/>
  </g>
</svg>
