<svg xmlns="http://www.w3.org/2000/svg" width="25" height="25" viewBox="0 0 25 25">
  <g id="Notification" transform="translate(-8 -609)">
    <g id="Icn_Notification" transform="translate(12 612)">
      <rect id="area" width="25" height="25" transform="translate(-4 -3)" fill="none"/>
      <g id="icons" transform="translate(0 1)">
        <g id="Icn_Notification-2" data-name="Icn_Notification">
          <path id="Path" d="M8.5,20a2.006,2.006,0,0,0,2-2h-4A2.006,2.006,0,0,0,8.5,20Z" transform="translate(-1 -2)" fill="currentColor"/>
          <g id="Path-2" data-name="Path" transform="translate(-1 1)" fill="none">
            <path d="M14,11V7.5c0-3-1.1-4.6-4-6a1.5,1.5,0,0,0-3,0c-2.9,1.4-4,3-4,6V11L1,13v1H16V13Z" stroke="none"/>
            <path d="M 13.37868022918701 12.5 L 12.5 11.62131977081299 L 12.5 7.5 C 12.5 6.266520023345947 12.29705047607422 5.41402006149292 11.84195041656494 4.735829830169678 C 11.38080024719238 4.048620223999023 10.58829021453857 3.449650049209595 9.347880363464355 2.850830078125 L 8.5 2.441509962081909 L 8.5 1.523042559623718 L 8.5 2.441509962081909 L 7.652120113372803 2.850830078125 C 6.411709785461426 3.449650049209595 5.619200229644775 4.048620223999023 5.158050060272217 4.735829830169678 C 4.702950000762939 5.41402006149292 4.5 6.266520023345947 4.5 7.5 L 4.5 11.62131977081299 L 3.621320009231567 12.5 L 13.37868022918701 12.5 M 16 14 L 1 14 L 1 13 L 3 11 L 3 7.5 C 3 4.5 4.099999904632568 2.900000095367432 7 1.5 C 7 0.699999988079071 7.699999809265137 -8.881784197001252e-16 8.5 -8.881784197001252e-16 C 9.300000190734863 -8.881784197001252e-16 10 0.699999988079071 10 1.5 C 12.89999961853027 2.900000095367432 14 4.5 14 7.5 L 14 11 L 16 13 L 16 14 Z" stroke="none" fill="currentColor"/>
          </g>
        </g>
        <circle id="Badge" cx="4" cy="4" r="4" transform="translate(9)" fill="red"/>
      </g>
    </g>
    <g id="Icn_Notification-hovers" transform="translate(12 612)">
      <rect id="area-2" data-name="area" width="25" height="25" transform="translate(-4 -3)" fill="none"/>
      <g id="icons-2" data-name="icons" transform="translate(0 1)">
        <g id="Icn_Notification-3" data-name="Icn_Notification">
          <path id="Path-3" data-name="Path" d="M8.5,20a2.006,2.006,0,0,0,2-2h-4A2.006,2.006,0,0,0,8.5,20Z" transform="translate(-1 -2)" fill="currentColor"/>
          <g id="Path-4" data-name="Path" transform="translate(-1 1)" fill="none">
            <path d="M14,11V7.5c0-3-1.1-4.6-4-6a1.5,1.5,0,0,0-3,0c-2.9,1.4-4,3-4,6V11L1,13v1H16V13Z" stroke="none"/>
            <path d="M 13.37868022918701 12.5 L 12.5 11.62131977081299 L 12.5 7.5 C 12.5 6.266520023345947 12.29705047607422 5.41402006149292 11.84195041656494 4.735829830169678 C 11.38080024719238 4.048620223999023 10.58829021453857 3.449650049209595 9.347880363464355 2.850830078125 L 8.5 2.441509962081909 L 8.5 1.523042559623718 L 8.5 2.441509962081909 L 7.652120113372803 2.850830078125 C 6.411709785461426 3.449650049209595 5.619200229644775 4.048620223999023 5.158050060272217 4.735829830169678 C 4.702950000762939 5.41402006149292 4.5 6.266520023345947 4.5 7.5 L 4.5 11.62131977081299 L 3.621320009231567 12.5 L 13.37868022918701 12.5 M 16 14 L 1 14 L 1 13 L 3 11 L 3 7.5 C 3 4.5 4.099999904632568 2.900000095367432 7 1.5 C 7 0.699999988079071 7.699999809265137 -8.881784197001252e-16 8.5 -8.881784197001252e-16 C 9.300000190734863 -8.881784197001252e-16 10 0.699999988079071 10 1.5 C 12.89999961853027 2.900000095367432 14 4.5 14 7.5 L 14 11 L 16 13 L 16 14 Z" stroke="none" fill="currentColor"/>
          </g>
        </g>
        <circle id="Badge-2" data-name="Badge" cx="4" cy="4" r="4" transform="translate(9)" fill="red"/>
      </g>
    </g>
  </g>
</svg>
