<svg xmlns="http://www.w3.org/2000/svg" xmlns:xlink="http://www.w3.org/1999/xlink" width="40" height="40" viewBox="0 0 40 40">
  <defs>
    <clipPath id="clip-Grid_Lock">
      <rect width="40" height="40"/>
    </clipPath>
  </defs>
  <g id="Grid_Lock" data-name="Grid Lock" clip-path="url(#clip-Grid_Lock)">
    <path id="パス_1463" data-name="パス 1463" d="M16.288,4.3H2.512A1.92,1.92,0,0,0,.6,6.224v3.76A1.916,1.916,0,0,0,2.512,11.9H16.288A1.92,1.92,0,0,0,18.2,9.98V6.22A1.92,1.92,0,0,0,16.288,4.3Z" transform="translate(1.8 12.9)" fill="#2890f2"/>
    <path id="パス_1464" data-name="パス 1464" d="M7.132,7.1H2.468A1.868,1.868,0,0,0,.6,8.968v4.664A1.87,1.87,0,0,0,2.468,15.5H7.132A1.87,1.87,0,0,0,9,13.632V8.968A1.868,1.868,0,0,0,7.132,7.1Z" transform="translate(1.8 21.3)" fill="#ee5730"/>
    <path id="パス_1465" data-name="パス 1465" d="M25.18,7.1H5.42A1.9,1.9,0,0,0,3.5,8.968v4.664A1.9,1.9,0,0,0,5.42,15.5H25.18a1.9,1.9,0,0,0,1.92-1.868V8.968A1.9,1.9,0,0,0,25.18,7.1Z" transform="translate(10.5 21.3)" fill="#2890f2"/>
    <path id="パス_1466" data-name="パス 1466" d="M2.512,10.8H16.288A1.888,1.888,0,0,0,18.2,8.936V4.272A1.892,1.892,0,0,0,16.288,2.4H2.512A1.892,1.892,0,0,0,.6,4.272V8.936A1.89,1.89,0,0,0,2.512,10.8ZM33.92,9.7V6.18A5.353,5.353,0,0,0,28.6.8V4.02a2.149,2.149,0,0,1,2.14,2.16V9.224H26.468V6.184A2.143,2.143,0,0,1,28.6,4.024V.8a5.355,5.355,0,0,0-5.32,5.376V9.7A3.732,3.732,0,0,0,21.4,12.948v5.724A3.71,3.71,0,0,0,25.084,22.4H28.6V19.912H27.38a.48.48,0,0,1-.46-.58l.74-3.292a2.164,2.164,0,1,1,1.88,0l.74,3.292a.472.472,0,0,1-.46.58H28.6V22.4h3.52A3.708,3.708,0,0,0,35.8,18.672v-5.72A3.72,3.72,0,0,0,33.916,9.7h.008Z" transform="translate(1.8 2.4)" fill="#ee5730"/>
  </g>
</svg>
