<svg xmlns="http://www.w3.org/2000/svg" xmlns:xlink="http://www.w3.org/1999/xlink" width="40" height="40" viewBox="0 0 40 40">
  <defs>
    <clipPath id="clip-Roundabout">
      <rect width="40" height="40"/>
    </clipPath>
  </defs>
  <g id="Roundabout" clip-path="url(#clip-Roundabout)">
    <path id="パス_1468" data-name="パス 1468" d="M9.3,7.421V3.181A1.88,1.88,0,0,0,7.42,1.3H3.18A1.88,1.88,0,0,0,1.3,3.181v4.24A1.878,1.878,0,0,0,3.18,9.3H7.42A1.878,1.878,0,0,0,9.3,7.421Z" transform="translate(3.9 3.903)" fill="#2890f2"/>
    <path id="パス_1469" data-name="パス 1469" d="M12,6.323V2.079A1.88,1.88,0,0,0,10.12.2H5.88A1.88,1.88,0,0,0,4,2.083v4.24A1.878,1.878,0,0,0,5.88,8.2h4.24A1.878,1.878,0,0,0,12,6.323Zm0,30.4v-4.24a1.88,1.88,0,0,0-1.88-1.88H5.88A1.88,1.88,0,0,0,4,32.487v4.24a1.878,1.878,0,0,0,1.88,1.88h4.24A1.878,1.878,0,0,0,12,36.727Z" transform="translate(12 0.597)" fill="#ee5730"/>
    <path id="パス_1470" data-name="パス 1470" d="M30.9,7.421V3.181A1.88,1.88,0,0,0,29.02,1.3H24.78a1.88,1.88,0,0,0-1.88,1.88v4.24A1.878,1.878,0,0,0,24.78,9.3h4.24A1.878,1.878,0,0,0,30.9,7.421ZM9.3,29.017V24.773a1.88,1.88,0,0,0-1.88-1.88H3.18a1.88,1.88,0,0,0-1.88,1.88v4.24a1.878,1.878,0,0,0,1.88,1.88H7.42a1.878,1.878,0,0,0,1.88-1.88Zm21.6,0V24.773a1.88,1.88,0,0,0-1.88-1.88H24.78a1.88,1.88,0,0,0-1.88,1.88v4.24a1.878,1.878,0,0,0,1.88,1.88h4.24a1.878,1.878,0,0,0,1.88-1.88Z" transform="translate(3.9 3.903)" fill="#2890f2"/>
    <path id="パス_1471" data-name="パス 1471" d="M38.6,10.02V5.78A1.88,1.88,0,0,0,36.72,3.9H32.48A1.88,1.88,0,0,0,30.6,5.78v4.24a1.878,1.878,0,0,0,1.88,1.88h4.24A1.878,1.878,0,0,0,38.6,10.02Zm-30.4.4V6.18A1.88,1.88,0,0,0,6.32,4.3H2.08A1.88,1.88,0,0,0,.2,6.18v4.24A1.878,1.878,0,0,0,2.08,12.3H6.32A1.878,1.878,0,0,0,8.2,10.42Z" transform="translate(0.6 11.7)" fill="#ee5730"/>
  </g>
</svg>
