<svg xmlns="http://www.w3.org/2000/svg" xmlns:xlink="http://www.w3.org/1999/xlink" width="40" height="40" viewBox="0 0 40 40">
  <defs>
    <clipPath id="clip-Solid_Sweeper">
      <rect width="40" height="40"/>
    </clipPath>
  </defs>
  <g id="Solid_Sweeper" data-name="Solid Sweeper" clip-path="url(#clip-Solid_Sweeper)">
    <path id="パス_1473" data-name="パス 1473" d="M31.084,4.687,21.6,14.175l-1.028.684-1.168.228-1.168-.228-1.028-.68L9.888,6.859,7.716,4.687l-1.028-.68L5.52,3.779l-1.168.228-1.032.68L1.108,6.9.428,7.927.2,9.095l.228,1.176.68,1.024L17.2,27.387l1.028.684L19.4,28.3l1.168-.228L21.6,27.4l16.1-16.1.68-1.024L38.6,9.1l-.228-1.168L37.692,6.9,35.48,4.691l-1.032-.68L33.28,3.783l-1.168.228-1.028.68Z" transform="translate(0.6 11.337)" fill="#2890f2"/>
    <path id="パス_1474" data-name="パス 1474" d="M16.979,12.3l1.736,1.736.664.44.76.152.752-.148.668-.444L23.291,12.3l.448-.66.14-.76-.14-.76-.448-.664L21.559,7.722l-.668-.44-.752-.144-.76.148-.664.44L16.979,9.458l-.44.668-.148.76.148.756ZM9.2,9.458,7.467,7.722,6.8,7.282l-.76-.144-.752.148-.668.44L2.891,9.458l-.448.668-.14.76.14.756.448.66,1.732,1.736.668.44.752.152.76-.148.664-.444L9.2,12.3l.44-.66.148-.76-.152-.76L9.2,9.458Zm5.312-2.464,1.728-1.732.448-.668.148-.76-.148-.76-.448-.656L14.515.682,13.851.238,13.091.09l-.76.148-.664.444L9.939,2.414l-.448.664-.148.76.148.76.448.664,1.728,1.732.664.44.76.148.76-.148.664-.44Zm1.728,9.512L14.515,14.77l-.664-.444-.76-.144-.76.144-.664.444L9.939,16.506l-.448.66-.148.76.148.76.448.664,1.728,1.732.664.44.76.148.76-.148.664-.44,1.728-1.732.448-.668.148-.76-.148-.76-.448-.656Z" transform="translate(6.909 0.27)" fill="#ee5730"/>
  </g>
</svg>
