<svg xmlns="http://www.w3.org/2000/svg" width="50" height="50" viewBox="0 0 50 50">
  <g id="A-017-shapes-cluster-category-group" transform="translate(-53 -36)">
    <rect id="area" width="50" height="50" transform="translate(53 36)" fill="none"/>
    <path id="icon" d="M26.775,5.723,21,2.257A3.021,3.021,0,0,0,19.971,2a1.855,1.855,0,0,0-.9.257L13.3,5.723a2,2,0,0,0-1.027,1.669V14.58a2.194,2.194,0,0,0,.9,1.669l5.776,3.466a2.38,2.38,0,0,0,.9.257,2.38,2.38,0,0,0,.9-.257l5.776-3.466a2,2,0,0,0,.9-1.669V7.391a1.466,1.466,0,0,0-.642-1.669m-1.669,8.472-5.135,3.081-5.135-3.081V7.776L19.971,4.7l5.135,3.081Zm11.938,9.5-5.776-3.466a3.021,3.021,0,0,0-1.027-.257,1.855,1.855,0,0,0-.9.257l-5.776,3.466a2,2,0,0,0-.9,1.669v7.188a2.194,2.194,0,0,0,.9,1.669l5.776,3.466a2.38,2.38,0,0,0,.9.257,2.38,2.38,0,0,0,.9-.257l5.776-3.466a2,2,0,0,0,.9-1.669V25.363a1.76,1.76,0,0,0-.77-1.669m-1.669,8.472L30.24,35.247l-5.135-3.081V25.748l5.135-3.081,5.135,3.081Zm-18.87-8.472-5.776-3.466A3.021,3.021,0,0,0,9.7,19.971a1.855,1.855,0,0,0-.9.257L3.027,23.694A2,2,0,0,0,2,25.363v7.188a2.194,2.194,0,0,0,.9,1.669l5.776,3.466a3.021,3.021,0,0,0,1.027.257,1.855,1.855,0,0,0,.9-.257l5.776-3.466a2,2,0,0,0,.9-1.669V25.363a1.76,1.76,0,0,0-.77-1.669m-1.669,8.472L9.7,35.247,4.567,32.166V25.748L9.7,22.667l5.135,3.081Z" transform="translate(58 41)" fill="currentColor" stroke="currentColor" stroke-width="0.3"/>
  </g>
</svg>
