<svg xmlns="http://www.w3.org/2000/svg" width="50" height="50" viewBox="0 0 50 50">
  <g id="A-014-cube-shape" transform="translate(-53 -36)">
    <rect id="area" width="50" height="50" transform="translate(53 36)" fill="none"/>
    <path id="icon" d="M54.851,23.765l-13.6-7.439a2.454,2.454,0,0,0-2.373,0l-13.6,7.442A2.472,2.472,0,0,0,24,25.931V40.708a2.472,2.472,0,0,0,1.285,2.163l13.6,7.442a2.454,2.454,0,0,0,2.373,0l13.6-7.442a2.472,2.472,0,0,0,1.285-2.163V25.932a2.472,2.472,0,0,0-1.285-2.168M40.068,18.488l12.413,6.8-12.413,6.8-12.413-6.8Zm-13.6,8.961,12.36,6.764V47.469l-12.36-6.76ZM41.3,47.469V34.22l12.36-6.77V40.7Z" transform="translate(38 27.981)" fill="currentColor"/>
  </g>
</svg>
