<svg xmlns="http://www.w3.org/2000/svg" width="50" height="50" viewBox="0 0 50 50">
  <g id="A-015-shapes-circle-square-category" transform="translate(-53 -36)">
    <rect id="area" width="50" height="50" transform="translate(53 36)" fill="none"/>
    <path id="icon" d="M36.659,37.942H23.822a1.284,1.284,0,0,1-1.284-1.284V23.822a1.284,1.284,0,0,1,1.284-1.284H36.659a1.284,1.284,0,0,1,1.284,1.284V36.659a1.284,1.284,0,0,1-1.284,1.284M25.106,35.375H35.375V25.106H25.106ZM9.7,37.942a7.7,7.7,0,1,1,7.7-7.7,7.711,7.711,0,0,1-7.7,7.7m0-12.837a5.135,5.135,0,1,0,5.135,5.135A5.14,5.14,0,0,0,9.7,25.106m17.971-7.7h-15.4a1.284,1.284,0,0,1-1.1-1.945l7.7-12.84a1.283,1.283,0,0,1,2.2,0l7.7,12.84a1.284,1.284,0,0,1-1.1,1.945M14.536,14.837h10.87L19.971,5.779Z" transform="translate(58 41)" fill="currentColor" stroke="currentColor" stroke-width="0.2"/>
  </g>
</svg>
