<svg xmlns="http://www.w3.org/2000/svg" width="50" height="50" viewBox="0 0 50 50">
  <g id="A-019-shapes-circle-group-category" transform="translate(-53 -36)">
    <rect id="area" width="50" height="50" transform="translate(53 36)" fill="none"/>
    <path id="icon" d="M47.053,40a7.053,7.053,0,1,0,7.053,7.053A7.053,7.053,0,0,0,47.053,40m0,11.285a4.232,4.232,0,1,1,4.232-4.232,4.232,4.232,0,0,1-4.232,4.232m16.928,2.821a7.053,7.053,0,1,0-7.053-7.053,7.053,7.053,0,0,0,7.053,7.053m0-11.285a4.232,4.232,0,1,1-4.232,4.232,4.232,4.232,0,0,1,4.232-4.232M47.053,56.928a7.053,7.053,0,1,0,7.053,7.053,7.053,7.053,0,0,0-7.053-7.053m0,11.285a4.232,4.232,0,1,1,4.232-4.232,4.232,4.232,0,0,1-4.232,4.232m23.982-4.232a1.411,1.411,0,0,1-1.411,1.411H65.392v4.232a1.411,1.411,0,1,1-2.821,0V65.392H58.339a1.411,1.411,0,0,1,0-2.821h4.232V58.339a1.411,1.411,0,1,1,2.821,0v4.232h4.232a1.411,1.411,0,0,1,1.411,1.411" transform="translate(22 5)" fill="currentColor" stroke="currentColor" stroke-width="0.2"/>
  </g>
</svg>
