<svg xmlns="http://www.w3.org/2000/svg" width="50" height="50" viewBox="0 0 50 50">
  <g id="A-020-shapes-square-group-category" transform="translate(-53 -36)">
    <rect id="area" width="50" height="50" transform="translate(53 36)" fill="none"/>
    <path id="icon" d="M50.792,40H42.7A2.7,2.7,0,0,0,40,42.7v8.094a2.7,2.7,0,0,0,2.7,2.7h8.094a2.7,2.7,0,0,0,2.7-2.7V42.7a2.7,2.7,0,0,0-2.7-2.7m0,10.792H42.7V42.7h8.094ZM66.981,40H58.886a2.7,2.7,0,0,0-2.7,2.7v8.094a2.7,2.7,0,0,0,2.7,2.7h8.094a2.7,2.7,0,0,0,2.7-2.7V42.7a2.7,2.7,0,0,0-2.7-2.7m0,10.792H58.886V42.7h8.094Zm-16.188,5.4H42.7a2.7,2.7,0,0,0-2.7,2.7v8.094a2.7,2.7,0,0,0,2.7,2.7h8.094a2.7,2.7,0,0,0,2.7-2.7V58.886a2.7,2.7,0,0,0-2.7-2.7m0,10.792H42.7V58.886h8.094ZM66.981,56.188H58.886a2.7,2.7,0,0,0-2.7,2.7v8.094a2.7,2.7,0,0,0,2.7,2.7h8.094a2.7,2.7,0,0,0,2.7-2.7V58.886a2.7,2.7,0,0,0-2.7-2.7m0,10.792H58.886V58.886h8.094Z" transform="translate(23 6)" fill="currentColor"/>
  </g>
</svg>
