<svg xmlns="http://www.w3.org/2000/svg" width="50" height="50" viewBox="0 0 50 50">
  <g id="A-021-shapes-group-category" transform="translate(-53 -36)">
    <rect id="area" width="50" height="50" transform="translate(53 36)" fill="none"/>
    <g id="icon" transform="translate(62 45)">
      <path id="Path_591" data-name="Path 591" d="M11.2.7H2.8A2.8,2.8,0,0,0,0,3.5v8.4a2.8,2.8,0,0,0,2.8,2.8h8.4A2.8,2.8,0,0,0,14,11.9V3.5A2.8,2.8,0,0,0,11.2.7m0,11.2H2.8V3.5h8.4Zm0,5.6H2.8A2.8,2.8,0,0,0,0,20.3v8.4a2.8,2.8,0,0,0,2.8,2.8h8.4A2.8,2.8,0,0,0,14,28.7V20.3a2.8,2.8,0,0,0-2.8-2.8m0,11.2H2.8V20.3h8.4ZM28,17.5H19.6a2.8,2.8,0,0,0-2.8,2.8v8.4a2.8,2.8,0,0,0,2.8,2.8H28a2.8,2.8,0,0,0,2.8-2.8V20.3A2.8,2.8,0,0,0,28,17.5m0,11.2H19.6V20.3H28Z" transform="translate(0 0.026)" fill="currentColor" stroke="currentColor" stroke-width="0.2"/>
      <path id="Path_592" data-name="Path 592" d="M23.569,14.636A7.318,7.318,0,1,0,16.25,7.318,7.319,7.319,0,0,0,23.569,14.636Zm0-11.709a4.391,4.391,0,1,1-4.391,4.391,4.392,4.392,0,0,1,4.391-4.391" transform="translate(0.612 0)" fill="currentColor" stroke="currentColor" stroke-width="0.2"/>
    </g>
  </g>
</svg>
