<svg xmlns="http://www.w3.org/2000/svg" width="50" height="50" viewBox="0 0 50 50">
  <g id="A-025-segment-line-connect-spline" transform="translate(-53 -36)">
    <rect id="area" width="50" height="50" transform="translate(53 36)" fill="none"/>
    <path id="icon" d="M27.5,4.75A1.75,1.75,0,0,1,29.25,3h3.5A1.75,1.75,0,0,1,34.5,4.75v3.5A1.75,1.75,0,0,1,32.75,10h-3.5A1.75,1.75,0,0,1,27.5,8.25ZM3,29.25A1.75,1.75,0,0,1,4.75,27.5h3.5A1.75,1.75,0,0,1,10,29.25v3.5A1.75,1.75,0,0,1,8.25,34.5H4.75A1.75,1.75,0,0,1,3,32.75ZM27.5,6.5a21,21,0,0,0-21,21" transform="translate(59.5 42.5)" fill="none" stroke="currentColor" stroke-linecap="round" stroke-linejoin="round" stroke-width="3"/>
  </g>
</svg>
