<svg xmlns="http://www.w3.org/2000/svg" width="50" height="50" viewBox="0 0 50 50">
  <g id="A-023-shape-circle-group-network" transform="translate(-53 -36)">
    <rect id="area" width="50" height="50" transform="translate(53 36)" fill="none"/>
    <path id="icon" d="M18.879,23.646a4.768,4.768,0,1,1,4.768-4.768,4.768,4.768,0,0,1-4.768,4.768m0-7.151a2.384,2.384,0,1,0,2.384,2.384,2.384,2.384,0,0,0-2.384-2.384M5.768,23.646a4.768,4.768,0,1,1,4.768-4.768,4.768,4.768,0,0,1-4.768,4.768m0-7.151a2.384,2.384,0,1,0,2.384,2.384,2.384,2.384,0,0,0-2.384-2.384m5.96,20.262a4.768,4.768,0,1,1,4.768-4.768,4.768,4.768,0,0,1-4.768,4.768m0-7.151a2.384,2.384,0,1,0,2.384,2.384,2.384,2.384,0,0,0-2.384-2.384m14.3,7.151A4.768,4.768,0,1,1,30.8,31.99a4.768,4.768,0,0,1-4.768,4.768m0-7.151a2.384,2.384,0,1,0,2.384,2.384,2.384,2.384,0,0,0-2.384-2.384m5.96-5.96a4.768,4.768,0,1,1,4.768-4.768,4.768,4.768,0,0,1-4.768,4.768m0-7.151a2.384,2.384,0,1,0,2.384,2.384,2.384,2.384,0,0,0-2.384-2.384m-5.96-5.96A4.768,4.768,0,1,1,30.8,5.768a4.768,4.768,0,0,1-4.768,4.768m0-7.151a2.384,2.384,0,1,0,2.384,2.384A2.384,2.384,0,0,0,26.03,3.384m-14.3,7.151a4.768,4.768,0,1,1,4.768-4.768,4.768,4.768,0,0,1-4.768,4.768m0-7.151a2.384,2.384,0,1,0,2.384,2.384,2.384,2.384,0,0,0-2.384-2.384" transform="translate(59 42)" fill="currentColor" stroke="currentColor" stroke-width="0.2"/>
  </g>
</svg>
