<svg xmlns="http://www.w3.org/2000/svg" width="50" height="50" viewBox="0 0 50 50">
  <g id="A-022-shape-diamond-group-category" transform="translate(-53 -36)">
    <rect id="area" width="50" height="50" transform="translate(53 36)" fill="none"/>
    <path id="icon" d="M31.794,30.364a2.641,2.641,0,0,0,3.731,0l4.931-4.933a2.637,2.637,0,0,0,0-3.729l-4.931-4.933a2.641,2.641,0,0,0-3.731,0L26.863,21.7a2.637,2.637,0,0,0,0,3.729ZM28.64,23.485l4.933-4.931a.112.112,0,0,1,.158,0l4.933,4.931a.117.117,0,0,1,0,.158L33.74,28.58a.114.114,0,0,1-.158,0l-4.936-4.933a.117.117,0,0,1,0-.162Zm21.9,8.309-4.926-4.933a2.64,2.64,0,0,0-3.729,0l-4.933,4.933a2.641,2.641,0,0,0,0,3.731l4.933,4.933a2.64,2.64,0,0,0,3.729,0l4.933-4.933a2.641,2.641,0,0,0,0-3.731ZM48.766,33.74l-4.933,4.933a.117.117,0,0,1-.158,0L38.743,33.74a.114.114,0,0,1,0-.158l4.933-4.933a.117.117,0,0,1,.158,0l4.933,4.933a.114.114,0,0,1,0,.158m-18.4-1.946-4.933-4.933a2.64,2.64,0,0,0-3.729,0l-4.933,4.933a2.641,2.641,0,0,0,0,3.731L21.7,40.457a2.64,2.64,0,0,0,3.729,0l4.933-4.933a2.641,2.641,0,0,0,0-3.731M28.58,33.74l-4.933,4.933a.117.117,0,0,1-.158,0L18.553,33.74a.114.114,0,0,1,0-.158l4.933-4.936a.117.117,0,0,1,.158,0l4.933,4.933a.114.114,0,0,1,0,.161m6.938,3.215a2.641,2.641,0,0,0-3.731,0l-4.925,4.933a2.637,2.637,0,0,0,0,3.729l4.931,4.933a2.641,2.641,0,0,0,3.731,0l4.931-4.933a2.637,2.637,0,0,0,0-3.729Zm3.154,6.878L33.74,48.765a.112.112,0,0,1-.158,0l-4.936-4.931a.117.117,0,0,1,0-.158l4.933-4.933a.114.114,0,0,1,.158,0l4.933,4.933a.117.117,0,0,1,0,.158" transform="translate(44.002 27.002)" fill="currentColor" stroke="currentColor" stroke-width="0.2"/>
  </g>
</svg>
