<svg xmlns="http://www.w3.org/2000/svg" width="50" height="50" viewBox="0 0 50 50">
  <g id="A-026-line-connect-curve-spline" transform="translate(-53 -36)">
    <rect id="area" width="50" height="50" transform="translate(53 36)" fill="none"/>
    <path id="icon" d="M11.108,9.286H23.98a6.072,6.072,0,1,0,0-2.429H11.108a6.679,6.679,0,0,0,0,13.358H24.466a4.25,4.25,0,0,1,0,8.5H14.022a6.072,6.072,0,1,0,0,2.429H24.466a6.679,6.679,0,0,0,0-13.358H11.108a4.25,4.25,0,1,1,0-8.5ZM29.93,4.429a3.643,3.643,0,1,1-3.643,3.643A3.643,3.643,0,0,1,29.93,4.429ZM8.072,33.574a3.643,3.643,0,1,1,3.643-3.643,3.643,3.643,0,0,1-3.643,3.643Z" transform="translate(59.199 42)" fill="currentColor" stroke="currentColor" stroke-width="0.3"/>
  </g>
</svg>
