<svg xmlns="http://www.w3.org/2000/svg" width="50" height="50" viewBox="0 0 50 50">
  <g id="A-027-line-connect-curve-spline" transform="translate(-53 -36)">
    <rect id="area" width="50" height="50" transform="translate(53 36)" fill="none"/>
    <path id="icon" d="M45.689,25.517a5.231,5.231,0,0,0-7.4,7.4c.047.047.1.093.147.139l-4.353,8.084a5.261,5.261,0,0,0-3.906.572l-3.3-3.3a5.231,5.231,0,1,0-8.2,1.041c.047.047.1.093.145.139l-4.353,8.086a5.228,5.228,0,1,0,2.45,1.379c-.047-.047-.1-.093-.147-.139l4.353-8.084a5.3,5.3,0,0,0,1.25.152,5.23,5.23,0,0,0,2.656-.721l3.3,3.3a5.23,5.23,0,1,0,8.2-1.043c-.047-.047-.1-.093-.145-.139L40.741,34.3a5.284,5.284,0,0,0,1.247.15,5.23,5.23,0,0,0,3.7-8.927ZM15.069,54.606a2.616,2.616,0,1,1,0-3.7,2.616,2.616,0,0,1,0,3.7m5.456-17a2.615,2.615,0,1,1,3.7,0,2.615,2.615,0,0,1-3.7,0M34.686,48.068a2.615,2.615,0,1,1,0-3.7,2.615,2.615,0,0,1,0,3.7m9.153-17a2.617,2.617,0,1,1,0-3.7,2.617,2.617,0,0,1,0,3.7Z" transform="translate(50.51 20.515)" fill="currentColor" stroke="currentColor" stroke-width="0.2"/>
  </g>
</svg>
