<svg xmlns="http://www.w3.org/2000/svg" width="50" height="50" viewBox="0 0 50 50">
  <g id="A-035-topo-star-line-connect" transform="translate(-53 -36)">
    <rect id="area" width="50" height="50" transform="translate(53 36)" fill="none"/>
    <path id="icon" d="M21.452,31.178A3.242,3.242,0,1,0,18.21,34.42a3.242,3.242,0,0,0,3.242-3.242m0-25.936A3.242,3.242,0,1,0,18.21,8.484a3.242,3.242,0,0,0,3.242-3.242M8.484,18.21a3.242,3.242,0,1,0-3.242,3.242A3.242,3.242,0,0,0,8.484,18.21m25.936,0a3.242,3.242,0,1,0-3.242,3.242A3.242,3.242,0,0,0,34.42,18.21m-12.968,0a3.242,3.242,0,1,0-3.242,3.242,3.242,3.242,0,0,0,3.242-3.242m-12.968,0h6.484m6.484,0h6.484M18.21,8.484v6.484m0,6.484v6.484" transform="translate(59.5 42.5)" fill="none" stroke="currentColor" stroke-linecap="round" stroke-linejoin="round" stroke-width="2.7"/>
  </g>
</svg>
