<svg xmlns="http://www.w3.org/2000/svg" width="50" height="50" viewBox="0 0 50 50">
  <g id="A-031-share-connect-network" transform="translate(-53 -36)">
    <rect id="area" width="50" height="50" transform="translate(53 36)" fill="none"/>
    <path id="icon" d="M47.039,37.822A6.054,6.054,0,0,0,42.7,39.657l-7-4.5a6.04,6.04,0,0,0,0-4.389l7-4.5a6.07,6.07,0,1,0-1.314-2.041l-7,4.5a6.07,6.07,0,1,0,0,8.471l7,4.5a6.07,6.07,0,1,0,5.658-3.876m0-19.425A3.642,3.642,0,1,1,43.4,22.039,3.642,3.642,0,0,1,47.039,18.4m-17,18.211a3.642,3.642,0,1,1,3.642-3.642,3.642,3.642,0,0,1-3.642,3.642m17,10.927a3.642,3.642,0,1,1,3.642-3.642,3.642,3.642,0,0,1-3.642,3.642" transform="translate(39.034 28.037)" fill="currentColor" stroke="currentColor" stroke-width="0.35"/>
  </g>
</svg>
