<svg xmlns="http://www.w3.org/2000/svg" width="50" height="50" viewBox="0 0 50 50">
  <g id="A-034-chart-relation-parent" transform="translate(-53 -36)">
    <rect id="area" width="50" height="50" transform="translate(53 36)" fill="none"/>
    <path id="icon" d="M31.143,6.855A4.852,4.852,0,0,0,26.458,10.5H21.344A9.709,9.709,0,1,0,10.5,21.333v5.112a4.857,4.857,0,1,0,2.429,0V21.335a9.658,9.658,0,0,0,4.733-1.966l4.455,4.454a4.8,4.8,0,0,0-.688,2.45,4.857,4.857,0,1,0,4.857-4.855,4.8,4.8,0,0,0-2.452.688l-4.456-4.454a9.646,9.646,0,0,0,1.968-4.73h5.113a4.848,4.848,0,1,0,4.684-6.068m-17,24.273A2.429,2.429,0,1,1,11.714,28.7a2.428,2.428,0,0,1,2.429,2.427M11.714,18.991A7.282,7.282,0,1,1,19,11.709a7.284,7.284,0,0,1-7.286,7.282m17,7.282a2.429,2.429,0,1,1-2.429-2.427,2.428,2.428,0,0,1,2.429,2.427m2.429-12.136a2.427,2.427,0,1,1,2.429-2.427,2.428,2.428,0,0,1-2.429,2.427" transform="translate(59 42)" fill="currentColor" stroke="currentColor" stroke-width="0.5"/>
  </g>
</svg>
