<svg xmlns="http://www.w3.org/2000/svg" width="50" height="50" viewBox="0 0 50 50">
  <g id="A-033-line-fork-git-network" transform="translate(-53 -36)">
    <rect id="area" width="50" height="50" transform="translate(53 36)" fill="none"/>
    <path id="icon" d="M66,37.68a5.667,5.667,0,1,0-7.083,5.49v1.594A2.834,2.834,0,0,1,56.081,47.6H41.915a2.834,2.834,0,0,1-2.833-2.834V43.17a5.667,5.667,0,1,0-2.833,0v1.594a5.667,5.667,0,0,0,5.667,5.668h5.667V54.86a5.667,5.667,0,1,0,2.833,0V50.432h5.667a5.667,5.667,0,0,0,5.667-5.668V43.17A5.678,5.678,0,0,0,66,37.68m-31.166,0a2.833,2.833,0,1,1,2.833,2.834,2.834,2.834,0,0,1-2.833-2.834m17,22.67A2.833,2.833,0,1,1,49,57.516a2.834,2.834,0,0,1,2.833,2.834m8.5-19.837a2.834,2.834,0,1,1,2.833-2.834,2.834,2.834,0,0,1-2.833,2.834" transform="translate(29.002 11.985)" fill="currentColor"/>
  </g>
</svg>
