<svg xmlns="http://www.w3.org/2000/svg" width="50" height="50" viewBox="0 0 50 50">
  <g id="A-032-branch-connect-network" transform="translate(-53 -36)">
    <rect id="area" width="50" height="50" transform="translate(53 36)" fill="none"/>
    <path id="icon" d="M35.643,22.818a5.6,5.6,0,0,0-5.407,4.2H24.43a4.209,4.209,0,0,1-4.2-4.2V17.212a6.939,6.939,0,0,0-1.438-4.2H30.236a5.606,5.606,0,1,0,0-2.8H13.019a5.606,5.606,0,1,0,0,2.8h.2a4.209,4.209,0,0,1,4.2,4.2v5.606a7.016,7.016,0,0,0,7.008,7.008h5.805a5.6,5.6,0,1,0,5.407-7.008m0-14.015a2.8,2.8,0,1,1-2.8,2.8,2.8,2.8,0,0,1,2.8-2.8M7.612,14.409a2.8,2.8,0,1,1,2.8-2.8,2.8,2.8,0,0,1-2.8,2.8M35.643,31.228a2.8,2.8,0,1,1,2.8-2.8,2.8,2.8,0,0,1-2.8,2.8" transform="translate(56.015 41)" fill="currentColor"/>
  </g>
</svg>
