<svg xmlns="http://www.w3.org/2000/svg" width="50" height="50" viewBox="0 0 50 50">
  <g id="A-030-line-connect-area" transform="translate(-53 -36)">
    <rect id="area" width="50" height="50" transform="translate(53 36)" fill="none"/>
    <path id="icon" d="M36,6.853a4.847,4.847,0,0,0-9.686-.272L11.211,9.6a4.845,4.845,0,1,0-5.568,6.794V26.453a4.847,4.847,0,1,0,5.9,5.9H21.6a4.846,4.846,0,1,0,6.794-5.568l3.02-15.1A4.851,4.851,0,0,0,36,6.853M31.142,4.424a2.428,2.428,0,1,1-2.428,2.428,2.428,2.428,0,0,1,2.428-2.428M4.429,11.71a2.428,2.428,0,1,1,2.428,2.428A2.428,2.428,0,0,1,4.429,11.71M6.857,33.566a2.428,2.428,0,1,1,2.428-2.428,2.428,2.428,0,0,1-2.428,2.428M21.6,29.923H11.542a4.85,4.85,0,0,0-3.47-3.47V16.394a4.841,4.841,0,0,0,3.615-4.413l15.1-3.02a4.863,4.863,0,0,0,2.245,2.246l-3.02,15.1A4.841,4.841,0,0,0,21.6,29.923m4.685,3.643a2.428,2.428,0,1,1,2.428-2.428,2.428,2.428,0,0,1-2.428,2.428" transform="translate(59.501 42.48)" fill="currentColor" stroke="currentColor" stroke-width="0.35"/>
  </g>
</svg>
