<svg xmlns="http://www.w3.org/2000/svg" width="50" height="50" viewBox="0 0 50 50">
  <g id="A-037-topo-cloud-line-connect" transform="translate(-53 -36)">
    <rect id="area" width="50" height="50" transform="translate(53 36)" fill="none"/>
    <path id="icon" d="M31.113,26.264a4.374,4.374,0,0,0-2.426.728l-5.562-5.581L21.41,23.127l5.579,5.564A5.067,5.067,0,0,0,26.5,29.9H11.534a4.311,4.311,0,0,0-.556-1.213L28.687,10.978a4.374,4.374,0,0,0,2.426.728A4.853,4.853,0,1,0,26.435,5.64H11.585A4.948,4.948,0,0,0,6.855,2a4.853,4.853,0,0,0,0,9.706,4.374,4.374,0,0,0,2.426-.728l5.562,5.581,1.715-1.715L10.979,9.279a5.066,5.066,0,0,0,.485-1.213H26.433a4.313,4.313,0,0,0,.556,1.213L9.281,26.992a4.374,4.374,0,0,0-2.426-.728,4.853,4.853,0,1,0,4.678,6.066H26.382a4.866,4.866,0,1,0,4.73-6.066m0-21.838a2.426,2.426,0,1,1-2.426,2.426,2.426,2.426,0,0,1,2.426-2.426M6.855,9.279A2.426,2.426,0,1,1,9.281,6.853,2.426,2.426,0,0,1,6.855,9.279m0,24.264a2.426,2.426,0,1,1,2.426-2.426,2.426,2.426,0,0,1-2.426,2.426m24.258,0a2.426,2.426,0,1,1,2.426-2.426,2.426,2.426,0,0,1-2.426,2.426" transform="translate(59.016 42)" fill="currentColor" stroke="currentColor" stroke-width="0.45"/>
  </g>
</svg>
