<svg xmlns="http://www.w3.org/2000/svg" width="50" height="50" viewBox="0 0 50 50">
  <g id="A-047-circle-dashed" transform="translate(-53 -36)">
    <rect id="area" width="50" height="50" transform="translate(53 36)" fill="none"/>
    <path id="icon" d="M38.736,26.126a1.308,1.308,0,0,1,.938-1.6,17.016,17.016,0,0,1,8.5,0,1.308,1.308,0,0,1-.327,2.574,1.332,1.332,0,0,1-.327-.042,14.4,14.4,0,0,0-7.192,0,1.308,1.308,0,0,1-1.592-.937m-6.942,2.957a17.007,17.007,0,0,0-4.25,7.355,1.308,1.308,0,1,0,2.52.7,14.383,14.383,0,0,1,3.6-6.226,1.308,1.308,0,0,0-1.867-1.827M30.065,44.84a1.308,1.308,0,0,0-2.52.7,17.018,17.018,0,0,0,4.25,7.355,1.308,1.308,0,1,0,1.865-1.834,14.406,14.406,0,0,1-3.594-6.221M47.519,54.92a14.383,14.383,0,0,1-7.192,0,1.308,1.308,0,1,0-.654,2.532,17.016,17.016,0,0,0,8.5,0,1.307,1.307,0,1,0-.654-2.532M59.394,43.933a1.308,1.308,0,0,0-1.61.912,14.369,14.369,0,0,1-3.6,6.224A1.308,1.308,0,1,0,56.055,52.9a17,17,0,0,0,4.25-7.355,1.308,1.308,0,0,0-.91-1.613m-1.612-6.79a1.308,1.308,0,1,0,2.52-.7,17,17,0,0,0-4.25-7.355,1.308,1.308,0,0,0-1.865,1.834,14.384,14.384,0,0,1,3.594,6.219Z" transform="translate(34.004 20.009)" fill="currentColor" stroke="currentColor" stroke-width="0.35"/>
  </g>
</svg>
