<svg xmlns="http://www.w3.org/2000/svg" width="50" height="50" viewBox="0 0 50 50">
  <g id="A-040-event-process-line-auto" transform="translate(-53 -36)">
    <rect id="area" width="50" height="50" transform="translate(53 36)" fill="none"/>
    <g id="icon" transform="translate(60.393 43)">
      <circle id="Ellipse_15" data-name="Ellipse 15" cx="2.483" cy="2.483" r="2.483" transform="translate(-0.394 23.586)" fill="currentColor" stroke="currentColor" stroke-width="0.4"/>
      <path id="Path_242" data-name="Path 242" d="M15.366,32.186a11.827,11.827,0,0,1-9.6-4.937L7.788,25.8A9.311,9.311,0,0,0,24.66,20.942l2.479.144a11.8,11.8,0,0,1-11.773,11.1" transform="translate(-0.995 3.814)" fill="currentColor" stroke="currentColor" stroke-width="0.4"/>
      <circle id="Ellipse_16" data-name="Ellipse 16" cx="2.483" cy="2.483" r="2.483" transform="translate(29.4 24.828)" fill="currentColor" stroke="currentColor" stroke-width="0.4"/>
      <path id="Path_243" data-name="Path 243" d="M35.382,22.014l-2.388-.677A9.32,9.32,0,0,0,24.034,9.483a9.233,9.233,0,0,0-3.833.823L19.178,8.044a11.8,11.8,0,0,1,16.2,13.97m-12.7-5.6-3.724-3.724a2.483,2.483,0,0,0-3.511,0l-3.724,3.724a2.481,2.481,0,0,0,0,3.511l3.724,3.724a2.481,2.481,0,0,0,3.511,0l3.724-3.724a2.481,2.481,0,0,0,0-3.511M17.207,21.9l-3.724-3.724,3.724-3.724,3.724,3.724Z" transform="translate(0.267 0.448)" fill="currentColor" stroke="currentColor" stroke-width="0.4"/>
      <circle id="Ellipse_17" data-name="Ellipse 17" cx="2.483" cy="2.483" r="2.483" transform="translate(14.503)" fill="currentColor" stroke="currentColor" stroke-width="0.4"/>
      <path id="Path_244" data-name="Path 244" d="M9.238,24.194A11.8,11.8,0,0,1,14.1,2.016L14.244,4.5A9.313,9.313,0,0,0,10.41,22Z" transform="translate(-1.664 -0.755)" fill="currentColor" stroke="currentColor" stroke-width="0.4"/>
    </g>
  </g>
</svg>
