<svg xmlns="http://www.w3.org/2000/svg" width="50" height="50" viewBox="0 0 50 50">
  <g id="A-055-circles-intersect" transform="translate(-53 -36)">
    <rect id="area" width="50" height="50" transform="translate(53 36)" fill="none"/>
    <path id="icon" d="M41.465,26.48A12.854,12.854,0,1,0,26.48,41.465,12.854,12.854,0,1,0,41.465,26.48m-11.88,8.778,3.1,3.1a10.2,10.2,0,0,1-3.856.754,10.2,10.2,0,0,1,.754-3.856m5.423,1.788L30.9,32.938A10.388,10.388,0,0,1,32.938,30.9l4.108,4.108a10.388,10.388,0,0,1-2.039,2.039m3.353-4.359-3.1-3.1a10.2,10.2,0,0,1,3.856-.754,10.2,10.2,0,0,1-.754,3.856M18.548,28.831A10.283,10.283,0,0,1,38.793,26.26,12.867,12.867,0,0,0,26.268,38.793a10.3,10.3,0,0,1-7.72-9.962M39.114,49.4a10.3,10.3,0,0,1-9.962-7.712A12.867,12.867,0,0,0,41.685,29.152,10.283,10.283,0,0,1,39.114,49.4" transform="translate(44.028 27.028)" fill="currentColor" stroke="currentColor" stroke-width="0.35"/>
    <path id="Path_868" data-name="Path 868" d="M84.629,54.75s-6.7-1.53-10.448,3.588S71.753,68,71.753,68s6.227,0,10.29-4.485S84.629,54.75,84.629,54.75Z" fill="currentColor"/>
  </g>
</svg>
