<svg xmlns="http://www.w3.org/2000/svg" width="50" height="50" viewBox="0 0 50 50">
  <g id="A-053-circle-square-intersect" transform="translate(-53 -36)">
    <rect id="area" width="50" height="50" transform="translate(53 36)" fill="none"/>
    <g id="icon" transform="translate(61 44)">
      <path id="Path_511" data-name="Path 511" d="M3,15.278A12.278,12.278,0,1,0,15.278,3,12.278,12.278,0,0,0,3,15.278" transform="translate(-3 -3)" fill="none" stroke="currentColor" stroke-linecap="round" stroke-linejoin="round" stroke-width="3"/>
      <path id="Path_512" data-name="Path 512" d="M10,13.778A3.778,3.778,0,0,1,13.778,10H27a3.778,3.778,0,0,1,3.778,3.778V27A3.778,3.778,0,0,1,27,30.778H13.778A3.778,3.778,0,0,1,10,27Z" transform="translate(3.222 3.222)" fill="none" stroke="currentColor" stroke-linecap="round" stroke-linejoin="round" stroke-width="3"/>
    </g>
  </g>
</svg>
