<svg xmlns="http://www.w3.org/2000/svg" width="50" height="50" viewBox="0 0 50 50">
  <g id="A-054-chart-circles-intersect" transform="translate(-53 -36)">
    <rect id="area" width="50" height="50" transform="translate(53 36)" fill="none"/>
    <path id="icon" d="M54.116,36.926c.013-.235.022-.472.022-.718a12.207,12.207,0,0,0-24.415,0c0,.239,0,.476.022.718A12.207,12.207,0,1,0,41.93,58.046,12.207,12.207,0,1,0,54.116,36.926M41.93,54.423a9.315,9.315,0,0,1-2.872-6.351,12.127,12.127,0,0,0,5.727,0,9.315,9.315,0,0,1-2.854,6.351m0-8.881a9.322,9.322,0,0,1-2.528-.35A9.346,9.346,0,0,1,41.93,40.97a9.346,9.346,0,0,1,2.528,4.222,9.322,9.322,0,0,1-2.528.35m-5.165-1.564a9.369,9.369,0,0,1-3.826-5.258,9.314,9.314,0,0,1,6.6.589,12.238,12.238,0,0,0-2.779,4.669M44.316,39.3a9.314,9.314,0,0,1,6.6-.58,9.369,9.369,0,0,1-3.826,5.267A12.238,12.238,0,0,0,44.316,39.3M41.93,26.872a9.346,9.346,0,0,1,9.335,8.96,12.157,12.157,0,0,0-9.335,1.515A12.157,12.157,0,0,0,32.6,35.832a9.346,9.346,0,0,1,9.326-8.96M26.132,47.7a9.335,9.335,0,0,1,4.17-7.771,12.272,12.272,0,0,0,5.9,7.053c-.013.235-.022.472-.022.718a12.161,12.161,0,0,0,3.359,8.4,9.335,9.335,0,0,1-13.412-8.4m22.261,9.335a9.273,9.273,0,0,1-4.077-.939,12.161,12.161,0,0,0,3.359-8.4c0-.239-.009-.476-.022-.718a12.272,12.272,0,0,0,5.9-7.061,9.335,9.335,0,0,1-5.165,17.114" transform="translate(35.902 19)" fill="currentColor"/>
  </g>
</svg>
