<svg xmlns="http://www.w3.org/2000/svg" width="50" height="50" viewBox="0 0 50 50">
  <g id="B-006-keyframe-ease-out" transform="translate(-53 -36)">
    <rect id="area" width="50" height="50" transform="translate(53 36)" fill="none"/>
    <path id="Path_843" data-name="Path 843" d="M13.217,28.026.975,15.784a1.619,1.619,0,0,1,0-2.29L13.493.974A1.619,1.619,0,0,1,14.638.5h9.394A1.619,1.619,0,0,1,25.35,3.061l-7.5,10.5a1.621,1.621,0,0,0,0,1.882l7.5,10.5A1.619,1.619,0,0,1,24.032,28.5h-9.67A1.619,1.619,0,0,1,13.217,28.026Z" transform="translate(64.923 46.5)" fill="none" stroke="currentColor" stroke-miterlimit="10" stroke-width="3"/>
  </g>
</svg>
