<svg xmlns="http://www.w3.org/2000/svg" width="50" height="50" viewBox="0 0 50 50">
  <g id="B-005-keyframe-ease-in" transform="translate(-53 -36)">
    <rect id="area" width="50" height="50" transform="translate(53 36)" fill="none"/>
    <path id="Path_842" data-name="Path 842" d="M12.937,28.026,25.18,15.783a1.619,1.619,0,0,0,0-2.29L12.661.974A1.619,1.619,0,0,0,11.516.5H2.122A1.619,1.619,0,0,0,.8,3.061l7.5,10.5a1.621,1.621,0,0,1,0,1.882L.8,25.939A1.619,1.619,0,0,0,2.122,28.5h9.67A1.619,1.619,0,0,0,12.937,28.026Z" transform="translate(64.923 46.5)" fill="none" stroke="currentColor" stroke-miterlimit="10" stroke-width="3"/>
  </g>
</svg>
