<svg xmlns="http://www.w3.org/2000/svg" width="50" height="50" viewBox="0 0 50 50">
  <g id="B-007-keyframe-easy-ease" transform="translate(-53 -36)">
    <rect id="area" width="50" height="50" transform="translate(53 36)" fill="none"/>
    <path id="Path_844" data-name="Path 844" d="M2.093.5H21.274a1.59,1.59,0,0,1,1.374,2.39L16.349,13.7a1.59,1.59,0,0,0,0,1.6l6.3,10.809a1.59,1.59,0,0,1-1.374,2.39H2.093A1.59,1.59,0,0,1,.727,26.1L7.152,15.314a1.591,1.591,0,0,0,0-1.628L.727,2.9A1.59,1.59,0,0,1,2.093.5Z" transform="translate(66.317 46.5)" fill="none" stroke="currentColor" stroke-miterlimit="10" stroke-width="3"/>
  </g>
</svg>
