<svg xmlns="http://www.w3.org/2000/svg" width="50" height="50" viewBox="0 0 50 50">
  <g id="B-017-keyframe-add-alt" transform="translate(-53 -36)">
    <rect id="area" width="50" height="50" transform="translate(53 36)" fill="none"/>
    <path id="Path_817" data-name="Path 817" d="M25.627,17.14,16.262,27.677a3.519,3.519,0,0,1-5.259,0L1.638,17.14a3.519,3.519,0,0,1,0-4.674L11,1.93a3.519,3.519,0,0,1,5.259,0l9.365,10.536A3.515,3.515,0,0,1,25.627,17.14Z" transform="translate(64.367 46.196)" fill="none" stroke="currentColor" stroke-linecap="round" stroke-linejoin="round" stroke-width="3"/>
    <path id="Path_818" data-name="Path 818" d="M5.074,11.017h5.277m5.277,0H10.351m0,0V5.74m0,5.277v5.277" transform="translate(67.648 49.984)" fill="none" stroke="currentColor" stroke-linecap="round" stroke-linejoin="round" stroke-width="3"/>
  </g>
</svg>
