<svg xmlns="http://www.w3.org/2000/svg" width="50" height="50" viewBox="0 0 50 50">
  <g id="B-014-keyframe-remove-delete" transform="translate(-53 -36)">
    <rect id="area" width="50" height="50" transform="translate(53 36)" fill="none"/>
    <path id="Path_817" data-name="Path 817" d="M25.541,17.084l-9.332,10.5a3.507,3.507,0,0,1-5.241,0l-9.332-10.5a3.507,3.507,0,0,1,0-4.657l9.332-10.5a3.507,3.507,0,0,1,5.241,0l9.332,10.5A3.5,3.5,0,0,1,25.541,17.084Z" transform="translate(64.25 46.25)" fill="none" stroke="currentColor" stroke-linecap="round" stroke-linejoin="round" stroke-width="3"/>
    <path id="Path_818" data-name="Path 818" d="M0,5.259H5.259m5.259,0H5.259m0,0V0m0,5.259v5.259" transform="translate(77.838 53.569) rotate(45)" fill="none" stroke="currentColor" stroke-linecap="round" stroke-linejoin="round" stroke-width="3"/>
  </g>
</svg>
