<svg xmlns="http://www.w3.org/2000/svg" width="50" height="50" viewBox="0 0 50 50">
  <g id="B-019-keyframe-add-multi" transform="translate(-53 -36)">
    <rect id="area" width="50" height="50" transform="translate(53 36)" fill="none"/>
    <path id="Path_813" data-name="Path 813" d="M.75,10.68H6.68m5.93,0H6.68m0,0V4.75m0,5.93v5.93" transform="translate(57.25 50.157)" fill="none" stroke="currentColor" stroke-linecap="round" stroke-linejoin="round" stroke-width="3"/>
    <path id="Path_814" data-name="Path 814" d="M5,2.69l.484-.553a3.955,3.955,0,0,1,5.95,0l8.585,9.81a3.957,3.957,0,0,1,0,5.207l-8.585,9.81a3.952,3.952,0,0,1-5.95,0L5,26.41" transform="translate(61.401 46.287)" fill="none" stroke="currentColor" stroke-linecap="round" stroke-linejoin="round" stroke-width="3"/>
    <path id="Path_815" data-name="Path 815" d="M11.75,28.424,21.4,17.16a3.956,3.956,0,0,0,0-5.147L11.75.75" transform="translate(67.993 46.25)" fill="none" stroke="currentColor" stroke-linecap="round" stroke-linejoin="round" stroke-width="3"/>
    <path id="Path_816" data-name="Path 816" d="M15.75,28.424,25.4,17.16a3.956,3.956,0,0,0,0-5.147L15.75.75" transform="translate(71.9 46.25)" fill="none" stroke="currentColor" stroke-linecap="round" stroke-linejoin="round" stroke-width="3"/>
  </g>
</svg>
