<svg xmlns="http://www.w3.org/2000/svg" width="50" height="50" viewBox="0 0 50 50">
  <g id="B-022-keyframe-remove-delete-multi" transform="translate(-53 -36)">
    <rect id="area" width="50" height="50" transform="translate(53 36)" fill="none"/>
    <path id="Path_819" data-name="Path 819" d="M.75,7.75H12.321" transform="translate(57.25 53.75)" fill="none" stroke="currentColor" stroke-linecap="round" stroke-linejoin="round" stroke-width="3"/>
    <path id="Path_820" data-name="Path 820" d="M5,2.644l.472-.54a3.858,3.858,0,0,1,5.805,0l8.376,9.571a3.861,3.861,0,0,1,0,5.08l-8.376,9.572a3.856,3.856,0,0,1-5.805,0L5,25.787" transform="translate(61.196 47.285)" fill="none" stroke="currentColor" stroke-linecap="round" stroke-linejoin="round" stroke-width="3"/>
    <path id="Path_821" data-name="Path 821" d="M11.75,27.75l9.419-10.989a3.859,3.859,0,0,0,0-5.022L11.75.75" transform="translate(67.464 47.25)" fill="none" stroke="currentColor" stroke-linecap="round" stroke-linejoin="round" stroke-width="3"/>
    <path id="Path_822" data-name="Path 822" d="M15.75,27.75l9.419-10.989a3.859,3.859,0,0,0,0-5.022L15.75.75" transform="translate(71.179 47.25)" fill="none" stroke="currentColor" stroke-linecap="round" stroke-linejoin="round" stroke-width="3"/>
  </g>
</svg>
