<svg xmlns="http://www.w3.org/2000/svg" width="50" height="50" viewBox="0 0 50 50">
  <g id="B-033-signal-audio-waveform" transform="translate(-53 -36)">
    <rect id="area" width="50" height="50" transform="translate(53 36)" fill="none"/>
    <path id="icon" d="M2,16.29a2.9,2.9,0,0,0,3.125-2.6V8.5A2.9,2.9,0,0,1,8.249,5.9a2.9,2.9,0,0,1,3.125,2.6V25.383a2.9,2.9,0,0,0,3.125,2.6,2.9,2.9,0,0,0,3.125-2.6V4.6A2.9,2.9,0,0,1,20.748,2a2.9,2.9,0,0,1,3.125,2.6V21.486A2.9,2.9,0,0,0,27,24.084a2.9,2.9,0,0,0,3.125-2.6v-5.2a2.9,2.9,0,0,1,3.125-2.6" transform="translate(60.377 46.009)" fill="none" stroke="currentColor" stroke-linecap="round" stroke-linejoin="round" stroke-width="3"/>
  </g>
</svg>
