<svg xmlns="http://www.w3.org/2000/svg" width="50" height="50" viewBox="0 0 50 50">
  <g id="B-034-signal-waveform-audio" transform="translate(-53 -36)">
    <rect id="area" width="50" height="50" transform="translate(53 36)" fill="none"/>
    <path id="Path_859" data-name="Path 859" d="M3.263,12.054H6.049a1.662,1.662,0,0,1,1.535,1.024l1.982,7.376a1.661,1.661,0,0,0,3.09-.055l5-18.321a1.661,1.661,0,0,1,3.03-.185l6.024,15.66a1.662,1.662,0,0,0,2.932.029l3.634-9.595a1.662,1.662,0,0,1,2.739-.262L38.1,11.471a1.663,1.663,0,0,0,1.306.6l2.19-.033" transform="translate(55.573 49.761)" fill="none" stroke="currentColor" stroke-linecap="round" stroke-miterlimit="10" stroke-width="3"/>
  </g>
</svg>
