<svg xmlns="http://www.w3.org/2000/svg" width="50" height="50" viewBox="0 0 50 50">
  <g id="B-037-signal-waveform-audio" transform="translate(-53 -36)">
    <rect id="area" width="50" height="50" transform="translate(53 36)" fill="none"/>
    <path id="Path_700" data-name="Path 700" d="M6.868,0A1.374,1.374,0,0,0,5.494,1.374V22.382a1.374,1.374,0,1,0,2.747,0V1.374A1.374,1.374,0,0,0,6.868,0M17.856,0a1.374,1.374,0,0,0-1.374,1.374V22.382a1.373,1.373,0,1,0,2.747,0V1.374A1.374,1.374,0,0,0,17.856,0M28.844,0A1.374,1.374,0,0,0,27.47,1.374V22.382a1.374,1.374,0,1,0,2.747,0V1.374A1.374,1.374,0,0,0,28.844,0M1.374,5.494A1.374,1.374,0,0,0,0,6.868V16.888a1.374,1.374,0,0,0,2.747,0V6.868A1.374,1.374,0,0,0,1.374,5.494m10.988,0a1.374,1.374,0,0,0-1.373,1.374V16.888a1.373,1.373,0,0,0,2.747,0V6.868a1.374,1.374,0,0,0-1.374-1.374m10.988,0a1.374,1.374,0,0,0-1.374,1.374V16.888a1.374,1.374,0,0,0,2.747,0V6.868A1.374,1.374,0,0,0,23.35,5.494m10.988,0a1.374,1.374,0,0,0-1.374,1.374V16.888a1.374,1.374,0,0,0,2.747,0V6.868a1.374,1.374,0,0,0-1.374-1.374" transform="translate(60.144 49.122)" fill="currentColor" fill-rule="evenodd"/>
  </g>
</svg>
