<svg xmlns="http://www.w3.org/2000/svg" width="50" height="50" viewBox="0 0 50 50">
  <g id="B-030-wave-sine" transform="translate(-53 -36)">
    <rect id="area" width="50" height="50" transform="translate(53 36)" fill="none"/>
    <path id="icon" d="M55.478,69.323c-3.887,8.27-7.315,12.122-10.814,12.122-4.435,0-7.2-5.888-10.121-12.122-2.308-4.919-4.923-10.5-7.556-10.5-2.9,0-6.416,6.575-8.255,10.5a1.413,1.413,0,1,1-2.559-1.2C20.044,59.852,23.481,56,26.987,56c4.435,0,7.2,5.888,10.121,12.122,2.3,4.919,4.916,10.5,7.549,10.5,2.9,0,6.416-6.575,8.255-10.5a1.413,1.413,0,1,1,2.559,1.2Z" transform="translate(42.272 -8.087)" fill="currentColor" stroke="currentColor" stroke-width="0.2"/>
  </g>
</svg>
