<svg xmlns="http://www.w3.org/2000/svg" width="50" height="50" viewBox="0 0 50 50">
  <g id="B-045-spinner" transform="translate(-53 -36)">
    <rect id="area" width="50" height="50" transform="translate(53 36)" fill="none"/>
    <path id="icon" d="M39.912,25.137v4.546a1.137,1.137,0,0,1-2.273,0V25.137a1.137,1.137,0,0,1,2.273,0M45.2,33.483a1.137,1.137,0,0,0,.8-.334l3.215-3.214a1.137,1.137,0,0,0-1.608-1.608L44.4,31.543a1.137,1.137,0,0,0,.8,1.941m7.21,4.156H47.869a1.137,1.137,0,1,0,0,2.273h4.546a1.137,1.137,0,1,0,0-2.273M46.009,44.4A1.137,1.137,0,0,0,44.4,46.009l3.214,3.215a1.137,1.137,0,0,0,1.608-1.608Zm-7.233,2.33a1.137,1.137,0,0,0-1.137,1.137v4.546a1.137,1.137,0,1,0,2.273,0V47.869a1.137,1.137,0,0,0-1.137-1.137M31.543,44.4l-3.215,3.214a1.137,1.137,0,0,0,1.608,1.608l3.214-3.215A1.137,1.137,0,0,0,31.543,44.4m-.723-5.626a1.137,1.137,0,0,0-1.137-1.137H25.137a1.137,1.137,0,0,0,0,2.273h4.546a1.137,1.137,0,0,0,1.137-1.137m-.884-10.448a1.137,1.137,0,1,0-1.608,1.608l3.215,3.214a1.137,1.137,0,0,0,1.607-1.607Z" transform="translate(39 22)" fill="currentColor" stroke="currentColor" stroke-width="0.3"/>
  </g>
</svg>
