<svg xmlns="http://www.w3.org/2000/svg" width="50" height="50" viewBox="0 0 50 50">
  <g id="B-046-motion-interactive" transform="translate(-53 -36)">
    <rect id="area" width="50" height="50" transform="translate(53 36)" fill="none"/>
    <path id="Path_880" data-name="Path 880" d="M14.021,29.717a1.637,1.637,0,0,0,.2.792,1.675,1.675,0,1,0-.2-.792M7.236,27a1.674,1.674,0,1,0,1.449-.834A1.668,1.668,0,0,0,7.236,27m14.63-.615a1.67,1.67,0,1,0,.829-.223,1.656,1.656,0,0,0-.829.223M2.717,21.259a1.676,1.676,0,1,0,.841-.226,1.666,1.666,0,0,0-.841.226m23.671.606a1.673,1.673,0,1,0,1.449-.834,1.677,1.677,0,0,0-1.449.834M0,15.7A1.677,1.677,0,1,0,1.671,14.02,1.673,1.673,0,0,0,0,15.7m27.617,0a2.093,2.093,0,1,0,3.828-1.17,2.093,2.093,0,0,0-3.828,1.17M13.775,12.37a3.84,3.84,0,1,0,1.913-.513,3.841,3.841,0,0,0-1.913.513M2.1,7.845a1.686,1.686,0,0,0,.023,1.718,1.648,1.648,0,0,0,.586.569A1.673,1.673,0,1,0,2.1,7.845M26.3,6.017a3.07,3.07,0,1,0,1.53-.411,3.08,3.08,0,0,0-1.53.411M7.849,2.106a1.667,1.667,0,1,0,.835-.224,1.667,1.667,0,0,0-.835.224m13.044.4a2.085,2.085,0,1,0,1.815-1.05,2.087,2.087,0,0,0-1.815,1.05M15.692,0a1.662,1.662,0,1,0,1.391.732A1.674,1.674,0,0,0,15.692,0Z" transform="translate(62.098 45.306)" fill="currentColor" stroke="currentColor" stroke-width="0.7"/>
  </g>
</svg>
