<svg xmlns="http://www.w3.org/2000/svg" width="50" height="50" viewBox="0 0 50 50">
  <g id="B-049-audio-wave-sound" transform="translate(-53 -36)">
    <rect id="area" width="50" height="50" transform="translate(53 36)" fill="none"/>
    <path id="Path_853" data-name="Path 853" d="M7.412,2.721h0L5.6.909,5.577.931A19.039,19.039,0,0,0,5.521,27.8l1.812-1.812A16.457,16.457,0,0,1,7.412,2.721Z" transform="translate(58.959 46.664)" fill="currentColor" stroke="currentColor" stroke-width="0.2"/>
    <path id="Path_854" data-name="Path 854" d="M385.136.1l-.1-.1-1.812,1.812a16.457,16.457,0,0,1,.221,23.273l-.1.1L385.158,27A19.04,19.04,0,0,0,385.136.1Z" transform="translate(-293.672 47.5)" fill="currentColor" stroke="currentColor" stroke-width="0.2"/>
    <path id="Path_855" data-name="Path 855" d="M95.945,66.368a11.636,11.636,0,0,0-.079,16.441L97.672,81a9.085,9.085,0,0,1,.079-12.83Z" transform="translate(-26.16 -13.57)" fill="currentColor" stroke="currentColor" stroke-width="0.2"/>
    <path id="Path_856" data-name="Path 856" d="M317.853,67.266a9.085,9.085,0,0,1,.209,12.847l-.089.091,1.806,1.806a11.636,11.636,0,0,0-.025-16.455l-.095-.093Z" transform="translate(-233.518 -12.735)" fill="currentColor" stroke="currentColor" stroke-width="0.2"/>
    <path id="Path_857" data-name="Path 857" d="M190.194,115.152a4.464,4.464,0,1,0,1.41,3.254,4.464,4.464,0,0,0-1.41-3.254m-3.061,5.17a1.916,1.916,0,1,1,1.916-1.916A1.916,1.916,0,0,1,187.133,120.322Z" transform="translate(-109.133 -57.347)" fill="currentColor" stroke="currentColor" stroke-width="0.2"/>
  </g>
</svg>
