<svg xmlns="http://www.w3.org/2000/svg" width="50" height="50" viewBox="0 0 50 50">
  <g id="B-051-loop-infinite" transform="translate(-53 -36)">
    <rect id="area" width="50" height="50" transform="translate(53 36)" fill="none"/>
    <path id="Path_831" data-name="Path 831" d="M20.627,12.95a21.868,21.868,0,0,0,2.356,2.431,11.721,11.721,0,0,0,2.863,1.9,8.015,8.015,0,0,0,3.5.734,8.748,8.748,0,0,0,2.989-.613A9.17,9.17,0,0,0,36.9,13.469a9.148,9.148,0,0,0,1.013-6.154,8.89,8.89,0,0,0-2.89-5.062A9.143,9.143,0,0,0,29.286,0a7.307,7.307,0,0,0-2.914.514A11.4,11.4,0,0,0,23.548,2.19a24.355,24.355,0,0,0-4.006,4.257c-.613.778-1.221,1.559-1.818,2.344-.271.361-.546.723-.821,1.08-.031.039-.153.2-.024.031s-.012.012-.039.051c-.075.094-.145.189-.22.279-.153.2-.31.393-.467.585A25.36,25.36,0,0,1,14.182,13c-.346.338-.707.664-1.084.974-.051.039-.1.082-.149.122-.02.016-.043.031-.067.051s.228-.173.13-.1-.2.153-.306.228c-.192.137-.385.267-.585.389a9.076,9.076,0,0,1-1.194.624l.283-.118a6.757,6.757,0,0,1-1.748.483c.106-.016.208-.027.314-.043a7.076,7.076,0,0,1-1.822-.016c.106.016.208.027.314.043A7.921,7.921,0,0,1,6.281,15.1l.283.118a7.94,7.94,0,0,1-1.323-.711c-.1-.067-.2-.137-.295-.208-.232-.173.185.149.035.027-.055-.043-.106-.086-.161-.13a6.89,6.89,0,0,1-.53-.487c-.169-.173-.33-.346-.487-.53-.043-.051-.086-.106-.13-.161-.13-.161.189.255.043.055-.075-.106-.149-.208-.224-.314a7.94,7.94,0,0,1-.711-1.323l.118.283A8.091,8.091,0,0,1,2.362,9.73c.016.106.027.208.043.314a7.967,7.967,0,0,1,0-2.074c-.016.106-.027.208-.043.314A7.921,7.921,0,0,1,2.9,6.3l-.118.283a7.94,7.94,0,0,1,.711-1.323c.067-.1.137-.2.208-.295.173-.232-.149.185-.027.035.043-.055.086-.106.13-.161a6.89,6.89,0,0,1,.487-.53c.173-.169.346-.33.53-.487.051-.043.106-.086.161-.13.161-.13-.255.189-.055.043L5.24,3.51A7.94,7.94,0,0,1,6.564,2.8l-.283.118a8.091,8.091,0,0,1,1.987-.538c-.106.016-.208.027-.314.043a7.014,7.014,0,0,1,1.814-.016c-.106-.016-.208-.027-.314-.043a6.776,6.776,0,0,1,1.7.467l-.283-.118a9.279,9.279,0,0,1,1.378.734c.224.145.44.3.656.459.181.134-.2-.165-.039-.031l.173.137c.106.086.212.173.314.263a22.031,22.031,0,0,1,2.329,2.4,1.182,1.182,0,0,0,1.665,0,1.208,1.208,0,0,0,0-1.665A21.724,21.724,0,0,0,15,2.591,11.257,11.257,0,0,0,12.152.714,7.907,7.907,0,0,0,8.665.007a8.768,8.768,0,0,0-2.957.62A9.169,9.169,0,0,0,1.152,4.574a9.179,9.179,0,0,0-1,6.158,8.88,8.88,0,0,0,2.906,5.054A9.149,9.149,0,0,0,8.779,18.02a7.4,7.4,0,0,0,2.945-.526,11.645,11.645,0,0,0,2.839-1.681,23.819,23.819,0,0,0,4.006-4.261c.334-.428.66-.86.99-1.292.134-.173.263-.35.4-.522.031-.039.149-.192.012-.016s0,.008.031-.035l.2-.259c.581-.746,1.155-1.5,1.755-2.227a27.272,27.272,0,0,1,1.967-2.183c.35-.346.715-.679,1.1-.99.043-.035.086-.071.13-.1s.2-.157.031-.027-.008.008.031-.024l.177-.13c.189-.137.381-.267.581-.389a9.235,9.235,0,0,1,1.186-.624l-.283.118a6.7,6.7,0,0,1,1.74-.483c-.106.016-.208.027-.314.043a7.076,7.076,0,0,1,1.822.016c-.106-.016-.208-.027-.314-.043a7.921,7.921,0,0,1,1.987.538L31.509,2.8a7.94,7.94,0,0,1,1.323.711c.1.067.2.137.295.208.232.173-.185-.149-.035-.027.055.043.106.086.161.13a6.89,6.89,0,0,1,.53.487c.169.173.33.346.487.53.043.051.086.106.13.161.13.161-.188-.259-.043-.055.075.106.149.208.224.314a7.94,7.94,0,0,1,.711,1.323L35.173,6.3a8.091,8.091,0,0,1,.538,1.987c-.016-.106-.027-.208-.043-.314a7.967,7.967,0,0,1,0,2.074c.016-.106.027-.208.043-.314a7.921,7.921,0,0,1-.538,1.987l.118-.283a7.94,7.94,0,0,1-.711,1.323c-.067.1-.137.2-.208.295-.173.232.149-.185.027-.035-.043.055-.086.106-.13.161a6.89,6.89,0,0,1-.487.53c-.173.169-.346.33-.53.487-.051.043-.106.086-.161.13-.161.13.259-.189.055-.043l-.314.224a7.94,7.94,0,0,1-1.323.711l.283-.118a8.091,8.091,0,0,1-1.987.538c.106-.016.208-.027.314-.043a7.014,7.014,0,0,1-1.814.016c.106.016.208.027.314.043a6.958,6.958,0,0,1-1.767-.491l.283.118a9.234,9.234,0,0,1-1.386-.746c-.224-.149-.444-.306-.66-.467-.181-.134.2.165.039.031l-.173-.137c-.106-.086-.212-.177-.314-.267a21.828,21.828,0,0,1-2.333-2.411,1.184,1.184,0,0,0-.833-.346,1.186,1.186,0,0,0-.848,2.011" transform="translate(58.967 51.5)" fill="currentColor" stroke="currentColor" stroke-width="0.5"/>
  </g>
</svg>
