<svg xmlns="http://www.w3.org/2000/svg" width="50" height="50" viewBox="0 0 50 50">
  <g id="B-052-glitch-distort" transform="translate(-53 -36)">
    <rect id="area" width="50" height="50" transform="translate(53 36)" fill="none"/>
    <path id="Path_730" data-name="Path 730" d="M1.052,30A.958.958,0,0,1,0,28.948V1.053A.958.958,0,0,1,1.052,0H30.321a.958.958,0,0,1,1.052,1.053V28.948A.958.958,0,0,1,30.321,30ZM10.7,28.069h8.5l-.276-.894a16.649,16.649,0,0,1-.828-4.852v-.465l-.432-.175a10.634,10.634,0,0,1-1.688-.939c-.209-.133-.424-.269-.647-.406a14.031,14.031,0,0,0-4.635-2l-.653-.158-.177.647a12.246,12.246,0,0,0,.835,8.541Zm8.881-4.818A11.838,11.838,0,0,0,20.8,27.51l.19.385h8.282V21.335l-.928.339a15.817,15.817,0,0,1-5.492,1.178,12.477,12.477,0,0,1-2.44-.335l-.9-.182Zm-11.966-5.1a11.724,11.724,0,0,0-5.177,1.667l-.332.2V27.9H9.182L8.9,27a15.033,15.033,0,0,1-.557-8.007l.208-.913Zm14.28-3.678a3.107,3.107,0,0,1-.388.788c-.087.142-.177.292-.268.457a14.868,14.868,0,0,0-1.493,3.637l-.183.668.669.181a10.635,10.635,0,0,0,2.78.374A12.194,12.194,0,0,0,28.9,18.921l.362-.2V12.443l-.928.338a15.8,15.8,0,0,1-5.492,1.178h-.813ZM13,11.375a13.1,13.1,0,0,1-1.63,4.135l-.5.809.923.224a13.389,13.389,0,0,1,4.22,2l.058.038.065.026a4.1,4.1,0,0,1,.545.3,5.242,5.242,0,0,0,.744.4l.769.312.167-.813A13.1,13.1,0,0,1,20,14.665l.445-.721-.8-.291a18.8,18.8,0,0,1-4.294-2.019l-.058-.038-.065-.026a4.232,4.232,0,0,1-.545-.3,5.082,5.082,0,0,0-.744-.4l-.77-.312ZM8.361,9.427a12.2,12.2,0,0,0-5.892,1.653l-.362.2v6.573l.993-.484a13.568,13.568,0,0,1,5.712-1.151h.527l.14-.508a3.1,3.1,0,0,1,.387-.787c.087-.143.177-.293.269-.459a13.61,13.61,0,0,0,1.5-3.834l.153-.651L11.142,9.8a10.636,10.636,0,0,0-2.781-.374M22.474,3a15.048,15.048,0,0,1,.559,8.007l-.208.914.935-.071a11.73,11.73,0,0,0,5.176-1.667l.332-.2V2.1H22.19ZM12.449,3a16.63,16.63,0,0,1,.829,4.852v.465l.431.175a15.15,15.15,0,0,1,2.335,1.171,14.039,14.039,0,0,0,4.635,2l.653.159.177-.648A12.25,12.25,0,0,0,20.6,2.48L20.405,2.1H12.173ZM2.107,8.938l.984-.461A12.724,12.724,0,0,1,8.514,7.244a12.906,12.906,0,0,1,2.458.24l.895.174-.074-.909A11.828,11.828,0,0,0,10.578,2.49l-.19-.385H2.107Z" transform="translate(62.313 46)" fill="currentColor" stroke="currentColor" stroke-width="0.25"/>
  </g>
</svg>
