<svg xmlns="http://www.w3.org/2000/svg" width="50" height="50" viewBox="0 0 50 50">
  <g id="C-009-4K-resolution" transform="translate(-53 -36)">
    <rect id="area" width="50" height="50" transform="translate(53 36)" fill="none"/>
    <path id="Path_669" data-name="Path 669" d="M13.02,11.03v5.02H10.51V11.03H8v7.53h5.02v5.02h2.51V11.03Zm15.3,0H25.571l-3.765,5.51V11.03H19.3V23.581h2.51V20.154l1.142-1.669,2.623,5.1h2.749l-3.753-7.053Z" transform="translate(59.53 43.283)" fill="currentColor"/>
    <path id="Path_886" data-name="Path 886" d="M32.97,6H4.382A2.385,2.385,0,0,0,2,8.382V27.441a2.385,2.385,0,0,0,2.382,2.382H32.97a2.385,2.385,0,0,0,2.382-2.382V8.382A2.385,2.385,0,0,0,32.97,6m0,21.441H4.382V8.382H32.97Z" transform="translate(59.266 42.595)" fill="currentColor" stroke="currentColor" stroke-width="0.5"/>
  </g>
</svg>
