<svg xmlns="http://www.w3.org/2000/svg" width="50" height="50" viewBox="0 0 50 50">
  <g id="C-005-video-off" transform="translate(-53 -36)">
    <rect id="area" width="50" height="50" transform="translate(53 36)" fill="none"/>
    <path id="icon" d="M34.425,9.215a1.181,1.181,0,0,0-1.181.094L26.8,13.879V11.966L35.062,3.7,33.362,2,2,33.362l1.7,1.7,4.723-4.723H24.435A2.362,2.362,0,0,0,26.8,27.978V23.183l6.4,4.57a1.181,1.181,0,0,0,1.866-.956V10.266a1.181,1.181,0,0,0-.638-1.051M32.7,24.506l-6.4-4.57a1.181,1.181,0,0,0-1.866.956v7.085H10.785l13.65-13.65V16.17a1.181,1.181,0,0,0,1.866.956l6.4-4.57ZM4.362,27.978V9.085H23.254V6.723H4.362A2.362,2.362,0,0,0,2,9.085V27.978Z" transform="translate(59.938 42.938)" fill="currentColor" stroke="currentColor" stroke-width="0.5"/>
  </g>
</svg>
