<svg xmlns="http://www.w3.org/2000/svg" width="50" height="50" viewBox="0 0 50 50">
  <g id="C-002-film-strip-horizontal" transform="translate(-53 -36)">
    <rect id="area" width="50" height="50" transform="translate(53 36)" fill="none"/>
    <path id="icon" d="M55.068,40H26.589A2.589,2.589,0,0,0,24,42.589v23.3a2.589,2.589,0,0,0,2.589,2.589H55.068a2.589,2.589,0,0,0,2.589-2.589v-23.3A2.589,2.589,0,0,0,55.068,40M26.589,48.767H39.534V59.712H26.589Zm15.534-2.589V42.589H47.3v3.589Zm-2.589,0H34.356V42.589h5.178Zm0,16.123V65.89H34.356V62.3Zm2.589,0H47.3V65.89H42.123Zm0-2.589V48.767H55.068V59.712ZM55.068,46.178H49.89V42.589h5.178Zm-23.3-3.589v3.589H26.589V42.589ZM26.589,62.3h5.178V65.89H26.589ZM55.068,65.89H49.89V62.3h5.178Z" transform="translate(37 6.308)" fill="currentColor" stroke="currentColor" stroke-width="0.4"/>
  </g>
</svg>
