<svg xmlns="http://www.w3.org/2000/svg" width="50" height="50" viewBox="0 0 50 50">
  <g id="C-003-film-slate" transform="translate(-53 -36)">
    <rect id="area" width="50" height="50" transform="translate(53 36)" fill="none"/>
    <path id="icon" d="M56.159,37.409H37.074l18.079-4.773a1.34,1.34,0,0,0,.952-1.649l-1.367-5.026A2.669,2.669,0,0,0,51.484,24.1L25.969,30.831a2.639,2.639,0,0,0-1.625,1.24,2.6,2.6,0,0,0-.26,2.01l1.247,4.594V53.493a2.681,2.681,0,0,0,2.681,2.681H54.818A2.681,2.681,0,0,0,57.5,53.493V38.749a1.34,1.34,0,0,0-1.34-1.34M52.164,26.686l1.005,3.7-3.79,1.005-4.711-2.721ZM40.991,29.635,45.7,32.356l-6.189,1.634L34.8,31.272Zm-13.3,7.476-1.005-3.7,4.44-1.173,4.711,2.724Zm27.13,16.382H28.012V40.09H54.818Z" transform="translate(37.011 21.074)" fill="currentColor" stroke="currentColor" stroke-width="0.5"/>
  </g>
</svg>
