<svg xmlns="http://www.w3.org/2000/svg" width="50" height="50" viewBox="0 0 50 50">
  <g id="C-017-camera-aperture" transform="translate(-53 -36)">
    <rect id="area" width="50" height="50" transform="translate(53 36)" fill="none"/>
    <path id="icon" d="M16.755,2A14.755,14.755,0,1,0,31.51,16.755,14.755,14.755,0,0,0,16.755,2M29.234,14.795l-6.155,3.562V5.815a12.647,12.647,0,0,1,6.155,8.98M12.539,19.58V13.931l4.216-2.445,4.216,2.435v5.649l-4.216,2.456ZM20.971,4.825v6.661L10.79,5.6a12.542,12.542,0,0,1,10.181-.759ZM8.83,6.932l5.818,3.341L4.108,16.355A12.647,12.647,0,0,1,8.83,6.911ZM4.277,18.7l6.155-3.562V27.695A12.647,12.647,0,0,1,4.277,18.7m8.263,9.96v-6.64l10.192,5.881a12.563,12.563,0,0,1-5.976,1.5,12.7,12.7,0,0,1-4.216-.738m12.141-2.108-5.818-3.33L29.4,17.145A12.647,12.647,0,0,1,24.681,26.6Z" transform="translate(61 44)" fill="currentColor" stroke="currentColor" stroke-width="0.5"/>
  </g>
</svg>
