<svg xmlns="http://www.w3.org/2000/svg" width="50" height="50" viewBox="0 0 50 50">
  <g id="C-015-drop-photo-camera" transform="translate(-53 -36)">
    <rect id="area" width="50" height="50" transform="translate(53 36)" fill="none"/>
    <path id="Path_165" data-name="Path 165" d="M19.864,27.729a4.864,4.864,0,1,1,4.864-4.864,4.864,4.864,0,0,1-4.864,4.864m0-7.3A2.432,2.432,0,1,0,22.3,22.864a2.432,2.432,0,0,0-2.432-2.432" transform="translate(61.593 45.241)" fill="currentColor"/>
    <path id="Path_166" data-name="Path 166" d="M32.186,34.618H12.729A2.432,2.432,0,0,1,10.3,32.186V21.241a2.432,2.432,0,0,1,2.432-2.432h3.989l.66-1.985a2.432,2.432,0,0,1,2.308-1.664h5.543a2.432,2.432,0,0,1,2.308,1.664l.66,1.984h3.989a2.432,2.432,0,0,1,2.432,2.432V32.186a2.432,2.432,0,0,1-2.432,2.432M12.729,32.186H32.186V21.241h-5.74L25.23,17.593H19.685l-1.216,3.648h-5.74ZM32.186,12.729h2.432v2.432H32.186Zm0-4.864h2.432V10.3H32.186Zm0-4.864h2.432V5.432H32.186ZM27.322,3h2.432V5.432H27.322ZM22.457,3h2.432V5.432H22.457ZM17.593,3h2.432V5.432H17.593ZM12.729,3h2.432V5.432H12.729ZM7.864,3H10.3V5.432H7.864ZM3,3H5.432V5.432H3ZM3,7.864H5.432V10.3H3Zm0,4.864H5.432v2.432H3Zm0,4.864H5.432v2.432H3Zm0,4.864H5.432v2.432H3Zm0,4.864H5.432v2.432H3Zm0,4.864H5.432v2.432H3Z" transform="translate(59 42)" fill="currentColor" stroke="currentColor" stroke-width="0.5"/>
  </g>
</svg>
