<svg xmlns="http://www.w3.org/2000/svg" width="50" height="50" viewBox="0 0 50 50">
  <g id="C-016-google-photos-logo" transform="translate(-53 -36)">
    <rect id="area" width="50" height="50" transform="translate(53 36)" fill="none"/>
    <path id="icon" d="M44.456,29.7H39.251a9.485,9.485,0,0,0-8.5-13.7A1.054,1.054,0,0,0,29.7,17.054v5.205a9.485,9.485,0,0,0-13.7,8.5,1.054,1.054,0,0,0,1.054,1.054h5.205a9.485,9.485,0,0,0,8.5,13.7,1.054,1.054,0,0,0,1.054-1.054V39.251a9.485,9.485,0,0,0,13.7-8.5A1.054,1.054,0,0,0,44.456,29.7m-6.324-4.216A7.287,7.287,0,0,1,36.815,29.7H31.809V18.183a7.389,7.389,0,0,1,6.324,7.3M25.485,23.378A7.287,7.287,0,0,1,29.7,24.695V29.7H18.183a7.389,7.389,0,0,1,7.3-6.324M23.378,36.025a7.287,7.287,0,0,1,1.317-4.216H29.7V43.327a7.389,7.389,0,0,1-6.324-7.3m12.647,2.108a7.287,7.287,0,0,1-4.216-1.317V31.809H43.327a7.389,7.389,0,0,1-7.3,6.324" transform="translate(47 30)" fill="currentColor" stroke="currentColor" stroke-width="0.5"/>
  </g>
</svg>
