<svg xmlns="http://www.w3.org/2000/svg" width="50" height="50" viewBox="0 0 50 50">
  <g id="C-024-music-remove" transform="translate(-53 -36)">
    <rect id="area" width="50" height="50" transform="translate(53 36)" fill="none"/>
    <path id="icon" d="M32.785,8.306l4.528-4.528L35.534,2,31.006,6.528,26.479,2,24.7,3.778l4.528,4.528L24.7,12.833l1.778,1.778,4.528-4.528,4.528,4.528,1.778-1.778ZM29.745,18.395v9.529a4.988,4.988,0,0,0-2.522-.7,5.045,5.045,0,1,0,5.045,5.045V18.395ZM27.223,34.79a2.522,2.522,0,1,1,2.522-2.522,2.522,2.522,0,0,1-2.522,2.522M20.917,7.045H12.089A2.525,2.525,0,0,0,9.567,9.567V27.924a4.989,4.989,0,0,0-2.522-.7,5.045,5.045,0,1,0,5.045,5.045V9.567h8.828ZM7.045,34.79a2.522,2.522,0,1,1,2.522-2.522A2.522,2.522,0,0,1,7.045,34.79" transform="translate(58 41)" fill="currentColor" stroke="currentColor" stroke-width="0.5"/>
  </g>
</svg>
