<svg xmlns="http://www.w3.org/2000/svg" width="50" height="50" viewBox="0 0 50 50">
  <g id="C-022-music-note" transform="translate(-53 -36)">
    <rect id="area" width="50" height="50" transform="translate(53 36)" fill="none"/>
    <path id="icon" d="M31.006,4H12.089A2.525,2.525,0,0,0,9.567,6.522V24.88a4.988,4.988,0,0,0-2.522-.7,5.045,5.045,0,1,0,5.045,5.045V14.089H31.006V24.88a4.988,4.988,0,0,0-2.522-.7,5.045,5.045,0,1,0,5.045,5.045V6.522A2.525,2.525,0,0,0,31.006,4M7.045,31.745a2.522,2.522,0,1,1,2.522-2.522,2.522,2.522,0,0,1-2.522,2.522m21.44,0a2.522,2.522,0,1,1,2.522-2.522,2.522,2.522,0,0,1-2.522,2.522M12.089,6.522H31.006v5.045H12.089Z" transform="translate(60 42)" fill="currentColor" stroke="currentColor" stroke-width="0.5"/>
  </g>
</svg>
