<svg xmlns="http://www.w3.org/2000/svg" width="50" height="50" viewBox="0 0 50 50">
  <g id="C-029-headset" transform="translate(-53 -36)">
    <rect id="area" width="50" height="50" transform="translate(53 36)" fill="none"/>
    <path id="Path_647" data-name="Path 647" d="M4,19.949V15.327a12.327,12.327,0,1,1,24.654,0v4.623m-3.082,7.7c0,2.553-4.139,4.623-9.245,4.623" transform="translate(62 45)" fill="none" stroke="currentColor" stroke-linecap="round" stroke-linejoin="round" stroke-width="3"/>
    <path id="Path_648" data-name="Path 648" d="M4,15.082A3.082,3.082,0,0,1,7.082,12H8.623A3.082,3.082,0,0,1,11.7,15.082V19.7a3.082,3.082,0,0,1-3.082,3.082H7.082A3.082,3.082,0,0,1,4,19.7Zm16.949,0A3.082,3.082,0,0,1,24.031,12h1.541a3.082,3.082,0,0,1,3.082,3.082V19.7a3.082,3.082,0,0,1-3.082,3.082H24.031A3.082,3.082,0,0,1,20.949,19.7Z" transform="translate(62 49.868)" fill="none" stroke="currentColor" stroke-linecap="round" stroke-linejoin="round" stroke-width="3"/>
  </g>
</svg>
