<svg xmlns="http://www.w3.org/2000/svg" width="50" height="50" viewBox="0 0 50 50">
  <g id="C-020-image-search" transform="translate(-53 -36)">
    <rect id="area" width="50" height="50" transform="translate(53 36)" fill="none"/>
    <path id="Path_253" data-name="Path 253" d="M17.469,12.937A3.469,3.469,0,1,0,14,9.469a3.469,3.469,0,0,0,3.469,3.469m0-4.625a1.156,1.156,0,1,1-1.156,1.156,1.156,1.156,0,0,1,1.156-1.156" transform="translate(61.874 43.625)" fill="currentColor"/>
    <path id="Path_889" data-name="Path 889" d="M25.562,15.249A6.925,6.925,0,0,0,19.914,26.2L14,32.113l1.635,1.635,5.914-5.914a6.934,6.934,0,1,0,4.013-12.585m0,11.562a4.625,4.625,0,1,1,4.625-4.625,4.625,4.625,0,0,1-4.625,4.625" transform="translate(61.874 43.625)" fill="currentColor" stroke="currentColor" stroke-width="0.5"/>
    <path id="Path_254" data-name="Path 254" d="M13.562,27.436H4.312V20.5l5.781-5.777,6.458,6.458,1.635-1.639L11.728,13.08a2.312,2.312,0,0,0-3.27,0L4.312,17.225V4.312H27.436v6.937h2.312V4.312A2.315,2.315,0,0,0,27.436,2H4.312A2.315,2.315,0,0,0,2,4.312V27.436a2.315,2.315,0,0,0,2.312,2.312h9.249Z" transform="translate(60 43)" fill="currentColor" stroke="currentColor" stroke-width="0.5"/>
  </g>
</svg>
