<svg xmlns="http://www.w3.org/2000/svg" width="50" height="50" viewBox="0 0 50 50">
  <g id="C-028-headphones" transform="translate(-53 -36)">
    <rect id="area" width="50" height="50" transform="translate(53 36)" fill="none"/>
    <path id="Path_645" data-name="Path 645" d="M4,16.295A3.3,3.3,0,0,1,7.295,13H8.942a3.3,3.3,0,0,1,3.295,3.295v4.942a3.3,3.3,0,0,1-3.295,3.295H7.295A3.3,3.3,0,0,1,4,21.237Zm18.121,0A3.3,3.3,0,0,1,25.416,13h1.647a3.3,3.3,0,0,1,3.295,3.295v4.942a3.3,3.3,0,0,1-3.295,3.295H25.416a3.3,3.3,0,0,1-3.295-3.295Z" transform="translate(61.148 49.974)" fill="none" stroke="currentColor" stroke-linecap="round" stroke-linejoin="round" stroke-width="3"/>
    <path id="Path_646" data-name="Path 646" d="M4,22.122V17.179a13.179,13.179,0,1,1,26.359,0v4.942" transform="translate(61.148 44.148)" fill="none" stroke="currentColor" stroke-linecap="round" stroke-linejoin="round" stroke-width="3"/>
  </g>
</svg>
