<svg xmlns="http://www.w3.org/2000/svg" width="50" height="50" viewBox="0 0 50 50">
  <g id="C-037-volume-level-speaker-control-music-audio-remove" transform="translate(-53 -36)">
    <rect id="area" width="50" height="50" transform="translate(53 36)" fill="none"/>
    <path id="icon" d="M6.942,9.711H3.077A2.577,2.577,0,0,0,.5,12.288v5.154a2.577,2.577,0,0,0,2.577,2.577H6.942Zm0,10.308L17.018,27.26a2.628,2.628,0,0,0,4.1-2.087V4.557a2.577,2.577,0,0,0-1.288-2.293,2.577,2.577,0,0,0-2.577.206L6.942,9.711M34,11l-7.731,7.731m0-7.731L34,18.731" transform="translate(61 46.488)" fill="none" stroke="currentColor" stroke-linecap="round" stroke-linejoin="round" stroke-width="3"/>
  </g>
</svg>
