<svg xmlns="http://www.w3.org/2000/svg" width="50" height="50" viewBox="0 0 50 50">
  <g id="C-039-rewind-television-button-movies-buttons-tv-video-controls" transform="translate(-53 -36)">
    <rect id="area" width="50" height="50" transform="translate(53 36)" fill="none"/>
    <path id="Path_640" data-name="Path 640" d="M24.263,22.34a1.858,1.858,0,0,1-.982,1.646,1.885,1.885,0,0,1-1.938,0L7.855,15.172a1.859,1.859,0,0,1,0-3.133L21.343,3.277a1.885,1.885,0,0,1,1.938,0,1.859,1.859,0,0,1,.982,1.646Z" transform="translate(71.261 47.342)" fill="none" stroke="currentColor" stroke-linecap="round" stroke-linejoin="round" stroke-width="3"/>
    <path id="Path_641" data-name="Path 641" d="M17.763,23.183a1.859,1.859,0,0,1-.982,1.646,1.885,1.885,0,0,1-1.938,0L1.355,16.014a1.859,1.859,0,0,1,0-3.133L14.843,4.12a1.885,1.885,0,0,1,1.938,0,1.859,1.859,0,0,1,.982,1.593ZM.505,2.5V26.4" transform="translate(60.503 46.5)" fill="none" stroke="currentColor" stroke-linecap="round" stroke-linejoin="round" stroke-width="3"/>
  </g>
</svg>
