<svg xmlns="http://www.w3.org/2000/svg" width="50" height="50" viewBox="0 0 50 50">
  <g id="C-043-button-controls-fast-forward-movies-television-video-tv" transform="translate(-53 -36)">
    <rect id="area" width="50" height="50" transform="translate(53 36)" fill="none"/>
    <path id="Path_661" data-name="Path 661" d="M.5,22.258A1.851,1.851,0,0,0,1.478,23.9a1.877,1.877,0,0,0,1.93,0l13.431-8.725a1.851,1.851,0,0,0,0-3.12L3.408,3.276a1.877,1.877,0,0,0-1.93,0A1.851,1.851,0,0,0,.5,4.915Z" transform="translate(60.726 47.361)" fill="none" stroke="currentColor" stroke-linecap="round" stroke-linejoin="round" stroke-width="3"/>
    <path id="Path_662" data-name="Path 662" d="M7,22.258A1.851,1.851,0,0,0,7.978,23.9a1.877,1.877,0,0,0,1.93,0l13.431-8.725a1.851,1.851,0,0,0,0-3.12L9.908,3.276a1.877,1.877,0,0,0-1.93,0A1.851,1.851,0,0,0,7,4.862Z" transform="translate(71.41 47.361)" fill="none" stroke="currentColor" stroke-linecap="round" stroke-linejoin="round" stroke-width="3"/>
  </g>
</svg>
