<svg xmlns="http://www.w3.org/2000/svg" width="50" height="50" viewBox="0 0 50 50">
  <g id="C-040-rewind-television-button-movies-buttons-tv-video-controls" transform="translate(-53 -36)">
    <rect id="area" width="50" height="50" transform="translate(53 36)" fill="none"/>
    <path id="Path_638" data-name="Path 638" d="M25.16,23.345a1.955,1.955,0,0,1-1.033,1.732,1.983,1.983,0,0,1-2.039,0L7.9,15.8a1.955,1.955,0,0,1,0-3.3L22.088,3.291a1.983,1.983,0,0,1,2.039,0A1.955,1.955,0,0,1,25.16,5.023Z" transform="translate(71.414 46.764)" fill="none" stroke="currentColor" stroke-linecap="round" stroke-linejoin="round" stroke-width="3"/>
    <path id="Path_639" data-name="Path 639" d="M18.66,23.345a1.955,1.955,0,0,1-1.033,1.732,1.983,1.983,0,0,1-2.039,0L1.4,15.8a1.955,1.955,0,0,1,0-3.3L15.588,3.291a1.983,1.983,0,0,1,2.039,0A1.955,1.955,0,0,1,18.66,4.967Z" transform="translate(59.759 46.764)" fill="none" stroke="currentColor" stroke-linecap="round" stroke-linejoin="round" stroke-width="3"/>
  </g>
</svg>
