<svg xmlns="http://www.w3.org/2000/svg" width="50" height="50" viewBox="0 0 50 50">
  <g id="C-044-button-controls-fast-forward-movies-television-video-tv" transform="translate(-53 -36)">
    <rect id="area" width="50" height="50" transform="translate(53 36)" fill="none"/>
    <path id="Path_663" data-name="Path 663" d="M.5,22.34a1.858,1.858,0,0,0,.982,1.646,1.885,1.885,0,0,0,1.938,0l13.487-8.762a1.859,1.859,0,0,0,0-3.133L3.421,3.277a1.885,1.885,0,0,0-1.938,0A1.859,1.859,0,0,0,.5,4.923Z" transform="translate(60.5 47.342)" fill="none" stroke="currentColor" stroke-linecap="round" stroke-linejoin="round" stroke-width="3"/>
    <path id="Path_664" data-name="Path 664" d="M7,23.183a1.858,1.858,0,0,0,.982,1.646,1.885,1.885,0,0,0,1.938,0l13.487-8.762a1.859,1.859,0,0,0,0-3.133L9.921,4.12a1.885,1.885,0,0,0-1.938,0A1.859,1.859,0,0,0,7,5.713ZM24.258,2.5V26.4" transform="translate(71.258 46.5)" fill="none" stroke="currentColor" stroke-linecap="round" stroke-linejoin="round" stroke-width="3"/>
  </g>
</svg>
