<svg xmlns="http://www.w3.org/2000/svg" width="50" height="50" viewBox="0 0 50 50">
  <g id="C-056-document-file-jpg" transform="translate(-53 -36)">
    <rect id="area" width="50" height="50" transform="translate(53 36)" fill="none"/>
    <path id="icon" d="M43.07,42.133H40.449a1.31,1.31,0,0,0-1.31,1.31v9.173a1.31,1.31,0,0,0,2.621,0v-1.31h1.31a4.586,4.586,0,1,0,0-9.173m0,6.552h-1.31V44.754h1.31a1.966,1.966,0,1,1,0,3.931m15.725,0v2.763a1.31,1.31,0,0,1-.364.906,4.924,4.924,0,0,1-3.568,1.573c-2.891,0-5.242-2.645-5.242-5.9s2.351-5.9,5.242-5.9a4.812,4.812,0,0,1,2.7.839,1.313,1.313,0,1,1-1.474,2.172,2.164,2.164,0,0,0-1.225-.39c-1.445,0-2.621,1.474-2.621,3.276s1.176,3.276,2.621,3.276a2.233,2.233,0,0,0,1.31-.444V50a1.31,1.31,0,0,1,0-2.621h1.31a1.31,1.31,0,0,1,1.31,1.31M36.518,43.443v6.224a4.259,4.259,0,0,1-8.518,0,1.31,1.31,0,0,1,2.621,0,1.638,1.638,0,0,0,3.276,0V43.443a1.31,1.31,0,0,1,2.621,0" transform="translate(34.807 22.305)" fill="currentColor"/>
    <path id="icon-2" data-name="icon" d="M58.259,33.556l-9.173-9.173A1.31,1.31,0,0,0,48.159,24H32.434a2.621,2.621,0,0,0-2.621,2.621V38.414a1.31,1.31,0,0,0,2.621,0V26.621H46.849v7.862a1.31,1.31,0,0,0,1.31,1.31h7.862v2.621a1.31,1.31,0,1,0,2.621,0V34.483a1.31,1.31,0,0,0-.383-.927m-8.79-.383v-4.7l4.7,4.7Z" transform="translate(34.959 20.782)" fill="currentColor" stroke="currentColor" stroke-width="0.7"/>
  </g>
</svg>
