<svg xmlns="http://www.w3.org/2000/svg" width="50" height="50" viewBox="0 0 50 50">
  <g id="C-058-document-file-svg" transform="translate(-53 -36)">
    <rect id="area" width="50" height="50" transform="translate(53 36)" fill="none"/>
    <path id="icon" d="M44.51,50.7a3.407,3.407,0,0,1-1.5,2.493,5.159,5.159,0,0,1-2.862.73,10.021,10.021,0,0,1-2.478-.327,1.309,1.309,0,1,1,.7-2.522c.717.2,2.447.442,3.2-.059a.8.8,0,0,0,.35-.643c.057-.437-.116-.671-2.092-1.242-1.53-.442-4.091-1.183-3.764-3.782A3.363,3.363,0,0,1,37.537,42.9c1.938-1.309,5.028-.542,5.373-.452a1.31,1.31,0,0,1-.666,2.533c-.733-.191-2.493-.419-3.245.092a.743.743,0,0,0-.327.6c-.018.147-.023.178.183.311a7.5,7.5,0,0,0,1.71.628c1.6.463,4.312,1.254,3.946,4.087m9.636-8.484a1.309,1.309,0,0,0-1.674.792l-2.041,5.712-2.041-5.712a1.309,1.309,0,1,0-2.465.88L49.2,53.05a1.309,1.309,0,0,0,2.466,0l3.273-9.165a1.309,1.309,0,0,0-.792-1.673m10.032,5.16H62.87a1.309,1.309,0,1,0,0,2.619v.866a2.19,2.19,0,0,1-1.309.444c-1.443,0-2.619-1.473-2.619-3.273s1.175-3.273,2.619-3.273a2.172,2.172,0,0,1,1.232.39,1.309,1.309,0,1,0,1.465-2.17,4.808,4.808,0,0,0-2.7-.838c-2.887,0-5.237,2.643-5.237,5.892s2.35,5.892,5.237,5.892a4.92,4.92,0,0,0,3.565-1.571,1.309,1.309,0,0,0,.363-.905V48.682a1.309,1.309,0,0,0-1.309-1.309" transform="translate(26.835 22.298)" fill="currentColor"/>
    <path id="icon-2" data-name="icon" d="M65.439,34.474V38.4a1.309,1.309,0,1,1-2.619,0V35.784H54.964a1.309,1.309,0,0,1-1.309-1.309V26.619h-14.4V38.4a1.309,1.309,0,1,1-2.619,0V26.619A2.619,2.619,0,0,1,39.253,24H54.964a1.309,1.309,0,0,1,.925.383l9.165,9.165a1.309,1.309,0,0,1,.385.926m-9.165-1.309h4.7l-4.7-4.7Z" transform="translate(26.885 20.795)" fill="currentColor" stroke="currentColor" stroke-width="0.7"/>
  </g>
</svg>
