<svg xmlns="http://www.w3.org/2000/svg" width="50" height="50" viewBox="0 0 50 50">
  <g id="C-054-document-file-video" transform="translate(-53 -36)">
    <rect id="area" width="50" height="50" transform="translate(53 36)" fill="none"/>
    <path id="icon" d="M49.563,43.525a1.209,1.209,0,0,0-1.171-.059l-3.207,1.57a2.418,2.418,0,0,0-2.306-1.694H34.418A2.418,2.418,0,0,0,32,45.76V51.8a2.418,2.418,0,0,0,2.418,2.418H42.88a2.418,2.418,0,0,0,2.333-1.794l3.149,1.662a1.209,1.209,0,0,0,1.771-1.077V44.551a1.209,1.209,0,0,0-.57-1.026M42.88,51.8H34.418V45.76H42.88V51.8Zm4.835-.792L45.3,49.74V47.673l2.418-1.183Z" transform="translate(32 21)" fill="currentColor" stroke="currentColor" stroke-width="0.3"/>
    <path id="icon-2" data-name="icon" d="M59.45,32.816l-8.462-8.462A1.209,1.209,0,0,0,50.133,24H35.627a2.418,2.418,0,0,0-2.418,2.418v13.3a1.209,1.209,0,0,0,2.418,0v-13.3h13.3v7.253a1.209,1.209,0,0,0,1.209,1.209h7.253V53.013H53.76a1.209,1.209,0,0,0,0,2.418h3.627A2.418,2.418,0,0,0,59.8,53.013V33.671a1.209,1.209,0,0,0-.354-.855m-8.108-4.689,4.335,4.335H51.342Z" transform="translate(32 21)" fill="currentColor" stroke="currentColor" stroke-width="0.7"/>
  </g>
</svg>
