<svg xmlns="http://www.w3.org/2000/svg" width="50" height="50" viewBox="0 0 50 50">
  <g id="C-059-document-file-pdf" transform="translate(-53 -36)">
    <rect id="area" width="50" height="50" transform="translate(53 36)" fill="none"/>
    <path id="icon" d="M69.847,43.423a1.3,1.3,0,0,1-1.3,1.3H64.656v2.6h2.6a1.3,1.3,0,0,1,0,2.6h-2.6v2.6a1.3,1.3,0,0,1-2.6,0V43.423a1.3,1.3,0,0,1,1.3-1.3H68.55a1.3,1.3,0,0,1,1.3,1.3M48.435,46.667a4.542,4.542,0,0,1-4.542,4.542H42.6v1.3a1.3,1.3,0,0,1-2.6,0V43.423a1.3,1.3,0,0,1,1.3-1.3h2.6a4.542,4.542,0,0,1,4.542,4.542m-2.6,0a1.947,1.947,0,0,0-1.947-1.947H42.6v3.893h1.3a1.947,1.947,0,0,0,1.947-1.947m14.275,1.3a5.84,5.84,0,0,1-5.84,5.84h-2.6a1.3,1.3,0,0,1-1.3-1.3V43.423a1.3,1.3,0,0,1,1.3-1.3h2.6a5.84,5.84,0,0,1,5.84,5.84m-2.6,0a3.244,3.244,0,0,0-3.244-3.244h-1.3v6.489h1.3a3.244,3.244,0,0,0,3.244-3.244" transform="translate(24 22.196)" fill="currentColor"/>
    <path id="icon-2" data-name="icon" d="M40,38.275V26.6A2.6,2.6,0,0,1,42.6,24H58.168a1.3,1.3,0,0,1,.918.38l9.084,9.084a1.3,1.3,0,0,1,.38.918v3.893a1.3,1.3,0,1,1-2.6,0v-2.6H58.168a1.3,1.3,0,0,1-1.3-1.3V26.6H42.6V38.275a1.3,1.3,0,1,1-2.6,0m19.466-5.191H64.12L59.466,28.43Z" transform="translate(24 20.855)" fill="currentColor" stroke="currentColor" stroke-width="0.7"/>
  </g>
</svg>
