<svg xmlns="http://www.w3.org/2000/svg" width="50" height="50" viewBox="0 0 50 50">
  <g id="C-057-document-file-png" transform="translate(-53 -36)">
    <rect id="area" width="50" height="50" transform="translate(53 36)" fill="none"/>
    <path id="icon" d="M39.965,42.133H37.322A1.322,1.322,0,0,0,36,43.455v9.252a1.322,1.322,0,0,0,2.644,0V51.385h1.322a4.626,4.626,0,1,0,0-9.252m0,6.609H38.644V44.777h1.322a1.983,1.983,0,1,1,0,3.965m27.1,2.787a1.322,1.322,0,0,1-.367.914,4.967,4.967,0,0,1-3.6,1.586c-2.916,0-5.287-2.668-5.287-5.948s2.371-5.948,5.287-5.948a4.866,4.866,0,0,1,2.723.844,1.325,1.325,0,1,1-1.487,2.192,2.183,2.183,0,0,0-1.236-.393c-1.457,0-2.644,1.487-2.644,3.3s1.186,3.3,2.644,3.3a2.242,2.242,0,0,0,1.322-.449v-.872a1.322,1.322,0,1,1,0-2.644H65.74a1.322,1.322,0,0,1,1.322,1.322ZM55.826,43.455v9.252a1.322,1.322,0,0,1-.919,1.259,1.307,1.307,0,0,1-.4.063,1.322,1.322,0,0,1-1.076-.554l-4.211-5.89v5.122a1.322,1.322,0,0,1-2.644,0V43.455a1.322,1.322,0,0,1,2.4-.768l4.211,5.89V43.455a1.322,1.322,0,1,1,2.644,0" transform="translate(26.674 22.339)" fill="currentColor"/>
    <path id="icon-2" data-name="icon" d="M37.926,39.861a1.322,1.322,0,0,0,1.322-1.322v-11.9H53.787v7.931A1.322,1.322,0,0,0,55.109,35.9H63.04v2.644a1.322,1.322,0,0,0,2.644,0V34.574a1.322,1.322,0,0,0-.387-.935l-9.252-9.252A1.322,1.322,0,0,0,55.109,24H39.248A2.644,2.644,0,0,0,36.6,26.644v11.9a1.322,1.322,0,0,0,1.322,1.322m18.5-11.349,4.74,4.74h-4.74Z" transform="translate(26.73 20.645)" fill="currentColor" stroke="currentColor" stroke-width="0.7"/>
  </g>
</svg>
