<svg xmlns="http://www.w3.org/2000/svg" width="50" height="50" viewBox="0 0 50 50">
  <g id="C-069-file-format-eps" transform="translate(-53 -36)">
    <rect id="area" width="50" height="50" transform="translate(53 36)" fill="none"/>
    <path id="Path_931" data-name="Path 931" d="M-17.637,0V-15.316h9.223v2.438h-6.293V-9.07h6v2.379h-6v4.254h6.293V0ZM5.613-10.441a5.986,5.986,0,0,1-.4,2.209A4.769,4.769,0,0,1,4.031-6.48,5.43,5.43,0,0,1,2.074-5.332a8.222,8.222,0,0,1-2.719.41H-2.109V0H-5.016V-15.316H-.527a9.72,9.72,0,0,1,2.631.322,5.393,5.393,0,0,1,1.922.943,4.018,4.018,0,0,1,1.184,1.529A5.067,5.067,0,0,1,5.613-10.441Zm-3.023.2A3.037,3.037,0,0,0,2.4-11.35a2.186,2.186,0,0,0-.586-.85,2.65,2.65,0,0,0-.99-.539A4.761,4.761,0,0,0-.6-12.926H-2.109v5.613H-.5A3.929,3.929,0,0,0,.82-7.518a2.6,2.6,0,0,0,.967-.592,2.558,2.558,0,0,0,.6-.926A3.373,3.373,0,0,0,2.59-10.242ZM18.551-4.629a4.819,4.819,0,0,1-.463,2.18A4.159,4.159,0,0,1,16.793-.92a5.76,5.76,0,0,1-1.98.9A10.131,10.131,0,0,1,12.3.27,18.8,18.8,0,0,1,9.973.129,13.77,13.77,0,0,1,7.746-.34V-3.187q.539.188,1.125.352t1.178.287q.592.123,1.178.193a9.542,9.542,0,0,0,1.137.07,5.948,5.948,0,0,0,1.395-.141,2.9,2.9,0,0,0,.938-.387,1.5,1.5,0,0,0,.527-.586,1.7,1.7,0,0,0,.164-.75,1.41,1.41,0,0,0-.322-.943,3.013,3.013,0,0,0-.85-.674,7.647,7.647,0,0,0-1.2-.527q-.674-.234-1.371-.5t-1.371-.609a4.959,4.959,0,0,1-1.2-.844,3.912,3.912,0,0,1-.85-1.2A3.986,3.986,0,0,1,7.9-11.133a4.507,4.507,0,0,1,.328-1.711,3.659,3.659,0,0,1,1.031-1.412,5.2,5.2,0,0,1,1.8-.961,8.681,8.681,0,0,1,2.66-.357q.457,0,.955.041t.984.105q.486.064.938.152t.826.182v2.637a8.505,8.505,0,0,0-.82-.258q-.445-.117-.92-.205t-.955-.135q-.48-.047-.914-.047a5.768,5.768,0,0,0-1.289.123,2.79,2.79,0,0,0-.867.34,1.306,1.306,0,0,0-.492.533,1.6,1.6,0,0,0-.152.7,1.17,1.17,0,0,0,.322.826,3.1,3.1,0,0,0,.855.621,9.828,9.828,0,0,0,1.207.516q.674.24,1.383.516a13.75,13.75,0,0,1,1.383.627,5.348,5.348,0,0,1,1.207.855,3.9,3.9,0,0,1,.855,1.189A3.784,3.784,0,0,1,18.551-4.629Z" transform="translate(78 69)" fill="currentColor"/>
  </g>
</svg>
