<svg xmlns="http://www.w3.org/2000/svg" width="50" height="50" viewBox="0 0 50 50">
  <g id="C-062-file-format-mov" transform="translate(-53 -36)">
    <rect id="area" width="50" height="50" transform="translate(53 36)" fill="none"/>
    <path id="Path_924" data-name="Path 924" d="M10.125,0,9.844-8.66l-.105-3.457L9-9.773,7.3-4.559H5.5L3.961-9.773l-.645-2.344L3.234-8.73,2.977,0H.527l.75-15.316H4.535l1.348,4.348L6.527-8.52l.645-2.309L8.59-15.316h3.316L12.668,0ZM25.957-7.723a11.805,11.805,0,0,1-.486,3.6,6.968,6.968,0,0,1-1.336,2.484A5.284,5.284,0,0,1,22.143-.2,6.374,6.374,0,0,1,19.7.27a5.346,5.346,0,0,1-4.547-2.01,9.548,9.548,0,0,1-1.523-5.842,11.805,11.805,0,0,1,.486-3.6,6.968,6.968,0,0,1,1.336-2.484,5.284,5.284,0,0,1,1.992-1.441,6.374,6.374,0,0,1,2.443-.469,5.353,5.353,0,0,1,4.547,2A9.544,9.544,0,0,1,25.957-7.723Zm-3.047.141a8.773,8.773,0,0,0-.727-4.055,2.511,2.511,0,0,0-2.391-1.336,2.744,2.744,0,0,0-1.418.346,2.689,2.689,0,0,0-.967,1.014,5.157,5.157,0,0,0-.557,1.646,12.8,12.8,0,0,0-.176,2.244,8.713,8.713,0,0,0,.732,4.055,2.514,2.514,0,0,0,2.385,1.336,2.776,2.776,0,0,0,1.424-.346,2.632,2.632,0,0,0,.967-1.014,5.256,5.256,0,0,0,.551-1.646A12.8,12.8,0,0,0,22.91-7.582ZM34.887,0h-3.82L26.391-15.316h3.27l2.59,9.223.832,3.023.867-3.2,2.566-9.047h3.07Z" transform="translate(58 69)" fill="currentColor"/>
  </g>
</svg>
