<svg xmlns="http://www.w3.org/2000/svg" width="50" height="50" viewBox="0 0 50 50">
  <g id="C-061-file-format-mp4" transform="translate(-53 -36)">
    <rect id="area" width="50" height="50" transform="translate(53 36)" fill="none"/>
    <path id="Path_923" data-name="Path 923" d="M2.3-15.528,1.416-.192c0,.168.048.192.192.192h2.28c.12,0,.168-.024.168-.168.216-5.112.432-11.184.432-13.416h.048C5.16-10.752,6.96-3.768,7.92-.168c.048.144.1.168.24.168h2.28c.1,0,.168-.024.216-.168C11.592-3.48,13.92-11.352,14.4-13.536h.024c-.024,1.392.024,8.232.12,13.368,0,.12.048.168.192.168h2.52c.12,0,.192-.048.168-.192L16.8-15.528c-.024-.12-.048-.144-.168-.144H13.056c-.12,0-.144.072-.192.168-.7,2.424-2.928,9.552-3.408,11.64H9.432C9-6.168,7.056-13.152,6.384-15.5a.215.215,0,0,0-.24-.168H2.5C2.376-15.672,2.328-15.648,2.3-15.528ZM20.568-.168c0,.12.048.168.168.168H23.16c.12,0,.168-.048.168-.168V-5.184c.48,0,.7.024,1.368.024,3.48,0,6.312-1.68,6.312-5.4,0-2.688-1.752-5.16-6.144-5.16-1.608,0-3.24.048-4.152.072-.12,0-.144.072-.144.192Zm2.76-13.056c.264-.024.888-.048,1.632-.048,2.088,0,3.288,1.008,3.288,2.76,0,2.208-1.656,2.88-3.552,2.88-.7,0-.984,0-1.368-.024ZM38.976-3.6V-.168A.171.171,0,0,0,39.168,0h2.28c.12,0,.168-.048.168-.168V-3.6h1.392c.12,0,.168-.024.192-.1l.288-2.04c.024-.1,0-.168-.12-.168H41.616v-9.048c0-.12-.048-.168-.168-.168H38.5a.357.357,0,0,0-.312.144l-5.712,9.1a.52.52,0,0,0-.12.336v1.8c0,.12.048.144.192.144Zm0-2.28H35.208c.7-1.224,3.336-5.544,3.888-6.744h.024c-.048.84-.144,2.4-.144,4.608Z" transform="translate(56 69)" fill="currentColor"/>
  </g>
</svg>
