<svg xmlns="http://www.w3.org/2000/svg" width="50" height="50" viewBox="0 0 50 50">
  <g id="C-068-file-format-pdf" transform="translate(-53 -36)">
    <rect id="area" width="50" height="50" transform="translate(53 36)" fill="none"/>
    <path id="Path_930" data-name="Path 930" d="M-7.582-10.441a5.986,5.986,0,0,1-.4,2.209A4.769,4.769,0,0,1-9.164-6.48a5.43,5.43,0,0,1-1.957,1.148,8.222,8.222,0,0,1-2.719.41H-15.3V0h-2.906V-15.316h4.488a9.72,9.72,0,0,1,2.631.322,5.393,5.393,0,0,1,1.922.943,4.018,4.018,0,0,1,1.184,1.529A5.067,5.067,0,0,1-7.582-10.441Zm-3.023.2A3.037,3.037,0,0,0-10.8-11.35a2.186,2.186,0,0,0-.586-.85,2.65,2.65,0,0,0-.99-.539,4.761,4.761,0,0,0-1.418-.187H-15.3v5.613H-13.7a3.929,3.929,0,0,0,1.324-.205,2.6,2.6,0,0,0,.967-.592,2.558,2.558,0,0,0,.6-.926A3.373,3.373,0,0,0-10.605-10.242ZM5.977-7.852a11.149,11.149,0,0,1-.439,3.234A6.366,6.366,0,0,1,4.166-2.139,6.111,6.111,0,0,1,1.781-.557,9.737,9.737,0,0,1-1.7,0H-5.59V-15.316h4.535a9.738,9.738,0,0,1,3.076.439,5.324,5.324,0,0,1,2.2,1.354A5.765,5.765,0,0,1,5.537-11.2,11.3,11.3,0,0,1,5.977-7.852Zm-3.094.188a11.1,11.1,0,0,0-.2-2.215,4.336,4.336,0,0,0-.674-1.646A3,3,0,0,0,.738-12.551a4.911,4.911,0,0,0-1.98-.352H-2.707V-2.414h1.266A4.042,4.042,0,0,0,1.781-3.68,5.979,5.979,0,0,0,2.883-7.664Zm8.8-5.215v4.242h5.789V-6.27H11.684V0H8.754V-15.316H17.8v2.438Z" transform="translate(78 69)" fill="currentColor"/>
  </g>
</svg>
