<svg xmlns="http://www.w3.org/2000/svg" width="50" height="50" viewBox="0 0 50 50">
  <g id="C-066-file-format-gif" transform="translate(-53 -36)">
    <rect id="area" width="50" height="50" transform="translate(53 36)" fill="none"/>
    <path id="Path_928" data-name="Path 928" d="M-13.125-6.48V-8.859h5.449V-.691a9.847,9.847,0,0,1-2.2.727,12.489,12.489,0,0,1-2.5.234A7.886,7.886,0,0,1-15.24-.223,5.654,5.654,0,0,1-17.4-1.687,6.552,6.552,0,0,1-18.768-4.1a10.684,10.684,0,0,1-.475-3.34,10.911,10.911,0,0,1,.5-3.422,7,7,0,0,1,1.453-2.561,6.22,6.22,0,0,1,2.344-1.6,8.546,8.546,0,0,1,3.17-.551,11.508,11.508,0,0,1,2.057.182,17.5,17.5,0,0,1,2,.486v2.848a10.409,10.409,0,0,0-1.916-.674A8.644,8.644,0,0,0-11.754-13a4.564,4.564,0,0,0-1.9.375,3.724,3.724,0,0,0-1.383,1.066,4.749,4.749,0,0,0-.844,1.7,8.3,8.3,0,0,0-.287,2.273,9.931,9.931,0,0,0,.223,2.2,4.492,4.492,0,0,0,.721,1.664,3.239,3.239,0,0,0,1.283,1.049,4.529,4.529,0,0,0,1.91.363q.27,0,.469-.018a3.469,3.469,0,0,0,.375-.053q.176-.035.334-.082t.334-.105V-6.48Zm8.285-6.48v-2.355H4.84v2.355H1.465V-2.379H4.84V0H-4.84V-2.379h3.375V-12.961Zm16.523.082v4.242h5.789V-6.27H11.684V0H8.754V-15.316H17.8v2.438Z" transform="translate(78 69)" fill="currentColor"/>
  </g>
</svg>
