<svg xmlns="http://www.w3.org/2000/svg" width="50" height="50" viewBox="0 0 50 50">
  <g id="C-067-file-format-psd" transform="translate(-53 -36)">
    <rect id="area" width="50" height="50" transform="translate(53 36)" fill="none"/>
    <path id="Path_929" data-name="Path 929" d="M-7.582-10.441a5.986,5.986,0,0,1-.4,2.209A4.769,4.769,0,0,1-9.164-6.48a5.43,5.43,0,0,1-1.957,1.148,8.222,8.222,0,0,1-2.719.41H-15.3V0h-2.906V-15.316h4.488a9.72,9.72,0,0,1,2.631.322,5.393,5.393,0,0,1,1.922.943,4.018,4.018,0,0,1,1.184,1.529A5.067,5.067,0,0,1-7.582-10.441Zm-3.023.2A3.037,3.037,0,0,0-10.8-11.35a2.186,2.186,0,0,0-.586-.85,2.65,2.65,0,0,0-.99-.539,4.761,4.761,0,0,0-1.418-.187H-15.3v5.613H-13.7a3.929,3.929,0,0,0,1.324-.205,2.6,2.6,0,0,0,.967-.592,2.558,2.558,0,0,0,.6-.926A3.373,3.373,0,0,0-10.605-10.242ZM5.355-4.629a4.819,4.819,0,0,1-.463,2.18A4.159,4.159,0,0,1,3.6-.92a5.76,5.76,0,0,1-1.98.9A10.131,10.131,0,0,1-.891.27,18.8,18.8,0,0,1-3.223.129,13.77,13.77,0,0,1-5.449-.34V-3.187q.539.188,1.125.352t1.178.287q.592.123,1.178.193a9.542,9.542,0,0,0,1.137.07A5.948,5.948,0,0,0,.563-2.426,2.9,2.9,0,0,0,1.5-2.812,1.5,1.5,0,0,0,2.027-3.4a1.7,1.7,0,0,0,.164-.75,1.41,1.41,0,0,0-.322-.943,3.013,3.013,0,0,0-.85-.674,7.647,7.647,0,0,0-1.2-.527q-.674-.234-1.371-.5t-1.371-.609a4.959,4.959,0,0,1-1.2-.844,3.912,3.912,0,0,1-.85-1.2A3.986,3.986,0,0,1-5.3-11.133a4.507,4.507,0,0,1,.328-1.711,3.659,3.659,0,0,1,1.031-1.412,5.2,5.2,0,0,1,1.8-.961,8.681,8.681,0,0,1,2.66-.357q.457,0,.955.041t.984.105q.486.064.938.152t.826.182v2.637a8.505,8.505,0,0,0-.82-.258q-.445-.117-.92-.205t-.955-.135Q1.055-13.1.621-13.1a5.768,5.768,0,0,0-1.289.123,2.79,2.79,0,0,0-.867.34,1.306,1.306,0,0,0-.492.533,1.6,1.6,0,0,0-.152.7,1.17,1.17,0,0,0,.322.826A3.1,3.1,0,0,0-1-9.955a9.828,9.828,0,0,0,1.207.516q.674.24,1.383.516A13.75,13.75,0,0,1,2.971-8.3a5.348,5.348,0,0,1,1.207.855,3.9,3.9,0,0,1,.855,1.189A3.784,3.784,0,0,1,5.355-4.629ZM19.172-7.852a11.149,11.149,0,0,1-.439,3.234,6.366,6.366,0,0,1-1.371,2.479A6.111,6.111,0,0,1,14.977-.557,9.737,9.737,0,0,1,11.5,0H7.605V-15.316h4.535a9.738,9.738,0,0,1,3.076.439,5.324,5.324,0,0,1,2.2,1.354,5.765,5.765,0,0,1,1.318,2.32A11.3,11.3,0,0,1,19.172-7.852Zm-3.094.188a11.1,11.1,0,0,0-.2-2.215,4.336,4.336,0,0,0-.674-1.646,3,3,0,0,0-1.271-1.025,4.911,4.911,0,0,0-1.98-.352H10.488V-2.414h1.266A4.042,4.042,0,0,0,14.977-3.68,5.979,5.979,0,0,0,16.078-7.664Z" transform="translate(78 69)" fill="currentColor"/>
  </g>
</svg>
