<svg xmlns="http://www.w3.org/2000/svg" width="50" height="50" viewBox="0 0 50 50">
  <g id="C-060-document-file-jsx" transform="translate(-53 -36)">
    <rect id="area" width="50" height="50" transform="translate(53 36)" fill="none"/>
    <path id="icon" d="M47.886,50.815a3.456,3.456,0,0,1-1.525,2.528,5.229,5.229,0,0,1-2.9.74,10.064,10.064,0,0,1-2.521-.332,1.328,1.328,0,1,1,.715-2.558c.727.2,2.49.45,3.245-.058a.818.818,0,0,0,.355-.652c.056-.443-.12-.681-2.121-1.26-1.552-.448-4.149-1.2-3.818-3.836a3.416,3.416,0,0,1,1.494-2.481c1.967-1.328,5.1-.549,5.451-.458a1.328,1.328,0,1,1-.676,2.569c-.745-.194-2.528-.425-3.291.093a.754.754,0,0,0-.332.609c-.02.149-.023.179.184.315a7.635,7.635,0,0,0,1.734.637c1.632.468,4.372,1.27,4.008,4.143M35.3,42.133a1.328,1.328,0,0,0-1.328,1.328v6.307a1.66,1.66,0,1,1-3.32,0,1.328,1.328,0,0,0-2.656,0,4.315,4.315,0,1,0,8.631,0V43.461A1.328,1.328,0,0,0,35.3,42.133m23.345.247a1.328,1.328,0,0,0-1.852.309l-2.239,3.135-2.239-3.135a1.328,1.328,0,0,0-2.158,1.544l2.765,3.876-2.769,3.876a1.328,1.328,0,0,0,2.158,1.544l2.242-3.135L56.8,53.528a1.328,1.328,0,0,0,2.158-1.544l-2.765-3.876,2.769-3.876a1.328,1.328,0,0,0-.309-1.852" transform="translate(35 22.85)" fill="currentColor"/>
    <path id="icon-2" data-name="icon" d="M59.026,34.623v3.984a1.328,1.328,0,1,1-2.656,0V35.951H48.4a1.328,1.328,0,0,1-1.328-1.328V26.656H32.469V38.606a1.328,1.328,0,1,1-2.656,0V26.656A2.656,2.656,0,0,1,32.469,24H48.4a1.328,1.328,0,0,1,.939.388l9.295,9.295a1.328,1.328,0,0,1,.388.939m-4.533-1.328-4.762-4.762v4.762Z" transform="translate(35.178 21.066)" fill="currentColor" stroke="currentColor" stroke-width="0.7"/>
  </g>
</svg>
