<svg xmlns="http://www.w3.org/2000/svg" width="50" height="50" viewBox="0 0 50 50">
  <g id="C-064-file-format-jpg" transform="translate(-53 -36)">
    <rect id="area" width="50" height="50" transform="translate(53 36)" fill="none"/>
    <path id="Path_926" data-name="Path 926" d="M-9.187-4.582a5.482,5.482,0,0,1-.34,1.969,4.131,4.131,0,0,1-1,1.523,4.46,4.46,0,0,1-1.629.979,6.747,6.747,0,0,1-2.262.346A7.416,7.416,0,0,1-16.242.012a7.166,7.166,0,0,1-1.535-.562V-3.34a4.021,4.021,0,0,0,.686.457,6.037,6.037,0,0,0,.838.369,6.065,6.065,0,0,0,.914.246,5.015,5.015,0,0,0,.926.088,2.5,2.5,0,0,0,.8-.141,1.907,1.907,0,0,0,.744-.469,2.5,2.5,0,0,0,.539-.861,3.6,3.6,0,0,0,.211-1.318v-7.969H-17.66v-2.379h8.473Zm14.8-5.859a5.986,5.986,0,0,1-.4,2.209A4.769,4.769,0,0,1,4.031-6.48,5.43,5.43,0,0,1,2.074-5.332a8.222,8.222,0,0,1-2.719.41H-2.109V0H-5.016V-15.316H-.527a9.72,9.72,0,0,1,2.631.322,5.393,5.393,0,0,1,1.922.943,4.018,4.018,0,0,1,1.184,1.529A5.067,5.067,0,0,1,5.613-10.441Zm-3.023.2A3.037,3.037,0,0,0,2.4-11.35a2.186,2.186,0,0,0-.586-.85,2.65,2.65,0,0,0-.99-.539A4.761,4.761,0,0,0-.6-12.926H-2.109v5.613H-.5A3.929,3.929,0,0,0,.82-7.518a2.6,2.6,0,0,0,.967-.592,2.558,2.558,0,0,0,.6-.926A3.373,3.373,0,0,0,2.59-10.242ZM13.266-6.48V-8.859h5.449V-.691a9.847,9.847,0,0,1-2.2.727,12.489,12.489,0,0,1-2.5.234A7.886,7.886,0,0,1,11.15-.223,5.654,5.654,0,0,1,8.988-1.687,6.552,6.552,0,0,1,7.623-4.1a10.684,10.684,0,0,1-.475-3.34,10.911,10.911,0,0,1,.5-3.422A7,7,0,0,1,9.1-13.424a6.22,6.22,0,0,1,2.344-1.6,8.546,8.546,0,0,1,3.17-.551,11.508,11.508,0,0,1,2.057.182,17.5,17.5,0,0,1,2,.486v2.848a10.409,10.409,0,0,0-1.916-.674A8.644,8.644,0,0,0,14.637-13a4.564,4.564,0,0,0-1.9.375,3.724,3.724,0,0,0-1.383,1.066,4.749,4.749,0,0,0-.844,1.7,8.3,8.3,0,0,0-.287,2.273,9.931,9.931,0,0,0,.223,2.2,4.492,4.492,0,0,0,.721,1.664,3.239,3.239,0,0,0,1.283,1.049,4.529,4.529,0,0,0,1.91.363q.27,0,.469-.018a3.469,3.469,0,0,0,.375-.053q.176-.035.334-.082t.334-.105V-6.48Z" transform="translate(78 69)" fill="currentColor"/>
  </g>
</svg>
