<svg xmlns="http://www.w3.org/2000/svg" width="50" height="50" viewBox="0 0 50 50">
  <g id="C-076-file-format-c4d" transform="translate(-53 -36)">
    <rect id="area" width="50" height="50" transform="translate(53 36)" fill="none"/>
    <path id="Path_938" data-name="Path 938" d="M-8.027-.6A11.709,11.709,0,0,1-10,.012a9.7,9.7,0,0,1-1.986.2,8.149,8.149,0,0,1-2.924-.486,5.507,5.507,0,0,1-2.145-1.447,6.334,6.334,0,0,1-1.324-2.385,10.979,10.979,0,0,1-.451-3.311,11.059,11.059,0,0,1,.492-3.439A7.15,7.15,0,0,1-16.934-13.4a5.991,5.991,0,0,1,2.221-1.582,7.561,7.561,0,0,1,2.936-.545q.527,0,.99.023t.908.088q.445.064.9.17t.949.27v2.859a9.086,9.086,0,0,0-1.9-.668,7.671,7.671,0,0,0-1.641-.2,4.076,4.076,0,0,0-1.863.393,3.426,3.426,0,0,0-1.271,1.1A4.882,4.882,0,0,0-15.434-9.8a9.231,9.231,0,0,0-.234,2.15,9.344,9.344,0,0,0,.24,2.221,4.587,4.587,0,0,0,.744,1.658,3.256,3.256,0,0,0,1.289,1.037,4.467,4.467,0,0,0,1.863.357,5.054,5.054,0,0,0,.838-.076q.451-.076.914-.2a9.561,9.561,0,0,0,.914-.293q.451-.17.838-.346Zm11.8-2.52V0H.984V-3.117H-6.141V-5.566l5.977-9.75H3.773v9.68h2.32v2.52ZM1.02-12.551-3.34-5.637H1.02Zm18.152,4.7a11.149,11.149,0,0,1-.439,3.234,6.366,6.366,0,0,1-1.371,2.479A6.111,6.111,0,0,1,14.977-.557,9.737,9.737,0,0,1,11.5,0H7.605V-15.316h4.535a9.738,9.738,0,0,1,3.076.439,5.324,5.324,0,0,1,2.2,1.354,5.765,5.765,0,0,1,1.318,2.32A11.3,11.3,0,0,1,19.172-7.852Zm-3.094.188a11.1,11.1,0,0,0-.2-2.215,4.336,4.336,0,0,0-.674-1.646,3,3,0,0,0-1.271-1.025,4.911,4.911,0,0,0-1.98-.352H10.488V-2.414h1.266A4.042,4.042,0,0,0,14.977-3.68,5.979,5.979,0,0,0,16.078-7.664Z" transform="translate(78 69)" fill="currentColor"/>
  </g>
</svg>
