<svg xmlns="http://www.w3.org/2000/svg" width="50" height="50" viewBox="0 0 50 50">
  <g id="C-079-file-format-mp3" transform="translate(-53 -36)">
    <rect id="area" width="50" height="50" transform="translate(53 36)" fill="none"/>
    <path id="Path_941" data-name="Path 941" d="M-9.668,0l-.281-8.66-.105-3.457-.738,2.344-1.7,5.215h-1.8l-1.535-5.215-.645-2.344-.082,3.387L-16.816,0h-2.449l.75-15.316h3.258l1.348,4.348.645,2.449.645-2.309,1.418-4.488h3.316L-7.125,0ZM5.613-10.441a5.986,5.986,0,0,1-.4,2.209A4.769,4.769,0,0,1,4.031-6.48,5.43,5.43,0,0,1,2.074-5.332a8.222,8.222,0,0,1-2.719.41H-2.109V0H-5.016V-15.316H-.527a9.72,9.72,0,0,1,2.631.322,5.393,5.393,0,0,1,1.922.943,4.018,4.018,0,0,1,1.184,1.529A5.067,5.067,0,0,1,5.613-10.441Zm-3.023.2A3.037,3.037,0,0,0,2.4-11.35a2.186,2.186,0,0,0-.586-.85,2.65,2.65,0,0,0-.99-.539A4.761,4.761,0,0,0-.6-12.926H-2.109v5.613H-.5A3.929,3.929,0,0,0,.82-7.518a2.6,2.6,0,0,0,.967-.592,2.558,2.558,0,0,0,.6-.926A3.373,3.373,0,0,0,2.59-10.242ZM18.551-4.676a4.8,4.8,0,0,1-.422,2.045,3.984,3.984,0,0,1-1.295,1.547,6.371,6.371,0,0,1-2.2.979,12.639,12.639,0,0,1-3.117.34q-.4,0-.838-.018T9.809.17Q9.375.141,8.965.1T8.227,0V-2.484q.738.141,1.658.229t1.916.088a7.461,7.461,0,0,0,1.676-.164,3.447,3.447,0,0,0,1.16-.475,1.915,1.915,0,0,0,.674-.768,2.377,2.377,0,0,0,.217-1.031A1.884,1.884,0,0,0,15.3-5.52a1.9,1.9,0,0,0-.68-.7,3.709,3.709,0,0,0-1.166-.445,7.81,7.81,0,0,0-1.682-.158h-1.7V-9h1.559a5.356,5.356,0,0,0,1.518-.182,2.638,2.638,0,0,0,.961-.486,1.71,1.71,0,0,0,.51-.721,2.519,2.519,0,0,0,.152-.873,1.713,1.713,0,0,0-.609-1.424,3.005,3.005,0,0,0-1.887-.486,9.3,9.3,0,0,0-1.8.176,18.192,18.192,0,0,0-1.84.469v-2.4q.527-.176,1.008-.293t.961-.2q.48-.082.973-.117t1.02-.035a8.211,8.211,0,0,1,2.221.27,4.721,4.721,0,0,1,1.605.768,3.186,3.186,0,0,1,.979,1.213,3.776,3.776,0,0,1,.328,1.594,3.694,3.694,0,0,1-.639,2.256A4,4,0,0,1,15.3-8.156a4.811,4.811,0,0,1,1.336.4,3.462,3.462,0,0,1,1.025.738,3.163,3.163,0,0,1,.656,1.037A3.553,3.553,0,0,1,18.551-4.676Z" transform="translate(78 69)" fill="currentColor"/>
  </g>
</svg>
