<svg xmlns="http://www.w3.org/2000/svg" width="50" height="50" viewBox="0 0 50 50">
  <g id="C-072-file-format-tga" transform="translate(-53 -36)">
    <rect id="area" width="50" height="50" transform="translate(53 36)" fill="none"/>
    <path id="Path_934" data-name="Path 934" d="M-11.719-12.914V0h-2.953V-12.914h-4.2v-2.4H-7.523v2.4ZM.07-6.48V-8.859H5.52V-.691a9.847,9.847,0,0,1-2.2.727A12.489,12.489,0,0,1,.82.27,7.886,7.886,0,0,1-2.045-.223,5.654,5.654,0,0,1-4.207-1.687,6.552,6.552,0,0,1-5.572-4.1a10.684,10.684,0,0,1-.475-3.34,10.911,10.911,0,0,1,.5-3.422A7,7,0,0,1-4.1-13.424a6.22,6.22,0,0,1,2.344-1.6,8.546,8.546,0,0,1,3.17-.551,11.508,11.508,0,0,1,2.057.182,17.5,17.5,0,0,1,2,.486v2.848a10.409,10.409,0,0,0-1.916-.674A8.644,8.644,0,0,0,1.441-13a4.564,4.564,0,0,0-1.9.375,3.724,3.724,0,0,0-1.383,1.066,4.749,4.749,0,0,0-.844,1.7,8.3,8.3,0,0,0-.287,2.273,9.931,9.931,0,0,0,.223,2.2,4.492,4.492,0,0,0,.721,1.664A3.239,3.239,0,0,0-.75-2.672a4.529,4.529,0,0,0,1.91.363q.27,0,.469-.018A3.469,3.469,0,0,0,2-2.379q.176-.035.334-.082t.334-.105V-6.48ZM16.559,0l-.844-3.023H10.371L9.5,0H6.645L11.18-15.316h4.031L19.746,0Zm-3.48-12.5L11.063-5.379H15.07Z" transform="translate(78 69)" fill="currentColor"/>
  </g>
</svg>
