<svg xmlns="http://www.w3.org/2000/svg" width="50" height="50" viewBox="0 0 50 50">
  <g id="C-075-file-format-aep" transform="translate(-53 -36)">
    <rect id="area" width="50" height="50" transform="translate(53 36)" fill="none"/>
    <path id="Path_937" data-name="Path 937" d="M-9.832,0l-.844-3.023H-16.02L-16.887,0h-2.859l4.535-15.316h4.031L-6.645,0Zm-3.48-12.5-2.016,7.125h4.008ZM-4.441,0V-15.316H4.781v2.438H-1.512V-9.07h6v2.379h-6v4.254H4.781V0Zm23.25-10.441a5.986,5.986,0,0,1-.4,2.209A4.769,4.769,0,0,1,17.227-6.48,5.43,5.43,0,0,1,15.27-5.332a8.222,8.222,0,0,1-2.719.41H11.086V0H8.18V-15.316h4.488a9.72,9.72,0,0,1,2.631.322,5.393,5.393,0,0,1,1.922.943A4.018,4.018,0,0,1,18.4-12.521,5.067,5.067,0,0,1,18.809-10.441Zm-3.023.2a3.037,3.037,0,0,0-.193-1.107,2.186,2.186,0,0,0-.586-.85,2.65,2.65,0,0,0-.99-.539,4.761,4.761,0,0,0-1.418-.187H11.086v5.613h1.605a3.929,3.929,0,0,0,1.324-.205,2.6,2.6,0,0,0,.967-.592,2.558,2.558,0,0,0,.6-.926A3.373,3.373,0,0,0,15.785-10.242Z" transform="translate(78 69)" fill="currentColor"/>
  </g>
</svg>
