<svg xmlns="http://www.w3.org/2000/svg" width="50" height="50" viewBox="0 0 50 50">
  <g id="C-078-file-format-wav" transform="translate(-53 -36)">
    <rect id="area" width="50" height="50" transform="translate(53 36)" fill="none"/>
    <path id="Path_940" data-name="Path 940" d="M-7.84,0h-3.387l-1.512-4.723-.551-1.922-.527,1.969L-15.3,0h-3.246l-.855-15.316h2.543L-16.5-5.5l.094,2.684.691-2.391,1.688-5.449h1.816l1.781,5.777.574,2.039.047-2.391.387-10.09h2.449Zm11.2,0L2.52-3.023H-2.824L-3.691,0H-6.551l4.535-15.316H2.016L6.551,0ZM-.117-12.5-2.133-5.379H1.875ZM15.094,0h-3.82L6.6-15.316h3.27l2.59,9.223.832,3.023.867-3.2,2.566-9.047h3.07Z" transform="translate(78 69)" fill="currentColor"/>
  </g>
</svg>
