<svg xmlns="http://www.w3.org/2000/svg" width="50" height="50" viewBox="0 0 50 50">
  <g id="C-074-file-format-hdr" transform="translate(-53 -36)">
    <rect id="area" width="50" height="50" transform="translate(53 36)" fill="none"/>
    <path id="Path_936" data-name="Path 936" d="M-10.594,0V-6.668h-5.2V0H-18.68V-15.316H-15.8v6.152h5.2v-6.152h2.883V0ZM5.977-7.852a11.149,11.149,0,0,1-.439,3.234A6.366,6.366,0,0,1,4.166-2.139,6.111,6.111,0,0,1,1.781-.557,9.737,9.737,0,0,1-1.7,0H-5.59V-15.316h4.535a9.738,9.738,0,0,1,3.076.439,5.324,5.324,0,0,1,2.2,1.354A5.765,5.765,0,0,1,5.537-11.2,11.3,11.3,0,0,1,5.977-7.852Zm-3.094.188a11.1,11.1,0,0,0-.2-2.215,4.336,4.336,0,0,0-.674-1.646A3,3,0,0,0,.738-12.551a4.911,4.911,0,0,0-1.98-.352H-2.707V-2.414h1.266A4.042,4.042,0,0,0,1.781-3.68,5.979,5.979,0,0,0,2.883-7.664ZM15.832,0,13.676-4.922a2.334,2.334,0,0,0-.85-1.061,2.286,2.286,0,0,0-1.283-.357h-.551V0H8.109V-15.316h4.465a11.2,11.2,0,0,1,2.3.217,4.772,4.772,0,0,1,1.758.721,3.349,3.349,0,0,1,1.119,1.313,4.508,4.508,0,0,1,.393,1.98,4.253,4.253,0,0,1-.246,1.5A3.35,3.35,0,0,1,17.2-8.455a3.5,3.5,0,0,1-1.061.768,4.929,4.929,0,0,1-1.342.41,1.915,1.915,0,0,1,1.031.639,6.383,6.383,0,0,1,.938,1.506L19.219,0Zm-.715-10.8a1.822,1.822,0,0,0-.715-1.617,3.8,3.8,0,0,0-2.145-.492H10.992V-8.59h1.172a4.855,4.855,0,0,0,1.213-.141,2.724,2.724,0,0,0,.932-.422,1.934,1.934,0,0,0,.6-.7A2.083,2.083,0,0,0,15.117-10.8Z" transform="translate(78 69)" fill="currentColor"/>
  </g>
</svg>
