<svg xmlns="http://www.w3.org/2000/svg" width="50" height="50" viewBox="0 0 50 50">
  <g id="C-073-file-format-exr" transform="translate(-53 -36)">
    <rect id="area" width="50" height="50" transform="translate(53 36)" fill="none"/>
    <path id="Path_935" data-name="Path 935" d="M-17.637,0V-15.316h9.223v2.438h-6.293V-9.07h6v2.379h-6v4.254h6.293V0ZM2.836,0-.117-5.637-3.023,0H-6.5l4.418-7.852-4.125-7.465h3.387L-.047-9.984l2.684-5.332H6.023l-4.1,7.465L6.5,0Zm13,0L13.676-4.922a2.334,2.334,0,0,0-.85-1.061,2.286,2.286,0,0,0-1.283-.357h-.551V0H8.109V-15.316h4.465a11.2,11.2,0,0,1,2.3.217,4.772,4.772,0,0,1,1.758.721,3.349,3.349,0,0,1,1.119,1.313,4.508,4.508,0,0,1,.393,1.98,4.253,4.253,0,0,1-.246,1.5A3.35,3.35,0,0,1,17.2-8.455a3.5,3.5,0,0,1-1.061.768,4.929,4.929,0,0,1-1.342.41,1.915,1.915,0,0,1,1.031.639,6.383,6.383,0,0,1,.938,1.506L19.219,0Zm-.715-10.8a1.822,1.822,0,0,0-.715-1.617,3.8,3.8,0,0,0-2.145-.492H10.992V-8.59h1.172a4.855,4.855,0,0,0,1.213-.141,2.724,2.724,0,0,0,.932-.422,1.934,1.934,0,0,0,.6-.7A2.083,2.083,0,0,0,15.117-10.8Z" transform="translate(78 69)" fill="currentColor"/>
  </g>
</svg>
