<svg xmlns="http://www.w3.org/2000/svg" width="50" height="50" viewBox="0 0 50 50">
  <g id="C-077-file-format-obj" transform="translate(-53 -36)">
    <rect id="area" width="50" height="50" transform="translate(53 36)" fill="none"/>
    <path id="Path_939" data-name="Path 939" d="M-7.031-7.723a11.805,11.805,0,0,1-.486,3.6A6.968,6.968,0,0,1-8.854-1.641,5.284,5.284,0,0,1-10.846-.2,6.374,6.374,0,0,1-13.289.27a5.346,5.346,0,0,1-4.547-2.01,9.548,9.548,0,0,1-1.523-5.842,11.805,11.805,0,0,1,.486-3.6,6.968,6.968,0,0,1,1.336-2.484,5.284,5.284,0,0,1,1.992-1.441,6.374,6.374,0,0,1,2.443-.469,5.353,5.353,0,0,1,4.547,2A9.544,9.544,0,0,1-7.031-7.723Zm-3.047.141a8.773,8.773,0,0,0-.727-4.055A2.511,2.511,0,0,0-13.2-12.973a2.744,2.744,0,0,0-1.418.346,2.689,2.689,0,0,0-.967,1.014,5.157,5.157,0,0,0-.557,1.646,12.8,12.8,0,0,0-.176,2.244,8.713,8.713,0,0,0,.732,4.055A2.514,2.514,0,0,0-13.2-2.332a2.776,2.776,0,0,0,1.424-.346A2.632,2.632,0,0,0-10.8-3.691a5.256,5.256,0,0,0,.551-1.646A12.8,12.8,0,0,0-10.078-7.582ZM-5.086,0V-15.316H-.141a6.859,6.859,0,0,1,3.92.914,3.149,3.149,0,0,1,1.307,2.766,4.644,4.644,0,0,1-.135,1.119,3.5,3.5,0,0,1-.416,1,3.3,3.3,0,0,1-.7.809,3.153,3.153,0,0,1-1,.551,3.561,3.561,0,0,1,1.1.369,3.253,3.253,0,0,1,.914.715,3.317,3.317,0,0,1,.621,1.037A3.716,3.716,0,0,1,5.7-4.7a4.122,4.122,0,0,1-1.57,3.521A7.463,7.463,0,0,1-.41,0ZM2.086-11.133a2.1,2.1,0,0,0-.141-.785,1.432,1.432,0,0,0-.451-.6A2.227,2.227,0,0,0,.7-12.9,4.461,4.461,0,0,0-.48-13.031H-2.227v4.055H-.48a3.632,3.632,0,0,0,1.189-.17,2.155,2.155,0,0,0,.8-.469,1.735,1.735,0,0,0,.445-.686A2.511,2.511,0,0,0,2.086-11.133Zm-2.3,8.777A3.8,3.8,0,0,0,1-2.531a2.512,2.512,0,0,0,.873-.486,2.048,2.048,0,0,0,.533-.732,2.257,2.257,0,0,0,.182-.9,1.844,1.844,0,0,0-.744-1.559A3.773,3.773,0,0,0-.434-6.773H-2.227v4.418ZM17.2-4.582a5.482,5.482,0,0,1-.34,1.969,4.131,4.131,0,0,1-1,1.523,4.46,4.46,0,0,1-1.629.979,6.747,6.747,0,0,1-2.262.346A7.416,7.416,0,0,1,10.148.012,7.166,7.166,0,0,1,8.613-.551V-3.34a4.021,4.021,0,0,0,.686.457,6.037,6.037,0,0,0,.838.369,6.065,6.065,0,0,0,.914.246,5.015,5.015,0,0,0,.926.088,2.5,2.5,0,0,0,.8-.141,1.907,1.907,0,0,0,.744-.469,2.5,2.5,0,0,0,.539-.861,3.6,3.6,0,0,0,.211-1.318v-7.969H8.73v-2.379H17.2Z" transform="translate(78 69)" fill="currentColor"/>
  </g>
</svg>
