<svg xmlns="http://www.w3.org/2000/svg" width="50" height="50" viewBox="0 0 50 50">
  <g id="C-080-file-format-xml" transform="translate(-53 -36)">
    <rect id="area" width="50" height="50" transform="translate(53 36)" fill="none"/>
    <path id="Path_942" data-name="Path 942" d="M-10.359,0l-2.953-5.637L-16.219,0H-19.7l4.418-7.852-4.125-7.465h3.387l2.777,5.332,2.684-5.332h3.387l-4.1,7.465L-6.691,0ZM3.527,0,3.246-8.66l-.105-3.457L2.4-9.773.7-4.559H-1.1L-2.637-9.773l-.645-2.344L-3.363-8.73-3.621,0H-6.07l.75-15.316h3.258l1.348,4.348L-.07-8.52l.645-2.309,1.418-4.488H5.309L6.07,0ZM8.906,0V-15.316h2.93V-2.473H18.3V0Z" transform="translate(78 69)" fill="currentColor"/>
  </g>
</svg>
