<svg xmlns="http://www.w3.org/2000/svg" width="50" height="50" viewBox="0 0 50 50">
  <g id="D-007-align-left" transform="translate(-53 -36)">
    <rect id="area" width="50" height="50" transform="translate(53 36)" fill="none"/>
    <path id="icon" d="M34.653,33.327V62.513a1.327,1.327,0,0,1-2.653,0V33.327a1.327,1.327,0,0,1,2.653,0M37.307,43.94V37.307a2.653,2.653,0,0,1,2.653-2.653H55.88a2.653,2.653,0,0,1,2.653,2.653V43.94a2.653,2.653,0,0,1-2.653,2.653H39.96a2.653,2.653,0,0,1-2.653-2.653m2.653,0H55.88V37.307H39.96ZM65.166,51.9v6.633a2.653,2.653,0,0,1-2.653,2.653H39.96a2.653,2.653,0,0,1-2.653-2.653V51.9a2.653,2.653,0,0,1,2.653-2.653H62.513A2.653,2.653,0,0,1,65.166,51.9m-2.653,6.633V51.9H39.96v6.633Z" transform="translate(29 13)" fill="currentColor" stroke="currentColor" stroke-width="0.3"/>
  </g>
</svg>
