<svg xmlns="http://www.w3.org/2000/svg" width="50" height="50" viewBox="0 0 50 50">
  <g id="D-003-align-right" transform="translate(-53 -36)">
    <rect id="area" width="50" height="50" transform="translate(53 36)" fill="none"/>
    <path id="icon" d="M51.82,49.327v23.88a1.327,1.327,0,1,1-2.653,0V49.327a1.327,1.327,0,0,1,2.653,0M46.513,55.96V66.573a2.653,2.653,0,0,1-2.653,2.653H18.653A2.653,2.653,0,0,1,16,66.573V55.96a2.653,2.653,0,0,1,2.653-2.653H43.86a2.653,2.653,0,0,1,2.653,2.653m-2.653,0H18.653V66.573H43.86Z" transform="translate(44 0)" fill="currentColor" stroke="currentColor" stroke-width="0.3"/>
  </g>
</svg>
