<svg xmlns="http://www.w3.org/2000/svg" width="50" height="50" viewBox="0 0 50 50">
  <g id="D-008-align-center-horizontal" transform="translate(-53 -36)">
    <rect id="area" width="50" height="50" transform="translate(53 36)" fill="none"/>
    <path id="icon" d="M61.186,42.573H49.246V39.92h7.96a2.653,2.653,0,0,0,2.653-2.653V30.633a2.653,2.653,0,0,0-2.653-2.653h-7.96V25.327a1.327,1.327,0,0,0-2.653,0V27.98h-7.96a2.653,2.653,0,0,0-2.653,2.653v6.633a2.653,2.653,0,0,0,2.653,2.653h7.96v2.653H34.653A2.653,2.653,0,0,0,32,45.226V51.86a2.653,2.653,0,0,0,2.653,2.653h11.94v2.653a1.327,1.327,0,0,0,2.653,0V54.513h11.94A2.653,2.653,0,0,0,63.84,51.86V45.226a2.653,2.653,0,0,0-2.653-2.653M38.633,30.633H57.206v6.633H38.633ZM61.186,51.86H34.653V45.226H61.186Z" transform="translate(30.08 19.507)" fill="currentColor" stroke="currentColor" stroke-width="0.3"/>
  </g>
</svg>
