<svg xmlns="http://www.w3.org/2000/svg" width="50" height="50" viewBox="0 0 50 50">
  <g id="D-009-align-right" transform="translate(-53 -36)">
    <rect id="area" width="50" height="50" transform="translate(53 36)" fill="none"/>
    <path id="icon" d="M57.166,33.327V62.513a1.327,1.327,0,0,1-2.653,0V33.327a1.327,1.327,0,0,1,2.653,0m-5.307,3.98V43.94a2.653,2.653,0,0,1-2.653,2.653H33.287a2.653,2.653,0,0,1-2.653-2.653V37.307a2.653,2.653,0,0,1,2.653-2.653h15.92a2.653,2.653,0,0,1,2.653,2.653m-2.653,0H33.287V43.94h15.92ZM51.86,51.9v6.633a2.653,2.653,0,0,1-2.653,2.653H26.653A2.653,2.653,0,0,1,24,58.533V51.9a2.653,2.653,0,0,1,2.653-2.653H49.206A2.653,2.653,0,0,1,51.86,51.9m-2.653,0H26.653v6.633H49.206Z" transform="translate(37 13)" fill="currentColor" stroke="currentColor" stroke-width="0.3"/>
  </g>
</svg>
