<svg xmlns="http://www.w3.org/2000/svg" width="50" height="50" viewBox="0 0 50 50">
  <g id="D-004-align-top" transform="translate(-53 -36)">
    <rect id="area" width="50" height="50" transform="translate(53 36)" fill="none"/>
    <path id="icon" d="M74.533,25.327a1.327,1.327,0,0,1-1.327,1.327H49.327a1.327,1.327,0,1,1,0-2.653h23.88a1.327,1.327,0,0,1,1.327,1.327M69.226,31.96V57.166a2.653,2.653,0,0,1-2.653,2.653H55.96a2.653,2.653,0,0,1-2.653-2.653V31.96a2.653,2.653,0,0,1,2.653-2.653H66.573a2.653,2.653,0,0,1,2.653,2.653m-2.653,0H55.96V57.166H66.573Z" transform="translate(17 19)" fill="currentColor" stroke="currentColor" stroke-width="0.3"/>
  </g>
</svg>
