<svg xmlns="http://www.w3.org/2000/svg" width="50" height="50" viewBox="0 0 50 50">
  <g id="D-018-box-align-top" transform="translate(-53 -36)">
    <rect id="area" width="50" height="50" transform="translate(53 36)" fill="none"/>
    <path id="icon" d="M31.333,33a1.667,1.667,0,0,1-1.667-1.667v-.017a1.667,1.667,0,0,1,3.333,0v.017A1.667,1.667,0,0,1,31.333,33ZM23,33a1.667,1.667,0,0,1-1.667-1.667v-.017a1.667,1.667,0,0,1,3.333,0v.017A1.667,1.667,0,0,1,23,33ZM13,33a1.667,1.667,0,0,1-1.667-1.667v-.017a1.667,1.667,0,0,1,3.333,0v.017A1.667,1.667,0,0,1,13,33ZM4.667,33A1.667,1.667,0,0,1,3,31.338v-.017a1.667,1.667,0,0,1,3.333,0v.017A1.667,1.667,0,0,1,4.667,33Zm26.667-8.333A1.667,1.667,0,0,1,29.667,23v-.017a1.667,1.667,0,0,1,3.333,0V23A1.667,1.667,0,0,1,31.333,24.672Zm-26.667,0A1.667,1.667,0,0,1,3,23v-.017a1.667,1.667,0,0,1,3.333,0V23A1.667,1.667,0,0,1,4.667,24.672Zm26.667-8.333H4.667A1.667,1.667,0,0,1,3,14.672V6.338A3.337,3.337,0,0,1,6.333,3.005H29.667A3.337,3.337,0,0,1,33,6.338v8.333A1.667,1.667,0,0,1,31.333,16.338ZM6.333,13H29.667V6.338H6.333Z" transform="translate(60.5 43.495)" fill="currentColor" stroke="currentColor" stroke-linecap="round" stroke-width="0.3"/>
  </g>
</svg>
