<svg xmlns="http://www.w3.org/2000/svg" width="50" height="50" viewBox="0 0 50 50">
  <g id="D-019-box-align-left" transform="translate(-53 -36)">
    <rect id="area" width="50" height="50" transform="translate(53 36)" fill="none"/>
    <path id="icon" d="M31.335,33h-.018a1.667,1.667,0,1,1,0-3.333h.018a1.667,1.667,0,1,1,0,3.333ZM23,33h-.017a1.667,1.667,0,1,1,0-3.333H23A1.667,1.667,0,1,1,23,33Zm-8.333,0H6.335A3.337,3.337,0,0,1,3,29.669V6.337A3.337,3.337,0,0,1,6.335,3h8.333A1.667,1.667,0,0,1,16.335,4.67V31.335A1.667,1.667,0,0,1,14.668,33ZM6.335,6.337V29.669H13V6.337Zm25,18.331h-.018a1.667,1.667,0,1,1,0-3.333h.018a1.667,1.667,0,1,1,0,3.333Zm0-10h-.018a1.667,1.667,0,1,1,0-3.333h.018a1.667,1.667,0,1,1,0,3.333Zm0-8.333h-.018a1.667,1.667,0,1,1,0-3.333h.018a1.667,1.667,0,1,1,0,3.333ZM23,6.335h-.017a1.667,1.667,0,1,1,0-3.333H23a1.667,1.667,0,1,1,0,3.333Z" transform="translate(60.498 43.498)" fill="currentColor" stroke="currentColor" stroke-linecap="round" stroke-width="0.3"/>
  </g>
</svg>
