<svg xmlns="http://www.w3.org/2000/svg" width="50" height="50" viewBox="0 0 50 50">
  <g id="D-012-align-bottom" transform="translate(-53 -36)">
    <rect id="area" width="50" height="50" transform="translate(53 36)" fill="none"/>
    <path id="icon" d="M63.84,55.84a1.327,1.327,0,0,1-1.327,1.327H33.327a1.327,1.327,0,0,1,0-2.653H62.513A1.327,1.327,0,0,1,63.84,55.84M49.246,49.206V33.287A2.653,2.653,0,0,1,51.9,30.633h6.633a2.653,2.653,0,0,1,2.653,2.653v15.92a2.653,2.653,0,0,1-2.653,2.653H51.9a2.653,2.653,0,0,1-2.653-2.653m2.653,0h6.633V33.287H51.9Zm-17.246,0V26.653A2.653,2.653,0,0,1,37.307,24H43.94a2.653,2.653,0,0,1,2.653,2.653V49.206A2.653,2.653,0,0,1,43.94,51.86H37.307a2.653,2.653,0,0,1-2.653-2.653m2.653,0H43.94V26.653H37.307Z" transform="translate(30.08 20.417)" fill="currentColor" stroke="currentColor" stroke-width="0.3"/>
  </g>
</svg>
