<svg xmlns="http://www.w3.org/2000/svg" width="50" height="50" viewBox="0 0 50 50">
  <g id="D-013-distribute-horizontal" transform="translate(-53 -36)">
    <rect id="area" width="50" height="50" transform="translate(53 36)" fill="none"/>
    <path id="Path_568" data-name="Path 568" d="M10.325,27.1H2.58V3.872h7.745Zm0-25.809H2.581A2.582,2.582,0,0,0,0,3.872V27.1a2.582,2.582,0,0,0,2.581,2.581h7.744a2.58,2.58,0,0,0,2.581-2.58h0V3.872a2.58,2.58,0,0,0-2.581-2.581M33.557,27.1H25.813V3.872h7.744Zm0-25.809H25.813a2.581,2.581,0,0,0-2.58,2.581V27.1a2.581,2.581,0,0,0,2.58,2.581h7.744a2.58,2.58,0,0,0,2.582-2.58h0V3.872a2.58,2.58,0,0,0-2.581-2.581M18.264,30.977h-.389a1.291,1.291,0,0,1-1.291-1.29V1.29A1.291,1.291,0,0,1,17.875,0h.389a1.29,1.29,0,0,1,1.289,1.29v28.4a1.29,1.29,0,0,1-1.289,1.29" transform="translate(60 46)" fill="currentColor" stroke="currentColor" stroke-width="0.3"/>
  </g>
</svg>
