<svg xmlns="http://www.w3.org/2000/svg" width="50" height="50" viewBox="0 0 50 50">
  <g id="D-014-distribute-vertical" transform="translate(-53 -36)">
    <rect id="area" width="50" height="50" transform="translate(53 36)" fill="none"/>
    <path id="Path_567" data-name="Path 567" d="M30.271,16.717H2.751v-5.5h27.52Zm2.751,0v-5.5a2.75,2.75,0,0,0-2.75-2.752H2.751A2.751,2.751,0,0,0,0,11.213H0v5.5a2.752,2.752,0,0,0,2.751,2.751h27.52a2.752,2.752,0,0,0,2.751-2.751m0-15.341V1.79a1.376,1.376,0,0,1-1.375,1.376H1.377A1.376,1.376,0,0,1,0,1.79V1.376A1.375,1.375,0,0,1,1.377,0H31.645A1.375,1.375,0,0,1,33.02,1.376m0,24.764v.414a1.376,1.376,0,0,1-1.375,1.376H1.377A1.376,1.376,0,0,1,0,26.553V26.14a1.375,1.375,0,0,1,1.375-1.375H31.645A1.375,1.375,0,0,1,33.02,26.14" transform="translate(61.479 47.136)" fill="currentColor" stroke="currentColor" stroke-width="0.3"/>
  </g>
</svg>
