<svg xmlns="http://www.w3.org/2000/svg" width="50" height="50" viewBox="0 0 50 50">
  <g id="D-011-align-center-vertical" transform="translate(-53 -36)">
    <rect id="area" width="50" height="50" transform="translate(53 36)" fill="none"/>
    <path id="icon" d="M57.166,46.593H54.513v-7.96A2.653,2.653,0,0,0,51.86,35.98H45.226a2.653,2.653,0,0,0-2.653,2.653v7.96H39.92V34.653A2.653,2.653,0,0,0,37.267,32H30.633a2.653,2.653,0,0,0-2.653,2.653v11.94H25.327a1.327,1.327,0,0,0,0,2.653H27.98v11.94a2.653,2.653,0,0,0,2.653,2.653h6.633a2.653,2.653,0,0,0,2.653-2.653V49.246h2.653v7.96a2.653,2.653,0,0,0,2.653,2.653H51.86a2.653,2.653,0,0,0,2.653-2.653v-7.96h2.653a1.327,1.327,0,1,0,0-2.653m-19.9,14.593H30.633V34.653h6.633Zm14.593-3.98H45.226V38.633H51.86Z" transform="translate(36.754 13.08)" fill="currentColor" stroke="currentColor" stroke-width="0.3"/>
  </g>
</svg>
