<svg xmlns="http://www.w3.org/2000/svg" width="50" height="50" viewBox="0 0 50 50">
  <g id="D-010-align-top" transform="translate(-53 -36)">
    <rect id="area" width="50" height="50" transform="translate(53 36)" fill="none"/>
    <path id="icon" d="M63.84,33.327a1.327,1.327,0,0,1-1.327,1.327H33.327a1.327,1.327,0,1,1,0-2.653H62.513a1.327,1.327,0,0,1,1.327,1.327M61.187,39.96V55.88a2.653,2.653,0,0,1-2.653,2.653H51.9a2.653,2.653,0,0,1-2.653-2.653V39.96A2.653,2.653,0,0,1,51.9,37.307h6.633a2.653,2.653,0,0,1,2.653,2.653m-2.653,0H51.9V55.88h6.633Zm-11.94,0V62.513a2.653,2.653,0,0,1-2.653,2.653H37.307a2.653,2.653,0,0,1-2.653-2.653V39.96a2.653,2.653,0,0,1,2.653-2.653H43.94a2.653,2.653,0,0,1,2.653,2.653m-2.653,0H37.307V62.513H43.94Z" transform="translate(30.08 12.417)" fill="currentColor" stroke="currentColor" stroke-width="0.3"/>
  </g>
</svg>
