<svg xmlns="http://www.w3.org/2000/svg" width="50" height="50" viewBox="0 0 50 50">
  <g id="D-017-box-align-bottom" transform="translate(-53 -36)">
    <rect id="area" width="50" height="50" transform="translate(53 36)" fill="none"/>
    <path id="icon" d="M29.667,33H6.333A3.337,3.337,0,0,1,3,29.667V21.333a1.667,1.667,0,0,1,1.667-1.667H31.333A1.667,1.667,0,0,1,33,21.333v8.333A3.337,3.337,0,0,1,29.667,33ZM6.333,23v6.667H29.667V23Zm25-8.317a1.667,1.667,0,0,1-1.667-1.667V13A1.667,1.667,0,0,1,33,13v.017A1.667,1.667,0,0,1,31.333,14.683Zm-26.667,0A1.667,1.667,0,0,1,3,13.017V13a1.667,1.667,0,0,1,3.333,0v.017A1.667,1.667,0,0,1,4.667,14.683ZM31.333,6.35a1.667,1.667,0,0,1-1.667-1.667V4.667a1.667,1.667,0,0,1,3.333,0v.017A1.667,1.667,0,0,1,31.333,6.35ZM23,6.35a1.667,1.667,0,0,1-1.667-1.667V4.667a1.667,1.667,0,0,1,3.333,0v.017A1.667,1.667,0,0,1,23,6.35Zm-10,0a1.667,1.667,0,0,1-1.667-1.667V4.667a1.667,1.667,0,0,1,3.333,0v.017A1.667,1.667,0,0,1,13,6.35Zm-8.333,0A1.667,1.667,0,0,1,3,4.683V4.667a1.667,1.667,0,0,1,3.333,0v.017A1.667,1.667,0,0,1,4.667,6.35Z" transform="translate(60 43)" fill="currentColor" stroke="currentColor" stroke-linecap="round" stroke-width="0.3"/>
  </g>
</svg>
