<svg xmlns="http://www.w3.org/2000/svg" width="50" height="50" viewBox="0 0 50 50">
  <g id="D-020-box-align-right" transform="translate(-53 -36)">
    <rect id="area" width="50" height="50" transform="translate(53 36)" fill="none"/>
    <path id="icon" d="M29.664,33H21.331a1.667,1.667,0,0,1-1.667-1.667V4.67A1.667,1.667,0,0,1,21.331,3h8.333A3.337,3.337,0,0,1,33,6.337V29.669A3.337,3.337,0,0,1,29.664,33ZM23,29.669h6.666V6.337H23ZM13.015,33H13a1.667,1.667,0,1,1,0-3.333h.017a1.667,1.667,0,1,1,0,3.333ZM4.682,33H4.664a1.667,1.667,0,1,1,0-3.333h.018a1.667,1.667,0,1,1,0,3.333Zm0-8.335H4.664a1.667,1.667,0,1,1,0-3.333h.018a1.667,1.667,0,1,1,0,3.333Zm0-10H4.664a1.667,1.667,0,1,1,0-3.333h.018a1.667,1.667,0,1,1,0,3.333Zm8.333-8.333H13A1.667,1.667,0,1,1,13,3h.017a1.667,1.667,0,1,1,0,3.333Zm-8.333,0H4.664A1.667,1.667,0,1,1,4.664,3h.018a1.667,1.667,0,1,1,0,3.333Z" transform="translate(60.003 42.998)" fill="currentColor"/>
  </g>
</svg>
