<svg xmlns="http://www.w3.org/2000/svg" width="50" height="50" viewBox="0 0 50 50">
  <g id="E-006-arrow-lines-down" transform="translate(-53 -36)">
    <rect id="area" width="50" height="50" transform="translate(53 36)" fill="none"/>
    <path id="icon" d="M53.905,46.558a1.154,1.154,0,0,0-1.066-.712H47.071V42.384a1.154,1.154,0,0,0-1.154-1.154H32.071a1.154,1.154,0,0,0-1.154,1.154v3.461H25.148a1.154,1.154,0,0,0-.816,1.97L38.178,61.661a1.154,1.154,0,0,0,1.633,0L53.656,47.816a1.154,1.154,0,0,0,.25-1.258M38.994,59.214,27.933,48.153h4.138A1.154,1.154,0,0,0,33.225,47V43.538H44.763V47a1.154,1.154,0,0,0,1.154,1.154h4.138Zm-8.077-26.06A1.154,1.154,0,0,1,32.071,32H45.917a1.154,1.154,0,1,1,0,2.308H32.071a1.154,1.154,0,0,1-1.154-1.154m0,4.615a1.154,1.154,0,0,1,1.154-1.154H45.917a1.154,1.154,0,1,1,0,2.308H32.071a1.154,1.154,0,0,1-1.154-1.154" transform="translate(39.007 14)" fill="currentColor" stroke="currentColor" stroke-width="0.6"/>
  </g>
</svg>
