<svg xmlns="http://www.w3.org/2000/svg" width="50" height="50" viewBox="0 0 50 50">
  <g id="E-008-arrow-lines-right" transform="translate(-53 -36)">
    <rect id="area" width="50" height="50" transform="translate(53 36)" fill="none"/>
    <path id="icon" d="M61.662,38.178,47.816,24.332a1.154,1.154,0,0,0-1.97.816v5.769H42.384a1.154,1.154,0,0,0-1.154,1.154V45.917a1.154,1.154,0,0,0,1.154,1.154h3.461V52.84a1.154,1.154,0,0,0,1.97.816L61.662,39.81a1.154,1.154,0,0,0,0-1.633M48.153,50.055V45.917A1.154,1.154,0,0,0,47,44.763H43.538V33.225H47a1.154,1.154,0,0,0,1.154-1.154V27.933L59.214,38.994ZM34.308,32.071V45.917a1.154,1.154,0,1,1-2.308,0V32.071a1.154,1.154,0,1,1,2.308,0m4.615,0V45.917a1.154,1.154,0,1,1-2.308,0V32.071a1.154,1.154,0,1,1,2.308,0" transform="translate(31 22.007)" fill="currentColor" stroke="currentColor" stroke-width="0.6"/>
  </g>
</svg>
