<svg xmlns="http://www.w3.org/2000/svg" width="50" height="50" viewBox="0 0 50 50">
  <g id="E-001-arrow-up" transform="translate(-53 -36)">
    <rect id="area" width="50" height="50" transform="translate(53 36)" fill="none"/>
    <path id="icon" d="M53.655,30.177,39.81,16.332a1.154,1.154,0,0,0-1.633,0L24.332,30.177a1.154,1.154,0,0,0,.816,1.97h5.769V43.685a2.308,2.308,0,0,0,2.308,2.308H44.762a2.308,2.308,0,0,0,2.308-2.308V32.147h5.769a1.154,1.154,0,0,0,.816-1.97m-7.739-.337a1.154,1.154,0,0,0-1.154,1.154V43.685H33.225V30.994a1.154,1.154,0,0,0-1.154-1.154H27.933l11.06-11.06,11.06,11.06Z" transform="translate(39.3 30.007)" fill="currentColor" stroke="currentColor" stroke-width="0.7"/>
  </g>
</svg>
