<svg xmlns="http://www.w3.org/2000/svg" width="50" height="50" viewBox="0 0 50 50">
  <g id="E-007-arrow-lines-left" transform="translate(-53 -36)">
    <rect id="area" width="50" height="50" transform="translate(53 36)" fill="none"/>
    <path id="icon" d="M35.609,30.917H32.148V25.148a1.154,1.154,0,0,0-1.97-.816L16.332,38.178a1.154,1.154,0,0,0,0,1.633L30.178,53.656a1.154,1.154,0,0,0,1.97-.816V47.071h3.461a1.154,1.154,0,0,0,1.154-1.154V32.071a1.154,1.154,0,0,0-1.154-1.154M34.456,44.763H30.994a1.154,1.154,0,0,0-1.154,1.154v4.138L18.78,38.994,29.84,27.933v4.138a1.154,1.154,0,0,0,1.154,1.154h3.461ZM45.994,32.071V45.917a1.154,1.154,0,1,1-2.308,0V32.071a1.154,1.154,0,1,1,2.308,0m-4.615,0V45.917a1.154,1.154,0,1,1-2.308,0V32.071a1.154,1.154,0,1,1,2.308,0" transform="translate(47.006 22.007)" fill="currentColor" stroke="currentColor" stroke-width="0.6"/>
  </g>
</svg>
