<svg xmlns="http://www.w3.org/2000/svg" width="50" height="50" viewBox="0 0 50 50">
  <g id="E-027-arrow-elbow-left-down" transform="translate(-53 -36)">
    <rect id="area" width="50" height="50" transform="translate(53 36)" fill="none"/>
    <path id="icon" d="M56,57.231a1.231,1.231,0,0,1-1.231,1.231H33.842V76.413l5.283-5.285a1.231,1.231,0,0,1,1.741,1.742l-7.384,7.384a1.231,1.231,0,0,1-1.742,0L24.356,72.87A1.231,1.231,0,1,1,26.1,71.129l5.283,5.285V57.231A1.231,1.231,0,0,1,32.611,56H54.765A1.231,1.231,0,0,1,56,57.231" transform="translate(38.004 -7)" fill="currentColor" stroke="currentColor" stroke-width="0.5"/>
  </g>
</svg>
