<svg xmlns="http://www.w3.org/2000/svg" width="50" height="50" viewBox="0 0 50 50">
  <g id="E-028-arrow-elbow-left-up" transform="translate(-53 -36)">
    <rect id="area" width="50" height="50" transform="translate(53 36)" fill="none"/>
    <path id="icon" d="M56,63.379a1.231,1.231,0,0,1-1.231,1.231H32.611a1.231,1.231,0,0,1-1.231-1.231V44.2L26.1,49.481a1.231,1.231,0,1,1-1.742-1.741l7.384-7.384a1.231,1.231,0,0,1,1.742,0l7.384,7.384a1.231,1.231,0,1,1-1.742,1.741L33.842,44.2V62.148H54.765A1.231,1.231,0,0,1,56,63.379" transform="translate(38.004 9.006)" fill="currentColor" stroke="currentColor" stroke-width="0.5"/>
  </g>
</svg>
