<svg xmlns="http://www.w3.org/2000/svg" width="50" height="50" viewBox="0 0 50 50">
  <g id="E-038-arrow-bend-left-up" transform="translate(-53 -36)">
    <rect id="area" width="50" height="50" transform="translate(53 36)" fill="none"/>
    <path id="icon" d="M74.149,56.686a1.308,1.308,0,0,1-1.308,1.308,17.017,17.017,0,0,1-17-17V28.459l-5.613,5.615a1.308,1.308,0,0,1-1.85-1.85l7.846-7.846a1.308,1.308,0,0,1,1.85,0l7.846,7.846a1.308,1.308,0,0,1-1.85,1.85l-5.613-5.615V40.994A14.4,14.4,0,0,0,72.842,55.378a1.308,1.308,0,0,1,1.308,1.308" transform="translate(16.927 20.006)" fill="currentColor" stroke="currentColor" stroke-width="0.5"/>
  </g>
</svg>
