<svg xmlns="http://www.w3.org/2000/svg" width="50" height="50" viewBox="0 0 50 50">
  <g id="E-030-arrow-elbow-right-up" transform="translate(-53 -36)">
    <rect id="area" width="50" height="50" transform="translate(53 36)" fill="none"/>
    <path id="icon" d="M55.639,49.481a1.231,1.231,0,0,1-1.741,0L48.615,44.2V63.379a1.231,1.231,0,0,1-1.231,1.231H25.231a1.231,1.231,0,1,1,0-2.461H46.153V44.2L40.87,49.481a1.231,1.231,0,1,1-1.741-1.741l7.384-7.384a1.231,1.231,0,0,1,1.741,0l7.384,7.384a1.231,1.231,0,0,1,0,1.741" transform="translate(38.5 8.506)" fill="currentColor" stroke="currentColor" stroke-width="0.5"/>
  </g>
</svg>
