<svg xmlns="http://www.w3.org/2000/svg" width="50" height="50" viewBox="0 0 50 50">
  <g id="E-037-arrow-bend-left-down" transform="translate(-53 -36)">
    <rect id="area" width="50" height="50" transform="translate(53 36)" fill="none"/>
    <path id="icon" d="M74.149,25.308a1.308,1.308,0,0,1-1.308,1.308A14.4,14.4,0,0,0,58.458,41V53.535l5.613-5.615a1.308,1.308,0,1,1,1.85,1.85l-7.846,7.846a1.308,1.308,0,0,1-1.85,0l-7.846-7.846a1.308,1.308,0,1,1,1.85-1.85l5.613,5.615V41a17.017,17.017,0,0,1,17-17,1.308,1.308,0,0,1,1.308,1.308" transform="translate(16.927 20)" fill="currentColor" stroke="currentColor" stroke-width="0.5"/>
  </g>
</svg>
