<svg xmlns="http://www.w3.org/2000/svg" width="50" height="50" viewBox="0 0 50 50">
  <g id="E-036-arrow-bend-down-right" transform="translate(-53 -36)">
    <rect id="area" width="50" height="50" transform="translate(53 36)" fill="none"/>
    <path id="icon" d="M57.616,65.925l-7.846,7.846a1.308,1.308,0,0,1-1.85-1.85l5.615-5.613H41a17.017,17.017,0,0,1-17-17,1.308,1.308,0,0,1,2.615,0A14.4,14.4,0,0,0,41,63.692H53.535L47.92,58.079a1.308,1.308,0,1,1,1.85-1.85l7.846,7.846a1.308,1.308,0,0,1,0,1.85" transform="translate(37 -0.077)" fill="currentColor" stroke="currentColor" stroke-width="0.5"/>
  </g>
</svg>
