<svg xmlns="http://www.w3.org/2000/svg" width="50" height="50" viewBox="0 0 50 50">
  <g id="E-039-arrow-bend-right-down" transform="translate(-53 -35.5)">
    <rect id="area" width="50" height="50" transform="translate(53 35.5)" fill="none"/>
    <path id="icon" d="M73.771,49.771l-7.846,7.846a1.308,1.308,0,0,1-1.85,0l-7.846-7.846a1.308,1.308,0,1,1,1.85-1.85l5.613,5.615V41A14.4,14.4,0,0,0,49.308,26.615a1.308,1.308,0,0,1,0-2.615,17.017,17.017,0,0,1,17,17V53.535L71.92,47.92a1.308,1.308,0,0,1,1.85,1.85" transform="translate(16.5 20)" fill="currentColor" stroke="currentColor" stroke-width="0.5"/>
  </g>
</svg>
