<svg xmlns="http://www.w3.org/2000/svg" width="50" height="50" viewBox="0 0 50 50">
  <g id="E-031-arrow-elbow-up-left" transform="translate(-53 -36)">
    <rect id="area" width="50" height="50" transform="translate(53 36)" fill="none"/>
    <path id="icon" d="M64.617,32.611V54.765a1.231,1.231,0,1,1-2.461,0V33.842H44.2l5.285,5.283a1.231,1.231,0,0,1-1.742,1.742l-7.384-7.384-.009-.011c-.025-.025-.049-.052-.072-.08l-.035-.048a.571.571,0,0,1-.035-.049l-.035-.057a.448.448,0,0,1-.026-.046c-.011-.018-.02-.038-.029-.058s-.015-.032-.023-.051-.014-.038-.022-.057l-.02-.055-.014-.06a.239.239,0,0,0-.015-.057.426.426,0,0,0-.009-.071c-.009-.023,0-.032-.008-.049a1.283,1.283,0,0,1,0-.243.11.11,0,0,1,.008-.049c.008-.017,0-.048.009-.071a.532.532,0,0,0,.015-.057l.014-.06.02-.055c.008-.018.014-.038.022-.057s.015-.034.023-.051.018-.04.029-.058a.448.448,0,0,1,.026-.046l.035-.057a.57.57,0,0,1,.035-.049l.035-.048c.023-.028.048-.055.072-.08l.009-.011,7.384-7.384A1.231,1.231,0,0,1,49.488,26.1L44.2,31.381H63.386a1.231,1.231,0,0,1,1.231,1.231" transform="translate(24.498 21.004)" fill="currentColor" stroke="currentColor" stroke-width="0.5"/>
  </g>
</svg>
