<svg xmlns="http://www.w3.org/2000/svg" width="50" height="50" viewBox="0 0 50 50">
  <g id="E-046-arrow-u-left-up" transform="translate(-53 -36)">
    <rect id="area" width="50" height="50" transform="translate(53 36)" fill="none"/>
    <path id="icon" d="M60.765,33.148V47.533a10.461,10.461,0,1,1-20.922,0V28.459l-5.613,5.615a1.308,1.308,0,0,1-1.85-1.85l7.846-7.846a1.308,1.308,0,0,1,1.85,0l7.846,7.846a1.308,1.308,0,0,1-1.85,1.85l-5.613-5.615V47.533a7.846,7.846,0,1,0,15.692,0V33.148a1.308,1.308,0,0,1,2.615,0" transform="translate(31.62 20.006)" fill="currentColor" stroke="currentColor" stroke-width="0.3"/>
  </g>
</svg>
