<svg xmlns="http://www.w3.org/2000/svg" width="50" height="50" viewBox="0 0 50 50">
  <g id="E-041-arrow-bend-up-left" transform="translate(-53 -36)">
    <rect id="area" width="50" height="50" transform="translate(53 36)" fill="none"/>
    <path id="icon" d="M57.994,72.842a1.308,1.308,0,0,1-2.615,0A14.4,14.4,0,0,0,40.994,58.457H28.459l5.615,5.613a1.308,1.308,0,0,1-1.85,1.85l-7.846-7.846a1.308,1.308,0,0,1,0-1.85l7.846-7.846a1.308,1.308,0,0,1,1.85,1.85l-5.615,5.613H40.994a17.017,17.017,0,0,1,17,17" transform="translate(37.006 -0.072)" fill="currentColor" stroke="currentColor" stroke-width="0.3"/>
  </g>
</svg>
