<svg xmlns="http://www.w3.org/2000/svg" width="50" height="50" viewBox="0 0 50 50">
  <g id="E-057-arrows-in-line-horizontal" transform="translate(-53 -36)">
    <rect id="area" width="50" height="50" transform="translate(53 36)" fill="none"/>
    <path id="icon" d="M26.913,33.182V59.187a1.182,1.182,0,1,1-2.364,0V33.182a1.182,1.182,0,1,1,2.364,0m-9.8,7.438a1.183,1.183,0,1,0-1.673,1.673L18.149,45H9.182a1.182,1.182,0,0,0,0,2.364h8.967l-2.711,2.71a1.183,1.183,0,1,0,1.673,1.673l4.728-4.728a1.182,1.182,0,0,0,0-1.673ZM42.28,45H33.312l2.711-2.71a1.183,1.183,0,0,0-1.673-1.673l-4.728,4.728a1.182,1.182,0,0,0,0,1.673l4.728,4.728a1.183,1.183,0,1,0,1.673-1.673l-2.711-2.71H42.28a1.182,1.182,0,0,0,0-2.364" transform="translate(52.269 14.815)" fill="currentColor" stroke="currentColor" stroke-width="0.5"/>
  </g>
</svg>
