<svg xmlns="http://www.w3.org/2000/svg" width="50" height="50" viewBox="0 0 50 50">
  <g id="E-056-arrows-in" transform="translate(-53 -36)">
    <rect id="area" width="50" height="50" transform="translate(53 36)" fill="none"/>
    <path id="icon" d="M69.6,42.325,61.014,50.9H65.9a1.364,1.364,0,0,1,0,2.727H57.723a1.364,1.364,0,0,1-1.364-1.364V44.087a1.364,1.364,0,1,1,2.727,0v4.89l8.58-8.582A1.364,1.364,0,0,1,69.6,42.325M52.268,56.359H44.087a1.364,1.364,0,0,0,0,2.727h4.89L40.4,67.667A1.364,1.364,0,0,0,42.325,69.6l8.58-8.582V65.9a1.364,1.364,0,1,0,2.727,0V57.723a1.364,1.364,0,0,0-1.364-1.364" transform="translate(23.004 6.004)" fill="currentColor" stroke="currentColor" stroke-width="0.3"/>
  </g>
</svg>
