<svg xmlns="http://www.w3.org/2000/svg" width="50" height="50" viewBox="0 0 50 50">
  <g id="E-059-arrows-in-line-vertical" transform="translate(-53 -36)">
    <rect id="area" width="50" height="50" transform="translate(53 36)" fill="none"/>
    <path id="icon" d="M61.663,26.54a1.236,1.236,0,0,1-1.236,1.236H33.236a1.236,1.236,0,0,1,0-2.472H60.427a1.236,1.236,0,0,1,1.236,1.236M45.957,22.47a1.236,1.236,0,0,0,1.749,0l4.944-4.944A1.237,1.237,0,1,0,50.9,15.777l-2.833,2.835V9.236a1.236,1.236,0,1,0-2.472,0v9.376l-2.833-2.835a1.237,1.237,0,0,0-1.749,1.749Zm1.749,8.139a1.236,1.236,0,0,0-1.749,0l-4.944,4.944A1.237,1.237,0,0,0,42.762,37.3L45.6,34.467v9.376a1.236,1.236,0,1,0,2.472,0V34.467L50.9,37.3a1.237,1.237,0,1,0,1.749-1.749Z" transform="translate(31.168 34.46)" fill="currentColor" stroke="currentColor" stroke-width="0.5"/>
  </g>
</svg>
