<svg xmlns="http://www.w3.org/2000/svg" width="50" height="50" viewBox="0 0 50 50">
  <g id="E-052-arrows-vertical" transform="translate(-53 -36)">
    <rect id="area" width="50" height="50" transform="translate(53 36)" fill="none"/>
    <path id="icon" d="M99.783,43.063a1.214,1.214,0,0,1,0,1.718l-4.857,4.857a1.214,1.214,0,0,1-1.718,0l-4.857-4.857a1.215,1.215,0,0,1,1.718-1.718l2.784,2.785V20.14l-2.784,2.785a1.215,1.215,0,1,1-1.718-1.718l4.857-4.857a1.214,1.214,0,0,1,1.718,0l4.857,4.857a1.215,1.215,0,1,1-1.718,1.718L95.281,20.14V45.848l2.784-2.785a1.214,1.214,0,0,1,1.718,0" transform="translate(-16.067 28.006)" fill="currentColor" stroke="currentColor" stroke-width="0.25"/>
  </g>
</svg>
