<svg xmlns="http://www.w3.org/2000/svg" width="50" height="50" viewBox="0 0 50 50">
  <g id="E-054-arrows-down-up" transform="translate(-53 -36)">
    <rect id="area" width="50" height="50" transform="translate(53 36)" fill="none"/>
    <path id="icon" d="M53.233,62.211a1.364,1.364,0,0,1,0,1.929l-5.454,5.454a1.364,1.364,0,0,1-1.929,0L40.4,64.14a1.364,1.364,0,1,1,1.929-1.929l3.126,3.128V41.358a1.364,1.364,0,1,1,2.727,0v23.98L51.3,62.211a1.364,1.364,0,0,1,1.929,0M69.6,45.848l-5.454-5.454a1.364,1.364,0,0,0-1.929,0l-5.454,5.454a1.364,1.364,0,0,0,1.929,1.929l3.126-3.128V68.63a1.364,1.364,0,1,0,2.727,0V44.65l3.126,3.128A1.364,1.364,0,0,0,69.6,45.848" transform="translate(23.004 6.006)" fill="currentColor" stroke="currentColor" stroke-width="0.25"/>
  </g>
</svg>
