<svg xmlns="http://www.w3.org/2000/svg" width="50" height="50" viewBox="0 0 50 50">
  <g id="E-068-arrows-swap" transform="translate(-53 -36)">
    <rect id="area" width="50" height="50" transform="translate(53 36)" fill="none"/>
    <path id="icon" d="M64,34.667V52a2.667,2.667,0,0,1-2.667,2.667H43.218l1.725,1.723a1.334,1.334,0,0,1-1.887,1.887l-4-4a1.333,1.333,0,0,1,0-1.887l4-4a1.334,1.334,0,0,1,1.887,1.887L43.218,52H61.333V34.667H42.667V36A1.333,1.333,0,1,1,40,36V34.667A2.667,2.667,0,0,1,42.667,32H61.333A2.667,2.667,0,0,1,64,34.667m-9.333,24A1.333,1.333,0,0,0,53.333,60v1.333H34.667V44H52.782l-1.725,1.723a1.334,1.334,0,0,0,1.887,1.887l4-4a1.333,1.333,0,0,0,0-1.887l-4-4a1.334,1.334,0,0,0-1.887,1.887l1.725,1.723H34.667A2.667,2.667,0,0,0,32,44V61.333A2.667,2.667,0,0,0,34.667,64H53.333A2.667,2.667,0,0,0,56,61.333V60a1.333,1.333,0,0,0-1.333-1.333" transform="translate(30 13)" fill="currentColor" stroke="currentColor" stroke-width="0.3"/>
  </g>
</svg>
