<svg xmlns="http://www.w3.org/2000/svg" width="50" height="50" viewBox="0 0 50 50">
  <g id="E-060-arrows-out-line-vertical" transform="translate(-53 -36)">
    <rect id="area" width="50" height="50" transform="translate(53 36)" fill="none"/>
    <path id="icon" d="M61.052,26.153a1.211,1.211,0,0,1-1.211,1.211H33.211a1.211,1.211,0,0,1,0-2.421H59.842a1.211,1.211,0,0,1,1.211,1.211M42.541,14.9l2.775-2.777V21.31a1.211,1.211,0,1,0,2.421,0V12.127L50.512,14.9a1.211,1.211,0,0,0,1.713-1.713L47.383,8.349a1.211,1.211,0,0,0-1.713,0l-4.842,4.842A1.211,1.211,0,0,0,42.541,14.9m7.971,22.5-2.775,2.777V30.995a1.211,1.211,0,1,0-2.421,0v9.183L42.541,37.4a1.211,1.211,0,0,0-1.713,1.713l4.842,4.842a1.211,1.211,0,0,0,1.713,0l4.842-4.842A1.211,1.211,0,0,0,50.512,37.4" transform="translate(31.474 34.847)" fill="currentColor" stroke="currentColor" stroke-width="0.5"/>
  </g>
</svg>
