<svg xmlns="http://www.w3.org/2000/svg" width="50" height="50" viewBox="0 0 50 50">
  <g id="E-062-arrows-out-cardinal" transform="translate(-53 -36)">
    <rect id="area" width="50" height="50" transform="translate(53 36)" fill="none"/>
    <path id="icon" d="M27.278,22.925a1.214,1.214,0,0,1,0-1.718l4.857-4.857a1.214,1.214,0,0,1,1.718,0l4.857,4.857a1.215,1.215,0,1,1-1.718,1.718L34.208,20.14v8a1.214,1.214,0,1,1-2.428,0v-8L29,22.925a1.214,1.214,0,0,1-1.718,0m9.714,20.138-2.784,2.785v-8a1.214,1.214,0,1,0-2.428,0v8L29,43.063a1.215,1.215,0,1,0-1.718,1.718l4.857,4.857a1.214,1.214,0,0,0,1.718,0l4.857-4.857a1.215,1.215,0,1,0-1.718-1.718M49.638,32.135l-4.857-4.857A1.215,1.215,0,1,0,43.063,29l2.785,2.784h-8a1.214,1.214,0,0,0,0,2.428h8l-2.785,2.784a1.215,1.215,0,1,0,1.718,1.718l4.857-4.857a1.214,1.214,0,0,0,0-1.718m-29.5,2.073h8a1.214,1.214,0,0,0,0-2.428h-8L22.925,29a1.215,1.215,0,1,0-1.718-1.718L16.35,32.135a1.214,1.214,0,0,0,0,1.718l4.857,4.857a1.215,1.215,0,0,0,1.718-1.718Z" transform="translate(45.006 28.006)" fill="currentColor" stroke="currentColor" stroke-width="0.2"/>
  </g>
</svg>
