<svg xmlns="http://www.w3.org/2000/svg" width="50" height="50" viewBox="0 0 50 50">
  <g id="E-063-arrows-in" transform="translate(-53 -36)">
    <rect id="area" width="50" height="50" transform="translate(53 36)" fill="none"/>
    <path id="icon" d="M57.723,50.9V44.087a1.364,1.364,0,1,1,2.727,0v3.527L67.666,40.4A1.364,1.364,0,0,1,69.6,42.325l-7.218,7.217H65.9a1.364,1.364,0,0,1,0,2.727H59.086A1.364,1.364,0,0,1,57.723,50.9M50.9,57.723H44.087a1.364,1.364,0,0,0,0,2.727h3.527L40.4,67.667A1.364,1.364,0,1,0,42.325,69.6l7.217-7.218V65.9a1.364,1.364,0,1,0,2.727,0V59.086A1.364,1.364,0,0,0,50.9,57.723M62.378,60.45H65.9a1.364,1.364,0,0,0,0-2.727H59.086a1.364,1.364,0,0,0-1.364,1.364V65.9a1.364,1.364,0,0,0,2.727,0V62.378L67.666,69.6A1.364,1.364,0,1,0,69.6,67.667ZM50.9,42.723a1.364,1.364,0,0,0-1.364,1.364v3.527L42.325,40.4A1.364,1.364,0,1,0,40.4,42.325l7.218,7.217H44.087a1.364,1.364,0,0,0,0,2.727H50.9A1.364,1.364,0,0,0,52.268,50.9V44.087A1.364,1.364,0,0,0,50.9,42.723" transform="translate(23.005 6.004)" fill="currentColor" stroke="currentColor" stroke-width="0.2"/>
  </g>
</svg>
