<svg xmlns="http://www.w3.org/2000/svg" width="50" height="50" viewBox="0 0 50 50">
  <g id="E-061-arrows-out" transform="translate(-53 -36)">
    <rect id="area" width="50" height="50" transform="translate(53 36)" fill="none"/>
    <path id="icon" d="M70,41.364v8.182a1.364,1.364,0,1,1-2.727,0v-4.89l-7.217,7.219a1.364,1.364,0,0,1-1.93-1.93l7.219-7.217h-4.89a1.364,1.364,0,0,1,0-2.727h8.182A1.364,1.364,0,0,1,70,41.364M49.944,58.126l-7.217,7.219v-4.89a1.364,1.364,0,0,0-2.727,0v8.182A1.364,1.364,0,0,0,41.364,70h8.182a1.364,1.364,0,0,0,0-2.727h-4.89l7.219-7.217a1.364,1.364,0,1,0-1.93-1.93m18.692.965a1.364,1.364,0,0,0-1.364,1.364v4.89l-7.217-7.219a1.364,1.364,0,1,0-1.93,1.93l7.219,7.217h-4.89a1.364,1.364,0,0,0,0,2.727h8.182A1.364,1.364,0,0,0,70,68.637V60.455a1.364,1.364,0,0,0-1.364-1.364M44.655,42.727h4.89a1.364,1.364,0,0,0,0-2.727H41.364A1.364,1.364,0,0,0,40,41.364v8.182a1.364,1.364,0,1,0,2.727,0v-4.89l7.217,7.219a1.364,1.364,0,0,0,1.93-1.93Z" transform="translate(23 6)" fill="currentColor" stroke="currentColor" stroke-width="0.2"/>
  </g>
</svg>
