<svg xmlns="http://www.w3.org/2000/svg" width="50" height="50" viewBox="0 0 50 50">
  <g id="E-064-arrows-in-cardinal" transform="translate(-53 -36)">
    <rect id="area" width="50" height="50" transform="translate(53 36)" fill="none"/>
    <path id="icon" d="M27.284,24.145A1.215,1.215,0,0,1,29,22.427l2.784,2.785v-8a1.214,1.214,0,1,1,2.429,0v8L37,22.427a1.215,1.215,0,0,1,1.718,1.718L33.859,29a1.214,1.214,0,0,1-1.718,0ZM33.859,37a1.214,1.214,0,0,0-1.718,0l-4.857,4.857A1.215,1.215,0,0,0,29,43.574l2.784-2.785v8a1.214,1.214,0,1,0,2.429,0v-8L37,43.574a1.215,1.215,0,0,0,1.718-1.718Zm14.927-5.212h-8L43.573,29a1.215,1.215,0,1,0-1.718-1.718L37,32.141a1.214,1.214,0,0,0,0,1.718l4.857,4.857A1.215,1.215,0,1,0,43.573,37l-2.785-2.784h8a1.214,1.214,0,0,0,0-2.429M29,32.141l-4.857-4.857A1.215,1.215,0,0,0,22.427,29l2.785,2.784h-8a1.214,1.214,0,0,0,0,2.429h8L22.427,37a1.215,1.215,0,1,0,1.718,1.718L29,33.859a1.214,1.214,0,0,0,0-1.718" transform="translate(45 28)" fill="currentColor" stroke="currentColor" stroke-width="0.4"/>
  </g>
</svg>
