<svg xmlns="http://www.w3.org/2000/svg" width="50" height="50" viewBox="0 0 50 50">
  <g id="E-070-arrows-repeat" transform="translate(-53 -36)">
    <rect id="area" width="50" height="50" transform="translate(53 36)" fill="none"/>
    <path id="icon" d="M23.995,48.611A12.475,12.475,0,0,1,36.456,36.15H55.266l-1.791-1.79A1.385,1.385,0,0,1,55.434,32.4l4.154,4.154a1.385,1.385,0,0,1,0,1.959l-4.154,4.154a1.385,1.385,0,0,1-1.959-1.959l1.791-1.79H36.456a9.7,9.7,0,0,0-9.692,9.692,1.385,1.385,0,0,1-2.769,0m34.613-1.385a1.385,1.385,0,0,0-1.385,1.385A9.7,9.7,0,0,1,47.532,58.3H28.721l1.791-1.79a1.385,1.385,0,0,0-1.959-1.959L24.4,58.707a1.385,1.385,0,0,0,0,1.959l4.154,4.154a1.385,1.385,0,0,0,1.959-1.959l-1.791-1.79H47.532A12.475,12.475,0,0,0,59.993,48.611a1.385,1.385,0,0,0-1.385-1.385" transform="translate(36.006 12.389)" fill="currentColor" stroke="currentColor" stroke-width="0.2"/>
  </g>
</svg>
