<svg xmlns="http://www.w3.org/2000/svg" width="50" height="50" viewBox="0 0 50 50">
  <g id="E-077-arrow-move-right-call" transform="translate(-53 -36)">
    <rect id="area" width="50" height="50" transform="translate(53 36)" fill="none"/>
    <path id="icon" d="M31.143,14.643a2.429,2.429,0,1,1-2.429,2.429,2.431,2.431,0,0,1,2.429-2.429m0-2.429A4.857,4.857,0,1,0,36,17.071a4.857,4.857,0,0,0-4.857-4.857M17.786,11l-1.717,1.717,3.14,3.14H9.062a3.643,3.643,0,1,0,0,2.429H19.209l-3.14,3.14,1.717,1.717,6.071-6.071ZM5.643,18.286a1.215,1.215,0,0,1,0-2.429,1.216,1.216,0,0,1,0,2.429" transform="translate(59 43.929)" fill="currentColor" stroke="currentColor" stroke-width="0.2"/>
  </g>
</svg>
