<svg xmlns="http://www.w3.org/2000/svg" width="50" height="50" viewBox="0 0 50 50">
  <g id="E-073-arrow-move-down" transform="translate(-53 -36)">
    <rect id="area" width="50" height="50" transform="translate(53 36)" fill="none"/>
    <path id="Path_552" data-name="Path 552" d="M6.539,34h0a1.317,1.317,0,0,1-.494-.1,1.3,1.3,0,0,1-.428-.285L.383,28.386a1.307,1.307,0,0,1,1.849-1.849l3,3V15.253a1.308,1.308,0,0,1,2.615,0V29.536l3-3a1.308,1.308,0,0,1,1.85,1.849L7.463,33.617a1.3,1.3,0,0,1-.428.285,1.317,1.317,0,0,1-.494.1Zm0-24.412A4.8,4.8,0,0,1,1.743,4.794c0-.024,0-.046,0-.068A4.794,4.794,0,1,1,6.537,9.588M4.359,4.84a2.2,2.2,0,1,0,0-.046V4.84" transform="translate(71.462 44)" fill="currentColor" stroke="currentColor" stroke-width="0.2"/>
  </g>
</svg>
