<svg xmlns="http://www.w3.org/2000/svg" width="50" height="50" viewBox="0 0 50 50">
  <g id="E-075-arrow-move-left" transform="translate(-53 -36)">
    <rect id="area" width="50" height="50" transform="translate(53 36)" fill="none"/>
    <path id="Path_553" data-name="Path 553" d="M27.87,13.078a1.309,1.309,0,0,1-.925-.383L21.714,7.464l0,0,0,0,0,0h0a1.312,1.312,0,0,1-.271-.409h0a1.309,1.309,0,0,1,0-1.007h0a1.3,1.3,0,0,1,.271-.409l0,0h0l0,0,0,0L26.945.383a1.308,1.308,0,1,1,1.849,1.849l-3,3H40.074a1.308,1.308,0,1,1,0,2.616H25.8l3,3a1.308,1.308,0,0,1-.925,2.232m22.664-1.745A4.793,4.793,0,0,1,45.741,6.54c0-.022,0-.046,0-.068a4.795,4.795,0,1,1,4.794,4.861ZM48.356,6.585a2.2,2.2,0,1,0,0-.046v.046" transform="translate(39.669 54.461)" fill="currentColor" stroke="currentColor" stroke-width="0.2"/>
  </g>
</svg>
