<svg xmlns="http://www.w3.org/2000/svg" width="50" height="50" viewBox="0 0 50 50">
  <g id="E-074-arrow-move-up" transform="translate(-53 -36)">
    <rect id="area" width="50" height="50" transform="translate(53 36)" fill="none"/>
    <path id="Path_555" data-name="Path 555" d="M102.528,34a4.8,4.8,0,1,1,4.8-4.8,4.8,4.8,0,0,1-4.8,4.8m0-6.974a2.179,2.179,0,1,0,2.179,2.179,2.181,2.181,0,0,0-2.179-2.179m0-6.974a1.307,1.307,0,0,1-1.308-1.308V4.465l-3,3a1.308,1.308,0,0,1-1.85-1.85L101.6.382l0,0,0,0,0,0,0,0A1.292,1.292,0,0,1,102.023.1h0a1.354,1.354,0,0,1,1.007,0h0a1.292,1.292,0,0,1,.408.271s0,0,0,0h0s-.005,0,0,0l0,0,5.232,5.232a1.308,1.308,0,0,1-1.85,1.85l-3-3V18.746a1.307,1.307,0,0,1-1.308,1.308" transform="translate(-24.528 43.997)" fill="currentColor" stroke="currentColor" stroke-width="0.2"/>
  </g>
</svg>
