<svg xmlns="http://www.w3.org/2000/svg" width="50" height="50" viewBox="0 0 50 50">
  <g id="E-079-arrow-data-replicate-swap" transform="translate(-53 -36)">
    <rect id="area" width="50" height="50" transform="translate(53 36)" fill="none"/>
    <path id="icon" d="M22.615,22.615v2.308h6.023a12.711,12.711,0,0,1-13.812,5.369l-.576,2.235a15,15,0,0,0,15.287-4.958v4.277h2.308V22.615ZM28.385,3a4.621,4.621,0,0,0-4.615,4.615,4.562,4.562,0,0,0,.654,2.33L9.945,24.423a4.56,4.56,0,0,0-2.33-.654,4.615,4.615,0,1,0,4.615,4.615,4.562,4.562,0,0,0-.654-2.33L26.055,11.577a4.56,4.56,0,0,0,2.33.654,4.615,4.615,0,0,0,0-9.231M7.615,30.692a2.308,2.308,0,1,1,2.308-2.308,2.308,2.308,0,0,1-2.308,2.308M28.385,9.923a2.308,2.308,0,1,1,2.308-2.308,2.308,2.308,0,0,1-2.308,2.308M18,3A15.046,15.046,0,0,0,6.462,8.431V4.154H4.154v9.231h9.231V11.077H7.362A12.711,12.711,0,0,1,21.173,5.708l.576-2.235A15.041,15.041,0,0,0,18,3" transform="translate(60 43)" fill="currentColor" stroke="currentColor" stroke-width="0.6"/>
  </g>
</svg>
