<svg xmlns="http://www.w3.org/2000/svg" width="50" height="50" viewBox="0 0 50 50">
  <g id="E-072-shuffle-arrows" transform="translate(-53 -36)">
    <rect id="area" width="50" height="50" transform="translate(53 36)" fill="none"/>
    <path id="Path_556" data-name="Path 556" d="M16.689,30.4A1.689,1.689,0,0,1,15.5,27.515l3.873-3.873L15.5,19.77a1.689,1.689,0,0,1,2.388-2.388l5.067,5.067a1.687,1.687,0,0,1,0,2.388L17.883,29.9a1.684,1.684,0,0,1-1.194.495m0-16.888A1.689,1.689,0,0,1,15.5,10.627l3.873-3.873L15.5,2.883A1.689,1.689,0,0,1,17.883.493L22.95,5.56a1.688,1.688,0,0,1,0,2.388l-5.067,5.067a1.684,1.684,0,0,1-1.194.495" transform="translate(71.555 46.301)" fill="currentColor"/>
    <path id="Path_557" data-name="Path 557" d="M6.762,23.265H1.689a1.689,1.689,0,1,1,0-3.378H6.762a6.768,6.768,0,0,0,4.045-1.351,1.69,1.69,0,1,1,2.03,2.7,10.187,10.187,0,0,1-6.075,2.027m25.326,0H23.644A10.143,10.143,0,0,1,13.511,13.132,6.762,6.762,0,0,0,6.755,6.377H1.689A1.689,1.689,0,1,1,1.689,3H6.755A10.143,10.143,0,0,1,16.888,13.132a6.762,6.762,0,0,0,6.755,6.755h8.444a1.689,1.689,0,1,1,0,3.378M18.579,8.066a1.689,1.689,0,0,1-1.018-3.038A10.162,10.162,0,0,1,23.635,3h8.453a1.689,1.689,0,1,1,0,3.378H23.637a6.75,6.75,0,0,0-4.043,1.349,1.683,1.683,0,0,1-1.015.339" transform="translate(61.223 48.367)" fill="currentColor"/>
  </g>
</svg>
