<svg xmlns="http://www.w3.org/2000/svg" width="50" height="50" viewBox="0 0 50 50">
  <g id="E-078-arrow-swap-replace-diff" transform="translate(-53 -36)">
    <rect id="area" width="50" height="50" transform="translate(53 36)" fill="none"/>
    <path id="icon" d="M36.69,49.321a1.154,1.154,0,0,0-1.154,1.154v4.138l-4.079-4.08a5.727,5.727,0,0,1-1.69-4.079V41.1a4.615,4.615,0,1,0-2.308,0v5.355a8.029,8.029,0,0,0,2.365,5.711l4.08,4.077H29.767a1.154,1.154,0,1,0,0,2.308H36.69A1.154,1.154,0,0,0,37.844,57.4V50.475a1.154,1.154,0,0,0-1.154-1.154M26.306,36.629a2.308,2.308,0,1,1,2.308,2.308,2.308,2.308,0,0,1-2.308-2.308m24.23,13.99V45.265a8.029,8.029,0,0,0-2.365-5.711l-4.08-4.079h4.138a1.154,1.154,0,1,0,0-2.308H41.305a1.154,1.154,0,0,0-1.154,1.154v6.923a1.154,1.154,0,1,0,2.308,0V37.106l4.079,4.08a5.727,5.727,0,0,1,1.69,4.079v5.354a4.615,4.615,0,1,0,2.308,0M49.382,57.4A2.308,2.308,0,1,1,51.69,55.09,2.308,2.308,0,0,1,49.382,57.4" transform="translate(39.002 15.14)" fill="currentColor" stroke="currentColor" stroke-width="0.6"/>
  </g>
</svg>
