<svg xmlns="http://www.w3.org/2000/svg" width="50" height="50" viewBox="0 0 50 50">
  <g id="E-081-rotate-360" transform="translate(-53 -36)">
    <rect id="area" width="50" height="50" transform="translate(53 36)" fill="none"/>
    <path id="icon" d="M31.259,8.726l.006,0c-.113-.135-.243-.254-.361-.384-.227-.252-.452-.5-.693-.742-.171-.167-.352-.323-.529-.481-.225-.2-.451-.405-.687-.594-.2-.158-.4-.3-.6-.452-.236-.172-.474-.341-.72-.5q-.323-.207-.656-.4-.379-.22-.77-.42c-.227-.116-.456-.228-.69-.332-.273-.123-.553-.235-.835-.345-.234-.089-.465-.179-.7-.256-.3-.1-.613-.185-.924-.267-.229-.06-.453-.126-.685-.176-.357-.078-.723-.132-1.087-.185-.2-.028-.388-.069-.586-.09A15.925,15.925,0,0,0,6.694,8.791V4.231H4.231v9.851h9.851V11.619H7.693A13.5,13.5,0,0,1,19.007,5.463a13.681,13.681,0,0,1,1.464.083c.167.018.33.052.5.075.308.046.617.092.919.158.2.043.388.1.581.149.262.07.523.14.779.225.2.066.4.143.6.219.238.091.473.185.7.289.2.089.394.185.587.283q.33.167.648.352c.188.111.376.222.558.34.207.135.406.276.606.421.172.126.347.25.513.384.2.16.389.33.579.5.151.135.305.267.449.409.206.2.4.416.59.63A13.536,13.536,0,1,1,5.463,19.007H3A16.007,16.007,0,1,0,31.259,8.726Z" transform="translate(58.993 41.982)" fill="currentColor" stroke="currentColor" stroke-width="0.5"/>
  </g>
</svg>
