<svg xmlns="http://www.w3.org/2000/svg" width="50" height="50" viewBox="0 0 50 50">
  <g id="E-088-rewind-forward-5" transform="translate(-53 -36)">
    <rect id="area" width="50" height="50" transform="translate(53 36)" fill="none"/>
    <g id="Group_200" data-name="Group 200" transform="translate(-1 -1.209)">
      <path id="Path_221" data-name="Path 221" d="M32.924,23.35A13.147,13.147,0,1,1,19.777,10.2h5.259v6.574l7.888-7.888L25.035,1V7.574H19.777A15.777,15.777,0,1,0,35.553,23.35Z" transform="translate(59 41)" fill="currentColor" stroke="currentColor" stroke-width="0.4"/>
      <path id="Path_222" data-name="Path 222" d="M21.667,16.344H16.124l-.209,4.128a7.76,7.76,0,0,1,.418-.723,2.554,2.554,0,0,1,.53-.562,2.458,2.458,0,0,1,.707-.369,3.213,3.213,0,0,1,.964-.129,4.08,4.08,0,0,1,1.478.257,3.309,3.309,0,0,1,1.189.771,3.662,3.662,0,0,1,.8,1.237,4.386,4.386,0,0,1,.289,1.606,4.61,4.61,0,0,1-.305,1.719,3.791,3.791,0,0,1-.884,1.349,3.92,3.92,0,0,1-1.43.884,5.189,5.189,0,0,1-1.944.321,6.088,6.088,0,0,1-1.51-.177,4.819,4.819,0,0,1-1.189-.514,3.936,3.936,0,0,1-.884-.723,6.634,6.634,0,0,1-.659-.884l1.7-1.3.434.659a2.924,2.924,0,0,0,.546.546,2.554,2.554,0,0,0,.691.353,2.442,2.442,0,0,0,.884.129,2.072,2.072,0,0,0,1.606-.578,2.265,2.265,0,0,0,.53-1.606v-.1a1.9,1.9,0,0,0-2.056-2.04,2.313,2.313,0,0,0-1.237.289,3.116,3.116,0,0,0-.771.626l-1.912-.273.466-6.924h7.261Z" transform="translate(60.511 44.889)" fill="currentColor" stroke="currentColor" stroke-width="0.5"/>
    </g>
  </g>
</svg>
