<svg xmlns="http://www.w3.org/2000/svg" width="50" height="50" viewBox="0 0 50 50">
  <g id="E-085-rewind-backward-5" transform="translate(-53 -36)">
    <rect id="area" width="50" height="50" transform="translate(53 36)" fill="none"/>
    <g id="Group_203" data-name="Group 203" transform="translate(-1.001 -1.209)">
      <path id="Path_298" data-name="Path 298" d="M4,23.35A15.777,15.777,0,1,0,19.777,7.574H14.518V1L6.629,8.888l7.888,7.888V10.2h5.259A13.147,13.147,0,1,1,6.629,23.35Z" transform="translate(59 41)" fill="currentColor" stroke="currentColor" stroke-width="0.4"/>
      <path id="Path_299" data-name="Path 299" d="M21.77,16.37H16.158l-.211,4.181a7.86,7.86,0,0,1,.423-.732,2.587,2.587,0,0,1,.537-.569,2.489,2.489,0,0,1,.716-.374,3.254,3.254,0,0,1,.976-.13,4.132,4.132,0,0,1,1.5.26,3.351,3.351,0,0,1,1.2.781,3.709,3.709,0,0,1,.813,1.253,4.441,4.441,0,0,1,.293,1.627,4.669,4.669,0,0,1-.309,1.741,3.839,3.839,0,0,1-.895,1.367,3.969,3.969,0,0,1-1.448.895,5.255,5.255,0,0,1-1.968.325,6.166,6.166,0,0,1-1.529-.179,4.88,4.88,0,0,1-1.2-.521,3.986,3.986,0,0,1-.895-.732,6.719,6.719,0,0,1-.667-.895l1.724-1.318.439.667a2.961,2.961,0,0,0,.553.553,2.587,2.587,0,0,0,.7.358,2.473,2.473,0,0,0,.895.13,2.1,2.1,0,0,0,1.627-.586,2.294,2.294,0,0,0,.537-1.627v-.1a1.92,1.92,0,0,0-2.082-2.066,2.343,2.343,0,0,0-1.253.293,3.156,3.156,0,0,0-.781.634l-1.936-.277.472-7.012h7.353Z" transform="translate(61.511 44.889)" fill="currentColor" stroke="currentColor" stroke-width="0.5"/>
    </g>
  </g>
</svg>
