<svg xmlns="http://www.w3.org/2000/svg" width="50" height="50" viewBox="0 0 50 50">
  <g id="E-084-rotate-180-right" transform="translate(-53 -36)">
    <rect id="area" width="50" height="50" transform="translate(53 36)" fill="none"/>
    <g id="icon" transform="translate(62 45)">
      <path id="Path_300" data-name="Path 300" d="M15.152,27.125l-.426,2.423A15.879,15.879,0,0,1,9.5,27.65l1.231-2.131a13.433,13.433,0,0,0,4.416,1.607Z" transform="translate(-1.495 2.21)" fill="currentColor" stroke="currentColor" stroke-linejoin="round" stroke-width="0.5"/>
      <path id="Path_301" data-name="Path 301" d="M8.452,23.833,6.566,25.416A15.984,15.984,0,0,1,3.8,20.6l2.311-.842a13.52,13.52,0,0,0,2.346,4.076Z" transform="translate(-2.816 0.877)" fill="currentColor" stroke="currentColor" stroke-linejoin="round" stroke-width="0.5"/>
      <path id="Path_302" data-name="Path 302" d="M23.556,27.65a15.879,15.879,0,0,1-5.221,1.9l-.427-2.423a13.433,13.433,0,0,0,4.417-1.607Z" transform="translate(0.449 2.21)" fill="currentColor" stroke="currentColor" stroke-linejoin="round" stroke-width="0.5"/>
      <path id="Path_303" data-name="Path 303" d="M26.767,19.759l2.312.841a15.984,15.984,0,0,1-2.771,4.816l-.383-.321-1.5-1.261a13.523,13.523,0,0,0,2.343-4.076Z" transform="translate(1.956 0.877)" fill="currentColor" stroke="currentColor" stroke-linejoin="round" stroke-width="0.5"/>
      <path id="Path_304" data-name="Path 304" d="M16.129,5.778c-.2.042-.388.1-.581.149q-.393.1-.779.225c-.2.066-.4.143-.6.219-.238.091-.472.185-.7.289-.2.089-.394.185-.586.283q-.33.167-.648.352c-.188.111-.376.222-.559.34-.206.135-.406.276-.606.421-.172.126-.346.25-.513.384-.2.16-.388.33-.579.5-.15.135-.305.267-.449.409-.206.2-.4.416-.589.63a13.476,13.476,0,0,0-3.476,9.027H3A15.929,15.929,0,0,1,6.756,8.726l-.006,0c.113-.135.243-.254.361-.384.227-.252.452-.5.693-.742.171-.167.352-.323.529-.481.225-.2.451-.405.687-.594.2-.158.4-.3.6-.452.236-.172.474-.341.72-.5.215-.139.435-.271.655-.4q.38-.22.771-.42c.227-.116.456-.228.69-.332.273-.123.553-.235.835-.345.234-.089.465-.179.7-.256.3-.1.613-.185.924-.267.229-.06.453-.126.685-.176.357-.078.723-.132,1.089-.185.2-.028.387-.069.585-.09A15.925,15.925,0,0,1,31.321,8.791V4.231h2.463v9.851H23.933V11.619h6.389A13.5,13.5,0,0,0,19.007,5.463a13.682,13.682,0,0,0-1.464.082c-.167.018-.33.052-.5.075-.308.046-.617.092-.919.158Z" transform="translate(-3 -3)" fill="currentColor" stroke="currentColor" stroke-linejoin="round" stroke-width="0.5"/>
    </g>
  </g>
</svg>
