<svg xmlns="http://www.w3.org/2000/svg" width="50" height="50" viewBox="0 0 50 50">
  <g id="E-087-rewind-backward-30" transform="translate(-59 -36)">
    <rect id="area" width="50" height="50" transform="translate(59 36)" fill="none"/>
    <g id="Group_201" data-name="Group 201" transform="translate(-0.895 -1.081)">
      <path id="Path_296" data-name="Path 296" d="M4,23.2A15.671,15.671,0,1,0,19.671,7.53H14.447V1L6.612,8.836l7.836,7.836v-6.53h5.224A13.059,13.059,0,1,1,6.612,23.2Z" transform="translate(65 41)" fill="currentColor" stroke="currentColor" stroke-width="0.4"/>
      <path id="Path_297" data-name="Path 297" d="M25.3,26.793a4.459,4.459,0,0,1-2.031-.428,3.745,3.745,0,0,1-1.412-1.222,5.379,5.379,0,0,1-.746-1.983,11.3,11.3,0,0,1-.27-2.666,11.488,11.488,0,0,1,.27-2.666,5.49,5.49,0,0,1,.825-1.983,3.745,3.745,0,0,1,1.412-1.222,4.459,4.459,0,0,1,2.031-.428A3.872,3.872,0,0,1,28.8,15.781a8.426,8.426,0,0,1,1.111,4.649A8.426,8.426,0,0,1,28.8,25.079,3.872,3.872,0,0,1,25.3,26.793m0-1.936a1.587,1.587,0,0,0,1.587-.873,5.141,5.141,0,0,0,.476-2.4V19.4a5.03,5.03,0,0,0-.476-2.38,1.936,1.936,0,0,0-3.253,0,5.046,5.046,0,0,0-.46,2.38v2.19a5.157,5.157,0,0,0,.46,2.4,1.587,1.587,0,0,0,1.666.873M14.157,19.319a2.317,2.317,0,0,0,1.587-.428,1.333,1.333,0,0,0,.492-1.079v-.127a1.492,1.492,0,0,0-.476-1.174,1.9,1.9,0,0,0-1.317-.428,2.618,2.618,0,0,0-1.412.381,3.332,3.332,0,0,0-1.079,1.079l-1.476-1.317a8.52,8.52,0,0,1,.7-.809,4.284,4.284,0,0,1,.857-.635,4.046,4.046,0,0,1,1.111-.428,5.157,5.157,0,0,1,1.38-.159,6.252,6.252,0,0,1,1.682.222,3.7,3.7,0,0,1,1.3.635,3.031,3.031,0,0,1,.857,1,2.967,2.967,0,0,1,.286,1.317,3.174,3.174,0,0,1-.175,1.063,2.888,2.888,0,0,1-.508.825,2.84,2.84,0,0,1-.746.571,3.6,3.6,0,0,1-.9.317v.1a3.713,3.713,0,0,1,1,.333,2.7,2.7,0,0,1,.809.6,3,3,0,0,1,.539.873,3.285,3.285,0,0,1,.19,1.158,3.219,3.219,0,0,1-1.238,2.6,4.221,4.221,0,0,1-1.412.714,5.966,5.966,0,0,1-1.825.254,6.506,6.506,0,0,1-1.587-.175,4.919,4.919,0,0,1-1.206-.492A4.379,4.379,0,0,1,10.7,25.4a6.7,6.7,0,0,1-.7-.873l1.7-1.285a4.871,4.871,0,0,0,.444.666,3.078,3.078,0,0,0,.571.54,2.491,2.491,0,0,0,.714.349,3.174,3.174,0,0,0,.9.111,2.3,2.3,0,0,0,1.587-.476,1.777,1.777,0,0,0,.539-1.349v-.127a1.587,1.587,0,0,0-.587-1.269,2.824,2.824,0,0,0-1.682-.444H12.983v-1.92Z" transform="translate(64.895 44.899)" fill="currentColor" stroke="currentColor" stroke-width="0.5"/>
    </g>
  </g>
</svg>
