<svg xmlns="http://www.w3.org/2000/svg" width="50" height="50" viewBox="0 0 50 50">
  <g id="E-080-arrow-call-all" transform="translate(-53 -36)">
    <rect id="area" width="50" height="50" transform="translate(53 36)" fill="none"/>
    <path id="Path_897" data-name="Path 897" d="M28.459,13.036a4.74,4.74,0,1,0,4.74,4.74,4.74,4.74,0,0,0-4.74-4.74m0,7.111a2.37,2.37,0,1,1,2.37-2.37,2.37,2.37,0,0,1-2.37,2.37M15.423,23.7v2.37h3.062L15.759,28.8a3.518,3.518,0,0,0-1.521-.356,3.591,3.591,0,1,0,3.2,2.032l2.726-2.724v3.062h2.37V23.7Zm-1.16,10.051a1.756,1.756,0,1,1,1.677-1.83c0,.025,0,.049,0,.074a1.755,1.755,0,0,1-1.679,1.756M11.177,12.345,9.5,14.024l2.574,2.568H6.909a3.555,3.555,0,1,0,0,2.37h5.162L9.5,21.534l1.679,1.679,5.432-5.437Zm-7.6,7.268a1.836,1.836,0,1,1,1.834-1.835,1.836,1.836,0,0,1-1.834,1.835M20.164,4.74V7.8L17.438,5.076a3.547,3.547,0,1,0-3.2,2.034,3.5,3.5,0,0,0,1.523-.356l2.724,2.726H15.423v2.37h7.111V4.74Zm-7.63-1.185a1.7,1.7,0,1,1,1.7,1.7,1.7,1.7,0,0,1-1.7-1.7" transform="translate(61.4 43.188)" fill="currentColor" stroke="currentColor" stroke-width="0.3"/>
  </g>
</svg>
