<svg xmlns="http://www.w3.org/2000/svg" width="50" height="50" viewBox="0 0 50 50">
  <g id="E-089-rewind-forward-10" transform="translate(-53 -36)">
    <rect id="area" width="50" height="50" transform="translate(53 36)" fill="none"/>
    <g id="Group_199" data-name="Group 199" transform="translate(-0.925 -1.117)">
      <path id="Path_217" data-name="Path 217" d="M32.785,23.243A13.084,13.084,0,1,1,19.7,10.159h5.234V16.7l7.85-7.85L24.934,1V7.542H19.7a15.7,15.7,0,1,0,15.7,15.7Z" transform="translate(59 41)" fill="currentColor" stroke="currentColor" stroke-width="0.4"/>
      <path id="Path_218" data-name="Path 218" d="M25.047,26.7a4.475,4.475,0,0,1-2.017-.425,3.845,3.845,0,0,1-1.4-1.213,5.625,5.625,0,0,1-.819-1.97,12.116,12.116,0,0,1-.268-2.647,12.337,12.337,0,0,1,.268-2.647,5.751,5.751,0,0,1,.819-1.97,3.845,3.845,0,0,1,1.4-1.213,4.475,4.475,0,0,1,2.017-.425,3.845,3.845,0,0,1,3.4,1.576,8.241,8.241,0,0,1,1.1,4.617A8.241,8.241,0,0,1,28.45,25a3.845,3.845,0,0,1-3.4,1.7m0-1.922a1.686,1.686,0,0,0,1.576-.867,5.326,5.326,0,0,0,.583-2.379V19.362A5.215,5.215,0,0,0,26.749,17,1.938,1.938,0,0,0,23.5,17a5.215,5.215,0,0,0-.457,2.363v2.174a5.326,5.326,0,0,0,.457,2.379,1.67,1.67,0,0,0,1.544.867M10.866,26.5V24.641h3.151V16.463l-2.931,1.576-.867-1.67,3.655-2.048h2.3V24.562h2.8V26.5Z" transform="translate(58.705 44.934)" fill="currentColor" stroke="currentColor" stroke-width="0.5"/>
    </g>
  </g>
</svg>
