<svg xmlns="http://www.w3.org/2000/svg" width="50" height="50" viewBox="0 0 50 50">
  <g id="E-086-rewind-backward-10" transform="translate(-53 -36)">
    <rect id="area" width="50" height="50" transform="translate(53 36)" fill="none"/>
    <g id="Group_202" data-name="Group 202" transform="translate(-1.001 -1.209)">
      <path id="Path_294" data-name="Path 294" d="M4,23.35A15.777,15.777,0,1,0,19.777,7.574H14.518V1L6.629,8.888l7.888,7.888V10.2h5.259A13.147,13.147,0,1,1,6.629,23.35Z" transform="translate(59 41)" fill="currentColor" stroke="currentColor" stroke-width="0.4"/>
      <path id="Path_295" data-name="Path 295" d="M25.107,26.755a4.493,4.493,0,0,1-2.025-.427,3.86,3.86,0,0,1-1.408-1.218,5.648,5.648,0,0,1-.823-1.978,12.165,12.165,0,0,1-.269-2.658,12.387,12.387,0,0,1,.269-2.658,5.774,5.774,0,0,1,.823-1.978,3.86,3.86,0,0,1,1.408-1.218,4.493,4.493,0,0,1,2.025-.427,3.86,3.86,0,0,1,3.417,1.582,8.274,8.274,0,0,1,1.107,4.635,8.274,8.274,0,0,1-1.107,4.635,3.86,3.86,0,0,1-3.417,1.709m0-1.93a1.693,1.693,0,0,0,1.582-.87,5.347,5.347,0,0,0,.585-2.389V19.383a5.236,5.236,0,0,0-.459-2.373,1.946,1.946,0,0,0-3.259,0,5.236,5.236,0,0,0-.459,2.373v2.183a5.347,5.347,0,0,0,.459,2.389,1.677,1.677,0,0,0,1.55.87M10.869,26.55V24.683h3.164V16.472L11.09,18.054l-.87-1.677,3.67-2.057H16.2V24.6h2.816V26.55Z" transform="translate(58.781 45.026)" fill="currentColor" stroke="currentColor" stroke-width="0.5"/>
    </g>
  </g>
</svg>
