<svg xmlns="http://www.w3.org/2000/svg" width="50" height="50" viewBox="0 0 50 50">
  <g id="E-095-rewind-backward-30" transform="translate(-53 -36)">
    <rect id="area" width="50" height="50" transform="translate(53 36)" fill="none"/>
    <path id="Path_538" data-name="Path 538" d="M19.336,23.25v4.922a3.013,3.013,0,0,0,6.026,0V22.146a3.013,3.013,0,0,0-3.013-3.013,2.929,2.929,0,0,0-3.013,2.913M7.283,19.133H10.3a3.013,3.013,0,1,1,0,6.026h0a3.013,3.013,0,1,1,0,6.026H7.283" transform="translate(58.061 45.784)" fill="none" stroke="currentColor" stroke-linecap="square" stroke-width="2.5"/>
    <path id="Path_902" data-name="Path 902" d="M31,24.921A10.847,10.847,0,0,0,23.757,6H5.281" transform="translate(58.762 45.057)" fill="none" stroke="currentColor" stroke-linecap="square" stroke-width="3"/>
    <path id="Path_539" data-name="Path 539" d="M9.424,13.847,4,8.424,9.424,3" transform="translate(58.633 42.633)" fill="none" stroke="currentColor" stroke-linecap="square" stroke-width="3"/>
  </g>
</svg>
