<svg xmlns="http://www.w3.org/2000/svg" width="50" height="50" viewBox="0 0 50 50">
  <g id="E-090-rewind-forward-30" transform="translate(-53 -36)">
    <rect id="area" width="50" height="50" transform="translate(53 36)" fill="none"/>
    <g id="Group_198" data-name="Group 198" transform="translate(-0.982 -1.186)">
      <path id="Path_219" data-name="Path 219" d="M32.889,23.323A13.131,13.131,0,1,1,19.758,10.192H25.01v6.566l7.879-7.879L25.01,1V7.566H19.758A15.758,15.758,0,1,0,35.515,23.323Z" transform="translate(59 41.291)" fill="currentColor" stroke="currentColor" stroke-width="0.4"/>
      <path id="Path_220" data-name="Path 220" d="M25.143,26.666a4.414,4.414,0,0,1-2.011-.424,3.707,3.707,0,0,1-1.4-1.21A5.325,5.325,0,0,1,21,23.069a11.184,11.184,0,0,1-.267-2.639A11.372,11.372,0,0,1,21,17.791a5.435,5.435,0,0,1,.817-1.964,3.707,3.707,0,0,1,1.4-1.21,4.414,4.414,0,0,1,2.011-.424,3.833,3.833,0,0,1,3.393,1.571,8.341,8.341,0,0,1,1.1,4.6,8.341,8.341,0,0,1-1.1,4.6,3.833,3.833,0,0,1-3.472,1.7m0-1.916a1.571,1.571,0,0,0,1.571-.864,5.09,5.09,0,0,0,.471-2.372V19.346a4.98,4.98,0,0,0-.471-2.356,1.916,1.916,0,0,0-3.22,0,5,5,0,0,0-.456,2.356v2.168a5.105,5.105,0,0,0,.456,2.372,1.571,1.571,0,0,0,1.649.864M14.116,19.268a2.293,2.293,0,0,0,1.571-.424,1.32,1.32,0,0,0,.487-1.068V17.65a1.477,1.477,0,0,0-.471-1.162,1.885,1.885,0,0,0-1.3-.424,2.592,2.592,0,0,0-1.4.377,3.3,3.3,0,0,0-1.068,1.068l-1.461-1.3a8.434,8.434,0,0,1,.691-.8,4.241,4.241,0,0,1,.848-.628,4.006,4.006,0,0,1,1.1-.424,5.105,5.105,0,0,1,1.367-.157,6.189,6.189,0,0,1,1.665.22,3.66,3.66,0,0,1,1.288.628,3,3,0,0,1,.848.99,2.937,2.937,0,0,1,.283,1.3,3.142,3.142,0,0,1-.173,1.052,2.859,2.859,0,0,1-.5.817,2.812,2.812,0,0,1-.738.565,3.566,3.566,0,0,1-.9.314v.094a3.676,3.676,0,0,1,.99.33,2.67,2.67,0,0,1,.8.6,2.969,2.969,0,0,1,.534.864,3.252,3.252,0,0,1,.188,1.147,3.187,3.187,0,0,1-1.225,2.576,4.178,4.178,0,0,1-1.4.707,5.906,5.906,0,0,1-1.806.251,6.44,6.44,0,0,1-1.571-.173,4.869,4.869,0,0,1-1.194-.487,4.335,4.335,0,0,1-.88-.707A6.628,6.628,0,0,1,10,24.42l1.681-1.272a4.822,4.822,0,0,0,.44.66,3.047,3.047,0,0,0,.565.534,2.466,2.466,0,0,0,.707.346,3.142,3.142,0,0,0,.9.11,2.278,2.278,0,0,0,1.571-.471,1.759,1.759,0,0,0,.534-1.335v-.126a1.571,1.571,0,0,0-.581-1.257,2.8,2.8,0,0,0-1.665-.44H12.953v-1.9Z" transform="translate(58.982 45.503)" fill="currentColor" stroke="currentColor" stroke-width="0.5"/>
    </g>
  </g>
</svg>
