<svg xmlns="http://www.w3.org/2000/svg" width="50" height="50" viewBox="0 0 50 50">
  <g id="E-099-rewind-forward-20" transform="translate(-53 -36)">
    <rect id="area" width="50" height="50" transform="translate(53 36)" fill="none"/>
    <path id="Path_906" data-name="Path 906" d="M22.7,23.259v4.933a3.02,3.02,0,1,0,6.039,0V22.152a3.02,3.02,0,0,0-3.02-3.02,2.889,2.889,0,0,0-3.02,2.861" transform="translate(61.996 45.936)" fill="none" stroke="currentColor" stroke-linecap="square" stroke-width="2.5"/>
    <path id="Path_547" data-name="Path 547" d="M9,21.057h4.026a2.013,2.013,0,0,1,2.013,2.013v2.013A2.013,2.013,0,0,1,13.026,27.1H11.013A2.013,2.013,0,0,0,9,29.11v2.013a2.013,2.013,0,0,0,2.013,2.013h4.026" transform="translate(63.617 44.012)" fill="none" stroke="currentColor" stroke-linecap="square" stroke-width="2.5"/>
    <path id="Path_546" data-name="Path 546" d="M6.688,25.257A11.027,11.027,0,0,1,14.027,6H32.656" transform="translate(59.378 44.892)" fill="none" stroke="currentColor" stroke-linecap="square" stroke-width="3"/>
    <path id="Path_907" data-name="Path 907" d="M22.133,14.027l5.514-5.514L22.133,3" transform="translate(65.976 42.378)" fill="none" stroke="currentColor" stroke-linecap="square" stroke-width="3"/>
  </g>
</svg>
