<svg xmlns="http://www.w3.org/2000/svg" width="50" height="50" viewBox="0 0 50 50">
  <g id="E-094-rewind-backward-20" transform="translate(-53 -36)">
    <rect id="area" width="50" height="50" transform="translate(53 36)" fill="none"/>
    <path id="Path_537" data-name="Path 537" d="M19.336,25.155V30.1a3.013,3.013,0,0,0,6.026,0V24.07a3.013,3.013,0,0,0-3.013-3.013,2.929,2.929,0,0,0-3.013,2.913M7.283,21.057H11.3a2.009,2.009,0,0,1,2.009,2.009v2.009A2.009,2.009,0,0,1,11.3,27.084H9.292a2.009,2.009,0,0,0-2.009,2.009V31.1A2.009,2.009,0,0,0,9.292,33.11h4.018" transform="translate(57.061 43.86)" fill="none" stroke="currentColor" stroke-linecap="square" stroke-width="2.5"/>
    <path id="Path_536" data-name="Path 536" d="M31,24.921A10.847,10.847,0,0,0,23.759,6H5.264" transform="translate(57.761 45.057)" fill="none" stroke="currentColor" stroke-linecap="square" stroke-width="3"/>
    <path id="Path_901" data-name="Path 901" d="M9.424,13.847,4,8.424,9.424,3" transform="translate(57.633 42.633)" fill="none" stroke="currentColor" stroke-linecap="square" stroke-width="3"/>
  </g>
</svg>
