<svg xmlns="http://www.w3.org/2000/svg" width="50" height="50" viewBox="0 0 50 50">
  <g id="F-014-text-kerning" transform="translate(-53 -36)">
    <rect id="area" width="50" height="50" transform="translate(53 36)" fill="none"/>
    <path id="icon" d="M36.716,28.975H22.767l2.86-2.86-1.761-1.773-5.882,5.882L23.866,36.1l1.761-1.773-2.86-2.86H36.716Zm-19.98-3.746L24.228,4h-2.5L14.239,25.228ZM15.487,4,10.492,18.985,5.5,4H3L9.244,21.482h2.5L17.985,4ZM34.218,21.482h2.5L30.472,4h-2.5L21.731,21.482h2.5l1.249-3.746h7.492Zm-7.9-6.244L29.223,6.5l2.91,8.741Z" transform="translate(58 40.976)" fill="currentColor" stroke="currentColor" stroke-width="0.5"/>
  </g>
</svg>
