<svg xmlns="http://www.w3.org/2000/svg" width="50" height="50" viewBox="0 0 50 50">
  <g id="F-015-character-patterns" transform="translate(-53 -36)">
    <rect id="area" width="50" height="50" transform="translate(53 36)" fill="none"/>
    <path id="icon" d="M6.693,29.325v-9.3L2.61,24.1,1,22.494l6.831-6.831,6.831,6.831-1.61,1.61L8.97,20.021v9.3H20.355V31.6H8.97a2.279,2.279,0,0,1-2.277-2.277m27.325-4.554V22.494H24.91v2.277h6.262L24.91,31.6V33.88h9.108V31.6H27.764ZM29.464,6.554v9.3l4.083-4.083,1.61,1.61-6.831,6.831-6.831-6.831,1.61-1.61,4.083,4.083v-9.3H15.8V4.277H27.187a2.279,2.279,0,0,1,2.277,2.277M8.97,2H3.277V4.277H8.97V6.554H4.416A2.277,2.277,0,0,0,2.139,8.831v2.277a2.277,2.277,0,0,0,2.277,2.277h6.831V4.277A2.279,2.279,0,0,0,8.97,2m0,9.108H4.416V8.831H8.97Z" transform="translate(59.843 43.06)" fill="currentColor" stroke="currentColor" stroke-width="0.5"/>
  </g>
</svg>
