<svg xmlns="http://www.w3.org/2000/svg" width="50" height="50" viewBox="0 0 50 50">
  <g id="F-028-list-details-check" transform="translate(-53 -36)">
    <rect id="area" width="50" height="50" transform="translate(53 36)" fill="none"/>
    <path id="icon" d="M19.234,5.623H32.221M19.234,12.117h8.117m-8.117,9.74H32.221M19.234,28.351h8.117M3,5.623A1.623,1.623,0,0,1,4.623,4h6.494A1.623,1.623,0,0,1,12.74,5.623v6.494a1.623,1.623,0,0,1-1.623,1.623H4.623A1.623,1.623,0,0,1,3,12.117ZM3,21.858a1.623,1.623,0,0,1,1.623-1.623h6.494a1.623,1.623,0,0,1,1.623,1.623v6.494a1.623,1.623,0,0,1-1.623,1.623H4.623A1.623,1.623,0,0,1,3,28.351Z" transform="translate(60.5 44.5)" fill="none" stroke="currentColor" stroke-linecap="square" stroke-linejoin="round" stroke-width="3"/>
  </g>
</svg>
