<svg xmlns="http://www.w3.org/2000/svg" width="50" height="50" viewBox="0 0 50 50">
  <g id="F-033-character-upper-case" transform="translate(-53 -36)">
    <rect id="area" width="50" height="50" transform="translate(53 36)" fill="none"/>
    <path id="icon" d="M40.3,30.8H32.095a2.947,2.947,0,0,1-2.736-3.115V12.115A2.947,2.947,0,0,1,32.095,9H40.3v3.115H32.095V27.688H40.3ZM26.623,13.672A4.42,4.42,0,0,0,22.519,9h-6.84V30.8h6.84a4.42,4.42,0,0,0,4.1-4.672V23.016A5.01,5.01,0,0,0,25.556,19.9a5.01,5.01,0,0,0,1.067-3.115Zm-8.208-1.557h4.1a1.473,1.473,0,0,1,1.368,1.557v3.115a1.473,1.473,0,0,1-1.368,1.557h-4.1ZM23.887,26.13a1.472,1.472,0,0,1-1.368,1.557h-4.1V21.458h4.1a1.472,1.472,0,0,1,1.368,1.557ZM10.208,9H4.736A2.947,2.947,0,0,0,2,12.115V30.8H4.736V23.016h5.472V30.8h2.736V12.115A2.947,2.947,0,0,0,10.208,9M4.736,19.9V12.115h5.472V19.9Z" transform="translate(57 42)" fill="currentColor" stroke="currentColor" stroke-width="0.3"/>
  </g>
</svg>
