<svg xmlns="http://www.w3.org/2000/svg" width="50" height="50" viewBox="0 0 50 50">
  <g id="F-031-text-creation" transform="translate(-53 -36)">
    <rect id="area" width="50" height="50" transform="translate(53 36)" fill="none"/>
    <g id="icon" transform="translate(61 44)">
      <path id="Path_332" data-name="Path 332" d="M32.323,26.429V11.536a4.851,4.851,0,1,0-5.894-5.894H11.536a4.851,4.851,0,1,0-5.894,5.894V26.429a4.851,4.851,0,1,0,5.894,5.894H26.429a4.851,4.851,0,1,0,5.894-5.894m-1.213-22a2.426,2.426,0,1,1-2.426,2.426A2.426,2.426,0,0,1,31.11,4.429M4.429,6.855A2.426,2.426,0,1,1,6.855,9.28,2.426,2.426,0,0,1,4.429,6.855M6.855,33.536A2.426,2.426,0,1,1,9.28,31.11a2.426,2.426,0,0,1-2.426,2.426M26.429,29.9H11.536a4.851,4.851,0,0,0-3.469-3.469V11.536a4.851,4.851,0,0,0,3.469-3.468H26.429A4.851,4.851,0,0,0,29.9,11.536V26.429A4.851,4.851,0,0,0,26.429,29.9m4.681,3.638a2.426,2.426,0,1,1,2.426-2.426,2.426,2.426,0,0,1-2.426,2.426" transform="translate(-1.982 -1.982)" fill="currentColor" stroke="currentColor" stroke-width="0.5"/>
      <path id="Path_333" data-name="Path 333" d="M23.128,11H11v2.426h4.851V24.34h2.426V13.426h4.851Z" transform="translate(-0.064 -0.064)" fill="currentColor" stroke="currentColor" stroke-width="0.5"/>
    </g>
  </g>
</svg>
