<svg xmlns="http://www.w3.org/2000/svg" width="50" height="50" viewBox="0 0 50 50">
  <g id="F-044-text-strikethrough" transform="translate(-53 -36)">
    <rect id="area" width="50" height="50" transform="translate(53 36)" fill="none"/>
    <path id="icon" d="M35.159,17.692H22.119q-.865-.233-1.737-.435c-3.646-.862-5.707-1.493-5.707-4.444A3.724,3.724,0,0,1,15.7,10.028a6.218,6.218,0,0,1,3.912-1.415c3.674-.091,5.368,1.155,6.754,3.051l2.1-1.532a9.7,9.7,0,0,0-8.867-4.116,8.793,8.793,0,0,0-5.713,2.156,6.267,6.267,0,0,0-1.8,4.64,5.676,5.676,0,0,0,2.251,4.879H4v2.6H21.724c2.554.74,4.081,1.7,4.12,4.36a4.049,4.049,0,0,1-1.119,3.107,7.561,7.561,0,0,1-4.83,1.622,8.613,8.613,0,0,1-6.68-3.494l-1.99,1.667a11.069,11.069,0,0,0,8.63,4.423h.13a9.958,9.958,0,0,0,6.554-2.362,6.593,6.593,0,0,0,1.9-5,6.429,6.429,0,0,0-1.493-4.321h8.212Z" transform="translate(58.42 42.026)" fill="currentColor"/>
  </g>
</svg>
