<svg xmlns="http://www.w3.org/2000/svg" width="50" height="50" viewBox="0 0 50 50">
  <g id="F-059-brackets-square" transform="translate(-53 -36)">
    <rect id="area" width="50" height="50" transform="translate(53 36)" fill="none"/>
    <path id="icon" d="M34.47,34.5v25h4.94a1.25,1.25,0,0,1,0,2.5H33.235A1.243,1.243,0,0,1,32,60.75V33.25A1.243,1.243,0,0,1,33.235,32H39.41a1.25,1.25,0,0,1,0,2.5ZM60.406,32H54.231a1.25,1.25,0,0,0,0,2.5h4.94v25h-4.94a1.25,1.25,0,0,0,0,2.5h6.175a1.243,1.243,0,0,0,1.235-1.25V33.25A1.243,1.243,0,0,0,60.406,32" transform="translate(31.179 14)" fill="currentColor" stroke="currentColor" stroke-width="0.45"/>
  </g>
</svg>
