<svg xmlns="http://www.w3.org/2000/svg" width="50" height="50" viewBox="0 0 50 50">
  <g id="F-051-text-selection" transform="translate(-53 -36)">
    <rect id="area" width="50" height="50" transform="translate(53 36)" fill="none"/>
    <path id="icon" d="M35,33.417H25.958a3.875,3.875,0,0,1-3.875-3.875V26.958a3.875,3.875,0,0,1,3.875-3.875h6.458V20.5a1.292,1.292,0,0,0-1.292-1.292h-7.75V16.625h7.75A3.875,3.875,0,0,1,35,20.5Zm-9.042-7.75a1.292,1.292,0,0,0-1.292,1.292v2.583a1.292,1.292,0,0,0,1.292,1.292h6.458V25.667ZM15.625,7.583H19.5V5H15.625A5.167,5.167,0,0,0,11.75,6.782,5.167,5.167,0,0,0,7.875,5H4V7.583H7.875a2.583,2.583,0,0,1,2.583,2.583v6.458H5.292v2.583h5.167V28.25a2.583,2.583,0,0,1-2.583,2.583H4v2.583H7.875a5.167,5.167,0,0,0,3.875-1.782,5.167,5.167,0,0,0,3.875,1.783H19.5V30.833H15.625a2.583,2.583,0,0,1-2.583-2.583V19.208h5.167V16.625H13.042V10.167a2.583,2.583,0,0,1,2.583-2.583" transform="translate(58.5 41.792)" fill="currentColor" stroke="currentColor" stroke-width="0.4"/>
  </g>
</svg>
