<svg xmlns="http://www.w3.org/2000/svg" width="50" height="50" viewBox="0 0 50 50">
  <g id="F-058-brackets-round" transform="translate(-53 -36)">
    <rect id="area" width="50" height="50" transform="translate(53 36)" fill="none"/>
    <path id="icon" d="M26.47,46.988c0,9.107,5.352,12.537,5.581,12.68a1.259,1.259,0,0,1,.419,1.716,1.227,1.227,0,0,1-1.7.424C30.5,61.639,24,57.572,24,46.988s6.5-14.651,6.774-14.82a1.226,1.226,0,0,1,1.7.425,1.258,1.258,0,0,1-.42,1.716c-.247.154-5.579,3.59-5.579,12.679m22.867-14.82a1.227,1.227,0,0,0-1.7.424,1.259,1.259,0,0,0,.419,1.716c.228.142,5.581,3.573,5.581,12.68s-5.352,12.537-5.576,12.676a1.259,1.259,0,0,0-.423,1.715,1.227,1.227,0,0,0,1.7.428c.276-.169,6.774-4.235,6.774-14.82s-6.5-14.651-6.774-14.82" transform="translate(37.944 14.012)" fill="currentColor" stroke="currentColor" stroke-width="0.45"/>
  </g>
</svg>
