<svg xmlns="http://www.w3.org/2000/svg" width="50" height="50" viewBox="0 0 50 50">
  <g id="F-057-brackets-angle" transform="translate(-53 -36)">
    <rect id="area" width="50" height="50" transform="translate(53 36)" fill="none"/>
    <path id="icon" d="M27.045,33.916,18.722,46.994l8.323,13.078a1.25,1.25,0,0,1-.384,1.727,1.236,1.236,0,0,1-.67.2,1.25,1.25,0,0,1-1.056-.58l-8.75-13.75a1.25,1.25,0,0,1,0-1.342l8.75-13.75a1.25,1.25,0,0,1,2.109,1.342ZM50.794,46.324l-8.75-13.75a1.25,1.25,0,1,0-2.109,1.342l8.323,13.078L39.935,60.072A1.25,1.25,0,0,0,40.32,61.8a1.236,1.236,0,0,0,.67.2,1.25,1.25,0,0,0,1.056-.58l8.75-13.75a1.25,1.25,0,0,0,0-1.341" transform="translate(44.51 14.007)" fill="currentColor" stroke="currentColor" stroke-width="0.45"/>
  </g>
</svg>
