<svg xmlns="http://www.w3.org/2000/svg" width="50" height="50" viewBox="0 0 50 50">
  <g id="F-065-currency-pound" transform="translate(-53 -36)">
    <rect id="area" width="50" height="50" transform="translate(53 36)" fill="none"/>
    <path id="icon" d="M13.807,31.388a11.448,11.448,0,0,0,2.017-6.521,13.824,13.824,0,0,0-.235-2.608H26.258V19.651H14.8c-.111-.274-.222-.548-.334-.814a12.857,12.857,0,0,1-1.255-5.707,6.249,6.249,0,0,1,6.521-6.521,7.985,7.985,0,0,1,6.81,3.427L28.577,8.4A10.577,10.577,0,0,0,19.737,4a8.839,8.839,0,0,0-9.129,9.129,15.193,15.193,0,0,0,1.377,6.521H8v2.608h4.921a10.706,10.706,0,0,1,.3,2.608c0,3.29-1.938,6.521-3.912,6.521V34H28.866V31.388Z" transform="translate(59.567 42.004)" fill="currentColor" stroke="currentColor" stroke-width="0.4"/>
  </g>
</svg>
