<svg xmlns="http://www.w3.org/2000/svg" width="50" height="50" viewBox="0 0 50 50">
  <g id="F-063-currency-dollar" transform="translate(-53 -36)">
    <rect id="area" width="50" height="50" transform="translate(53 36)" fill="none"/>
    <path id="icon" d="M25.274,23.21c0-5.325-4.362-5.932-7.866-6.419-3.819-.531-5.98-.992-5.98-4.281,0-2.76,2.893-3.741,5.37-3.741A7.793,7.793,0,0,1,23.222,11.8l1.8-1.449a9.981,9.981,0,0,0-6.667-3.78V3H16.043V6.487C11.872,6.741,9.12,9.095,9.12,12.51c0,5.458,4.419,6.073,7.971,6.565,3.752.523,5.875.972,5.875,4.134,0,3.5-3.615,4.021-5.769,4.021-3.958,0-5.628-1.112-7.179-3.032l-1.8,1.449a9.736,9.736,0,0,0,7.821,3.85V33H18.35V29.487c4.3-.351,6.923-2.685,6.923-6.277" transform="translate(61.252 43)" fill="currentColor" stroke="currentColor" stroke-width="0.6"/>
  </g>
</svg>
