<svg xmlns="http://www.w3.org/2000/svg" width="50" height="50" viewBox="0 0 50 50">
  <g id="F-067-currency-baht-bitcoin" transform="translate(-53 -36)">
    <rect id="area" width="50" height="50" transform="translate(53 36)" fill="none"/>
    <path id="icon" d="M24.91,19.533A6.5,6.5,0,0,0,27,14.769V13.462a6.546,6.546,0,0,0-6.538-6.538H19.154V3H16.538V6.923H10V33.077h6.538V37h2.615V33.077h2.615a6.546,6.546,0,0,0,6.538-6.538V25.231a6.516,6.516,0,0,0-3.4-5.7M12.615,9.538h7.846a3.927,3.927,0,0,1,3.923,3.923v1.308a3.927,3.927,0,0,1-3.923,3.923H12.615Zm13.077,17a3.927,3.927,0,0,1-3.923,3.923H12.615V21.308h9.154a3.927,3.927,0,0,1,3.923,3.923Z" transform="translate(58.846 41)" fill="currentColor" stroke="currentColor" stroke-width="0.25"/>
  </g>
</svg>
