<svg xmlns="http://www.w3.org/2000/svg" width="50" height="50" viewBox="0 0 50 50">
  <g id="F-061-hash-straight" transform="translate(-53 -36)">
    <rect id="area" width="50" height="50" transform="translate(53 36)" fill="none"/>
    <path id="icon" d="M60.75,50.75h-7.5v-7.5h7.5a1.25,1.25,0,1,0,0-2.5h-7.5v-7.5a1.25,1.25,0,0,0-2.5,0v7.5h-7.5v-7.5a1.25,1.25,0,0,0-2.5,0v7.5h-7.5a1.25,1.25,0,1,0,0,2.5h7.5v7.5h-7.5a1.25,1.25,0,1,0,0,2.5h7.5v7.5a1.25,1.25,0,0,0,2.5,0v-7.5h7.5v7.5a1.25,1.25,0,0,0,2.5,0v-7.5h7.5a1.25,1.25,0,1,0,0-2.5m-17.5,0v-7.5h7.5v7.5Z" transform="translate(31 14)" fill="currentColor" stroke="currentColor" stroke-width="0.45"/>
  </g>
</svg>
