<svg xmlns="http://www.w3.org/2000/svg" width="50" height="50" viewBox="0 0 50 50">
  <g id="F-060-brackets-curly" transform="translate(-53 -36)">
    <rect id="area" width="50" height="50" transform="translate(53 36)" fill="none"/>
    <path id="icon" d="M13.414,47a4.646,4.646,0,0,1,1.235,1.6,12.346,12.346,0,0,1,.741,5.272c0,3.8.154,5.625,3.705,5.625a1.25,1.25,0,0,1,0,2.5c-2.7,0-4.526-.959-5.434-2.853a12.346,12.346,0,0,1-.741-5.272c0-3.8-.154-5.625-3.705-5.625a1.25,1.25,0,0,1,0-2.5c3.551,0,3.705-1.827,3.705-5.625a12.353,12.353,0,0,1,.741-5.272C14.572,32.959,16.4,32,19.1,32a1.25,1.25,0,0,1,0,2.5c-3.551,0-3.705,1.827-3.705,5.625a12.353,12.353,0,0,1-.741,5.272A4.646,4.646,0,0,1,13.414,47M43.8,45.75c-3.551,0-3.705-1.827-3.705-5.625a12.353,12.353,0,0,0-.741-5.272C38.446,32.959,36.618,32,33.919,32a1.25,1.25,0,0,0,0,2.5c3.551,0,3.705,1.827,3.705,5.625a12.353,12.353,0,0,0,.741,5.272A4.646,4.646,0,0,0,39.6,47a4.646,4.646,0,0,0-1.235,1.6,12.346,12.346,0,0,0-.741,5.272c0,3.8-.154,5.625-3.705,5.625a1.25,1.25,0,0,0,0,2.5c2.7,0,4.526-.959,5.434-2.853a12.346,12.346,0,0,0,.741-5.272c0-3.8.154-5.625,3.705-5.625a1.25,1.25,0,0,0,0-2.5" transform="translate(51.493 14)" fill="currentColor" stroke="currentColor" stroke-width="0.45"/>
  </g>
</svg>
