<svg xmlns="http://www.w3.org/2000/svg" width="50" height="50" viewBox="0 0 50 50">
  <g id="F-069-email-at" transform="translate(-53 -36)">
    <rect id="area" width="50" height="50" transform="translate(53 36)" fill="none"/>
    <path id="icon" d="M19.222,3A16.122,16.122,0,0,0,3,19.223v1.248A16.222,16.222,0,0,0,19.222,36.692h8.735V34.2H19.222A13.726,13.726,0,0,1,5.5,20.471V19.223A13.651,13.651,0,0,1,19.222,5.5,13.277,13.277,0,0,1,32.948,19.223c0,4.48-1.747,6.239-4.567,6.239-1.972,0-2.92-1.61-2.92-3.744V11.736h-2.5v2.421A4.792,4.792,0,0,0,18.6,11.736a6.838,6.838,0,0,0-6.863,6.788v2.645A6.838,6.838,0,0,0,18.6,27.958a5.341,5.341,0,0,0,4.991-3.07,5.428,5.428,0,0,0,4.879,3.07c3.831,0,6.975-2.5,6.975-8.735A15.872,15.872,0,0,0,19.222,3m3.744,18.169a4.367,4.367,0,1,1-8.735,0V18.524a4.367,4.367,0,1,1,8.735,0Z" transform="translate(58.776 41.155)" fill="currentColor" stroke="currentColor" stroke-width="0.4"/>
  </g>
</svg>
