<svg xmlns="http://www.w3.org/2000/svg" width="50" height="50" viewBox="0 0 50 50">
  <g id="G-006-layers-union" transform="translate(-53 -36)">
    <rect id="area" width="50" height="50" transform="translate(53 36)" fill="none"/>
    <path id="icon" d="M27.331,27.331v3.888a3.888,3.888,0,0,1-3.888,3.888H7.888A3.888,3.888,0,0,1,4,31.219V15.665a3.888,3.888,0,0,1,3.888-3.888h3.888V7.888A3.888,3.888,0,0,1,15.665,4H31.219a3.888,3.888,0,0,1,3.888,3.888V23.442a3.888,3.888,0,0,1-3.888,3.888Z" transform="translate(57.446 42.446)" fill="none" stroke="currentColor" stroke-linecap="round" stroke-linejoin="round" stroke-width="2.8"/>
  </g>
</svg>
