<svg xmlns="http://www.w3.org/2000/svg" width="50" height="50" viewBox="0 0 50 50">
  <g id="G-005-layers-subtract" transform="translate(-53 -36)">
    <rect id="area" width="50" height="50" transform="translate(53 36)" fill="none"/>
    <g id="icon" transform="translate(62.446 45.446)">
      <path id="Path_527" data-name="Path 527" d="M8,7.888A3.888,3.888,0,0,1,11.888,4H27.442a3.888,3.888,0,0,1,3.888,3.888V23.442a3.888,3.888,0,0,1-3.888,3.888H11.888A3.888,3.888,0,0,1,8,23.442Z" transform="translate(-0.223 -4)" fill="none" stroke="currentColor" stroke-linecap="round" stroke-linejoin="round" stroke-width="2.8"/>
      <path id="Path_528" data-name="Path 528" d="M27.331,23.554v3.888a3.888,3.888,0,0,1-3.888,3.888H7.888A3.888,3.888,0,0,1,4,27.442V11.888A3.888,3.888,0,0,1,7.888,8h3.888" transform="translate(-4 -0.223)" fill="none" stroke="currentColor" stroke-linecap="round" stroke-linejoin="round" stroke-width="2.8"/>
    </g>
  </g>
</svg>
