<svg xmlns="http://www.w3.org/2000/svg" width="50" height="50" viewBox="0 0 50 50">
  <g id="G-001-layers-difference" transform="translate(-53 -36)">
    <rect id="area" width="50" height="50" transform="translate(53 36)" fill="none"/>
    <g id="icon" transform="translate(62.243 45.243)">
      <path id="Path_519" data-name="Path 519" d="M27.362,27.362v3.894a3.894,3.894,0,0,1-3.894,3.894H7.894A3.894,3.894,0,0,1,4,31.256V15.681a3.894,3.894,0,0,1,3.894-3.894h3.894V7.894A3.894,3.894,0,0,1,15.681,4H31.256a3.894,3.894,0,0,1,3.894,3.894V23.468a3.894,3.894,0,0,1-3.894,3.894Z" transform="translate(-4 -4)" fill="none" stroke="currentColor" stroke-linecap="round" stroke-linejoin="round" stroke-width="2.8"/>
      <path id="Path_520" data-name="Path 520" d="M11.894,8H8v3.894m0,7.787v3.894h3.894M19.681,8h3.894v3.894m0,7.787v3.894H19.681" transform="translate(-0.213 -0.213)" fill="none" stroke="currentColor" stroke-linecap="round" stroke-linejoin="round" stroke-width="2.8"/>
    </g>
  </g>
</svg>
