<svg xmlns="http://www.w3.org/2000/svg" width="50" height="50" viewBox="0 0 50 50">
  <g id="G-007-selection" transform="translate(-53 -36)">
    <rect id="area" width="50" height="50" transform="translate(53 36)" fill="none"/>
    <path id="icon" d="M51.375,33.292a1.292,1.292,0,0,1-1.292,1.292H44.917a1.292,1.292,0,1,1,0-2.583h5.167a1.292,1.292,0,0,1,1.292,1.292M50.083,60.417H44.917a1.292,1.292,0,1,0,0,2.583h5.167a1.292,1.292,0,0,0,0-2.583M60.417,32H56.542a1.292,1.292,0,0,0,0,2.583h3.875v3.875a1.292,1.292,0,0,0,2.583,0V34.583A2.583,2.583,0,0,0,60.417,32m1.292,11.625a1.292,1.292,0,0,0-1.292,1.292v5.167a1.292,1.292,0,0,0,2.583,0V44.917a1.292,1.292,0,0,0-1.292-1.292m0,11.625a1.292,1.292,0,0,0-1.292,1.292v3.875H56.542a1.292,1.292,0,0,0,0,2.583h3.875A2.583,2.583,0,0,0,63,60.417V56.542a1.292,1.292,0,0,0-1.292-1.292M33.292,51.375a1.292,1.292,0,0,0,1.292-1.292V44.917a1.292,1.292,0,1,0-2.583,0v5.167a1.292,1.292,0,0,0,1.292,1.292m5.167,9.042H34.583V56.542a1.292,1.292,0,1,0-2.583,0v3.875A2.583,2.583,0,0,0,34.583,63h3.875a1.292,1.292,0,0,0,0-2.583m0-28.417H34.583A2.583,2.583,0,0,0,32,34.583v3.875a1.292,1.292,0,0,0,2.583,0V34.583h3.875a1.292,1.292,0,1,0,0-2.583" transform="translate(30.5 13.6)" fill="currentColor" stroke="currentColor" stroke-width="0.35"/>
  </g>
</svg>
