<svg xmlns="http://www.w3.org/2000/svg" width="50" height="50" viewBox="0 0 50 50">
  <g id="G-002-layers-intersect" transform="translate(-53 -36)">
    <rect id="area" width="50" height="50" transform="translate(53 36)" fill="none"/>
    <g id="icon" transform="translate(62.446 45.446)">
      <path id="Path_521" data-name="Path 521" d="M8,7.888A3.888,3.888,0,0,1,11.888,4H27.442a3.888,3.888,0,0,1,3.888,3.888V23.442a3.888,3.888,0,0,1-3.888,3.888H11.888A3.888,3.888,0,0,1,8,23.442Z" transform="translate(-0.223 -4)" fill="none" stroke="currentColor" stroke-linecap="round" stroke-linejoin="round" stroke-width="2.8"/>
      <path id="Path_522" data-name="Path 522" d="M4,11.888A3.888,3.888,0,0,1,7.888,8H23.442a3.888,3.888,0,0,1,3.888,3.888V27.442a3.888,3.888,0,0,1-3.888,3.888H7.888A3.888,3.888,0,0,1,4,27.442Zm9.721,9.721L25.386,9.944" transform="translate(-4 -0.223)" fill="none" stroke="currentColor" stroke-linecap="round" stroke-linejoin="round" stroke-width="2.8"/>
    </g>
  </g>
</svg>
