<svg xmlns="http://www.w3.org/2000/svg" width="50" height="50" viewBox="0 0 50 50">
  <g id="G-009-selection-background" transform="translate(-53 -36)">
    <rect id="area" width="50" height="50" transform="translate(53 36)" fill="none"/>
    <path id="icon" d="M54.667,40.5H34.833A2.833,2.833,0,0,0,32,43.333V63.167A2.833,2.833,0,0,0,34.833,66H54.667A2.833,2.833,0,0,0,57.5,63.167V43.333A2.833,2.833,0,0,0,54.667,40.5m0,22.667H34.833V43.333H54.667Zm-4.25-29.75A1.417,1.417,0,0,1,51.833,32h2.833a1.417,1.417,0,1,1,0,2.833H51.833a1.417,1.417,0,0,1-1.417-1.417M66,34.833V36.25a1.417,1.417,0,0,1-2.833,0V34.833H61.75a1.417,1.417,0,0,1,0-2.833h1.417A2.833,2.833,0,0,1,66,34.833m0,8.5v2.833a1.417,1.417,0,0,1-2.833,0V43.333a1.417,1.417,0,0,1,2.833,0m0,9.917v1.417A2.833,2.833,0,0,1,63.167,57.5H61.75a1.417,1.417,0,0,1,0-2.833h1.417V53.25a1.417,1.417,0,0,1,2.833,0m-25.5-17V34.833A2.833,2.833,0,0,1,43.333,32H44.75a1.417,1.417,0,1,1,0,2.833H43.333V36.25a1.417,1.417,0,0,1-2.833,0" transform="translate(29 12)" fill="currentColor" stroke="currentColor" stroke-width="0.3"/>
  </g>
</svg>
