<svg xmlns="http://www.w3.org/2000/svg" width="50" height="50" viewBox="0 0 50 50">
  <g id="G-008-selection-foreground" transform="translate(-53 -36)">
    <rect id="area" width="50" height="50" transform="translate(53 36)" fill="none"/>
    <path id="icon" d="M37.581,64.091a1.4,1.4,0,0,1-1.4,1.4h-1.4A2.791,2.791,0,0,1,32,62.7V61.3a1.4,1.4,0,1,1,2.791,0v1.4h1.4a1.4,1.4,0,0,1,1.4,1.4m8.372-1.4H43.162a1.4,1.4,0,1,0,0,2.791h2.791a1.4,1.4,0,0,0,0-2.791M33.4,55.719a1.4,1.4,0,0,0,1.4-1.4V51.534a1.4,1.4,0,1,0-2.791,0v2.791a1.4,1.4,0,0,0,1.4,1.4m22.324,4.186a1.4,1.4,0,0,0-1.4,1.4v1.4h-1.4a1.4,1.4,0,1,0,0,2.791h1.4A2.791,2.791,0,0,0,57.115,62.7V61.3a1.4,1.4,0,0,0-1.4-1.4m0-13.953a1.4,1.4,0,0,0,1.4-1.4v-1.4a2.791,2.791,0,0,0-2.791-2.791h-1.4a1.4,1.4,0,1,0,0,2.791h1.4v1.4a1.4,1.4,0,0,0,1.4,1.4M36.186,40.372h-1.4A2.791,2.791,0,0,0,32,43.162v1.4a1.4,1.4,0,0,0,2.791,0v-1.4h1.4a1.4,1.4,0,0,0,0-2.791M62.7,32H43.162a2.79,2.79,0,0,0-2.791,2.791v6.976a.777.777,0,0,0,0,.1,1.4,1.4,0,0,0,1.4,1.3h4.186a1.4,1.4,0,0,0,0-2.791H43.162V34.791H62.7V54.324H57.115V51.534a1.4,1.4,0,1,0-2.791,0v4.186a1.4,1.4,0,0,0,1.4,1.4H62.7a2.791,2.791,0,0,0,2.791-2.791V34.791A2.791,2.791,0,0,0,62.7,32" transform="translate(29.181 12.333)" fill="currentColor" stroke="currentColor" stroke-width="0.3"/>
  </g>
</svg>
