<svg xmlns="http://www.w3.org/2000/svg" width="50" height="50" viewBox="0 0 50 50">
  <g id="G-012-selection-slash" transform="translate(-53 -36)">
    <rect id="area" width="50" height="50" transform="translate(53 36)" fill="none"/>
    <path id="icon" d="M43.625,33.292A1.292,1.292,0,0,1,44.917,32h5.167a1.292,1.292,0,0,1,0,2.583H44.917a1.292,1.292,0,0,1-1.292-1.292m6.458,27.125H44.917a1.292,1.292,0,1,0,0,2.583h5.167a1.292,1.292,0,0,0,0-2.583M60.417,32H56.542a1.292,1.292,0,0,0,0,2.583h3.875v3.875a1.292,1.292,0,0,0,2.583,0V34.583A2.583,2.583,0,0,0,60.417,32m1.292,11.625a1.292,1.292,0,0,0-1.292,1.292v5.167a1.292,1.292,0,1,0,2.583,0V44.917a1.292,1.292,0,0,0-1.292-1.292m-28.417,7.75a1.292,1.292,0,0,0,1.292-1.292V44.917a1.292,1.292,0,1,0-2.583,0v5.167a1.292,1.292,0,0,0,1.292,1.292m5.167,9.042H34.583V56.542a1.292,1.292,0,1,0-2.583,0v3.875A2.583,2.583,0,0,0,34.583,63h3.875a1.292,1.292,0,0,0,0-2.583M35.539,32.423a1.292,1.292,0,1,0-1.912,1.737L59.461,62.577a1.292,1.292,0,1,0,1.912-1.737Z" transform="translate(30.5 13.5)" fill="currentColor" stroke="currentColor" stroke-width="0.3"/>
  </g>
</svg>
