<svg xmlns="http://www.w3.org/2000/svg" width="50" height="50" viewBox="0 0 50 50">
  <g id="G-013-selection-inverse" transform="translate(-53 -36)">
    <rect id="area" width="50" height="50" transform="translate(53 36)" fill="none"/>
    <path id="icon" d="M51.375,61.708A1.292,1.292,0,0,1,50.083,63H44.917a1.292,1.292,0,1,1,0-2.583h5.167a1.292,1.292,0,0,1,1.292,1.292M33.292,51.375a1.292,1.292,0,0,0,1.292-1.292V44.917a1.292,1.292,0,1,0-2.583,0v5.167a1.292,1.292,0,0,0,1.292,1.292m5.167,9.042H34.583V56.542a1.292,1.292,0,0,0-2.583,0v3.875A2.583,2.583,0,0,0,34.583,63h3.875a1.292,1.292,0,0,0,0-2.583M63,34.583V60.417A2.583,2.583,0,0,1,60.417,63H56.542a1.292,1.292,0,0,1,0-2.583h2.049L34.583,36.409v2.049a1.292,1.292,0,0,1-2.583,0V34.583A2.583,2.583,0,0,1,34.583,32H60.417A2.583,2.583,0,0,1,63,34.583m-2.583,0H36.409L60.417,58.591Z" transform="translate(30.5 13.5)" fill="currentColor" stroke="currentColor" stroke-width="0.3"/>
  </g>
</svg>
