<svg xmlns="http://www.w3.org/2000/svg" width="50" height="50" viewBox="0 0 50 50">
  <g id="G-011-selection-plus" transform="translate(-53 -36)">
    <rect id="area" width="50" height="50" transform="translate(53 36)" fill="none"/>
    <path id="icon" d="M63.852,57.259h-4.3v-4.3a1.148,1.148,0,1,0-2.3,0v4.3h-4.3a1.148,1.148,0,1,0,0,2.3h4.3v4.3a1.148,1.148,0,0,0,2.3,0v-4.3h4.3a1.148,1.148,0,1,0,0-2.3" transform="translate(31 14)" fill="currentColor" stroke="currentColor" stroke-width="0.6"/>
    <path id="icon-2" data-name="icon" d="M49.222,33.148A1.148,1.148,0,0,1,48.074,34.3H43.481a1.148,1.148,0,1,1,0-2.3h4.593a1.148,1.148,0,0,1,1.148,1.148M48.074,57.259H43.481a1.148,1.148,0,1,0,0,2.3h4.593a1.148,1.148,0,1,0,0-2.3M57.259,34.3v3.444a1.148,1.148,0,0,0,2.3,0V34.3a2.3,2.3,0,0,0-2.3-2.3H53.815a1.148,1.148,0,0,0,0,2.3Zm1.148,8.037a1.148,1.148,0,0,0-1.148,1.148v4.593a1.148,1.148,0,0,0,2.3,0V43.481a1.148,1.148,0,0,0-1.148-1.148M33.148,49.222A1.148,1.148,0,0,0,34.3,48.074V43.481a1.148,1.148,0,1,0-2.3,0v4.593a1.148,1.148,0,0,0,1.148,1.148m4.593,8.037H34.3V53.815a1.148,1.148,0,0,0-2.3,0v3.444a2.3,2.3,0,0,0,2.3,2.3h3.444a1.148,1.148,0,0,0,0-2.3m0-25.259H34.3A2.3,2.3,0,0,0,32,34.3v3.444a1.148,1.148,0,0,0,2.3,0V34.3h3.444a1.148,1.148,0,0,0,0-2.3" transform="translate(31 14)" fill="currentColor" stroke="currentColor" stroke-width="0.6"/>
  </g>
</svg>
