<svg xmlns="http://www.w3.org/2000/svg" width="50" height="50" viewBox="0 0 50 50">
  <g id="G-014-cut-out-scissors" transform="translate(-53 -36)">
    <rect id="area" width="50" height="50" transform="translate(53 36)" fill="none"/>
    <g id="icon" transform="translate(62 46)">
      <path id="Path_911" data-name="Path 911" d="M19.508,1.977,18.368,0,6.82,6.67,5.682,6.013a3.361,3.361,0,0,0,.761-.877A3.423,3.423,0,1,0,1.767,6.389l2.77,1.6-2.77,1.6a3.461,3.461,0,1,0,3.925.369L6.82,9.3l7.6,4.387,1.141-1.974L9.1,7.982ZM1.792,3.876a1.746,1.746,0,1,1,.814,1.061,1.747,1.747,0,0,1-.814-1.061m1.684,7.089a1.585,1.585,0,1,1-1.371.793,1.585,1.585,0,0,1,1.371-.793m13.691,5.008h4.565v2.282H17.17Zm-7.985,0H13.75v2.282H9.184Z" transform="translate(0 11.5)" fill="currentColor" stroke="currentColor" stroke-width="0.5"/>
      <path id="Path_149" data-name="Path 149" d="M31.241,31.664H26.678V29.382h4.564V4.282H7.282V8.846H5V4.282A2.284,2.284,0,0,1,7.282,2H31.241a2.284,2.284,0,0,1,2.282,2.282v25.1a2.284,2.284,0,0,1-2.282,2.282" transform="translate(-1.523 -2)" fill="currentColor" stroke="currentColor" stroke-width="0.6"/>
    </g>
  </g>
</svg>
