<svg xmlns="http://www.w3.org/2000/svg" width="50" height="50" viewBox="0 0 50 50">
  <g id="G-027-selection-focus-objects-group" transform="translate(-53 -36)">
    <rect id="area" width="50" height="50" transform="translate(53 36)" fill="none"/>
    <path id="Path_621" data-name="Path 621" d="M14,15.988H8a.945.945,0,0,0-1,.887.71.71,0,0,0,0,.113v6a.944.944,0,0,0,.886,1,1.084,1.084,0,0,0,.114,0h6a.945.945,0,0,0,1-.886,1.083,1.083,0,0,0,0-.114v-6a.946.946,0,0,0-.887-1,1.065,1.065,0,0,0-.113,0m-1,6H9v-4h4Z" transform="translate(63 46)" fill="currentColor"/>
    <path id="Path_622" data-name="Path 622" d="M25,22.988v-6a.946.946,0,0,0-.887-1,1.065,1.065,0,0,0-.113,0H18a.945.945,0,0,0-1,.887.71.71,0,0,0,0,.113v6a.944.944,0,0,0,.886,1,1.084,1.084,0,0,0,.114,0h6a1,1,0,0,0,1-1m-2-1H19v-4h4Zm-9-16H8a.945.945,0,0,0-1,.887.71.71,0,0,0,0,.113v6a.944.944,0,0,0,.886,1,1.084,1.084,0,0,0,.114,0h6a.945.945,0,0,0,1-.886,1.083,1.083,0,0,0,0-.114v-6a.946.946,0,0,0-.887-1,1.065,1.065,0,0,0-.113,0m-1,6H9v-4h4Zm5,2h6a.945.945,0,0,0,1-.886,1.084,1.084,0,0,0,0-.114v-6a.946.946,0,0,0-.887-1,1.065,1.065,0,0,0-.113,0H18a.945.945,0,0,0-1,.887.71.71,0,0,0,0,.113v6a1,1,0,0,0,1,1m1-6h4v4H19Z" transform="translate(63 46)" fill="currentColor"/>
    <path id="Path_623" data-name="Path 623" d="M30,1.365V8.183a1.364,1.364,0,0,1-2.727,0V2.728H21.818A1.365,1.365,0,0,1,21.744,0h6.892A1.365,1.365,0,0,1,30,1.365M8.182,27.274H2.727V21.819A1.364,1.364,0,0,0,0,21.744v6.892A1.365,1.365,0,0,0,1.365,30H8.182a1.364,1.364,0,1,0,.074-2.726.457.457,0,0,0-.074,0m20.455-6.819a1.364,1.364,0,0,0-1.364,1.364v5.455H21.818A1.364,1.364,0,0,0,21.744,30a.457.457,0,0,0,.074,0h6.818A1.364,1.364,0,0,0,30,28.637h0V21.819a1.364,1.364,0,0,0-1.364-1.364M8.182,0H1.365A1.365,1.365,0,0,0,0,1.365V8.183a1.364,1.364,0,0,0,2.727,0V2.728H8.182A1.365,1.365,0,0,0,8.256,0H8.182" transform="translate(63 46)" fill="currentColor" stroke="currentColor" stroke-width="0.25"/>
  </g>
</svg>
