<svg xmlns="http://www.w3.org/2000/svg" width="50" height="50" viewBox="0 0 50 50">
  <g id="G-025-selection-focus-rectangle" transform="translate(-53 -36)">
    <rect id="area" width="50" height="50" transform="translate(53 36)" fill="none"/>
    <path id="Path_619" data-name="Path 619" d="M23.012,23.01H6.99a2,2,0,0,1-2-2V8.993a2.006,2.006,0,0,1,2-2H23.011a2.006,2.006,0,0,1,2,2V21.01a2,2,0,0,1-2,2M7.248,9.188V20.814h15.5V9.187ZM30,1.365V8.183a1.364,1.364,0,0,1-2.727,0V2.728H21.818A1.365,1.365,0,0,1,21.744,0h6.892A1.365,1.365,0,0,1,30,1.365M8.182,27.274H2.727V21.819A1.364,1.364,0,0,0,0,21.744v6.892A1.365,1.365,0,0,0,1.365,30H8.182a1.364,1.364,0,1,0,.074-2.726.457.457,0,0,0-.074,0m20.455-6.819a1.364,1.364,0,0,0-1.364,1.364v5.455H21.818A1.364,1.364,0,0,0,21.744,30a.457.457,0,0,0,.074,0h6.818A1.364,1.364,0,0,0,30,28.637h0V21.819a1.364,1.364,0,0,0-1.364-1.364M8.182,0H1.365A1.365,1.365,0,0,0,0,1.365V8.183a1.364,1.364,0,0,0,2.727,0V2.728H8.182A1.365,1.365,0,0,0,8.256,0H8.182" transform="translate(63 46)" fill="currentColor" stroke="currentColor" stroke-width="0.25"/>
  </g>
</svg>
