<svg xmlns="http://www.w3.org/2000/svg" width="50" height="50" viewBox="0 0 50 50">
  <g id="G-021-group-objects-save-check" transform="translate(-53 -36)">
    <rect id="area" width="50" height="50" transform="translate(53 36)" fill="none"/>
    <g id="icon" transform="translate(61 44)">
      <path id="Path_229" data-name="Path 229" d="M15.071,19.808l-4.359-4.359L9,17.161l6.071,6.071L26,12.3l-1.712-1.723Z" transform="translate(-0.5 -0.161)" fill="currentColor" stroke="currentColor" stroke-width="0.5"/>
      <path id="Path_914" data-name="Path 914" d="M2.007,28.437H5.493v3.485H2.007Zm26.425,0h3.487v3.487H28.432ZM4.95,7.357h2.4V4.951H26.575v2.4h2.4V26.579h-2.4v2.4H7.356v-2.4H4.95ZM28.432,2.008h3.5V5.5h-3.5Zm-26.425,0H5.493V5.494H2.007ZM26.575.15v2.4H7.356V.15H.15V7.357h2.4V26.576H.15v7.206H7.356v-2.4H26.575v2.4h7.207V26.576h-2.4V7.357h2.4V.15Z" transform="translate(0.034 0.218)" fill="currentColor" stroke="currentColor" stroke-width="0.5"/>
    </g>
  </g>
</svg>
