<svg xmlns="http://www.w3.org/2000/svg" width="50" height="50" viewBox="0 0 50 50">
  <g id="G-029-selection-focus-binary" transform="translate(-53 -36)">
    <rect id="area" width="50" height="50" transform="translate(53 36)" fill="none"/>
    <path id="Path_631" data-name="Path 631" d="M30,1.366V8.184a1.364,1.364,0,0,1-2.727,0V2.729H21.819A1.365,1.365,0,1,1,21.745,0h6.892A1.362,1.362,0,0,1,30,1.366M8.183,27.275H2.728V21.82A1.365,1.365,0,0,0,0,21.746v6.892A1.365,1.365,0,0,0,1.365,30H8.183a1.364,1.364,0,0,0,.085-2.727H8.183m20.455-6.818a1.363,1.363,0,0,0-1.364,1.362v5.457H21.819A1.364,1.364,0,0,0,21.671,30l.074,0h6.892A1.364,1.364,0,0,0,30,28.639V21.82a1.363,1.363,0,0,0-1.364-1.364M8.183,0H1.365A1.362,1.362,0,0,0,0,1.362V8.184a1.364,1.364,0,0,0,2.727,0V2.729H8.183A1.364,1.364,0,1,0,8.256,0H8.183m8.392,12V3h-2V5h-3V7h3v5h-3v2h8V12Zm-1.5,6a3.5,3.5,0,1,1-3.5,3.5,3.5,3.5,0,0,1,3.5-3.5m0-2a5.5,5.5,0,1,0,5.5,5.5,5.5,5.5,0,0,0-5.5-5.5" transform="translate(63 46)" fill="currentColor" stroke="currentColor" stroke-width="0.25"/>
  </g>
</svg>
