<svg xmlns="http://www.w3.org/2000/svg" width="50" height="50" viewBox="0 0 50 50">
  <g id="G-028-selection-focus-person-account" transform="translate(-53 -36)">
    <rect id="area" width="50" height="50" transform="translate(53 36)" fill="none"/>
    <path id="Path_624" data-name="Path 624" d="M30,1.365V8.183a1.364,1.364,0,0,1-2.727,0V2.728H21.819A1.364,1.364,0,1,1,21.745,0c.024,0,.049,0,.074,0h6.818A1.364,1.364,0,0,1,30,1.365M8.183,27.274H2.728V21.819A1.364,1.364,0,1,0,0,21.745c0,.025,0,.049,0,.074v6.818A1.364,1.364,0,0,0,1.365,30H8.183a1.364,1.364,0,1,0,.073-2.727H8.183m20.455-6.818a1.363,1.363,0,0,0-1.364,1.364v5.455H21.819A1.364,1.364,0,1,0,21.745,30h6.892A1.364,1.364,0,0,0,30,28.638h0V21.819a1.364,1.364,0,0,0-1.364-1.364M8.183,0H1.365A1.363,1.363,0,0,0,0,1.365V8.183a1.364,1.364,0,0,0,2.727,0V2.728H8.183A1.364,1.364,0,1,0,8.256,0c-.024,0-.049,0-.073,0M10.57,10.643a4,4,0,1,0,4-4,4,4,0,0,0-4,4m-2,12v-2a4,4,0,0,1,4-4h4a4,4,0,0,1,4,4v2" transform="translate(63 46)" fill="currentColor" stroke="currentColor" stroke-width="0.25"/>
  </g>
</svg>
