<svg xmlns="http://www.w3.org/2000/svg" width="50" height="50" viewBox="0 0 50 50">
  <g id="G-030-center-circle" transform="translate(-53 -36)">
    <rect id="area" width="50" height="50" transform="translate(53 36)" fill="none"/>
    <path id="icon" d="M34.978,17.311H32.563a14.141,14.141,0,0,0-12.9-12.9V2H17.311V4.414a14.141,14.141,0,0,0-12.9,12.9H2v2.356H4.414a14.141,14.141,0,0,0,12.9,12.9v2.414h2.356V32.563a14.141,14.141,0,0,0,12.9-12.9h2.414Zm-15.311,12.9V25.555H17.311v4.652A11.8,11.8,0,0,1,6.77,19.667h4.652V17.311H6.77A11.8,11.8,0,0,1,17.311,6.77v4.652h2.356V6.77A11.8,11.8,0,0,1,30.208,17.311H25.555v2.356h4.652A11.8,11.8,0,0,1,19.667,30.208" transform="translate(59.511 42.511)" fill="currentColor" stroke="currentColor" stroke-width="0.6"/>
  </g>
</svg>
