<svg xmlns="http://www.w3.org/2000/svg" width="50" height="50" viewBox="0 0 50 50">
  <g id="G-035-airport-location" transform="translate(-53 -36)">
    <rect id="area" width="50" height="50" transform="translate(53 36)" fill="none"/>
    <path id="icon" d="M34,16.857H27.063a9.152,9.152,0,0,0-7.92-7.92V2H16.857V8.937a9.152,9.152,0,0,0-7.92,7.92H2v2.286H8.937a9.152,9.152,0,0,0,7.92,7.92V34h2.286V27.063a9.152,9.152,0,0,0,7.92-7.92H34Zm-16,8A6.857,6.857,0,1,1,24.857,18,6.857,6.857,0,0,1,18,24.857" transform="translate(60 43)" fill="currentColor" stroke="currentColor" stroke-width="0.7"/>
  </g>
</svg>
