<svg xmlns="http://www.w3.org/2000/svg" width="50" height="50" viewBox="0 0 50 50">
  <g id="G-038-artboard" transform="translate(-53 -36)">
    <rect id="area" width="50" height="50" transform="translate(53 36)" fill="none"/>
    <path id="icon" d="M11.889,13.667a1.778,1.778,0,0,1,1.778-1.778H24.333a1.778,1.778,0,0,1,1.778,1.778V24.333a1.778,1.778,0,0,1-1.778,1.778H13.667a1.778,1.778,0,0,1-1.778-1.778ZM3,11.889H4.778M3,26.111H4.778M11.889,3V4.778M26.111,3V4.778m7.111,7.111H35M33.222,26.111H35M11.889,33.222V35m14.222-1.778V35" transform="translate(59.5 42.5)" fill="none" stroke="currentColor" stroke-linecap="round" stroke-linejoin="round" stroke-width="3"/>
  </g>
</svg>
