<svg xmlns="http://www.w3.org/2000/svg" width="50" height="50" viewBox="0 0 50 50">
  <g id="G-032-center-circle-crosshair" transform="translate(-53 -36)">
    <rect id="area" width="50" height="50" transform="translate(53 36)" fill="none"/>
    <path id="Path_632" data-name="Path 632" d="M35.865,16.651H33.239A15.378,15.378,0,0,0,19.213,2.626V0H16.651V2.626A15.38,15.38,0,0,0,2.626,16.651H0v2.562H2.626A15.38,15.38,0,0,0,16.651,33.239v2.626h2.562V33.239A15.378,15.378,0,0,0,33.239,19.213h2.626ZM19.213,30.677V26.9H16.651v3.778A12.831,12.831,0,0,1,5.188,19.213H8.966V16.651H5.188A12.831,12.831,0,0,1,16.651,5.188V8.966h2.562V5.188A12.83,12.83,0,0,1,30.677,16.651H26.9v2.562h3.777A12.829,12.829,0,0,1,19.213,30.677M18.076,11.528a6.4,6.4,0,1,0,6.4,6.4,6.4,6.4,0,0,0-6.4-6.4m0,10.247a3.843,3.843,0,1,1,3.843-3.843,3.843,3.843,0,0,1-3.843,3.843" transform="translate(60.068 43.068)" fill="currentColor" stroke="currentColor" stroke-width="0.6"/>
  </g>
</svg>
