<svg xmlns="http://www.w3.org/2000/svg" width="50" height="50" viewBox="0 0 50 50">
  <g id="G-036-corners-in" transform="translate(-53 -36)">
    <rect id="area" width="50" height="50" transform="translate(53 36)" fill="none"/>
    <path id="icon" d="M60.364,50.182V41.455a1.455,1.455,0,1,1,2.909,0v7.273h7.273a1.455,1.455,0,0,1,0,2.909H61.818a1.455,1.455,0,0,1-1.455-1.455M50.182,60.364H41.455a1.455,1.455,0,1,0,0,2.909h7.273v7.273a1.455,1.455,0,1,0,2.909,0V61.818a1.455,1.455,0,0,0-1.455-1.455m20.364,0H61.818a1.455,1.455,0,0,0-1.455,1.455v8.727a1.455,1.455,0,1,0,2.909,0V63.273h7.273a1.455,1.455,0,0,0,0-2.909M50.182,40a1.455,1.455,0,0,0-1.455,1.455v7.273H41.455a1.455,1.455,0,1,0,0,2.909h8.727a1.455,1.455,0,0,0,1.455-1.455V41.455A1.455,1.455,0,0,0,50.182,40" transform="translate(22 5)" fill="currentColor"/>
  </g>
</svg>
