<svg xmlns="http://www.w3.org/2000/svg" width="50" height="50" viewBox="0 0 50 50">
  <g id="G-049-brush-polygon" transform="translate(-53 -36)">
    <rect id="area" width="50" height="50" transform="translate(53 36)" fill="none"/>
    <g id="icon" transform="translate(59.001 42.002)">
      <path id="Path_79" data-name="Path 79" d="M34.576,3.415a4.971,4.971,0,0,0-6.868,0L4.489,26.632A8.444,8.444,0,0,0,2,32.642v3.349H5.347A8.442,8.442,0,0,0,11.357,33.5L34.576,10.284a4.856,4.856,0,0,0,0-6.869ZM12.819,21.736l3.435,3.435-2.577,2.575-3.434-3.434ZM9.639,31.785a6.03,6.03,0,0,1-4.292,1.778H4.429v-.922a6.031,6.031,0,0,1,1.778-4.292L8.526,26.03l3.435,3.434ZM32.861,8.566,17.973,23.453l-3.435-3.434L29.427,5.132a2.486,2.486,0,0,1,3.434,0,2.429,2.429,0,0,1,0,3.434Z" transform="translate(0 0.009)" fill="currentColor" stroke="currentColor" stroke-width="0.5"/>
      <path id="Path_80" data-name="Path 80" d="M16.572,2a3.637,3.637,0,0,0-3.419,2.429H9.062A3.634,3.634,0,1,0,4.429,9.061v4.092a3.643,3.643,0,1,0,2.429,0V9.061a3.638,3.638,0,0,0,2.205-2.2h4.09A3.637,3.637,0,1,0,16.572,2ZM5.643,17.786a1.214,1.214,0,1,1,1.214-1.214A1.214,1.214,0,0,1,5.643,17.786Zm0-10.928A1.214,1.214,0,1,1,6.857,5.643,1.214,1.214,0,0,1,5.643,6.858Zm10.928,0a1.214,1.214,0,1,1,1.214-1.214A1.214,1.214,0,0,1,16.572,6.858Z" fill="currentColor"/>
    </g>
  </g>
</svg>
