<svg xmlns="http://www.w3.org/2000/svg" width="50" height="50" viewBox="0 0 50 50">
  <g id="G-056-drop-water" transform="translate(-53 -36)">
    <rect id="area" width="50" height="50" transform="translate(53 36)" fill="none"/>
    <path id="icon" d="M59.66,13.834a37.293,37.293,0,0,0-6.081-5.619,1.174,1.174,0,0,0-1.347,0,37.294,37.294,0,0,0-6.07,5.619C42.129,18.466,40,23.348,40,27.955a12.911,12.911,0,0,0,25.822,0c0-4.607-2.129-9.49-6.162-14.121M52.911,38.519A10.575,10.575,0,0,1,42.347,27.955c0-8.4,8.138-15.405,10.563-17.312,2.425,1.907,10.563,8.913,10.563,17.312A10.575,10.575,0,0,1,52.911,38.519" transform="translate(25.089 36.566)" fill="currentColor" stroke="currentColor" stroke-width="0.5"/>
  </g>
</svg>
