<svg xmlns="http://www.w3.org/2000/svg" width="50" height="50" viewBox="0 0 50 50">
  <g id="G-055-eyedropper-sample" transform="translate(-53 -36)">
    <rect id="area" width="50" height="50" transform="translate(53 36)" fill="none"/>
    <path id="icon" d="M61.076,37.351a5.426,5.426,0,0,0-1.707-3.89,5.538,5.538,0,0,0-7.674.171l-2.929,2.946a3.638,3.638,0,0,0-5.024.117l-1.364,1.364a2.426,2.426,0,0,0,0,3.432l.3.312L34.95,49.535a6.026,6.026,0,0,0-1.6,5.761L32.14,58.087a2.069,2.069,0,0,0,.435,2.306,2.41,2.41,0,0,0,2.685.509l2.658-1.16a6.049,6.049,0,0,0,5.617-1.63l7.731-7.731.312.312a2.426,2.426,0,0,0,3.429,0l1.364-1.364a3.638,3.638,0,0,0,.112-5.03l2.994-3.012a5.42,5.42,0,0,0,1.6-3.935M41.823,56.407a3.638,3.638,0,0,1-3.638.91,1.213,1.213,0,0,0-.841.047l-2.744,1.2,1.16-2.7a1.213,1.213,0,0,0,.038-.872,3.638,3.638,0,0,1,.015-2.379h9.8Zm6.216-6.215H37.74l6.67-6.67,5.145,5.154Zm9.73-10.612-3.846,3.869a1.213,1.213,0,0,0,0,1.715l.741.74a1.213,1.213,0,0,1,0,1.716L53.3,48.983l-9.2-9.213,1.364-1.364a1.213,1.213,0,0,1,1.715,0l.741.741a1.21,1.21,0,0,0,1.715,0l3.781-3.8a3.1,3.1,0,0,1,4.289-.123,3.032,3.032,0,0,1,.059,4.351Z" transform="translate(31.275 14.24)" fill="currentColor" stroke="currentColor" stroke-width="0.5"/>
  </g>
</svg>
