<svg xmlns="http://www.w3.org/2000/svg" width="50" height="50" viewBox="0 0 50 50">
  <g id="G-052-paint-brush-color-fill" transform="translate(-53 -36)">
    <rect id="area" width="50" height="50" transform="translate(53 36)" fill="none"/>
    <path id="icon" d="M37.733,17.236a4.271,4.271,0,0,0-6.041,0c-.013.013-.027.027-.039.041l-7.329,8.166L23.1,24.214a3.2,3.2,0,0,0-4.531,0L8.331,34.452a1.068,1.068,0,0,0,0,1.51L19.009,46.639a1.068,1.068,0,0,0,1.51,0L30.755,36.408a3.2,3.2,0,0,0,0-4.531l-1.229-1.228,8.166-7.329a.389.389,0,0,0,.041-.04,4.271,4.271,0,0,0,0-6.044M19.762,44.376l-2.226-2.228,2.982-2.983a1.068,1.068,0,0,0-1.51-1.51l-2.983,2.982-1.692-1.692,2.982-2.983a1.068,1.068,0,0,0-1.51-1.51l-2.983,2.982-2.228-2.226,5.965-5.965,9.168,9.168ZM36.241,21.748,28.1,29.055a2.136,2.136,0,0,0-.083,3.1l1.228,1.229a1.068,1.068,0,0,1,0,1.51l-2,2-9.172-9.163,2-2a1.068,1.068,0,0,1,1.51,0l1.229,1.228a2.136,2.136,0,0,0,3.1-.083l7.308-8.142a2.136,2.136,0,0,1,3.019,3.019Z" transform="translate(54.498 29.532)" fill="currentColor" stroke="currentColor" stroke-width="0.6"/>
  </g>
</svg>
