<svg xmlns="http://www.w3.org/2000/svg" width="50" height="50" viewBox="0 0 50 50">
  <g id="G-057-drop-half-bottom-water" transform="translate(-53 -36)">
    <rect id="area" width="50" height="50" transform="translate(53 36)" fill="none"/>
    <path id="Path_918" data-name="Path 918" d="M19.66,5.831A37.272,37.272,0,0,0,13.579.212a1.175,1.175,0,0,0-1.347,0,37.329,37.329,0,0,0-6.07,5.619C2.129,10.463,0,15.345,0,19.952a12.911,12.911,0,0,0,25.822,0c0-4.607-2.129-9.49-6.162-14.121M12.911,30.516A10.575,10.575,0,0,1,2.347,19.952c0-8.4,8.138-15.4,10.563-17.312,2.425,1.907,10.563,8.913,10.563,17.312A10.575,10.575,0,0,1,12.911,30.516" transform="translate(65 44.298)" fill="currentColor" stroke="currentColor" stroke-width="0.5"/>
    <path id="Path_919" data-name="Path 919" d="M1.725,19.092H24.736S25.978,31.826,12.91,31.826,1.725,19.092,1.725,19.092" transform="translate(65 44.298)" fill="currentColor" stroke="currentColor" stroke-width="0.5"/>
  </g>
</svg>
