<svg xmlns="http://www.w3.org/2000/svg" width="50" height="50" viewBox="0 0 50 50">
  <g id="G-054-eyedropper" transform="translate(-53 -36)">
    <rect id="area" width="50" height="50" transform="translate(53 36)" fill="none"/>
    <path id="icon" d="M61.058,37.347a5.422,5.422,0,0,0-1.706-3.887,5.534,5.534,0,0,0-7.669.171l-2.927,2.944a3.636,3.636,0,0,0-5.021.117l-1.363,1.363a2.424,2.424,0,0,0,0,3.43l.3.312L34.95,49.523a6.022,6.022,0,0,0-1.6,5.757l-1.212,2.789a2.072,2.072,0,0,0,.435,2.306,2.412,2.412,0,0,0,2.683.508l2.654-1.159a6.043,6.043,0,0,0,5.614-1.629l7.726-7.726.312.312a2.424,2.424,0,0,0,3.427,0l1.363-1.363a3.636,3.636,0,0,0,.112-5.027l2.992-3.01a5.416,5.416,0,0,0,1.6-3.933M41.819,56.39a3.636,3.636,0,0,1-3.636.909,1.212,1.212,0,0,0-.841.047l-2.742,1.2,1.159-2.7a1.212,1.212,0,0,0,.038-.871,3.618,3.618,0,0,1,.871-3.736l7.726-7.726,5.142,5.151ZM57.745,39.574,53.9,43.44a1.212,1.212,0,0,0,0,1.712l.741.741a1.212,1.212,0,0,1,0,1.715l-1.363,1.363-9.188-9.206L45.454,38.4a1.212,1.212,0,0,1,1.713,0l.741.741a1.212,1.212,0,0,0,1.716,0l3.778-3.8a3.1,3.1,0,0,1,4.286-.123,3.03,3.03,0,0,1,.059,4.348Z" transform="translate(31.283 14.25)" fill="currentColor" stroke="currentColor" stroke-width="0.5"/>
  </g>
</svg>
