<svg xmlns="http://www.w3.org/2000/svg" width="50" height="50" viewBox="0 0 50 50">
  <g id="G-051-scribble-loop" transform="translate(-53 -36)">
    <rect id="area" width="50" height="50" transform="translate(53 36)" fill="none"/>
    <path id="icon" d="M48.873,56.323a24.661,24.661,0,0,0-8.686-5.775,12.154,12.154,0,0,0-2.764-6.823A11.1,11.1,0,0,0,28.664,40c-7.336,0-12.119,6.576-12.318,6.856A1.139,1.139,0,0,0,18.2,48.182c.044-.058,4.317-5.9,10.467-5.9A8.923,8.923,0,0,1,35.7,45.207a9.576,9.576,0,0,1,2.089,4.557,20.06,20.06,0,0,0-5.052-.651,13.8,13.8,0,0,0-9.008,2.8,8.181,8.181,0,0,0-3.039,6.2,6.777,6.777,0,0,0,1.975,4.848,7.607,7.607,0,0,0,5.515,2.093c7.377,0,11.559-6,12.031-12.021a22.986,22.986,0,0,1,6.977,4.811,1.139,1.139,0,0,0,1.689-1.529ZM35.423,59.4a9.036,9.036,0,0,1-7.244,3.379c-3.6,0-5.212-2.342-5.212-4.663,0-3.241,3.057-6.728,9.768-6.728a17.706,17.706,0,0,1,5.237.809,12,12,0,0,1-2.55,7.2" transform="translate(45.731 8.395)" fill="currentColor" stroke="currentColor" stroke-width="0.7"/>
  </g>
</svg>
