<svg xmlns="http://www.w3.org/2000/svg" width="50" height="50" viewBox="0 0 50 50">
  <g id="G-059-view-eye-off-close" transform="translate(-53 -36)">
    <rect id="area" width="50" height="50" transform="translate(53 36)" fill="none"/>
    <g id="icon" transform="translate(60.999 45.132)">
      <path id="Path_352" data-name="Path 352" d="M5.806,24.846l1.621-1.609a15.935,15.935,0,0,1-4.08-5.769c2.3-5.746,8.648-10.2,14.655-10.2a14.031,14.031,0,0,1,4.534.816l1.757-1.768A16.684,16.684,0,0,0,18,5,18.916,18.916,0,0,0,1.068,17.082a1.133,1.133,0,0,0,0,.771,18.134,18.134,0,0,0,4.738,6.993" transform="translate(-1 -1.6)" fill="currentColor" stroke="currentColor" stroke-linecap="round" stroke-width="0.5"/>
      <path id="Path_353" data-name="Path 353" d="M13.334,17.561a4.534,4.534,0,0,1,4.194-4.194l2.051-2.063a6.8,6.8,0,0,0-8.308,8.308ZM34.8,17.482A18.588,18.588,0,0,0,28.295,9.05L33.735,3.6,32.137,2,2,32.137l1.6,1.6,5.78-5.78a17.33,17.33,0,0,0,8.489,2.38A18.916,18.916,0,0,0,34.8,18.253a1.133,1.133,0,0,0,0-.771m-12.4.385a4.534,4.534,0,0,1-6.8,3.9L21.766,15.6a4.534,4.534,0,0,1,.635,2.267m-4.534,10.2a14.791,14.791,0,0,1-6.8-1.791L13.946,23.4a6.8,6.8,0,0,0,9.464-9.464l3.253-3.253a16.48,16.48,0,0,1,5.86,7.186c-2.3,5.746-8.648,10.2-14.655,10.2" transform="translate(-0.867 -2)" fill="currentColor" stroke="currentColor" stroke-linecap="round" stroke-width="0.5"/>
    </g>
  </g>
</svg>
