<svg xmlns="http://www.w3.org/2000/svg" width="50" height="50" viewBox="0 0 50 50">
  <g id="G-053-paint-bucket-fill-color" transform="translate(-53 -36)">
    <rect id="area" width="50" height="50" transform="translate(53 36)" fill="none"/>
    <path id="icon" d="M24,13.623,13.673,3.291,2.567,14.4a2.583,2.583,0,0,0,0,3.616l6.716,6.716a2.5,2.5,0,0,0,3.616,0ZM5.924,2l6.457,6.457M2.05,16.206H21.422m6.457,9.04a2.583,2.583,0,0,1-5.166,0c0-2.066,2.2-3.1,2.583-5.166.387,2.066,2.583,3.1,2.583,5.166" transform="translate(62.672 46.5)" fill="none" stroke="currentColor" stroke-linecap="round" stroke-linejoin="round" stroke-width="2.6"/>
  </g>
</svg>
