<svg xmlns="http://www.w3.org/2000/svg" width="50" height="50" viewBox="0 0 50 50">
  <g id="G-050-brush-freehand" transform="translate(-53 -36)">
    <rect id="area" width="50" height="50" transform="translate(53 36)" fill="none"/>
    <g id="icon" transform="translate(59.103 42.5)">
      <path id="Path_77" data-name="Path 77" d="M34.379,3.407a4.941,4.941,0,0,0-6.826,0L4.474,26.483A8.393,8.393,0,0,0,2,32.457v3.329H5.326A8.39,8.39,0,0,0,11.3,33.311L34.379,10.234a4.826,4.826,0,0,0,0-6.827ZM12.754,21.616l3.414,3.414-2.561,2.56-3.413-3.413ZM9.593,31.6a5.993,5.993,0,0,1-4.266,1.767H4.414v-.916a6,6,0,0,1,1.767-4.266l2.305-2.305L11.9,29.3ZM32.674,8.526l-14.8,14.8L14.461,19.91l14.8-14.8a2.471,2.471,0,0,1,3.413,0,2.414,2.414,0,0,1,0,3.413Z" transform="translate(0 0.215)" fill="currentColor" stroke="currentColor" stroke-width="0.5"/>
      <path id="Path_78" data-name="Path 78" d="M7.431,17.9a4.224,4.224,0,0,1-2.987-7.21L8.668,6.462a1.813,1.813,0,0,0,0-2.56,1.855,1.855,0,0,0-2.56,0l-2.4,2.4L2,4.6,4.4,2.2a4.327,4.327,0,0,1,5.974,0,4.229,4.229,0,0,1,0,5.973L6.151,12.393a1.813,1.813,0,0,0,0,2.56,1.855,1.855,0,0,0,2.561,0L13.568,10.1,15.276,11.8l-4.858,4.857A4.194,4.194,0,0,1,7.431,17.9Z" transform="translate(0 0)" fill="currentColor" stroke="currentColor" stroke-width="0.5"/>
    </g>
  </g>
</svg>
