<svg xmlns="http://www.w3.org/2000/svg" width="50" height="50" viewBox="0 0 50 50">
  <g id="G-061-palette-color" transform="translate(-53 -36)">
    <rect id="area" width="50" height="50" transform="translate(53 36)" fill="none"/>
    <path id="icon" d="M52.148,28.76A16.444,16.444,0,0,0,40.561,24h-.17A16.561,16.561,0,0,0,24,40.561c0,6.847,4.233,12.589,11.045,15a5.1,5.1,0,0,0,6.79-4.8A2.548,2.548,0,0,1,44.382,48.2h7.358a5.065,5.065,0,0,0,4.968-3.962,16.629,16.629,0,0,0,.412-3.822A16.446,16.446,0,0,0,52.148,28.76m2.07,14.922a2.53,2.53,0,0,1-2.478,1.975H44.382a5.1,5.1,0,0,0-5.1,5.1,2.548,2.548,0,0,1-3.393,2.4c-5.764-2.033-9.346-6.858-9.346-12.591A14.013,14.013,0,0,1,40.416,26.548h.143A14.029,14.029,0,0,1,54.225,43.682ZM42.471,32.28a1.911,1.911,0,1,1-1.911-1.911,1.911,1.911,0,0,1,1.911,1.911M35.465,36.1a1.911,1.911,0,1,1-1.911-1.911A1.911,1.911,0,0,1,35.465,36.1m0,8.917a1.911,1.911,0,1,1-1.911-1.911,1.911,1.911,0,0,1,1.911,1.911M49.478,36.1a1.911,1.911,0,1,1-1.911-1.911A1.911,1.911,0,0,1,49.478,36.1" transform="translate(37.439 21.077)" fill="currentColor" stroke="currentColor" stroke-width="0.25"/>
  </g>
</svg>
