<svg xmlns="http://www.w3.org/2000/svg" width="50" height="50" viewBox="0 0 50 50">
  <g id="G-060-eye-view-off-close" transform="translate(-53 -36)">
    <rect id="area" width="50" height="50" transform="translate(53 36)" fill="none"/>
    <path id="icon" d="M54.556,107.556a1.208,1.208,0,0,1-1.648-.453l-2.868-5.012a18.6,18.6,0,0,1-5.446,2.515l.886,5.317a1.208,1.208,0,0,1-.993,1.39,1.267,1.267,0,0,1-.195.017,1.208,1.208,0,0,1-1.19-1.01l-.871-5.22a20.086,20.086,0,0,1-5.537,0l-.871,5.22a1.208,1.208,0,0,1-1.193,1.01,1.269,1.269,0,0,1-.2-.017,1.208,1.208,0,0,1-.993-1.39l.891-5.317a18.6,18.6,0,0,1-5.443-2.519L26.026,107.1a1.213,1.213,0,1,1-2.1-1.208l3.019-5.283a23.166,23.166,0,0,1-2.913-3.019,1.208,1.208,0,1,1,1.881-1.51,16.916,16.916,0,0,0,27.105,0,1.208,1.208,0,1,1,1.878,1.51,23.168,23.168,0,0,1-2.913,3.019L55,105.9a1.208,1.208,0,0,1-.441,1.66" transform="translate(38.534 -42.447)" fill="currentColor" stroke="currentColor" stroke-width="0.5"/>
  </g>
</svg>
