<svg xmlns="http://www.w3.org/2000/svg" width="50" height="50" viewBox="0 0 50 50">
  <g id="G-065-scissors-cut" transform="translate(-53 -36)">
    <rect id="area" width="50" height="50" transform="translate(53 36)" fill="none"/>
    <g id="Group_212" data-name="Group 212" transform="translate(61.07 44.113)">
      <path id="Path_920" data-name="Path 920" d="M30.386,21.511l-8.022-4.652,8.022-4.652A6.407,6.407,0,0,0,28.835.417,6.669,6.669,0,0,0,27.183.2,6.421,6.421,0,0,0,24.7,12.541l-4.9,2.832L1.553,4.813.272,7.043l16.967,9.816L.272,26.7l1.281,2.23L19.8,18.346l4.9,2.832a6.417,6.417,0,0,0,2.486,12.341,6.631,6.631,0,0,0,1.653-.218,6.407,6.407,0,0,0,1.551-11.79M23.851,8.568a3.844,3.844,0,1,1,2.335,1.794,3.844,3.844,0,0,1-2.335-1.794m7.176,18.69a3.844,3.844,0,1,1,0-.024Z" fill="currentColor"/>
      <path id="Path_921" data-name="Path 921" d="M30.386,21.511l-8.022-4.652,8.022-4.652A6.407,6.407,0,0,0,28.835.417,6.669,6.669,0,0,0,27.183.2,6.421,6.421,0,0,0,24.7,12.541l-4.9,2.832L1.553,4.813.272,7.043l16.967,9.816L.272,26.7l1.281,2.23L19.8,18.346l4.9,2.832a6.417,6.417,0,0,0,2.486,12.341,6.631,6.631,0,0,0,1.653-.218,6.407,6.407,0,0,0,1.551-11.79M23.851,8.568a3.844,3.844,0,1,1,2.335,1.794,3.844,3.844,0,0,1-2.335-1.794m7.176,18.69a3.844,3.844,0,1,1,0-.024Z" fill="none" stroke="currentColor" stroke-width="0.4"/>
    </g>
  </g>
</svg>
