<svg xmlns="http://www.w3.org/2000/svg" width="50" height="50" viewBox="0 0 50 50">
  <g id="G-064-magnet-snap" transform="translate(-53 -36)">
    <rect id="area" width="50" height="50" transform="translate(53 36)" fill="none"/>
    <path id="icon" d="M45.578,28.066A13.549,13.549,0,0,0,35.912,24H35.86a13.552,13.552,0,0,0-9.647,4L16.7,37.632a2.479,2.479,0,0,0,.009,3.495l4.44,4.44a2.466,2.466,0,0,0,1.754.727h.014a2.479,2.479,0,0,0,1.76-.747l9.434-9.667a2.491,2.491,0,0,1,3.472-.033,2.417,2.417,0,0,1,.733,1.734,2.617,2.617,0,0,1-.751,1.859l-9.65,9.328a2.479,2.479,0,0,0-.026,3.531l4.44,4.44a2.488,2.488,0,0,0,3.489.019l9.574-9.365a13.76,13.76,0,0,0,.184-19.326M22.906,43.812l-4.438-4.438,3.687-3.737,4.418,4.418ZM34.082,54.983l-4.443-4.438,3.777-3.651,4.417,4.421ZM43.65,45.62,39.6,49.577l-4.406-4.4,4.1-3.961.015-.014a5.112,5.112,0,0,0,1.483-3.641A4.871,4.871,0,0,0,39.3,34.069a4.988,4.988,0,0,0-6.956.077L28.3,38.28,23.89,33.874l4.082-4.129a11.078,11.078,0,0,1,7.888-3.267H35.9a11.084,11.084,0,0,1,7.909,3.328,11.261,11.261,0,0,1-.161,15.817Z" transform="translate(45.281 20.269)" fill="currentColor" stroke="currentColor" stroke-width="0.5"/>
  </g>
</svg>
