<svg xmlns="http://www.w3.org/2000/svg" width="50" height="50" viewBox="0 0 50 50">
  <g id="G-069-lock" transform="translate(-53 -36)">
    <rect id="area" width="50" height="50" transform="translate(53 36)" fill="none"/>
    <g id="icon" transform="translate(64.8 44.457)">
      <path id="Path_627" data-name="Path 627" d="M1.25,16.566a3.344,3.344,0,0,1,3.338-3.338H21.275a3.344,3.344,0,0,1,3.338,3.338V26.579a3.344,3.344,0,0,1-3.338,3.338H4.588A3.344,3.344,0,0,1,1.25,26.578Z" transform="translate(0 1.372)" fill="none" stroke="currentColor" stroke-linecap="round" stroke-linejoin="round" stroke-width="3"/>
      <path id="Path_628" data-name="Path 628" d="M5.742,14.6V7.925a6.675,6.675,0,0,1,13.35,0V14.6" transform="translate(0.514)" fill="none" stroke="currentColor" stroke-linecap="round" stroke-linejoin="round" stroke-width="3"/>
      <path id="Path_630" data-name="Path 630" d="M10.234,20.887a1.672,1.672,0,1,0,1.672-1.672,1.672,1.672,0,0,0-1.672,1.672" transform="translate(1.029 2.057)" fill="none" stroke="currentColor" stroke-linecap="round" stroke-linejoin="round" stroke-width="3"/>
      <path id="Path_629" data-name="Path 629" d="M10.234,20.887a1.672,1.672,0,1,0,1.672-1.672,1.672,1.672,0,0,0-1.672,1.672" transform="translate(1.029 2.057)" fill="currentColor"/>
    </g>
  </g>
</svg>
