<svg xmlns="http://www.w3.org/2000/svg" width="50" height="50" viewBox="0 0 50 50">
  <g id="G-076-contrast" transform="translate(-53 -36)">
    <rect id="area" width="50" height="50" transform="translate(53 36)" fill="none"/>
    <path id="icon" d="M34.368,13.637a16.083,16.083,0,0,0-1.254-2.968,16.757,16.757,0,0,0-2.85-3.82,16.556,16.556,0,1,0,0,23.415,16.758,16.758,0,0,0,2.85-3.82,16.083,16.083,0,0,0,1.254-2.968,16.556,16.556,0,0,0,0-9.839m-30,4.92A14.191,14.191,0,0,1,18.556,4.365V32.748A14.191,14.191,0,0,1,4.365,18.556" transform="translate(59.443 42.444)" fill="currentColor"/>
  </g>
</svg>
