<svg xmlns="http://www.w3.org/2000/svg" width="50" height="50" viewBox="0 0 50 50">
  <g id="G-081-slider-control-tune-adjust-settings" transform="translate(-53 -36)">
    <rect id="area" width="50" height="50" transform="translate(53 36)" fill="none"/>
    <path id="icon" d="M27.735,35.229V30.363a5.935,5.935,0,0,0,0-11.63V2H25.361V18.733a5.935,5.935,0,0,0,0,11.63v4.866ZM22.988,24.548a3.56,3.56,0,1,1,3.56,3.56,3.5,3.5,0,0,1-3.56-3.56M8.747,2V6.866a5.935,5.935,0,0,0,0,11.63V35.229H11.12V18.5a5.935,5.935,0,0,0,0-11.63V2Zm4.747,10.681a3.5,3.5,0,0,1-3.56,3.56,3.5,3.5,0,0,1-3.56-3.56,3.5,3.5,0,0,1,3.56-3.56,3.5,3.5,0,0,1,3.56,3.56" transform="translate(59.759 42.386)" fill="currentColor" stroke="currentColor" stroke-width="0.5"/>
  </g>
</svg>
