<svg xmlns="http://www.w3.org/2000/svg" width="50" height="50" viewBox="0 0 50 50">
  <g id="G-085-arrow-autofit-content" transform="translate(-53 -36)">
    <rect id="area" width="50" height="50" transform="translate(53 36)" fill="none"/>
    <path id="icon" d="M8.455,4,3,9.455,8.455,14.91M30.276,4l5.455,5.455L30.276,14.91M4.818,25.821a3.637,3.637,0,0,1,3.637-3.637H30.276a3.637,3.637,0,0,1,3.637,3.637v3.637a3.637,3.637,0,0,1-3.637,3.637H8.455a3.637,3.637,0,0,1-3.637-3.637ZM15.729,9.455H3m32.731,0H23" transform="translate(58.634 42.453)" fill="none" stroke="currentColor" stroke-linecap="round" stroke-linejoin="round" stroke-width="3"/>
  </g>
</svg>
