<svg xmlns="http://www.w3.org/2000/svg" width="50" height="50" viewBox="0 0 50 50">
  <g id="G-083-slider-control-tune-adjust-audio" transform="translate(-53 -36)">
    <rect id="area" width="50" height="50" transform="translate(53 36)" fill="none"/>
    <path id="icon" d="M32.775,16.209H31.592V2.005H29.224v14.2H28.041a2.37,2.37,0,0,0-2.367,2.367v2.367a2.37,2.37,0,0,0,2.367,2.367h1.184V35.148h2.367V23.311h1.184a2.371,2.371,0,0,0,2.367-2.367V18.576a2.37,2.37,0,0,0-2.367-2.367m0,4.735H28.041V18.576h4.735ZM20.939,6.74H19.755V2.005H17.388V6.74H16.2a2.37,2.37,0,0,0-2.367,2.367v2.367A2.37,2.37,0,0,0,16.2,13.842h1.184V35.148h2.367V13.842h1.184a2.37,2.37,0,0,0,2.367-2.367V9.107A2.37,2.37,0,0,0,20.939,6.74m0,4.735H16.2V9.107h4.735ZM9.1,23.311H7.918V2.005H5.551V23.311H4.367A2.37,2.37,0,0,0,2,25.678v2.367a2.37,2.37,0,0,0,2.367,2.367H5.551v4.735H7.918V30.413H9.1a2.37,2.37,0,0,0,2.367-2.367V25.678A2.37,2.37,0,0,0,9.1,23.311m0,4.735H4.367V25.678H9.1Z" transform="translate(59.429 42.424)" fill="currentColor" stroke="currentColor" stroke-width="0.5"/>
  </g>
</svg>
