<svg xmlns="http://www.w3.org/2000/svg" width="50" height="50" viewBox="0 0 50 50">
  <g id="G-092-fit-to-height" transform="translate(-53 -36)">
    <rect id="area" width="50" height="50" transform="translate(53 36)" fill="none"/>
    <g id="icon" transform="translate(61.185 44.185)">
      <path id="Path_209" data-name="Path 209" d="M11,10.985l1.688,1.688,3.1-3.088V26.749l-3.1-3.088L11,25.349l5.985,5.985,5.985-5.985-1.688-1.688-3.1,3.088V9.584l3.1,3.088,1.688-1.688L16.985,5Z" transform="translate(-0.227 -1.409)" fill="currentColor" stroke="currentColor" stroke-width="0.5"/>
      <path id="Path_210" data-name="Path 210" d="M33.122,35.516H4.394A2.4,2.4,0,0,1,2,33.122V4.394A2.4,2.4,0,0,1,4.394,2H33.122a2.4,2.4,0,0,1,2.394,2.394V33.122a2.4,2.4,0,0,1-2.394,2.394M4.394,4.394V33.122H33.122V4.394Z" transform="translate(-2 -2)" fill="currentColor" stroke="currentColor" stroke-width="0.5"/>
    </g>
  </g>
</svg>
