<svg xmlns="http://www.w3.org/2000/svg" width="50" height="50" viewBox="0 0 50 50">
  <g id="G-108-carousel-vertical" transform="translate(-53 -36)">
    <rect id="area" width="50" height="50" transform="translate(53 36)" fill="none"/>
    <path id="icon" d="M33,14V30a2,2,0,0,1-2,2H7a2,2,0,0,1-2-2V14a2,2,0,0,1,2-2H31a2,2,0,0,1,2,2M9,42V40a2,2,0,0,1,2-2H27a2,2,0,0,1,2,2v2M29,2V4a2,2,0,0,1-2,2H11A2,2,0,0,1,9,4V2" transform="translate(59 39)" fill="none" stroke="currentColor" stroke-linecap="round" stroke-linejoin="round" stroke-width="3"/>
  </g>
</svg>
