<svg xmlns="http://www.w3.org/2000/svg" width="50" height="50" viewBox="0 0 50 50">
  <g id="G-111-airplay" transform="translate(-53 -36)">
    <rect id="area" width="50" height="50" transform="translate(53 36)" fill="none"/>
    <g id="icon" transform="translate(61.443 45.483)">
      <path id="Path_34" data-name="Path 34" d="M25.811,32.253H9.192a1.19,1.19,0,0,1-.975-1.873l8.312-11.873a1.188,1.188,0,0,1,1.946,0L26.786,30.38a1.19,1.19,0,0,1-.974,1.873M11.468,29.877H23.536L17.5,21.259Z" transform="translate(-0.873 -1.371)" fill="currentColor" stroke="currentColor" stroke-width="0.6"/>
      <path id="Path_35" data-name="Path 35" d="M32.882,27.755H28.131V25.38h4.751v-19H4.376v19H9.127v2.376H4.376A2.378,2.378,0,0,1,2,25.38v-19A2.378,2.378,0,0,1,4.376,4H32.882a2.378,2.378,0,0,1,2.376,2.376v19a2.378,2.378,0,0,1-2.376,2.376" transform="translate(-2 -4)" fill="currentColor" stroke="currentColor" stroke-width="0.6"/>
    </g>
  </g>
</svg>
