<svg xmlns="http://www.w3.org/2000/svg" width="50" height="50" viewBox="0 0 50 50">
  <g id="G-117-panorama-horizontal" transform="translate(-53 -36)">
    <rect id="area" width="50" height="50" transform="translate(53 36)" fill="none"/>
    <path id="icon" d="M35,3.156V30.492l-1.989-.6h0l-.014,0-.059-.017q-.594-.173-1.193-.325-1.7-.435-3.42-.777A54.183,54.183,0,0,0,18,27.642,54.443,54.443,0,0,0,7.678,28.77q-2.2.441-4.369,1.032l-.244.071-.059.015-.015.006L1,30.492V3.156l1.989.6h0l.014,0,.059.019.244.07q2.166.591,4.369,1.032A54.442,54.442,0,0,0,18,6.006,54.317,54.317,0,0,0,28.322,4.878q2.2-.441,4.369-1.032l.244-.07.059-.019.015,0ZM31.909,7.244c-.8.2-1.816.431-2.981.665A57.356,57.356,0,0,1,18,9.1,57.222,57.222,0,0,1,7.072,7.907c-1.165-.232-2.179-.465-2.981-.663V26.4q1.483-.365,2.981-.665A57.608,57.608,0,0,1,18,24.551a57.347,57.347,0,0,1,10.928,1.19c1.165.232,2.179.465,2.981.665Z" transform="translate(60 44.04)" fill="currentColor"/>
  </g>
</svg>
