<svg xmlns="http://www.w3.org/2000/svg" width="50" height="50" viewBox="0 0 50 50">
  <g id="G-125-idea-bulb" transform="translate(-53 -36)">
    <rect id="area" width="50" height="50" transform="translate(53 36)" fill="none"/>
    <path id="icon" d="M11.963,28.229H23.885v2.384H11.963ZM14.348,33H21.5v2.384H14.348ZM17.924,2A11.922,11.922,0,0,0,6,13.922a10.957,10.957,0,0,0,4.125,9.085c1.192,1.109,1.836,1.741,1.836,2.838h2.384c0-2.194-1.323-3.422-2.611-4.6a8.584,8.584,0,0,1-3.35-7.32,9.538,9.538,0,0,1,19.076,0,8.584,8.584,0,0,1-3.362,7.32c-1.276,1.192-2.6,2.384-2.6,4.6h2.384c0-1.1.632-1.729,1.836-2.849a10.945,10.945,0,0,0,4.125-9.073A11.922,11.922,0,0,0,17.924,2" transform="translate(61.076 42.309)" fill="currentColor" stroke="currentColor" stroke-width="0.5"/>
  </g>
</svg>
