<svg xmlns="http://www.w3.org/2000/svg" width="50" height="50" viewBox="0 0 50 50">
  <g id="G-128-idea-bulb-data" transform="translate(-53 -36)">
    <rect id="area" width="50" height="50" transform="translate(53 36)" fill="none"/>
    <path id="icon" d="M32.4,15.2h2.339V17.54H32.4ZM27.465,5.609l1.653-1.655,1.653,1.655L29.119,7.263ZM17.2,0H19.54V2.339H17.2ZM7.622,7.29,5.969,5.635,7.622,3.982,9.276,5.636ZM2,15.2H4.339V17.54H2ZM14.863,35.08h7.016v2.339H14.863ZM12.524,30.4H24.217v2.339H12.524ZM18.37,4.677A11.728,11.728,0,0,0,6.677,16.37a10.494,10.494,0,0,0,4.093,8.887c1.169,1.052,1.754,1.754,1.754,2.806h2.339c0-2.1-1.286-3.391-2.573-4.56A8.161,8.161,0,0,1,9.016,16.37a9.355,9.355,0,0,1,18.709,0A8.161,8.161,0,0,1,24.451,23.5c-1.286,1.169-2.573,2.339-2.573,4.56h2.339c0-1.052.585-1.754,1.754-2.806a10.494,10.494,0,0,0,4.093-8.887A11.728,11.728,0,0,0,18.37,4.677" transform="translate(59.63 40.277)" fill="currentColor" stroke="currentColor" stroke-width="0.5"/>
  </g>
</svg>
