<svg xmlns="http://www.w3.org/2000/svg" width="50" height="50" viewBox="0 0 50 50">
  <g id="G-127-idea-bulb-status-failed" transform="translate(-53 -36)">
    <rect id="area" width="50" height="50" transform="translate(53 36)" fill="none"/>
    <g id="icon" transform="translate(63.747 44.379)">
      <path id="Path_29" data-name="Path 29" d="M11,24H22.872v2.374H11Z" transform="translate(-5.052 2.119)" fill="currentColor" stroke="currentColor" stroke-width="0.5"/>
      <path id="Path_30" data-name="Path 30" d="M13,28h7.123v2.374H13Z" transform="translate(-4.678 2.868)" fill="currentColor" stroke="currentColor" stroke-width="0.5"/>
      <path id="Path_31" data-name="Path 31" d="M11.718,21.162a8.53,8.53,0,0,1-3.342-7.29,9.51,9.51,0,0,1,9.5-9.5V2A11.885,11.885,0,0,0,6,13.872a10.9,10.9,0,0,0,4.108,9.042c1.2,1.11,1.828,1.739,1.828,2.83h2.374c0-2.184-1.318-3.4-2.594-4.583Z" transform="translate(-5.99 -2)" fill="currentColor" stroke="currentColor" stroke-width="0.5"/>
      <path id="Path_32" data-name="Path 32" d="M24.7,14a8.643,8.643,0,0,1-3.113,4.919C20.314,20.1,19,21.313,19,23.5h2.374c0-1.092.624-1.721,1.822-2.833A10.855,10.855,0,0,0,27.121,14Z" transform="translate(-3.554 0.247)" fill="currentColor" stroke="currentColor" stroke-width="0.5"/>
      <path id="Path_33" data-name="Path 33" d="M31.872,3.674,30.2,2,25.936,6.262,21.674,2,20,3.674l4.262,4.262L20,12.2l1.674,1.674L25.936,9.61,30.2,13.872,31.872,12.2,27.61,7.936Z" transform="translate(-3.367 -2)" fill="currentColor" stroke="currentColor" stroke-width="0.5"/>
    </g>
  </g>
</svg>
