<svg xmlns="http://www.w3.org/2000/svg" width="50" height="50" viewBox="0 0 50 50">
  <g id="G-124-notification-bell-ring-new" transform="translate(-53 -36)">
    <rect id="area" width="50" height="50" transform="translate(53 36)" fill="none"/>
    <path id="Path_922" data-name="Path 922" d="M32.152,14.861V30.9a2.8,2.8,0,0,1-2.8,2.8H2.8A2.8,2.8,0,0,1,0,30.9V4.336a2.8,2.8,0,0,1,2.8-2.8H18.831a1.4,1.4,0,1,1,0,2.8H2.8V30.9h26.56V14.861a1.4,1.4,0,0,1,2.8,0v0M28.657,0a5.032,5.032,0,1,0,3.561,1.475A5.034,5.034,0,0,0,28.657,0" transform="translate(61.31 44.154)" fill="currentColor" stroke="currentColor" stroke-width="0.2"/>
  </g>
</svg>
