<svg xmlns="http://www.w3.org/2000/svg" width="50" height="50" viewBox="0 0 50 50">
  <g id="G-122-notification-bell-ring" transform="translate(-53 -36)">
    <rect id="area" width="50" height="50" transform="translate(53 36)" fill="none"/>
    <path id="icon" d="M32.192,21.773,29.118,18.7V14.627A11.372,11.372,0,0,0,18.9,3.328V1H16.627V3.328a11.372,11.372,0,0,0-10.22,11.3V18.7L3.333,21.773a1.136,1.136,0,0,0-.333.8v3.407a1.136,1.136,0,0,0,1.136,1.136h7.949V28a5.85,5.85,0,0,0,5.11,5.9,5.685,5.685,0,0,0,6.246-5.651V27.118h7.949a1.136,1.136,0,0,0,1.136-1.136V22.576a1.135,1.135,0,0,0-.333-.8M21.169,28.254a3.407,3.407,0,0,1-6.813,0V27.118h6.813Zm9.085-3.407H5.271v-1.8l3.074-3.074a1.136,1.136,0,0,0,.333-.8V14.627a9.085,9.085,0,0,1,18.169,0v4.542a1.135,1.135,0,0,0,.333.8l3.074,3.074Z" transform="translate(60.237 43.534)" fill="currentColor" stroke="currentColor" stroke-width="0.7"/>
  </g>
</svg>
