<svg xmlns="http://www.w3.org/2000/svg" width="50" height="50" viewBox="0 0 50 50">
  <g id="G-129-idea-bulb-data-add" transform="translate(-53 -36)">
    <rect id="area" width="50" height="50" transform="translate(53 36)" fill="none"/>
    <g id="icon" transform="translate(61.582 40.2)">
      <path id="Path_153" data-name="Path 153" d="M32.49,15.245h2.345V17.59H32.49ZM27.539,5.625,29.2,3.966l1.658,1.659L29.2,7.284ZM17.245,0H19.59V2.345H17.245ZM7.638,7.31,5.98,5.651,7.638,3.993,9.3,5.652ZM2,15.245H4.345V17.59H2Zm21.108,0H19.59V11.727H17.245v3.518H13.727V17.59h3.518v3.518H19.59V17.59h3.518ZM14.9,35.18h7.036v2.345H14.9ZM12.554,30.49H24.281v2.345H12.554Z" transform="translate(-2)" fill="currentColor" stroke="currentColor" stroke-width="0.5"/>
      <path id="Path_154" data-name="Path 154" d="M17.727,4A11.761,11.761,0,0,0,6,15.727a10.524,10.524,0,0,0,4.1,8.912c1.173,1.055,1.759,1.759,1.759,2.814h2.345c0-2.111-1.29-3.4-2.58-4.573a8.184,8.184,0,0,1-3.284-7.153,9.381,9.381,0,0,1,18.763,0,8.184,8.184,0,0,1-3.284,7.153c-1.29,1.173-2.58,2.345-2.58,4.573H23.59c0-1.055.586-1.759,1.759-2.814a10.524,10.524,0,0,0,4.1-8.912A11.761,11.761,0,0,0,17.727,4" transform="translate(-1.309 0.691)" fill="currentColor" stroke="currentColor" stroke-width="0.5"/>
    </g>
  </g>
</svg>
