<svg xmlns="http://www.w3.org/2000/svg" width="50" height="50" viewBox="0 0 50 50">
  <g id="G-126-idea-bulb-status-complete-check" transform="translate(-53 -36)">
    <rect id="area" width="50" height="50" transform="translate(53 36)" fill="none"/>
    <g id="icon" transform="translate(63.75 44.382)">
      <path id="Path_24" data-name="Path 24" d="M11,24H22.87v2.374H11Z" transform="translate(-5.053 2.114)" fill="currentColor" stroke="currentColor" stroke-width="0.5"/>
      <path id="Path_25" data-name="Path 25" d="M13,28h7.122v2.374H13Z" transform="translate(-4.679 2.862)" fill="currentColor" stroke="currentColor" stroke-width="0.5"/>
      <path id="Path_26" data-name="Path 26" d="M11.717,21.158A8.528,8.528,0,0,1,8.376,13.87a9.508,9.508,0,0,1,9.5-9.5V2A11.883,11.883,0,0,0,6,13.87a10.9,10.9,0,0,0,4.107,9.04c1.2,1.11,1.828,1.739,1.828,2.83h2.374C14.311,23.556,12.993,22.338,11.717,21.158Z" transform="translate(-5.99 -2)" fill="currentColor" stroke="currentColor" stroke-width="0.5"/>
      <path id="Path_27" data-name="Path 27" d="M21.935,11.009,17.674,6.748,16,8.422l5.935,5.935L32.618,3.674,30.944,2Z" transform="translate(-4.118 -2)" fill="currentColor" stroke="currentColor" stroke-width="0.5"/>
      <path id="Path_28" data-name="Path 28" d="M24.7,14a8.641,8.641,0,0,1-3.112,4.918C20.314,20.1,19,21.312,19,23.5h2.374c0-1.092.624-1.721,1.822-2.832A10.853,10.853,0,0,0,27.119,14Z" transform="translate(-3.557 0.244)" fill="currentColor" stroke="currentColor" stroke-width="0.5"/>
    </g>
  </g>
</svg>
