<svg xmlns="http://www.w3.org/2000/svg" width="50" height="50" viewBox="0 0 50 50">
  <g id="G-121-chat-speech-bubble" transform="translate(-53 -36)">
    <rect id="area" width="50" height="50" transform="translate(53 36)" fill="none"/>
    <g id="icon" transform="translate(62 46)">
      <path id="Path_110" data-name="Path 110" d="M20.652,34.81,18.59,33.625l4.74-8.295h7.11a2.37,2.37,0,0,0,2.37-2.37V8.74a2.37,2.37,0,0,0-2.37-2.37H6.74A2.37,2.37,0,0,0,4.37,8.74V22.96a2.37,2.37,0,0,0,2.37,2.37H17.4V27.7H6.74A4.74,4.74,0,0,1,2,22.96V8.74A4.74,4.74,0,0,1,6.74,4h23.7a4.74,4.74,0,0,1,4.74,4.74V22.96a4.74,4.74,0,0,1-4.74,4.74H24.7Z" transform="translate(-2.6 -4)" fill="currentColor" stroke="currentColor" stroke-width="0.6"/>
      <path id="Path_111" data-name="Path 111" d="M8,10H26.96v2.37H8Zm0,7.11H19.85v2.37H8Z" transform="translate(-1.49 -2.89)" fill="currentColor" stroke="currentColor" stroke-width="0.6"/>
    </g>
  </g>
</svg>
