<svg xmlns="http://www.w3.org/2000/svg" width="50" height="50" viewBox="0 0 50 50">
  <g id="G-123-notification-bell-ring-new" transform="translate(-53 -36)">
    <rect id="area" width="50" height="50" transform="translate(53 36)" fill="none"/>
    <g id="carbon-notification-new" transform="translate(62.51 44.424)">
      <path id="Path_286" data-name="Path 286" d="M29.292,18.817V15.861H27.006V19.29a1.143,1.143,0,0,0,.335.808l3.095,3.095v1.813H5.286V23.193L8.381,20.1a1.143,1.143,0,0,0,.335-.808V14.718A9.128,9.128,0,0,1,22.433,6.811V4.253A11.313,11.313,0,0,0,19,3.343V1H16.718V3.343A11.447,11.447,0,0,0,6.429,14.718v4.1L3.335,21.912A1.143,1.143,0,0,0,3,22.72v3.429a1.143,1.143,0,0,0,1.143,1.143h8v1.143a5.716,5.716,0,0,0,11.431,0V27.292h8a1.143,1.143,0,0,0,1.143-1.143V22.72a1.143,1.143,0,0,0-.335-.808Zm-8,9.618a3.429,3.429,0,1,1-6.859,0V27.292H21.29Z" transform="translate(-3 -1)" fill="currentColor" stroke="currentColor" stroke-width="0.7"/>
      <circle id="Ellipse_23" data-name="Ellipse 23" cx="4.573" cy="4.573" r="4.573" transform="translate(22.211 3.429)" fill="currentColor"/>
    </g>
  </g>
</svg>
