<svg xmlns="http://www.w3.org/2000/svg" width="50" height="50" viewBox="0 0 50 50">
  <g id="G-131-warning-triangle" transform="translate(-53 -36)">
    <rect id="area" width="50" height="50" transform="translate(53 36)" fill="none"/>
    <g id="icon" transform="translate(61 44.554)">
      <path id="Path_358" data-name="Path 358" d="M16.327,25.4a1.827,1.827,0,1,0,1.827,1.827A1.827,1.827,0,0,0,16.327,25.4M15.109,12h2.437V22.965H15.109Z" transform="translate(0.728 -1.036)" fill="currentColor" stroke="currentColor" stroke-width="0.5"/>
      <path id="Path_359" data-name="Path 359" d="M34.894,35.894H3.218a1.218,1.218,0,0,1-1.081-1.78L17.975,3.656a1.218,1.218,0,0,1,2.161,0L35.974,34.114a1.218,1.218,0,0,1-1.081,1.78M5.228,33.457H32.883v0L19.058,6.862h0L5.226,33.453Z" transform="translate(-2 -3.001)" fill="currentColor" stroke="currentColor" stroke-width="0.5"/>
    </g>
  </g>
</svg>
