<svg xmlns="http://www.w3.org/2000/svg" width="50" height="50" viewBox="0 0 50 50">
  <g id="G-130-warning-circle" transform="translate(-53 -36)">
    <rect id="area" width="50" height="50" transform="translate(53 36)" fill="none"/>
    <g id="icon" transform="translate(61.318 44.318)">
      <path id="Path_366" data-name="Path 366" d="M18.682,2A16.682,16.682,0,1,0,35.364,18.682,16.682,16.682,0,0,0,18.682,2m0,30.981a14.3,14.3,0,1,1,14.3-14.3,14.3,14.3,0,0,1-14.3,14.3" transform="translate(-2 -2)" fill="currentColor" stroke="currentColor" stroke-width="0.5"/>
      <path id="Path_367" data-name="Path 367" d="M15.1,8h2.383V21.107H15.1Zm1.192,16.682a1.787,1.787,0,1,0,1.787,1.787,1.787,1.787,0,0,0-1.787-1.787" transform="translate(0.395 -0.851)" fill="currentColor" stroke="currentColor" stroke-width="0.5"/>
    </g>
  </g>
</svg>
