<svg xmlns="http://www.w3.org/2000/svg" width="50" height="50" viewBox="0 0 50 50">
  <g id="G-147-mac-command-system-key" transform="translate(-53 -36)">
    <rect id="area" width="50" height="50" transform="translate(53 36)" fill="none"/>
    <path id="icon" d="M31.507,16.378a5.5,5.5,0,0,0,5.5-5.5V9.5a5.5,5.5,0,0,0-5.5-5.5H30.132a5.5,5.5,0,0,0-5.5,5.5v4.126H16.378V9.5a5.5,5.5,0,0,0-5.5-5.5H9.5A5.5,5.5,0,0,0,4,9.5v1.375a5.5,5.5,0,0,0,5.5,5.5h4.126V24.63H9.5a5.5,5.5,0,0,0-5.5,5.5v1.375a5.5,5.5,0,0,0,5.5,5.5h1.375a5.5,5.5,0,0,0,5.5-5.5V27.381H24.63v4.126a5.5,5.5,0,0,0,5.5,5.5h1.375a5.5,5.5,0,0,0,5.5-5.5V30.132a5.5,5.5,0,0,0-5.5-5.5H27.381V16.378ZM27.381,9.5a2.751,2.751,0,0,1,2.751-2.751h1.375A2.751,2.751,0,0,1,34.258,9.5v1.375a2.751,2.751,0,0,1-2.751,2.751H27.381ZM9.5,13.627a2.751,2.751,0,0,1-2.751-2.751V9.5A2.751,2.751,0,0,1,9.5,6.751h1.375A2.751,2.751,0,0,1,13.627,9.5v4.126Zm4.126,17.88a2.751,2.751,0,0,1-2.751,2.751H9.5a2.751,2.751,0,0,1-2.751-2.751V30.132A2.751,2.751,0,0,1,9.5,27.381h4.126Zm11-6.877H16.378V16.378H24.63Zm2.751,2.751h4.126a2.751,2.751,0,0,1,2.751,2.751v1.375a2.751,2.751,0,0,1-2.751,2.751H30.132a2.751,2.751,0,0,1-2.751-2.751Z" transform="translate(57.496 40.496)" fill="currentColor" stroke="currentColor" stroke-width="0.2"/>
  </g>
</svg>
