<svg xmlns="http://www.w3.org/2000/svg" width="50" height="50" viewBox="0 0 50 50">
  <g id="G-146-settings-options" transform="translate(-53 -36)">
    <rect id="area" width="50" height="50" transform="translate(53 36)" fill="none"/>
    <g id="icon" transform="translate(61.833 44.395)">
      <path id="Path_305" data-name="Path 305" d="M31.657,19.548v-1.82l2.284-2a2.379,2.379,0,0,0,.452-3.033L31.586,7.94a2.4,2.4,0,0,0-2.819-1.07l-2.89.975a13.5,13.5,0,0,0-1.558-.892l-.607-3A2.379,2.379,0,0,0,21.333,2.04H15.766a2.379,2.379,0,0,0-2.379,1.915l-.607,3a13.654,13.654,0,0,0-1.57.892L8.38,6.821a2.379,2.379,0,0,0-.761-.071A2.379,2.379,0,0,0,5.561,7.94L2.754,12.7a2.379,2.379,0,0,0,.488,2.985L5.49,17.74v1.82l-2.248,2a2.379,2.379,0,0,0-.488,3.033l2.807,4.758a2.4,2.4,0,0,0,2.819,1.07l2.89-.975a13.5,13.5,0,0,0,1.558.892l.607,3a2.379,2.379,0,0,0,2.379,1.915h5.614a2.379,2.379,0,0,0,2.379-1.915l.607-3a13.655,13.655,0,0,0,1.57-.892l2.878.975a2.4,2.4,0,0,0,2.819-1.07l2.712-4.758a2.379,2.379,0,0,0-.488-2.985Zm-2.129,8.611-4.08-1.38a10.538,10.538,0,0,1-3.223,1.867l-.844,4.27H15.766l-.844-4.222a11.133,11.133,0,0,1-3.211-1.867L7.619,28.159,4.812,23.4l3.235-2.855a10.586,10.586,0,0,1,0-3.723L4.812,13.887,7.619,9.129l4.08,1.38a10.538,10.538,0,0,1,3.223-1.867l.844-4.27H21.38l.844,4.222a11.133,11.133,0,0,1,3.211,1.867l4.092-1.332,2.807,4.758L29.1,16.741a10.586,10.586,0,0,1,0,3.723L32.335,23.4Z" transform="translate(-2.413 -2.04)" fill="currentColor" stroke="currentColor" stroke-width="0.5"/>
      <path id="Path_306" data-name="Path 306" d="M17.136,24.273a7.136,7.136,0,1,1,7.136-7.136,7.065,7.065,0,0,1-7.136,7.136m0-11.894a4.651,4.651,0,0,0-4.758,4.758,4.651,4.651,0,0,0,4.758,4.758,4.651,4.651,0,0,0,4.758-4.758,4.651,4.651,0,0,0-4.758-4.758" transform="translate(-0.976 -0.532)" fill="currentColor" stroke="currentColor" stroke-width="0.5"/>
    </g>
  </g>
</svg>
