<svg xmlns="http://www.w3.org/2000/svg" width="50" height="50" viewBox="0 0 50 50">
  <g id="G-154-collapse-categories-list" transform="translate(-53 -36)">
    <rect id="area" width="50" height="50" transform="translate(53 36)" fill="none"/>
    <path id="icon" d="M16.019,29.929h17v2.429h-17ZM7.725,31.143,4.592,34.276,6.3,36l4.857-4.857L6.3,26.286,4.58,28Zm8.294-13.357h17v2.429h-17ZM7.725,19,4.592,22.133,6.3,23.857,11.161,19,6.3,14.143,4.58,15.855ZM16.019,5.643h17V8.071h-17ZM7.725,6.857,4.592,9.99,6.3,11.714l4.857-4.857L6.3,2,4.58,3.712Z" transform="translate(59.201 42)" fill="currentColor" stroke="currentColor" stroke-width="0.6"/>
  </g>
</svg>
