<svg xmlns="http://www.w3.org/2000/svg" width="50" height="50" viewBox="0 0 50 50">
  <g id="G-155-collapse-all" transform="translate(-53 -36)">
    <rect id="area" width="50" height="50" transform="translate(53 36)" fill="none"/>
    <g id="icon" transform="translate(61 47.286)">
      <path id="Path_125" data-name="Path 125" d="M33.643,17.143H31.214V7.429H13V5H31.214a2.431,2.431,0,0,1,2.429,2.429Z" transform="translate(0.357 -5)" fill="currentColor" stroke="currentColor" stroke-width="0.5"/>
      <path id="Path_126" data-name="Path 126" d="M28.643,22.143H26.214V12.429H8V10H26.214a2.431,2.431,0,0,1,2.429,2.429Z" transform="translate(-0.714 -3.929)" fill="currentColor" stroke="currentColor" stroke-width="0.5"/>
      <path id="Path_127" data-name="Path 127" d="M21.429,29.571h-17A2.431,2.431,0,0,1,2,27.143V17.429A2.431,2.431,0,0,1,4.429,15h17a2.431,2.431,0,0,1,2.429,2.429v9.714a2.431,2.431,0,0,1-2.429,2.429m-17-12.143v9.714h17V17.429Z" transform="translate(-2 -2.857)" fill="currentColor" stroke="currentColor" stroke-width="0.5"/>
    </g>
  </g>
</svg>
