<svg xmlns="http://www.w3.org/2000/svg" width="50" height="50" viewBox="0 0 50 50">
  <g id="G-156-expand-all" transform="translate(-53 -36)">
    <rect id="area" width="50" height="50" transform="translate(53 36)" fill="none"/>
    <path id="icon" d="M13.56,11.56H30.29a2.394,2.394,0,0,0,2.39-2.39V4.39A2.394,2.394,0,0,0,30.29,2H13.56a2.394,2.394,0,0,0-2.39,2.39V5.585H6.39V2H4V29.484a2.394,2.394,0,0,0,2.39,2.39h4.78v1.195a2.394,2.394,0,0,0,2.39,2.39H30.29a2.394,2.394,0,0,0,2.39-2.39V28.29a2.394,2.394,0,0,0-2.39-2.39H13.56a2.394,2.394,0,0,0-2.39,2.39v1.195H6.39v-9.56h4.78V21.12a2.394,2.394,0,0,0,2.39,2.39H30.29a2.394,2.394,0,0,0,2.39-2.39V16.34a2.394,2.394,0,0,0-2.39-2.39H13.56a2.394,2.394,0,0,0-2.39,2.39v1.195H6.39V7.975h4.78V9.17a2.394,2.394,0,0,0,2.39,2.39m0-7.17H30.29V9.17H13.56Zm0,23.9H30.29v4.78H13.56Zm0-11.95H30.29v4.78H13.56Z" transform="translate(59.517 42.27)" fill="currentColor" stroke="currentColor" stroke-width="0.5"/>
  </g>
</svg>
