<svg xmlns="http://www.w3.org/2000/svg" width="50" height="50" viewBox="0 0 50 50">
  <g id="G-166-folder-parent" transform="translate(-53 -36)">
    <rect id="area" width="50" height="50" transform="translate(53 36)" fill="none"/>
    <path id="icon" d="M33.571,8.857H19L14.854,4.712A2.429,2.429,0,0,0,13.137,4H4.429A2.429,2.429,0,0,0,2,6.429V30.714a2.429,2.429,0,0,0,2.429,2.429H19a2.429,2.429,0,0,0,2.429-2.429V19.579l3.145,3.133L26.286,21l-6.071-6.071L14.143,21l1.712,1.712L19,19.579V30.714H4.429V6.429h8.709l4.857,4.857H33.571V30.714H26.286v2.429h7.286A2.429,2.429,0,0,0,36,30.714V11.286a2.429,2.429,0,0,0-2.429-2.429" transform="translate(59 42.429)" fill="currentColor" stroke="currentColor" stroke-width="0.5"/>
  </g>
</svg>
