<svg xmlns="http://www.w3.org/2000/svg" width="50" height="50" viewBox="0 0 50 50">
  <g id="G-167-layers" transform="translate(-53 -36)">
    <rect id="area" width="50" height="50" transform="translate(53 36)" fill="none"/>
    <g id="carbon-layers" transform="translate(61.655 44.655)">
      <path id="Path_267" data-name="Path 267" d="M18.258,25.488a1.164,1.164,0,0,1-.553-.14L2.526,17.175,3.633,15.12l14.625,7.874L32.883,15.12l1.107,2.055L18.811,25.348a1.164,1.164,0,0,1-.553.14" transform="translate(-1.913 0.198)" fill="currentColor" stroke="currentColor" stroke-width="0.5"/>
      <path id="Path_268" data-name="Path 268" d="M18.346,34.692a1.164,1.164,0,0,1-.553-.14L2.614,26.379l1.107-2.055L18.346,32.2l14.625-7.874,1.107,2.055L18.9,34.552a1.164,1.164,0,0,1-.553.14m0-14.011a1.164,1.164,0,0,1-.553-.14L2.614,12.368a1.168,1.168,0,0,1,0-2.055L17.793,2.14a1.165,1.165,0,0,1,1.107,0l15.179,8.173a1.168,1.168,0,0,1,0,2.055L18.9,20.541a1.164,1.164,0,0,1-.553.14M5.631,11.341l12.715,6.847,12.715-6.847L18.346,4.494Z" transform="translate(-2.001 -2)" fill="currentColor" stroke="currentColor" stroke-width="0.5"/>
    </g>
  </g>
</svg>
