<svg xmlns="http://www.w3.org/2000/svg" width="50" height="50" viewBox="0 0 50 50">
  <g id="G-169-apps" transform="translate(-53 -36)">
    <rect id="area" width="50" height="50" transform="translate(53 36)" fill="none"/>
    <path id="icon" d="M9.071,4.357V9.071H4.357V4.357ZM11.429,2H2v9.429h9.429Zm9.429,2.357V9.071H16.143V4.357ZM23.214,2H13.786v9.429h9.429Zm9.429,2.357V9.071H27.929V4.357ZM35,2H25.571v9.429H35ZM9.071,16.143v4.714H4.357V16.143Zm2.357-2.357H2v9.429h9.429Zm9.429,2.357v4.714H16.143V16.143Zm2.357-2.357H13.786v9.429h9.429Zm9.429,2.357v4.714H27.929V16.143ZM35,13.786H25.571v9.429H35ZM9.071,27.929v4.714H4.357V27.929Zm2.357-2.357H2V35h9.429Zm9.429,2.357v4.714H16.143V27.929Zm2.357-2.357H13.786V35h9.429Zm9.429,2.357v4.714H27.929V27.929ZM35,25.571H25.571V35H35Z" transform="translate(59.5 42.5)" fill="currentColor"/>
  </g>
</svg>
