<svg xmlns="http://www.w3.org/2000/svg" width="50" height="50" viewBox="0 0 50 50">
  <g id="G-163-folder-off" transform="translate(-53 -36)">
    <rect id="area" width="50" height="50" transform="translate(53 36)" fill="none"/>
    <path id="icon" d="M33.154,9.189h-3.1L35.55,3.694,33.856,2,2,33.856,3.694,35.55l2.4-2.4H33.154a2.4,2.4,0,0,0,2.4-2.4V11.586a2.4,2.4,0,0,0-2.4-2.4m0,21.568H8.487L27.659,11.586h5.5ZM4.4,6.793H12.99l4.091,4.091.7.7h3.389v-2.4h-2.4L14.684,5.1a2.4,2.4,0,0,0-1.694-.7H4.4A2.4,2.4,0,0,0,2,6.793V28.361H4.4Z" transform="translate(59.225 42.225)" fill="currentColor"/>
  </g>
</svg>
