<svg xmlns="http://www.w3.org/2000/svg" width="50" height="50" viewBox="0 0 50 50">
  <g id="G-174-erase-rubber-delete-remove-trash-purge" transform="translate(-53 -36)">
    <rect id="area" width="50" height="50" transform="translate(53 36)" fill="none"/>
    <path id="icon" d="M8.035,32.207H35.826v2.417H8.035ZM32.66,12.282l-9.582-9.57a2.417,2.417,0,0,0-3.42,0L2.742,19.628a2.417,2.417,0,0,0,0,3.42l5.449,5.534H19.779L32.66,15.7a2.417,2.417,0,0,0,0-3.42M18.776,26.165H9.243L4.41,21.332l7.624-7.624,9.582,9.57Zm4.543-4.543L13.75,12.04l7.576-7.624L30.992,14Z" transform="translate(58.967 42.687)" fill="currentColor" stroke="currentColor" stroke-width="0.5"/>
  </g>
</svg>
