<svg xmlns="http://www.w3.org/2000/svg" width="50" height="50" viewBox="0 0 50 50">
  <g id="G-179-import-export-share" transform="translate(-53 -36)">
    <rect id="area" width="50" height="50" transform="translate(53 36)" fill="none"/>
    <path id="icon" d="M33.571,28.286v4.857H4.429V28.286H2v4.857l.01-.006a2.426,2.426,0,0,0,2.419,2.435H33.571A2.429,2.429,0,0,0,36,33.143V28.286Zm-.486-11.414-4.371,4.371V4H26.286V21.243l-4.371-4.371-1.7,1.7L27.5,25.857l7.286-7.286ZM10.5,4,3.214,11.286l1.7,1.7L9.286,8.614V25.857h2.429V8.614l4.371,4.371,1.7-1.7Z" transform="translate(59 41.214)" fill="currentColor" stroke="currentColor" stroke-width="0.5"/>
  </g>
</svg>
