<svg xmlns="http://www.w3.org/2000/svg" width="50" height="50" viewBox="0 0 50 50">
  <g id="G-172-floppy-disk-save-export" transform="translate(-53 -36)">
    <rect id="area" width="50" height="50" transform="translate(53 36)" fill="none"/>
    <path id="icon" d="M65.169,40.5,57.5,32.83a2.809,2.809,0,0,0-2-.831H34.833A2.833,2.833,0,0,0,32,34.833V63.167A2.833,2.833,0,0,0,34.833,66H63.167A2.833,2.833,0,0,0,66,63.167V42.5a2.809,2.809,0,0,0-.831-2M56.083,63.167H41.917V53.25H56.083Zm7.083,0h-4.25V53.25a2.833,2.833,0,0,0-2.833-2.833H41.917a2.833,2.833,0,0,0-2.833,2.833v9.917h-4.25V34.833H55.5L63.167,42.5Zm-8.5-24.083A1.417,1.417,0,0,1,53.25,40.5H43.333a1.417,1.417,0,1,1,0-2.833H53.25a1.417,1.417,0,0,1,1.417,1.417" transform="translate(29 12)" fill="currentColor" stroke="currentColor" stroke-width="0.2"/>
  </g>
</svg>
