<svg xmlns="http://www.w3.org/2000/svg" width="50" height="50" viewBox="0 0 50 50">
  <g id="G-171-launch-export" transform="translate(-53 -36)">
    <rect id="area" width="50" height="50" transform="translate(53 36)" fill="none"/>
    <g id="icon" transform="translate(61 44)">
      <path id="Path_265" data-name="Path 265" d="M32.769,35.385H6.615A2.619,2.619,0,0,1,4,32.769V6.615A2.619,2.619,0,0,1,6.615,4H19.692V6.615H6.615V32.769H32.769V19.692h2.615V32.769a2.619,2.619,0,0,1-2.615,2.615" transform="translate(-4 -1.385)" fill="currentColor" stroke="currentColor" stroke-width="0.3"/>
      <path id="Path_266" data-name="Path 266" d="M20.615,2V4.615h8.612L18,15.843l1.849,1.849L31.077,6.464v8.612h2.615V2Z" transform="translate(0.308 -2)" fill="currentColor" stroke="currentColor" stroke-width="0.3"/>
    </g>
  </g>
</svg>
