<svg xmlns="http://www.w3.org/2000/svg" width="50" height="50" viewBox="0 0 50 50">
  <g id="H-008-flow-connection" transform="translate(-53 -36)">
    <rect id="area" width="50" height="50" transform="translate(53 36)" fill="none"/>
    <path id="icon" d="M34.027,21.857H26.58A2.485,2.485,0,0,0,24.1,24.339v2.482H17.165l-5.478-5.478V14.411H14.17a2.485,2.485,0,0,0,2.482-2.482V4.482A2.485,2.485,0,0,0,14.17,2H6.723A2.485,2.485,0,0,0,4.241,4.482v7.446a2.485,2.485,0,0,0,2.482,2.482H9.205v6.933L3.364,27.185a1.241,1.241,0,0,0,0,1.755l6.205,6.205a1.241,1.241,0,0,0,1.755,0L17.165,29.3H24.1v2.482a2.485,2.485,0,0,0,2.482,2.482h7.446a2.485,2.485,0,0,0,2.482-2.482V24.339a2.485,2.485,0,0,0-2.482-2.482M6.723,4.482H14.17v7.446H6.723Zm3.723,28.031L6,28.062l4.45-4.45,4.45,4.45Zm16.134-.727V24.339h7.446v7.446Z" transform="translate(58.245 42.246)" fill="currentColor" stroke="currentColor" stroke-width="0.5"/>
  </g>
</svg>
