<svg xmlns="http://www.w3.org/2000/svg" width="50" height="50" viewBox="0 0 50 50">
  <g id="H-007-category-group-parent-tree" transform="translate(-53 -36)">
    <rect id="area" width="50" height="50" transform="translate(53 36)" fill="none"/>
    <path id="icon" d="M31.678,25.91V20.994A2.374,2.374,0,0,0,29.3,18.62h-9.5V13.871h2.374A2.377,2.377,0,0,0,24.555,11.5V4.374A2.377,2.377,0,0,0,22.181,2H15.058a2.377,2.377,0,0,0-2.374,2.374V11.5a2.377,2.377,0,0,0,2.374,2.374h2.374V18.62h-9.5a2.374,2.374,0,0,0-2.374,2.374v4.917a4.749,4.749,0,1,0,2.374,0V20.994h9.5v4.917a4.749,4.749,0,1,0,2.374,0V20.994h9.5V25.91a4.749,4.749,0,1,0,2.374,0M15.058,4.374h7.123V11.5H15.058ZM9.123,30.491a2.374,2.374,0,1,1-2.374-2.374,2.374,2.374,0,0,1,2.374,2.374m11.871,0a2.374,2.374,0,1,1-2.374-2.374,2.374,2.374,0,0,1,2.374,2.374m9.5,2.374a2.374,2.374,0,1,1,2.374-2.374,2.374,2.374,0,0,1-2.374,2.374" transform="translate(59.38 42.371)" fill="currentColor" stroke="currentColor" stroke-width="0.5"/>
  </g>
</svg>
