<svg xmlns="http://www.w3.org/2000/svg" width="50" height="50" viewBox="0 0 50 50">
  <g id="H-015-chart-radial" transform="translate(-53 -36)">
    <rect id="area" width="50" height="50" transform="translate(53 36)" fill="none"/>
    <g id="icon" transform="translate(61.999 44.999)">
      <path id="Path_104" data-name="Path 104" d="M18,34A16.019,16.019,0,0,1,2,18H4.286A13.715,13.715,0,1,0,18,4.286V2a16,16,0,0,1,0,32" transform="translate(-2 -2)" fill="currentColor" stroke="currentColor" stroke-width="0.3"/>
      <path id="Path_105" data-name="Path 105" d="M17.429,28.858A11.443,11.443,0,0,1,6,17.429H8.286a9.143,9.143,0,1,0,9.143-9.143V6a11.429,11.429,0,0,1,0,22.858" transform="translate(-1.428 -1.428)" fill="currentColor" stroke="currentColor" stroke-width="0.3"/>
      <path id="Path_106" data-name="Path 106" d="M16.858,23.715A6.866,6.866,0,0,1,10,16.858h2.286a4.572,4.572,0,1,0,4.572-4.572V10a6.858,6.858,0,1,1,0,13.715" transform="translate(-0.857 -0.857)" fill="currentColor" stroke="currentColor" stroke-width="0.3"/>
    </g>
  </g>
</svg>
