<svg xmlns="http://www.w3.org/2000/svg" width="50" height="50" viewBox="0 0 50 50">
  <g id="H-019-recycle" transform="translate(-53 -36)">
    <rect id="area" width="50" height="50" transform="translate(53 36)" fill="none"/>
    <path id="icon" d="M33.1,24.9l-2.35-4.229-1.976,1.1L31.127,26a2.111,2.111,0,0,1-1.846,3.135H21.03l2.917-2.929-1.594-1.594L16.7,30.267l5.653,5.653,1.594-1.594L21.03,31.4h8.252A4.374,4.374,0,0,0,33.1,24.9ZM6.379,29.137A2.11,2.11,0,0,1,4.534,26l4.647-8.367,1.186,3.98,2.162-.641-2.272-7.666-7.666,2.27.641,2.162,3.95-1.165L2.557,24.9a4.371,4.371,0,0,0,3.822,6.5h6.928V29.137Zm22.2-18.482L27.4,14.633,21.618,4.227a4.334,4.334,0,0,0-7.576,0L10.559,10.5l1.978,1.1,3.483-6.267a2.072,2.072,0,0,1,3.622,0L25.4,15.692l-3.951-1.165-.64,2.163,7.666,2.27,2.27-7.666Z" transform="translate(60.17 43)" fill="currentColor" stroke="currentColor" stroke-width="0.5"/>
  </g>
</svg>
