<svg xmlns="http://www.w3.org/2000/svg" width="50" height="50" viewBox="0 0 50 50">
  <g id="H-012-globe-earth" transform="translate(-53 -36)">
    <rect id="area" width="50" height="50" transform="translate(53 36)" fill="none"/>
    <path id="icon" d="M39.889,24A15.889,15.889,0,1,0,55.777,39.889,15.889,15.889,0,0,0,39.889,24M35.86,46h8.057a18.409,18.409,0,0,1-4.029,7.316A18.409,18.409,0,0,1,35.86,46m-.555-2.444a22.262,22.262,0,0,1,0-7.333h9.166a22.262,22.262,0,0,1,0,7.333Zm-8.861-3.667a13.385,13.385,0,0,1,.509-3.667h5.876a24.717,24.717,0,0,0,0,7.333H26.953a13.385,13.385,0,0,1-.509-3.667m17.473-6.111H35.86a18.409,18.409,0,0,1,4.029-7.316,18.409,18.409,0,0,1,4.029,7.316m3.031,2.444h5.876a13.467,13.467,0,0,1,0,7.333H46.948a24.718,24.718,0,0,0,0-7.333m4.913-2.444H46.449a21.753,21.753,0,0,0-3.1-6.875,13.5,13.5,0,0,1,8.508,6.875M36.424,26.9a21.754,21.754,0,0,0-3.1,6.875H27.916A13.5,13.5,0,0,1,36.424,26.9M27.916,46h5.413a21.754,21.754,0,0,0,3.1,6.875A13.5,13.5,0,0,1,27.916,46m15.438,6.875A21.754,21.754,0,0,0,46.449,46h5.413a13.5,13.5,0,0,1-8.508,6.875" transform="translate(38.131 21.131)" fill="currentColor" stroke="currentColor" stroke-width="0.3"/>
  </g>
</svg>
