<svg xmlns="http://www.w3.org/2000/svg" width="50" height="50" viewBox="0 0 50 50">
  <g id="H-018-chart-3d-cube" transform="translate(-53 -36)">
    <rect id="area" width="50" height="50" transform="translate(53 36)" fill="none"/>
    <path id="icon" d="M32.643,26.75v4.226L26.75,25.084V17.321a1.179,1.179,0,0,0-.652-1.054l-6.42-3.212V6.512l3.048,3.048,1.667-1.667L18.5,2,12.607,7.893l1.667,1.667,3.048-3.048v6.546L10.9,16.267a1.179,1.179,0,0,0-.652,1.055v7.762L4.357,30.976V26.75H2V35h8.25V32.643H6.024l5.637-5.637,6.312,3.156a1.18,1.18,0,0,0,1.054,0l6.312-3.156,5.637,5.637H26.75V35H35V26.75Zm-15.321.45-4.714-2.357V19.228l4.714,2.357ZM18.5,19.54l-4.436-2.218L18.5,15.1l4.436,2.218Zm5.893,5.3L19.679,27.2V21.586l4.714-2.357Z" transform="translate(59.5 42.5)" fill="currentColor" stroke="currentColor" stroke-width="0.25"/>
  </g>
</svg>
