<svg xmlns="http://www.w3.org/2000/svg" width="50" height="50" viewBox="0 0 50 50">
  <g id="H-011-globe-earth" transform="translate(-53 -36)">
    <rect id="area" width="50" height="50" transform="translate(53 36)" fill="none"/>
    <path id="icon" d="M40.021,24A16.021,16.021,0,1,0,56.043,40.021,16.021,16.021,0,0,0,40.021,24m13.5,14.789H47.385a22.988,22.988,0,0,0-3.87-11.862A13.587,13.587,0,0,1,53.521,38.789m-13.5,14.772a19.755,19.755,0,0,1-4.894-12.307h9.788a19.762,19.762,0,0,1-4.894,12.307M35.127,38.789a19.727,19.727,0,0,1,4.894-12.307,19.755,19.755,0,0,1,4.894,12.307Zm1.4-11.862a22.988,22.988,0,0,0-3.87,11.862H26.522A13.587,13.587,0,0,1,36.527,26.927M26.522,41.254h6.136a22.988,22.988,0,0,0,3.87,11.862A13.587,13.587,0,0,1,26.522,41.254M43.515,53.116a23.016,23.016,0,0,0,3.87-11.862h6.136A13.587,13.587,0,0,1,43.515,53.116" transform="translate(37.998 20.998)" fill="currentColor" stroke="currentColor" stroke-width="0.3"/>
  </g>
</svg>
