<svg xmlns="http://www.w3.org/2000/svg" width="50" height="50" viewBox="0 0 50 50">
  <g id="H-013-chart-pie" transform="translate(-53 -36)">
    <rect id="area" width="50" height="50" transform="translate(53 36)" fill="none"/>
    <path id="icon" d="M20.2,4a16.2,16.2,0,1,0,16.2,16.2A16.2,16.2,0,0,0,20.2,4m13.5,14.853H21.554V6.768A13.5,13.5,0,0,1,33.707,18.853M19.421,33.707a13.5,13.5,0,0,1-.567-26.939V18.921a2.7,2.7,0,0,0,2.7,2.7H33.707A13.5,13.5,0,0,1,19.421,33.707" transform="translate(57.796 40.796)" fill="currentColor" stroke="currentColor" stroke-width="0.3"/>
  </g>
</svg>
