<svg xmlns="http://www.w3.org/2000/svg" width="50" height="50" viewBox="0 0 50 50">
  <g id="H-014-radar-sonar" transform="translate(-53 -36)">
    <rect id="area" width="50" height="50" transform="translate(53 36)" fill="none"/>
    <path id="Path_755" data-name="Path 755" d="M18.791,11.98a4.935,4.935,0,0,0-5.212.146,4.724,4.724,0,0,0-2.28,4.62,4.786,4.786,0,0,0,3.323,4.313,5,5,0,0,0,6.59-3.711c.241-1.031.843-1.5,1.629-1.243a1.239,1.239,0,0,1,.891,1.522A7.549,7.549,0,0,1,8.818,17.4a7.222,7.222,0,0,1,3.291-7.316,7.3,7.3,0,0,1,7.952-.273c.171.091.344.182.451.237L24.978,5.6A12.9,12.9,0,0,0,18.97,2.776a13.823,13.823,0,1,0,10.648,9.9,7.347,7.347,0,0,1-.244-.9,1.174,1.174,0,0,1,.877-1.44,1.1,1.1,0,0,1,1.49.757,20.82,20.82,0,0,1,.82,3.711A16.307,16.307,0,1,1,27.339,4.281c1.084.987,1.1,1.563.062,2.6Q22.393,11.9,17.381,16.908a1.318,1.318,0,0,1-1.677.363,1.117,1.117,0,0,1-.582-1.368,2.092,2.092,0,0,1,.538-.833c.991-1.007,2.009-1.987,3.129-3.088Z" transform="translate(61.683 44.704)" fill="currentColor" stroke="currentColor" stroke-width="0.3"/>
  </g>
</svg>
