<svg xmlns="http://www.w3.org/2000/svg" width="50" height="50" viewBox="0 0 50 50">
  <g id="H-020-api" transform="translate(-53 -36)">
    <rect id="area" width="50" height="50" transform="translate(53 36)" fill="none"/>
    <path id="icon" d="M.586,16.573l6.182-6.182,1.981,1.981-4.2,4.2,4.2,4.2L6.768,22.756Zm9.8-9.8L16.573.586l6.182,6.182L20.775,8.749l-4.2-4.2-4.2,4.2ZM12.371,24.4l4.2,4.2,4.2-4.2,1.981,1.981L16.573,32.56l-6.182-6.182Zm2.8-6.421V15.17h2.807v2.807Zm9.228,2.8,4.2-4.2-4.2-4.2,1.981-1.981,6.182,6.182-6.182,6.182Z" transform="translate(61.427 44.427)" fill="currentColor" stroke="currentColor" stroke-width="0.5"/>
  </g>
</svg>
