<svg xmlns="http://www.w3.org/2000/svg" width="50" height="50" viewBox="0 0 50 50">
  <g id="H-024-edge-enhancement-pie-chart" transform="translate(-53 -36)">
    <rect id="area" width="50" height="50" transform="translate(53 36)" fill="none"/>
    <g id="carbon-edge-enhancement" transform="translate(61.241 44.107)">
      <path id="Path_187" data-name="Path 187" d="M12.821,5.153,12,2.887A16.864,16.864,0,0,0,6.951,5.831L8.5,7.681a14.447,14.447,0,0,1,4.32-2.527Z" transform="translate(-1.245 -1.817)" fill="currentColor" stroke="currentColor" stroke-width="0.3"/>
      <path id="Path_188" data-name="Path 188" d="M6.287,10.207,4.2,9a17.062,17.062,0,0,0-1.976,5.535l2.375.419a14.663,14.663,0,0,1,1.689-4.747Z" transform="translate(-2.222 -0.554)" fill="currentColor" stroke="currentColor" stroke-width="0.3"/>
      <path id="Path_189" data-name="Path 189" d="M16,30.132A12.066,12.066,0,1,0,16,6Z" transform="translate(0.625 -1.174)" fill="currentColor" stroke="currentColor" stroke-width="0.3"/>
      <path id="Path_190" data-name="Path 190" d="M35.739,18.893A16.893,16.893,0,0,0,18.847,2V4.413a14.471,14.471,0,0,1,4.887,28.1c-.2.072-.4.157-.609.22-.3.093-.615.164-.927.238-.153.036-.3.084-.456.115-.35.072-.709.118-1.069.163-.121.016-.239.042-.361.053A14.482,14.482,0,0,1,6.076,25.716c-.08-.153-.16-.306-.235-.463-.066-.136-.128-.274-.189-.413A15.831,15.831,0,0,1,4.6,21.306l-2.375.5A16.793,16.793,0,0,0,2.8,24.081l-.03.011A16.91,16.91,0,0,0,20.554,35.7c.163-.017.32-.051.483-.072.4-.052.793-.1,1.182-.181.217-.043.427-.109.642-.162.323-.078.649-.151.968-.249.3-.092.583-.208.874-.315.217-.081.438-.146.653-.235v0A16.9,16.9,0,0,0,35.739,18.893Z" transform="translate(-2.222 -2)" fill="currentColor" stroke="currentColor" stroke-width="0.3"/>
    </g>
  </g>
</svg>
