<svg xmlns="http://www.w3.org/2000/svg" width="50" height="50" viewBox="0 0 50 50">
  <g id="H-023-edge-enhancement-pie-chart" transform="translate(-53 -36)">
    <rect id="area" width="50" height="50" transform="translate(53 36)" fill="none"/>
    <g id="icon" transform="translate(61.241 44)">
      <path id="Path_181" data-name="Path 181" d="M26.826,20H22v2.413h4.826v2.413h-3.62V27.24h3.62v2.413H22v2.413h4.826a2.417,2.417,0,0,0,2.413-2.413v-7.24A2.416,2.416,0,0,0,26.826,20Z" transform="translate(1.864 1.719)" fill="currentColor" stroke="currentColor" stroke-width="0.3"/>
      <path id="Path_182" data-name="Path 182" d="M30.479,18.893h2.413A16.893,16.893,0,0,0,16,2V4.413A14.479,14.479,0,0,1,30.479,18.893Z" transform="translate(0.625 -2)" fill="currentColor" stroke="currentColor" stroke-width="0.3"/>
      <path id="Path_183" data-name="Path 183" d="M28.066,18.066A12.066,12.066,0,0,0,16,6V18.066Z" transform="translate(0.625 -1.174)" fill="currentColor" stroke="currentColor" stroke-width="0.3"/>
      <path id="Path_184" data-name="Path 184" d="M18.847,30.066A14.431,14.431,0,0,1,6.076,22.41c-.08-.153-.16-.306-.235-.463-.066-.136-.128-.274-.189-.413A15.831,15.831,0,0,1,4.6,18l-2.375.5A16.793,16.793,0,0,0,2.8,20.775l-.03.011A16.846,16.846,0,0,0,18.847,32.479Z" transform="translate(-2.222 1.306)" fill="currentColor" stroke="currentColor" stroke-width="0.3"/>
      <path id="Path_185" data-name="Path 185" d="M6.287,10.207,4.2,9a17.062,17.062,0,0,0-1.976,5.535l2.375.419a14.663,14.663,0,0,1,1.689-4.747Z" transform="translate(-2.222 -0.554)" fill="currentColor" stroke="currentColor" stroke-width="0.3"/>
      <path id="Path_186" data-name="Path 186" d="M12.821,5.153,12,2.887A16.864,16.864,0,0,0,6.951,5.831L8.5,7.681a14.447,14.447,0,0,1,4.32-2.527Z" transform="translate(-1.245 -1.817)" fill="currentColor" stroke="currentColor" stroke-width="0.3"/>
    </g>
  </g>
</svg>
