<svg xmlns="http://www.w3.org/2000/svg" width="50" height="50" viewBox="0 0 50 50">
  <g id="H-035-tag-label" transform="translate(-53 -36)">
    <rect id="area" width="50" height="50" transform="translate(53 36)" fill="none"/>
    <g id="icon" transform="translate(61.506 44.506)">
      <path id="Path_679" data-name="Path 679" d="M10.785,15.569a4.785,4.785,0,1,1,4.785-4.785,4.785,4.785,0,0,1-4.785,4.785m0-7.177a2.392,2.392,0,1,0,2.39,2.4,2.392,2.392,0,0,0-2.39-2.4" transform="translate(-1.215 -1.215)" fill="currentColor" stroke="currentColor" stroke-width="0.5"/>
      <path id="Path_680" data-name="Path 680" d="M19.517,34.793,2.7,17.975a2.392,2.392,0,0,1-.7-1.69V4.392A2.392,2.392,0,0,1,4.392,2H16.284a2.392,2.392,0,0,1,1.691.7L34.793,19.517a2.392,2.392,0,0,1,0,3.383L22.9,34.793a2.392,2.392,0,0,1-3.383,0M4.392,4.392V16.285L21.208,33.1,33.1,21.208,16.285,4.392Z" transform="translate(-2 -2)" fill="currentColor" stroke="currentColor" stroke-width="0.5"/>
    </g>
  </g>
</svg>
