<svg xmlns="http://www.w3.org/2000/svg" width="50" height="50" viewBox="0 0 50 50">
  <g id="H-031-thumbnail" transform="translate(-53 -36)">
    <rect id="area" width="50" height="50" transform="translate(53 36)" fill="none"/>
    <path id="icon" d="M9.286,36H4.429A2.429,2.429,0,0,1,2,33.571V28.714a2.429,2.429,0,0,1,2.429-2.429H9.286a2.429,2.429,0,0,1,2.429,2.429v4.857A2.429,2.429,0,0,1,9.286,36M4.429,28.714v4.857H9.286V28.714Zm17,7.286H16.571a2.429,2.429,0,0,1-2.429-2.429V28.714a2.429,2.429,0,0,1,2.429-2.429h4.857a2.429,2.429,0,0,1,2.429,2.429v4.857A2.429,2.429,0,0,1,21.429,36m-4.857-7.286v4.857h4.857V28.714Zm17,7.286H28.714a2.429,2.429,0,0,1-2.429-2.429V28.714a2.429,2.429,0,0,1,2.429-2.429h4.857A2.429,2.429,0,0,1,36,28.714v4.857A2.429,2.429,0,0,1,33.571,36m-4.857-7.286v4.857h4.857V28.714Zm4.857-4.857H4.429A2.429,2.429,0,0,1,2,21.429v-17A2.429,2.429,0,0,1,4.429,2H33.571A2.429,2.429,0,0,1,36,4.429v17a2.429,2.429,0,0,1-2.429,2.429M4.429,4.429v17H33.571v-17Z" transform="translate(59.363 42)" fill="currentColor" stroke="currentColor" stroke-width="0.3"/>
  </g>
</svg>
