<svg xmlns="http://www.w3.org/2000/svg" width="50" height="50" viewBox="0 0 50 50">
  <g id="H-036-tag-label-group" transform="translate(-53 -36)">
    <rect id="area" width="50" height="50" transform="translate(53 36)" fill="none"/>
    <g id="icon" transform="translate(63.285 44)">
      <circle id="Ellipse_50" data-name="Ellipse 50" cx="2.26" cy="2.26" r="2.26" transform="translate(4.735 12.941)" fill="currentColor"/>
      <path id="Path_675" data-name="Path 675" d="M18.883,35.285a1.24,1.24,0,0,1-.881-.36L4.732,21.642A2.48,2.48,0,0,1,4,19.894V10.48A2.48,2.48,0,0,1,6.48,8h9.413a2.48,2.48,0,0,1,1.749.732L30.925,22a1.24,1.24,0,0,1,0,1.761L19.763,34.925a1.24,1.24,0,0,1-.881.36M6.48,10.48v9.413l12.4,12.4L28.3,22.883l-12.4-12.4Z" transform="translate(-4 -0.559)" fill="currentColor" stroke="currentColor" stroke-width="0.4"/>
      <path id="Path_676" data-name="Path 676" d="M32.925,16,19.642,2.732A2.48,2.48,0,0,0,17.894,2H8.48A2.48,2.48,0,0,0,6,4.48v2.48H8.48V4.48h9.413l12.4,12.4-1.612,1.6,1.761,1.761,2.48-2.48a1.24,1.24,0,0,0,0-1.761" transform="translate(-3.52 -2)" fill="currentColor" stroke="currentColor" stroke-width="0.4"/>
    </g>
  </g>
</svg>
