<svg xmlns="http://www.w3.org/2000/svg" width="50" height="50" viewBox="0 0 50 50">
  <g id="H-039-puzzle-piece" transform="translate(-53 -36)">
    <rect id="area" width="50" height="50" transform="translate(53 36)" fill="none"/>
    <path id="icon" d="M41.36,38.41a1.258,1.258,0,0,0-1.211-.072,3.144,3.144,0,1,1,0-5.685,1.258,1.258,0,0,0,1.8-1.137V24.8a2.515,2.515,0,0,0-2.515-2.515H33.736a5.559,5.559,0,0,0,.035-.629,5.66,5.66,0,0,0-11.305-.412,5.748,5.748,0,0,0,.022,1.041h-5.7A2.515,2.515,0,0,0,14.276,24.8V29.87a5.559,5.559,0,0,0-.629-.035,5.679,5.679,0,0,0-4.125,1.786A5.613,5.613,0,0,0,8,35.866a5.672,5.672,0,0,0,5.237,5.282,5.61,5.61,0,0,0,1.041-.022v5.059A2.515,2.515,0,0,0,16.792,48.7H39.431a2.515,2.515,0,0,0,2.515-2.515V39.474a1.258,1.258,0,0,0-.586-1.064m-1.929,7.776H16.792V39.474a1.258,1.258,0,0,0-1.8-1.137,3.144,3.144,0,1,1,0-5.685,1.258,1.258,0,0,0,1.8-1.137V24.8h7.34a1.258,1.258,0,0,0,1.137-1.8,3.144,3.144,0,1,1,5.685,0,1.258,1.258,0,0,0,1.137,1.8h7.34v5.067a5.659,5.659,0,1,0,0,11.249Z" transform="translate(53.015 28.649)" fill="currentColor"/>
  </g>
</svg>
