<svg xmlns="http://www.w3.org/2000/svg" width="50" height="50" viewBox="0 0 50 50">
  <g id="H-038-coin-price-money" transform="translate(-53 -36)">
    <rect id="area" width="50" height="50" transform="translate(53 36)" fill="none"/>
    <path id="Path_710" data-name="Path 710" d="M17.14,0A17.14,17.14,0,1,0,34.28,17.14,17.157,17.157,0,0,0,17.14,0Zm0,2.584A14.561,14.561,0,1,1,2.584,17.14,14.547,14.547,0,0,1,17.14,2.584Zm-.016,5.422A1.143,1.143,0,0,0,16,9.162v.962c-1.845.346-3.424,1.535-3.424,3.594a4.086,4.086,0,0,0,1.509,3.256,8.553,8.553,0,0,0,2.7,1.256,7.469,7.469,0,0,1,2.018.886,1.5,1.5,0,0,1,.622,1.459c0,1.9-4.562,1.9-4.562,0a1.143,1.143,0,0,0-2.285-.051v.051c0,2.058,1.58,3.248,3.424,3.6v.958a1.143,1.143,0,0,0,2.285.051c0-.017,0-.034,0-.051V24.17c1.844-.347,3.426-1.538,3.426-3.6A4.088,4.088,0,0,0,20.2,17.318a8.543,8.543,0,0,0-2.7-1.258,7.485,7.485,0,0,1-2.018-.884,1.494,1.494,0,0,1-.623-1.459c0-1.9,4.562-1.9,4.562,0a1.144,1.144,0,0,0,2.288,0c0-2.056-1.583-3.243-3.426-3.591V9.162a1.143,1.143,0,0,0-1.129-1.156Z" transform="translate(60.86 43.86)" fill="currentColor" stroke="currentColor" stroke-width="0.35"/>
  </g>
</svg>
