<svg xmlns="http://www.w3.org/2000/svg" width="50" height="50" viewBox="0 0 50 50">
  <g id="H-044-flower" transform="translate(-53 -36)">
    <rect id="area" width="50" height="50" transform="translate(53 36)" fill="none"/>
    <g id="icon" transform="translate(63.53 44.923)">
      <path id="Path_517" data-name="Path 517" d="M9,13.823A4.823,4.823,0,1,0,13.823,9,4.823,4.823,0,0,0,9,13.823" transform="translate(0.647 2.254)" fill="none" stroke="currentColor" stroke-linecap="round" stroke-linejoin="round" stroke-width="2.4"/>
      <path id="Path_518" data-name="Path 518" d="M17.469,2a4.823,4.823,0,0,1,4.823,4.823,12.374,12.374,0,0,1-1.248,4.244l-1.164,2.186L22.71,10.21a8.812,8.812,0,0,1,2.042-1.937A4.772,4.772,0,0,1,31.3,10.04a4.841,4.841,0,0,1-1.752,6.588,9.254,9.254,0,0,1-2.968.86l-4.283.588,3.858.524a10.159,10.159,0,0,1,3.392.926A4.841,4.841,0,0,1,31.3,26.115a4.772,4.772,0,0,1-6.543,1.765,8.673,8.673,0,0,1-2.042-1.937L19.881,22.9l1.164,2.186a12.43,12.43,0,0,1,1.248,4.244,4.823,4.823,0,0,1-9.646,0,12.374,12.374,0,0,1,1.248-4.244L15.058,22.9l-2.829,3.043a8.777,8.777,0,0,1-2.042,1.937,4.772,4.772,0,0,1-6.543-1.765A4.841,4.841,0,0,1,5.4,19.527a9.247,9.247,0,0,1,2.968-.862l4.283-.588-3.858-.522A10.159,10.159,0,0,1,5.4,16.628a4.841,4.841,0,0,1-1.752-6.59,4.772,4.772,0,0,1,6.543-1.767,8.707,8.707,0,0,1,2.042,1.937l2.829,3.045q-2.411-5.527-2.411-6.431A4.823,4.823,0,0,1,17.469,2" transform="translate(-2.999 -2)" fill="none" stroke="currentColor" stroke-linecap="round" stroke-linejoin="round" stroke-width="2.4"/>
    </g>
  </g>
</svg>
