<svg xmlns="http://www.w3.org/2000/svg" width="50" height="50" viewBox="0 0 50 50">
  <g id="H-048-camp-fire" transform="translate(-53 -36)">
    <rect id="area" width="50" height="50" transform="translate(53 36)" fill="none"/>
    <path id="icon" d="M62.649,56.616a1.287,1.287,0,0,1-1.617.837L47.263,53.072,33.495,57.453A1.287,1.287,0,0,1,32.714,55l10.3-3.278-10.3-3.279a1.287,1.287,0,1,1,.78-2.452l13.769,4.38,13.769-4.38a1.287,1.287,0,1,1,.78,2.452l-10.3,3.279L61.812,55a1.287,1.287,0,0,1,.837,1.617M37.609,37.562c0-3.234,1.572-6.576,4.544-9.654a25.1,25.1,0,0,1,4.436-3.662,1.287,1.287,0,0,1,1.348,0c.367.217,8.98,5.606,8.98,13.316a9.654,9.654,0,0,1-19.309,0m9.654,7.08a2.574,2.574,0,0,0,2.574-2.574c0-2.183-1.609-3.936-2.574-4.793-.965.858-2.574,2.61-2.574,4.793a2.574,2.574,0,0,0,2.574,2.574m-7.08-7.08a7.052,7.052,0,0,0,1.945,4.866c0-.119-.014-.24-.014-.36,0-4.505,4.254-7.387,4.435-7.508a1.287,1.287,0,0,1,1.429,0c.18.121,4.435,3,4.435,7.508a2.988,2.988,0,0,1-.014.36,7.052,7.052,0,0,0,1.945-4.866c0-5.149-5.191-9.332-7.08-10.674-1.887,1.342-7.08,5.525-7.08,10.674" transform="translate(30.737 19.945)" fill="currentColor" stroke="currentColor" stroke-width="0.35"/>
  </g>
</svg>
