<svg xmlns="http://www.w3.org/2000/svg" width="50" height="50" viewBox="0 0 50 50">
  <g id="H-049-flask" transform="translate(-53 -36)">
    <rect id="area" width="50" height="50" transform="translate(53 36)" fill="none"/>
    <path id="icon" d="M63.911,53.545,53.541,36.257V26.689h1.345a1.345,1.345,0,1,0,0-2.689H41.439a1.345,1.345,0,1,0,0,2.689h1.345v9.568L32.414,53.545a2.689,2.689,0,0,0,2.3,4.073H61.61a2.689,2.689,0,0,0,2.306-4.073ZM45.281,37.321a1.333,1.333,0,0,0,.192-.691V26.689h5.379V36.63a1.333,1.333,0,0,0,.192.691l6.424,10.716c-2.017.4-4.886.23-8.7-1.7a18.354,18.354,0,0,0-7.6-2.153ZM34.715,54.929l4.8-8a14.168,14.168,0,0,1,8.038,1.8A17.882,17.882,0,0,0,55.619,50.9a11.748,11.748,0,0,0,3.286-.454l2.7,4.485Z" transform="translate(29.974 20.382)" fill="currentColor" stroke="currentColor" stroke-width="0.25"/>
  </g>
</svg>
