<svg xmlns="http://www.w3.org/2000/svg" width="50" height="50" viewBox="0 0 50 50">
  <g id="H-045-fan-wind" transform="translate(-53 -36)">
    <rect id="area" width="50" height="50" transform="translate(53 36)" fill="none"/>
    <path id="icon" d="M58.628,35.4a9.71,9.71,0,0,0-14.5-5.737l2.653-10.591a1.3,1.3,0,0,0-.558-1.4,9.71,9.71,0,1,0-9.812,16.747l-10.5,3a1.3,1.3,0,0,0-.939,1.185,9.711,9.711,0,1,0,19.408.118L52.222,46.3a1.3,1.3,0,0,0,1.5.218A9.71,9.71,0,0,0,58.628,35.4M39.045,34.262a2.589,2.589,0,1,1,2.589,2.589,2.589,2.589,0,0,1-2.589-2.589m-5.179-8.416A7.121,7.121,0,0,1,44.022,19.4L41.6,29.083A5.179,5.179,0,0,0,37.079,31.8a7.1,7.1,0,0,1-3.213-5.956M38.236,45.2a7.121,7.121,0,0,1-10.659-5.572l9.6-2.742a5.179,5.179,0,0,0,4.459,2.557h.147A7.092,7.092,0,0,1,38.236,45.2m17.182-3.722a7.108,7.108,0,0,1-2.1,2.288l-7.173-6.941a5.164,5.164,0,0,0-.1-5.271,7.121,7.121,0,0,1,9.372,9.924" transform="translate(36.041 28.546)" fill="currentColor" stroke="currentColor" stroke-width="0.3"/>
  </g>
</svg>
