<svg xmlns="http://www.w3.org/2000/svg" width="50" height="50" viewBox="0 0 50 50">
  <g id="H-046-plan-map" transform="translate(-53 -36)">
    <rect id="area" width="50" height="50" transform="translate(53 36)" fill="none"/>
    <path id="icon" d="M34.921,8.653a1.187,1.187,0,0,0-.565-1.018L26.441,3.113a1.47,1.47,0,0,0-1.131,0L17.96,7.3l-7.35-4.184A1.019,1.019,0,0,0,10.046,3a1.019,1.019,0,0,0-.565.113L1.565,7.636A1.187,1.187,0,0,0,1,8.653V31.267A1.068,1.068,0,0,0,2.131,32.4c.226,0,.339-.113.565-.113l7.35-4.184,7.35,4.184a1.019,1.019,0,0,0,.565.113,1.019,1.019,0,0,0,.565-.113l7.35-4.184,7.35,4.184a.847.847,0,0,0,.565.113,1.068,1.068,0,0,0,1.131-1.131Zm-31.66.678L8.915,6.053V26.066L3.261,29.345ZM16.83,29.345l-5.653-3.279V6.053L16.83,9.332Zm7.915-3.279-5.653,3.279V9.332l5.653-3.279Zm2.261,0V6.053L32.66,9.332V29.345Z" transform="translate(60 43.133)" fill="currentColor" stroke="currentColor" stroke-width="0.5"/>
  </g>
</svg>
