<svg xmlns="http://www.w3.org/2000/svg" width="50" height="50" viewBox="0 0 50 50">
  <g id="H-043-debug" transform="translate(-53 -36)">
    <rect id="area" width="50" height="50" transform="translate(53 36)" fill="none"/>
    <path id="icon" d="M35.432,23.6l.408-2.4-6.2-1.02V14.926l6.073-1.632L35.1,10.977l-5.8,1.548A10.8,10.8,0,0,0,23.635,5.6V2h-2.4V4.676a10.573,10.573,0,0,0-4.8,0V2h-2.4V5.6a10.8,10.8,0,0,0-5.653,6.985l-5.8-1.608-.552,2.316,6,1.632v5.257L1.84,21.2l.384,2.4,5.809-.984A10.681,10.681,0,0,0,9.017,26.9L3.58,32.352l1.7,1.7,5.029-5.041a10.8,10.8,0,0,0,17.042,0l5.029,5.041,1.7-1.7L28.639,26.9a10.681,10.681,0,0,0,1-4.284Zm-17.8,7.1a8.4,8.4,0,0,1-7.2-8.3V15.2h7.2ZM10.781,12.8a8.4,8.4,0,0,1,16.106,0Zm16.454,9.6a8.4,8.4,0,0,1-7.2,8.3V15.2h7.2Z" transform="translate(59.16 42.972)" fill="currentColor" stroke="currentColor" stroke-width="0.5"/>
  </g>
</svg>
