<svg xmlns="http://www.w3.org/2000/svg" width="50" height="50" viewBox="0 0 50 50">
  <g id="H-057-earth-globe" transform="translate(-53 -36)">
    <rect id="area" width="50" height="50" transform="translate(53 36)" fill="none"/>
    <path id="icon" d="M19,2A17,17,0,1,0,36,19,17,17,0,0,0,19,2m6.071,3.772a14.588,14.588,0,0,1,3.541,2.306l-.5,1.208H25.071ZM15.816,33.211A14.542,14.542,0,0,1,9.427,8.042L11.065,10.5h4.058L13.3,15.357H8.411L6.733,20.394,9.85,25.071h6.071l1.739,2.608ZM19,33.571c-.246,0-.488-.024-.731-.036l1.7-5.088a2.414,2.414,0,0,0-.283-2.114l-1.739-2.608a2.424,2.424,0,0,0-2.021-1.082H11.15L9.411,20.035l.75-2.249h2.767v2.429h2.429V16.791l3.565-9.508-2.273-.852-.616,1.64h-3.67L11.384,6.6a14.321,14.321,0,0,1,11.259-1.7V9.286a2.432,2.432,0,0,0,2.429,2.429h3.14A2.413,2.413,0,0,0,29.928,11l.17-.17.342-.826a14.548,14.548,0,0,1,2.28,4.136H27.013a2.42,2.42,0,0,0-2.395,2.022l-.725,4.178a2.416,2.416,0,0,0,1.2,2.533l2.629,1.778,1.77,4.427A14.52,14.52,0,0,1,19,33.571M29.7,23.06l-3.3-2.228-.121-.073.727-4.188h6.339a14.259,14.259,0,0,1-2.118,10.315Z" transform="translate(59 42)" fill="currentColor"/>
  </g>
</svg>
