<svg xmlns="http://www.w3.org/2000/svg" width="50" height="50" viewBox="0 0 50 50">
  <g id="H-054-meter-speed" transform="translate(-53 -36)">
    <rect id="area" width="50" height="50" transform="translate(53 36)" fill="none"/>
    <path id="icon" d="M36.132,23.066a16.888,16.888,0,0,0-2.718-9.178l-1.76,1.761a14.5,14.5,0,0,1,2.041,7.416Zm-2.438-12.9L31.97,8.438,21.527,18.881a4.817,4.817,0,0,0-2.461-.691,4.876,4.876,0,1,0,4.876,4.876,4.819,4.819,0,0,0-.691-2.462ZM19.066,25.5A2.438,2.438,0,1,1,21.5,23.066,2.438,2.438,0,0,1,19.066,25.5m0-17.066a14.517,14.517,0,0,1,7.415,2.041l1.772-1.771A17.038,17.038,0,0,0,2,23.066H4.438A14.645,14.645,0,0,1,19.066,8.438" transform="translate(58.868 44.029)" fill="currentColor" stroke="currentColor" stroke-width="0.5"/>
  </g>
</svg>
