<svg xmlns="http://www.w3.org/2000/svg" width="50" height="50" viewBox="0 0 50 50">
  <g id="H-058-moon" transform="translate(-53 -36)">
    <rect id="area" width="50" height="50" transform="translate(53 36)" fill="none"/>
    <path id="icon" d="M14.428,5.649A16.544,16.544,0,0,0,27.15,25.614a12.2,12.2,0,0,1-8.751,3.72c-.151,0-.305.005-.459,0A12.174,12.174,0,0,1,14.428,5.649M16.049,3a1.1,1.1,0,0,0-.192.018,14.371,14.371,0,0,0,2,28.511c.18.007.36,0,.538,0a14.345,14.345,0,0,0,11.745-6.1,1.108,1.108,0,0,0-.859-1.717,14.354,14.354,0,0,1-12.236-19.2,1.114,1.114,0,0,0-1-1.514" transform="translate(60.835 43.735)" fill="currentColor" stroke="currentColor" stroke-width="0.7"/>
  </g>
</svg>
