<svg xmlns="http://www.w3.org/2000/svg" width="50" height="50" viewBox="0 0 50 50">
  <g id="H-059-star-four" transform="translate(-53 -36)">
    <rect id="area" width="50" height="50" transform="translate(53 36)" fill="none"/>
    <path id="icon" d="M44.839,29.135l-8.551-3.1-3.11-8.56a2.157,2.157,0,0,0-4.044,0l-3.1,8.551-8.56,3.11a2.157,2.157,0,0,0,0,4.044l8.551,3.1,3.11,8.56a2.157,2.157,0,0,0,4.044,0l3.11-8.552,8.551-3.109a2.157,2.157,0,0,0,0-4.044m-9.292,5.123a2.157,2.157,0,0,0-1.286,1.286l-3.1,8.541-3.1-8.537a2.157,2.157,0,0,0-1.29-1.29l-8.537-3.1,8.537-3.1a2.157,2.157,0,0,0,1.29-1.29l3.1-8.537,3.1,8.537a2.157,2.157,0,0,0,1.286,1.286l8.537,3.1Z" transform="translate(46.843 29.843)" fill="currentColor" stroke="currentColor" stroke-width="0.7"/>
  </g>
</svg>
