<svg xmlns="http://www.w3.org/2000/svg" width="50" height="50" viewBox="0 0 50 50">
  <g id="H-050-knife-cut" transform="translate(-53 -36)">
    <rect id="area" width="50" height="50" transform="translate(53 36)" fill="none"/>
    <path id="icon" d="M48.545,25.225a4.224,4.224,0,0,0-5.985.011L16.327,52.143a1.207,1.207,0,0,0,.593,2.022,23.374,23.374,0,0,0,5.281.6,26.344,26.344,0,0,0,14.835-4.86,34.6,34.6,0,0,0,7.683-7.073,1.207,1.207,0,0,0-.112-1.578l-2.827-2.83,6.789-7.242a4.237,4.237,0,0,0-.024-5.96M42.119,42.19a34.024,34.024,0,0,1-6.5,5.76c-5.2,3.508-10.561,4.934-15.969,4.249L35.684,35.753ZM46.838,29.5l-.027.029-6.746,7.192-2.7-2.7,6.907-7.091a1.814,1.814,0,0,1,2.565,2.565Z" transform="translate(45.118 21.622)" fill="currentColor" stroke="currentColor" stroke-width="0.5"/>
  </g>
</svg>
