<svg xmlns="http://www.w3.org/2000/svg" width="50" height="50" viewBox="0 0 50 50">
  <g id="H-055-skull-head" transform="translate(-53 -36)">
    <rect id="area" width="50" height="50" transform="translate(53 36)" fill="none"/>
    <path id="icon" d="M34.679,29.819a4.4,4.4,0,1,0,4.4,4.4,4.4,4.4,0,0,0-4.4-4.4m0,6.282a1.884,1.884,0,1,1,1.884-1.884A1.884,1.884,0,0,1,34.679,36.1m11.307-6.282a4.4,4.4,0,1,0,4.4,4.4,4.4,4.4,0,0,0-4.4-4.4m0,6.282a1.884,1.884,0,1,1,1.884-1.884A1.884,1.884,0,0,1,45.985,36.1M40.332,16C31.326,16,24,23.045,24,31.7a15.619,15.619,0,0,0,7.538,13.235v2.469A2.513,2.513,0,0,0,34.05,49.92H46.614a2.513,2.513,0,0,0,2.513-2.513V44.939A15.619,15.619,0,0,0,56.664,31.7c0-8.659-7.326-15.7-16.332-15.7m6.929,27.119a1.256,1.256,0,0,0-.647,1.1v3.189H44.1V43.639a1.256,1.256,0,1,0-2.513,0v3.769H39.076V43.639a1.256,1.256,0,1,0-2.513,0v3.769H34.05V44.218a1.256,1.256,0,0,0-.647-1.1A13.142,13.142,0,0,1,26.513,31.7c0-7.274,6.2-13.191,13.819-13.191S54.151,24.43,54.151,31.7a13.144,13.144,0,0,1-6.891,11.415" transform="translate(37.519 28)" fill="currentColor" stroke="currentColor" stroke-width="0.3"/>
  </g>
</svg>
