<svg xmlns="http://www.w3.org/2000/svg" width="50" height="50" viewBox="0 0 50 50">
  <g id="H-051-door" transform="translate(-53 -36)">
    <rect id="area" width="50" height="50" transform="translate(53 36)" fill="none"/>
    <path id="icon" d="M51.009,55.119h-3.89V26.593A2.593,2.593,0,0,0,44.526,24H23.78a2.593,2.593,0,0,0-2.593,2.593V55.119H17.3a1.3,1.3,0,1,0,0,2.593H51.009a1.3,1.3,0,1,0,0-2.593M23.78,26.593H44.526V55.119H23.78ZM40.636,41.5a1.945,1.945,0,1,1-1.945-1.945A1.945,1.945,0,0,1,40.636,41.5" transform="translate(43.846 20.144)" fill="currentColor" stroke="currentColor" stroke-width="0.35"/>
  </g>
</svg>
