<svg xmlns="http://www.w3.org/2000/svg" width="50" height="50" viewBox="0 0 50 50">
  <g id="H-056-flying-saucer-ufo-space-ship" transform="translate(-53 -36)">
    <rect id="area" width="50" height="50" transform="translate(53 36)" fill="none"/>
    <path id="icon" d="M34.67,59.543a1.215,1.215,0,0,1-2.306.769l-1.215-3.645a1.215,1.215,0,0,1,2.306-.769Zm-8.443-4.476a1.215,1.215,0,0,0-1.215,1.215v4.86a1.215,1.215,0,0,0,2.43,0v-4.86a1.215,1.215,0,0,0-1.215-1.215m-5.691.062A1.215,1.215,0,0,0,19,55.9l-1.215,3.645a1.215,1.215,0,0,0,2.306.769L21.3,56.666a1.215,1.215,0,0,0-.769-1.537m23.918-11c0,2.464-2.031,4.692-5.719,6.271a32.681,32.681,0,0,1-12.508,2.234A32.681,32.681,0,0,1,13.719,50.4C10.031,48.823,8,46.595,8,44.131c0-1.271.557-3.158,3.215-4.936a20.646,20.646,0,0,1,6.862-2.711,9.666,9.666,0,0,1,14.984-1.7A9.848,9.848,0,0,1,34.445,36.5c6.276,1.419,10.008,4.251,10.008,7.632m-25.517-2.3v.456a1.2,1.2,0,0,0,.931,1.179,28.591,28.591,0,0,0,6.36.67,28.568,28.568,0,0,0,6.356-.664,1.2,1.2,0,0,0,.934-1.179V41.7a7.291,7.291,0,0,0-7.388-7.291,7.384,7.384,0,0,0-7.193,7.417m23.087,2.3c0-1.777-2.526-3.629-6.364-4.8a9.824,9.824,0,0,1,.289,2.368v.6a3.624,3.624,0,0,1-2.819,3.539,30.992,30.992,0,0,1-6.9.726,31.008,31.008,0,0,1-6.9-.726A3.624,3.624,0,0,1,16.506,42.3v-.465a9.915,9.915,0,0,1,.324-2.509c-3.859,1.163-6.4,3.024-6.4,4.809,0,2.874,6.487,6.075,15.8,6.075s15.8-3.2,15.8-6.075" transform="translate(51.774 13.833)" fill="currentColor" stroke="currentColor" stroke-width="0.35"/>
  </g>
</svg>
