<svg xmlns="http://www.w3.org/2000/svg" width="50" height="50" viewBox="0 0 50 50">
  <g id="H-053-trash-bin-clean-clear-purge-ram" transform="translate(-53 -36)">
    <rect id="area" width="50" height="50" transform="translate(53 36)" fill="none"/>
    <g id="Group_210" data-name="Group 210" transform="translate(0.496 -0.525)">
      <circle id="Ellipse_64" data-name="Ellipse 64" cx="1.806" cy="1.806" r="1.806" transform="translate(62 58.43)" fill="currentColor"/>
      <circle id="Ellipse_65" data-name="Ellipse 65" cx="1.806" cy="1.806" r="1.806" transform="translate(66.128 53.27)" fill="currentColor"/>
      <path id="Path_917" data-name="Path 917" d="M27.91.429a3.824,3.824,0,0,0-5.155,1.638L18.511,10.26a.991.991,0,0,0-.058.134,7.012,7.012,0,0,0-5.526,2.473,27.042,27.042,0,0,1-5.369,5.07A15.507,15.507,0,0,1,1.818,20.2,2.169,2.169,0,0,0,.192,21.4,1.921,1.921,0,0,0,.5,23.539,41.055,41.055,0,0,0,8.886,30.2a35.625,35.625,0,0,0,7.571,3.661,2.69,2.69,0,0,0,3.11-1.068,44.527,44.527,0,0,0,3.639-6.623c.952-2.17,1.772-4.407,2.557-6.64a6.219,6.219,0,0,0-.642-5.442l4.423-8.492A3.825,3.825,0,0,0,27.91.429m-4.458,11.9,4.062-7.8a1.537,1.537,0,1,0-2.728-1.418L20.754,10.9c.136.056.269.12.4.187l1.473.746a6.52,6.52,0,0,1,.824.5m.153,6.434c-.164.463-.334.945-.514,1.436l-9.284-4.871c.3-.334.586-.663.857-.98a4.546,4.546,0,0,1,5.457-1.223l1.473.748a4.005,4.005,0,0,1,2.01,4.891M8.762,19.882a20.306,20.306,0,0,0,3.412-2.823l.014.007,10.1,5.3c-.387,1.01-.787,2-1.176,2.883a41.969,41.969,0,0,1-3.448,6.271.4.4,0,0,1-.473.172c-.676-.229-1.64-.588-2.791-1.109a15.041,15.041,0,0,0,2.05-2.745,1.119,1.119,0,0,0-.414-1.549,1.168,1.168,0,0,0-1.575.429,11.3,11.3,0,0,1-2.217,2.8c-.681-.368-1.4-.781-2.128-1.248q-.895-.57-1.677-1.1a9.531,9.531,0,0,0,.891-.681,1.111,1.111,0,0,0,.107-1.594,1.183,1.183,0,0,0-1.637-.1,5.128,5.128,0,0,1-1.4.917,32.163,32.163,0,0,1-3.833-3.312,18.138,18.138,0,0,0,6.2-2.513" transform="translate(63.031 44.525)" fill="currentColor" stroke="currentColor" stroke-width="0.5" fill-rule="evenodd"/>
    </g>
  </g>
</svg>
