<svg xmlns="http://www.w3.org/2000/svg" width="50" height="50" viewBox="0 0 50 50">
  <g id="H-052-key-password" transform="translate(-53 -36)">
    <rect id="area" width="50" height="50" transform="translate(53 36)" fill="none"/>
    <g id="icon" transform="translate(61.364 44.366)">
      <path id="Path_287" data-name="Path 287" d="M24.575,2A10.691,10.691,0,0,0,14.343,15.8L2,28.14v7.129H9.129L21.472,22.926A10.694,10.694,0,1,0,24.575,2m0,19.011a8.333,8.333,0,0,1-2.414-.359L20.8,20.238l-1.006,1.006-3.78,3.78-1.638-1.637-1.68,1.68,1.638,1.638L12.448,28.59l-1.638-1.638-1.68,1.68,1.638,1.638L8.145,32.892H4.376V29.123L16.023,17.477l1.008-1.006-.413-1.363a8.317,8.317,0,1,1,7.958,5.9" transform="translate(-2 -2)" fill="currentColor" stroke="currentColor" stroke-width="0.5"/>
      <circle id="Ellipse_24" data-name="Ellipse 24" cx="2.376" cy="2.376" r="2.376" transform="translate(21.867 7.129)" fill="currentColor"/>
    </g>
  </g>
</svg>
