<svg xmlns="http://www.w3.org/2000/svg" width="50" height="50" viewBox="0 0 50 50">
  <g id="H-063-glow-spark-shine-light-star" transform="translate(-53 -36)">
    <rect id="area" width="50" height="50" transform="translate(53 36)" fill="none"/>
    <path id="Path_944" data-name="Path 944" d="M0,15.138C12.361,13.6,13.6,12.361,15.138,0c1.533,12.361,2.777,13.6,15.138,15.138-12.361,1.533-13.6,2.777-15.138,15.138C13.6,17.915,12.361,16.672,0,15.138" transform="translate(62.862 45.862)" fill="currentColor" stroke="currentColor" stroke-linecap="round" stroke-linejoin="round" stroke-width="1"/>
    <path id="Path_945" data-name="Path 945" d="M43.682,34.362c3.2-.4,3.523-.719,3.92-3.921.4,3.2.719,3.523,3.92,3.921-3.2.4-3.523.719-3.92,3.92-.4-3.2-.719-3.523-3.92-3.92" transform="translate(21.942 17.346)" fill="currentColor" stroke="currentColor" stroke-linecap="round" stroke-linejoin="round" stroke-width="1"/>
    <path id="Path_946" data-name="Path 946" d="M293.861,284.543c3.2-.4,3.523-.719,3.92-3.92.4,3.2.719,3.523,3.92,3.92-3.2.4-3.523.719-3.92,3.92-.4-3.2-.719-3.523-3.92-3.92" transform="translate(-211.414 -215.014)" fill="currentColor" stroke="currentColor" stroke-linecap="round" stroke-linejoin="round" stroke-width="1"/>
  </g>
</svg>
