<svg xmlns="http://www.w3.org/2000/svg" width="50" height="50" viewBox="0 0 50 50">
  <g id="H-061-glow-spark-shine-light-star" transform="translate(-53 -36)">
    <rect id="area" width="50" height="50" transform="translate(53 36)" fill="none"/>
    <path id="icon" d="M41.369,24.914,34.158,22.26,31.5,15.043a2.224,2.224,0,0,0-4.175,0l-2.657,7.208-7.216,2.655a2.224,2.224,0,0,0,0,4.175l7.207,2.671,2.655,7.212a2.224,2.224,0,0,0,4.175,0l2.655-7.211L41.362,29.1a2.224,2.224,0,0,0,0-4.175Zm-7.99,4.742a2.217,2.217,0,0,0-1.318,1.318l-2.655,7.19-2.649-7.2a2.217,2.217,0,0,0-1.312-1.312L18.256,27l7.19-2.655a2.217,2.217,0,0,0,1.312-1.312l2.655-7.19,2.655,7.19a2.217,2.217,0,0,0,1.318,1.318l7.19,2.655Zm.5-17.185A1.118,1.118,0,0,1,35,11.353h2.235V9.118a1.118,1.118,0,1,1,2.235,0v2.235h2.235a1.118,1.118,0,0,1,0,2.235H39.472v2.235a1.118,1.118,0,1,1-2.235,0V13.589H35a1.118,1.118,0,0,1-1.118-1.118m14.531,6.706A1.118,1.118,0,0,1,47.3,20.3H46.178v1.118a1.118,1.118,0,1,1-2.235,0V20.3H42.825a1.118,1.118,0,0,1,0-2.235h1.118V16.942a1.118,1.118,0,1,1,2.235,0V18.06H47.3a1.118,1.118,0,0,1,1.118,1.118" transform="translate(45.793 36.79)" fill="currentColor"/>
  </g>
</svg>
